<svg xmlns="http://www.w3.org/2000/svg" xmlns:xlink="http://www.w3.org/1999/xlink" id="Layer_1" x="0px" y="0px" viewBox="0 0 89 149" style="enable-background:new 0 0 89 149;" xml:space="preserve"><style type="text/css">	.st0{clip-path:url(#SVGID_00000089570209261155644720000000665723715758359486_);}	.st1{fill:#587307;}</style><g>	<defs>		<rect id="SVGID_1_" x="0.1" width="88.1" height="148.7"></rect>	</defs>	<clipPath id="SVGID_00000011752497809366095120000002138704544603006650_">		<use xlink:href="#SVGID_1_" style="overflow:visible;"></use>	</clipPath>	<g style="clip-path:url(#SVGID_00000011752497809366095120000002138704544603006650_);">		<path class="st1" d="M0.1,73.4c-0.1-2.4,0-4.8,0.3-7.2c0.1-0.6,0.2-1.2,0.4-1.8c0.4-1.2,0.7-2.4,0.8-3.7c0.2-1,0.5-2,0.9-2.9   c0.3-0.8,0.7-1.6,1-2.3c0.9-1.9,1.9-3.7,3.2-5.4c0.3-0.5,0.7-0.9,1-1.4c0.7-1.1,1.5-2.1,2.3-3.1c0.4-0.5,0.8-0.9,1.3-1.3   c1.3-1.2,2.6-2.5,3.9-3.7c1.4-1.3,3-2.4,4.7-3.3c1.1-0.5,2.2-1.2,3.3-1.8c2.3-1.2,4.7-2,7.1-2.5c1.7-0.4,3.4-0.7,5.1-1   c0.3-0.1,0.7-0.1,1-0.1c1.2-0.1,2.3-0.2,3.5-0.3c3-0.3,6.1-0.4,9.2-0.3c0.6,0,1.1,0.1,1.7,0.2c1.3,0.2,2.5,0.4,3.8,0.6   c2,0.4,3.9,0.6,5.8,1.1c1.1,0.3,2.2,0.7,3.3,1.2c1.5,0.7,2.9,1.4,4.3,2.1c2.9,1.5,5.5,3.4,7.8,5.8c0.6,0.7,1.2,1.4,1.8,2.2   c0.5,0.6,0.9,1.1,1.3,1.7c0.8,1,1.5,2.1,2,3.3c0.1,0.2,0.1,0.3,0.2,0.5c0.9,1.4,1.6,3,2.5,4.5c0.5,0.9,0.9,1.8,1.2,2.8   c0.1,0.5,0.3,1,0.5,1.4c0.6,1.4,1.1,2.9,1.3,4.5c0.2,1,0.3,2,0.5,3c0.3,1.5,0.5,3,0.6,4.5c0,0.3,0,0.6,0.1,0.8   c0.1,0.3,0.1,0.6,0.1,0.8c-0.1,0.7-0.1,1.5,0,2.2c-0.1,1.4-0.1,2.8-0.1,4.2c0.1,1.2,0,2.4-0.4,3.5c-0.4,1.5-0.8,2.9-1.1,4.4   c-0.4,1.8-1.1,3.4-2,5c-0.4,0.8-0.8,1.6-1.2,2.4c-1,2.1-2.1,4-3.3,6c-0.7,1.3-1.6,2.4-2.7,3.5c-0.5,0.5-1,1.1-1.5,1.7   c-0.3,0.4-0.6,0.7-1,1c-2.4,1.8-4.7,3.8-7.2,5.7c-0.4,0.3-0.9,0.6-1.3,0.8l-1.2,0.8c-1.4,0.8-2.9,1.6-4.4,2.2   c-0.3,0.1-0.5,0.2-0.8,0.2c-1,0.1-2,0.3-3,0.6c-0.9,0.2-1.7,0.3-2.6,0.4c-1.2,0.1-2.4,0.4-3.6,0.9c-0.7,0.3-1.4,0.4-2.1,0.3   c-0.8-0.1-1.6-0.1-2.4-0.1c-2.5-0.1-5-0.4-7.4-0.9c-0.1,0-0.1,0-0.2,0c-2,0-3.8-0.7-5.7-1.2l-1.8-0.5c-0.3-0.1-0.7-0.2-1-0.3   c-2.1-0.7-4.1-1.6-6.1-2.6c-1.6-0.8-3.2-1.8-4.7-2.8c-0.1-0.1-0.3-0.2-0.4-0.3c-2.4-1.5-4.7-3.3-6.8-5.3c-2.1-1.9-3.9-4.1-5.3-6.6   c-0.4-0.6-0.8-1.2-1.2-1.9c-0.6-1.1-1.1-2.2-1.5-3.4c-0.3-1.1-0.8-2.3-1.1-3.4c-0.5-1.4-0.9-2.9-1.3-4.3c-0.4-1.5-0.6-3-0.8-4.6   C0.1,77.8,0,75.6,0.1,73.4z M24.6,99.5C24.6,99.5,24.7,99.5,24.6,99.5C24.6,99.5,24.6,99.6,24.6,99.5L24.6,99.5z M24.1,101.9   c-0.1,0.1-0.3,0.1-0.5,0.1c-0.2,0-0.3-0.1-0.5-0.2c-0.1,0-0.1-0.1-0.2-0.1c-0.1,0-0.1,0-0.2,0c-0.1,0-0.1,0-0.2,0.1   s-0.1,0.1-0.2,0.1c-0.3,0.5-0.7,0.9-1.2,1.2c-0.1,0.1-0.1,0.3-0.1,0.5c0,0.2,0.1,0.3,0.2,0.5c0,0.1,0,0.1,0.1,0.1   c0,0,0.1,0.1,0.1,0.1c0,0,0.1,0,0.2,0c0.1,0,0.1,0,0.2,0c0.2-0.1,0.5-0.2,0.8-0.1c0.1,0,0.2,0.1,0.3,0.1s0.1,0.1,0.2,0.2   c0,0.1,0.1,0.2,0,0.3s0,0.2-0.1,0.3c-0.2,0.3-0.4,0.5-0.6,0.8c0,0.1,0,0.2,0,0.3c0.1,0.1,0.1,0.2,0.2,0.2c0,0,0.1,0,0.1,0   s0.1,0,0.1,0c0,0,0.1,0,0.1-0.1c0,0,0-0.1,0-0.1c0-0.1,0-0.2,0.1-0.3c0-0.1,0.1-0.2,0.2-0.2c0.1-0.1,0.2-0.1,0.3-0.1   c0.1,0,0.2,0,0.3,0c0.1,0,0.1,0,0.2,0c0.1,0,0.1-0.1,0.2-0.2c0-0.1,0.1-0.2,0-0.2l-0.1-0.5c-0.3-0.6-0.2-0.9,0.4-1.2l0.3-0.1   C24.6,102.7,24.4,102.3,24.1,101.9l0.2,0.1L24.1,101.9z M76.1,52.7c0.6-0.2,0.6-0.2,0.5-0.8c0-0.2,0-0.3,0-0.5   c0-0.1,0-0.2,0.1-0.2c0.1-0.1,0.1-0.1,0.2-0.1c0.1,0,0.3-0.1,0.4-0.1s0.2-0.2,0.3-0.3c0.2-0.3,0.4-0.2,0.7,0   c0.1,0.1,0.1,0.2,0.1,0.3c0,0.1,0,0.2-0.1,0.3c-0.1,0.1-0.3,0.3-0.5,0.4c-0.1,0.1-0.2,0.3-0.2,0.5c0,0.1,0.1,0.2,0.1,0.3l0.1-0.1   c0.2-0.2,0.4-0.3,0.6-0.2c0.2,0.1,0.3,0.3,0.4,0.5c0,0.1,0.1,0.2,0.1,0.3c0,0.2,0.1,0.4,0.2,0.6c0.6,0.8,0.9,1.8,1.5,2.5   c0,0,0,0,0.1,0.1s0,0.1,0,0.1c0,0,0,0.1,0,0.1c0,0,0,0-0.1,0.1c-0.1,0.1-0.2,0.1-0.3,0.1c-0.2,0-0.3-0.1-0.4-0.2   c-0.2-0.2-0.3-0.4-0.5-0.6c0,0-0.1,0-0.2,0c-0.1,0-0.1,0.1-0.1,0.1c-0.1,0.3-0.1,0.7-0.1,1c-0.1,0.7-0.4,0.8-1,0.6   c0,0-0.1-0.1-0.1-0.1c-0.3-0.1-0.4,0-0.4,0.3c0,0.3,0,0.4,0,0.7c0.1,0,0.3,0,0.4,0c0.1,0,0.2,0,0.3,0.1c0.1,0.1,0.2,0.1,0.2,0.2   c0.1,0.1,0.1,0.2,0.1,0.3c0,0.1-0.1,0.2-0.2,0.2c-0.4-0.1-0.7,0-1.1,0.2c-0.1,0.1-0.3,0-0.4-0.1c-0.1-0.1-0.2-0.2-0.3-0.2   c-0.1,0-0.3-0.1-0.4,0c-0.5,0.1-1.1,0-1.6-0.3c-0.5-0.3-1-0.4-1.5-0.3c-0.6,0-1.2,0-1.8-0.2c-0.2,0-0.3-0.2-0.5-0.1   c-0.7,0.2-1.5,0.3-2.2,0.3c-0.2,0-0.4,0.1-0.6,0.2c-0.2,0.1-0.3,0.3-0.4,0.5c-0.1,0.2-0.2,0.4-0.3,0.6c0,0.1-0.1,0.1-0.1,0.1   c-0.1,0-0.1,0-0.2,0c-0.1,0-0.1,0-0.2,0c-0.1,0-0.1-0.1-0.1-0.1c-0.1-0.1-0.2-0.3-0.2-0.5c0-0.2-0.1-0.4-0.2-0.6   c0-0.1-0.2-0.2-0.2-0.2c-0.1,0-0.3,0.1-0.4,0.3c-0.1,0.2-0.1,0.3,0,0.5c0.1,0.3,0.2,0.6,0.3,1c0,0.1,0,0.1,0,0.2   c0,0.1,0,0.1-0.1,0.1c0,0-0.1,0.1-0.1,0.1c-0.1,0-0.1,0-0.2,0c-0.2,0-0.3-0.1-0.4-0.2c-0.1,0-0.2,0-0.3,0c-0.1,0-0.2,0.1-0.2,0.1   c-0.1,0.1-0.1,0.1-0.1,0.2c0,0.1,0,0.2,0,0.3c0,0.1,0.1,0.2,0.1,0.3c0.2,0.6-0.1,1-0.7,0.8c-0.1,0-0.2-0.1-0.3-0.1   c-0.6,0.5-1.1,1-1.4,1.7l0.2,0.4c0.1,0.1,0.1,0.2,0.1,0.3c0,0.1-0.1,0.2-0.1,0.3c0,0-0.1,0.1-0.1,0.1c0,0-0.1,0-0.2,0   c-0.1,0-0.1,0-0.2,0c0,0-0.1-0.1-0.1-0.1c-0.1-0.1-0.1-0.1-0.2-0.1c-0.1,0-0.2,0-0.2,0c-0.1,0-0.2,0-0.2,0.1   c-0.1,0-0.1,0.1-0.2,0.2c-0.3,0.4-0.3,0.3-0.1,0.9c0.1,0.1,0.1,0.3,0.2,0.5c0,0.1,0,0.1,0,0.2s0,0.1-0.1,0.1c0,0-0.1,0.1-0.1,0.1   c0,0-0.1,0-0.2,0c-0.1,0-0.2,0-0.3-0.1c-0.2-0.1-0.4-0.3-0.5-0.4c-0.1,0-0.3,0.1-0.4,0.1c0.5,0.5,0.7,1.1,0.8,1.8   c-0.5-0.2-0.9-0.5-1.2-1c0,0-0.1,0-0.1,0c0,0-0.1,0-0.1,0c-0.1,0.1-0.1,0.2-0.1,0.3c0,0,0,0.1,0,0.2c0.4,1,1.1,1.8,2,2.4   c0.1,0.1,0.3,0.1,0.5,0.1c0.1,0,0.3-0.2,0.2-0.4c0-0.1-0.1-0.2-0.1-0.3c-0.1-0.1-0.2-0.2-0.3-0.2C60.1,69,60,69,59.8,69   c-0.4-0.1-0.5-0.4-0.4-0.9c0-0.1,0.1-0.1,0.2-0.1c0.6,0.3,1.3,0.5,2,0.7c-0.1,0.4,0,0.8,0.3,0.8c0,0,0.1,0,0.2,0   c0.3-0.1,0.6-0.3,0.7-0.5c0.2-0.2,0.3-0.6,0.3-0.9c0-0.5-0.1-0.9-0.2-1.3c-0.1-0.1-0.2-0.3-0.3-0.3c-0.1-0.1-0.3-0.1-0.5-0.2   c-0.1-0.1-0.2-0.1-0.2-0.2c-0.1-0.1-0.1-0.2-0.1-0.3c0-0.2,0.1-0.5,0.3-0.5c0.2,0,0.3-0.1,0.4-0.2c0.1-0.1,0.2-0.3,0.2-0.4   c0.1-0.2,0.1-0.4,0.2-0.6c0-0.1,0.1-0.1,0.2-0.2c0.1,0,0.2,0,0.2,0c0.2,0,0.3,0.1,0.4,0.2c0.2,0.2,0.4,0.1,0.5-0.1   c0.2-0.2,0.2-0.3,0.3-0.3c0.1,0,0.2,0,0.3,0.1c0.1,0.1,0.2,0.1,0.2,0.2c0.2,0.3,0.4,0.7,0.7,0.9c0.1,0.1,0.2,0.3,0.3,0.5   c0,0.2,0,0.4,0,0.6c0,0.1,0,0.3,0.1,0.4c0.1,0.1,0.2,0.2,0.3,0.2c0.2,0,0.4,0,0.6,0c0.2-0.1,0.3-0.2,0.4-0.3c0,0,0.1-0.1,0.1-0.1   c0-0.1,0-0.1,0-0.2c-0.1-0.2-0.1-0.3-0.2-0.4c-0.1-0.1-0.2-0.2-0.3-0.4c0-0.1-0.1-0.2,0-0.3c0-0.1,0.1-0.2,0.1-0.3   c0.1-0.1,0.2-0.1,0.3-0.1c0.1,0,0.2,0,0.3,0.1c0.1,0.2,0.3,0.4,0.4,0.5s0.4,0.5,0.6,0.6c0.5,0.2,0.9,0.6,1.3,1   c0.1,0.1,0.3,0.1,0.5,0.1c0-0.4,0-0.8,0-1.2s0.5-0.4,0.6-0.3l0.9,0.9c0.3,0.3,0.3,0.3,1.1,0.3c0.1,0,0.2,0,0.3,0.1   c0.2,0.2,0.3,0.4,0.5,0.7c0,0.1,0,0.2-0.1,0.3c-0.1,0.1-0.2,0.3-0.3,0.4c0.1,0.1,0.1,0.3,0.2,0.5c0,0.2,0.1,0.4,0.1,0.7   c-0.1,0-0.2,0.1-0.3,0.1c-0.1,0-0.2,0-0.3,0c-0.1,0-0.1,0-0.2,0c0,0-0.1,0.1-0.1,0.1c0,0,0,0.1,0,0.2c0,0.1,0,0.1,0.1,0.1   c0.1,0.1,0.2,0.2,0.3,0.3c0.1,0.1,0.4-0.2,0.4-0.4c0-0.2,0-0.3,0-0.5s0.2,0,0.3,0c0.2-0.3,0.3-0.6,0.4-0.9c0,0,0.1-0.1,0.1-0.1   c0,0,0.1-0.1,0.1-0.1c0.1,0,0.1,0,0.2,0c0.1,0,0.1,0,0.1,0.1c0.2,0.1,0.3,0.3,0.5,0.4s0.4,0.1,0.7-0.1c0.2-0.2,0.8,0,0.9,0.4   c0,0.1,0,0.2,0,0.3c0,0.2-0.1,0.3-0.1,0.5c0,0,0,0.1,0,0.1c0,0,0,0.1,0,0.1c0,0,0,0.1,0.1,0.1c0,0,0.1,0.1,0.1,0.1   c0.1,0.1,0.2,0,0.3-0.1c0.1-0.1,0.3-0.2,0.4-0.2c0.2,0.1,0.4,0.2,0.5,0.4c0.1,0.1,0.1,0.3,0.1,0.5c0,0.2,0,0.3,0.1,0.5   c0.1,0.2,0.2,0.3,0.3,0.4c0.1,0.1,0.2,0.3,0.2,0.4c0,0.1,0,0.2,0,0.3c0,0.1-0.1,0.2-0.2,0.3c-0.1,0.1-0.2,0.1-0.3,0.1   c-0.1,0-0.2,0-0.3-0.1c-0.1-0.2-0.1-0.4-0.2-0.6c0,0-0.1-0.1-0.1-0.1c0,0-0.2,0-0.2,0.1c-0.2,0.8-0.1,1.6,0.3,2.3   c0.1,0.2,0.2,0.4,0.3,0.6c0.8,1,0.9,2.3,1.4,3.4c0,0.1-0.1,0.3-0.2,0.4c-0.1,0.1-0.2,0.2-0.4,0.3c-0.1,0.1-0.3,0.1-0.5,0.1   c-0.9,0-1.7-0.2-2.5-0.5c-0.5-0.2-0.9-0.4-1.3-0.7c-0.4-0.3-0.8-0.7-1.2-1.1c-0.6-0.2-1.2-0.3-1.9-0.3c-1.8-0.1-3.5-0.5-5.1-1.3   c-0.5-0.2-1.1-0.4-1.7-0.5c-0.5-0.1-1-0.2-1.4-0.2l-1.9-0.4c-0.3-0.1-0.7,0-1,0.1c-0.3,0.1-0.6,0.3-0.7,0.6   c-0.5,0.6-0.7,1.3-0.7,2c0,0.7-0.3,1.3-0.7,1.9c-0.6,0.8-1,1.7-1.2,2.7c-0.1,0.5,0,1-0.1,1.5c-0.1,1.2,0.1,2.4,0.7,3.5   c0.3,0.7,0.6,1.4,0.8,2.1c0.1,0.2,0.1,0.5,0.2,0.7c0.2,0.7,0.5,1.4,1.1,2c0.4,0.4,0.8,0.9,1.1,1.4c1,1.3,1.6,3,1.6,4.7   c0,0.5,0,1.1-0.1,1.6c-0.2,0.7-0.4,1.4-0.7,2c-0.2,0.4-0.3,0.9-0.2,1.3c0,0.3,0,0.6,0,0.9c-0.1,1.5,0.1,3,0.6,4.4   c0.1,0.2,0.2,0.4,0.4,0.6c0.1,0,0.2-0.1,0.3-0.2c0.2-0.2,0.5-0.4,0.7-0.7l-0.3-0.4c-0.2-0.3-0.2-0.5,0-0.6   c0.1-0.1,0.1-0.1,0.2-0.1c0.1,0,0.2,0,0.2,0c0.3,0.1,0.5,0.3,0.8,0.4c0.4-0.3,0.7-0.6,1-1c0.3-0.4,0.4-0.8,0.5-1.3   c0.5-1.5,1.3-2.9,2.4-4.1c0.9-0.8,1.5-1.7,2-2.8c0.5-0.7,1-1.4,1.6-2.1c0.6-0.5,1.1-1.2,1.7-1.7c0.4-0.4,0.7-0.9,0.8-1.4   c0.2-0.7,0.4-1.4,0.6-2.1c0-0.1-0.1-0.3-0.2-0.4c-0.1-0.1-0.2-0.1-0.3-0.1c-0.1-0.1-0.2-0.2-0.3-0.3c-0.1-0.1-0.1-0.3,0-0.4   c0.1-0.3,0.3-0.4,0.6-0.2l0.6,0.3c0.6-0.6,1.1-1.2,1.7-1.8c0.5-0.6,0.8-1.3,0.9-2c0.1-0.7,0.2-1.5,0.2-2.2c0-0.3,0.1-0.5,0.2-0.9   l0.8-0.1c0.1-0.3,0.2-0.6,0.3-0.9c0.4-0.7,0.5-1.5,0.4-2.3c0-0.2,0-0.5,0.1-0.7c0.1-0.1,0.1-0.3,0.1-0.4c0-0.1-0.1-0.3-0.2-0.4   c-0.1-0.1-0.1-0.2-0.2-0.4c0-0.1,0-0.3,0-0.4c0,0,0-0.1,0.1-0.1c0,0,0.1-0.1,0.1-0.1c0.1,0,0.1,0,0.2,0c0.1,0,0.1,0,0.1,0.1   c0.2,0.3,0.3,0.6,0.5,0.8c0.5,0.1,1,0,1.4-0.2c0.2-0.1,0.5-0.2,0.8-0.3c0.2,0,0.4-0.1,0.6-0.3c0.2-0.2,0.3-0.3,0.3-0.6   c0.1-0.5,0.5-0.5,0.8-0.2c0.2,0.2,0.3,0.5,0.5,0.7c0.1,0.1,0.3,0.2,0.5,0.2c0.2,0,0.4,0,0.5-0.1c0.1-0.1,0.1-0.2,0.2-0.3   c0.1-0.3,0-0.7-0.1-1c-0.1-0.2-0.2-0.4-0.3-0.6c-0.1-0.1-0.1-0.3-0.1-0.4c0-0.1,0.1-0.3,0.2-0.4c0.2-0.2,0.3-0.4,0.4-0.7   c0.1-0.3,0.1-0.5,0-0.8c-0.1-0.7-0.1-1.3-0.3-2c-0.3-2.1-0.6-4.1-1-6.2c-0.2-1.2-0.5-2.3-0.9-3.4c-0.4-1.1-0.8-2.2-1.2-3.3   c-0.1-0.3-0.3-0.6-0.5-0.8c-0.1-0.1-0.3-0.3-0.2-0.4c0-0.6-0.2-1.2-0.5-1.7c-1.2-2.3-2.5-4.6-3.9-6.8c-0.4-0.6-0.8-1.1-1.2-1.6   c-0.1-0.1-0.2-0.1-0.3-0.2c-0.1,0-0.2,0-0.3,0c0.1-0.2,0-0.3-0.2-0.3c0,0-0.1,0-0.1,0c-0.1,0.1,0,0.2,0.1,0.2c0.1,0,0.2,0,0.3,0   c0,0.2,0.1,0.4,0.1,0.7c0,0.1,0,0.2-0.1,0.2c0,0.1-0.1,0.1-0.2,0.1c-0.1,0-0.3,0-0.4,0c-0.1,0-0.3-0.1-0.4-0.1   c-0.2-0.1-0.4-0.3-0.6-0.3c-0.2,0-0.3,0.1-0.4,0.2s0,0.1,0,0.2c0,0.1,0,0.2,0,0.3c0,0.1,0,0.2-0.1,0.3c-0.1,0.1-0.1,0.1-0.2,0.2   c-0.1,0.1-0.2,0.1-0.3,0.1c-0.3,0.1-0.5,0.2-0.7,0.4c-0.4-0.1-0.7-0.2-1.1-0.3c-0.2,0-0.3,0-0.5,0c-0.1,0-0.3,0.1-0.4,0.2   c0,0.2,0,0.3,0.1,0.4c0.1,0.1,0.2,0.2,0.3,0.3c0.1,0.1,0.1,0.2,0.1,0.3c0,0.1-0.1,0.4-0.2,0.4c-0.1,0-0.4,0-0.6,0   c-0.1,0-0.3,0-0.4,0c-0.1,0-0.1,0.2-0.2,0.2c0,0,0,0,0,0.1s0,0,0,0.1c0.2,0.1,0.3,0.3,0.5,0.4c0.1,0,0.1,0.1,0.2,0.2   c0,0.1,0.1,0.2,0.1,0.2c0,0.1,0,0.2,0,0.2c0,0.1-0.1,0.2-0.1,0.2l-0.2,0.3l1.1,0.3c0,0,0.1-0.1,0.1-0.1c0,0,0-0.2,0.1-0.3   c0.1-0.5,0.1-0.5,0.6-0.4c0.1,0,0.3,0,0.4,0c0.1,0,0.3-0.1,0.4-0.2c0,0,0.1-0.1,0.1-0.1c0.1,0,0.1,0,0.2,0c0.1,0,0.1,0,0.1,0.1   c0,0,0.1,0.1,0.1,0.1c0.2,0.2,0.3,0.4,0.5,0.6c0,0,0.2,0,0.3-0.1c0.2-0.2,0.1-0.5,0.1-0.8c0-0.1,0-0.1,0.1-0.2   c0-0.1,0.1-0.1,0.2-0.1c0.1,0,0.1,0,0.2,0c0.1,0,0.1,0,0.2,0.1c0.2,0.1,0.3,0.3,0.4,0.5c0,0.4,0.2,0.7,0.5,1   C76.2,51.9,76.1,52.3,76.1,52.7c-0.4-0.1-0.8-0.3-1.2-0.4c-0.2,0-0.4,0-0.6,0c-0.2,0-0.4,0.3-0.4,0.7c0,0.1,0,0.2,0.1,0.2   c0,0.1,0.1,0.1,0.2,0.1c0.2,0.1,0.5,0.2,0.7,0.3c0.1,0.1,0.3,0.1,0.5,0c0.2-0.1,0.4-0.2,0.5-0.4C76,53.1,76.1,52.9,76.1,52.7z    M72.5,96.6c-0.1,0.1-0.2,0.2-0.3,0.3c-0.7,1-1.2,2.1-2,3c-0.2,0.2-0.1,0.6-0.2,0.8c-0.1,0.5-0.3,0.9-0.8,0.8c-0.1,0-0.2,0-0.2,0   c-0.1,0-0.1,0.1-0.2,0.1c-0.5,0.5-1,1.2-1.3,1.9c-0.3,0.9-0.7,1.8-1,2.7c-0.1,0.3-0.3,0.6-0.6,0.7c-1,0.7-2,1.4-2.9,2.3   c-0.1,0.1-0.3,0.2-0.4,0.3c-0.3-0.1-0.7-0.2-1-0.3c-0.2-0.1-0.3-0.2-0.4-0.3c-0.1-0.1-0.2-0.3-0.2-0.5c0-0.8-0.2-1.7-0.5-2.4   c-0.4-1-0.6-2.1-0.5-3.2c0-1.5,0.2-3,0.8-4.4c0.1-0.3,0.2-0.5,0.3-0.8c0.2-1.3-0.1-2.5-0.7-3.6c-0.4-0.6-0.8-1.2-1.2-1.8   c-0.7-0.9-1.3-1.8-1.6-2.9c-0.4-1.1-0.8-2.2-1.3-3.2c-0.6-1.1-0.8-2.4-0.6-3.7c0-0.2,0-0.5,0-0.7c0-1.5,0.5-3,1.4-4.2   c0.4-0.5,0.6-1.1,0.7-1.7c0-0.3,0.1-0.6,0.1-0.8c0-0.4,0.2-0.8,0.4-1.1c0.3-0.5,0.7-0.8,1.2-1.2c0.2-0.2,0.5-0.4,0.9-0.4   c0.3-0.1,0.7,0,1,0.1c0.4,0.1,0.8,0.3,1.2,0.4c0.4,0.1,0.9,0.2,1.3,0.2c0.4,0,0.8,0.1,1.2,0.2c0.7,0.1,1.5,0.4,2.1,0.7   c0.3,0.1,0.6,0.3,0.9,0.3c1.4,0.2,2.8,0.9,4.3,0.8c0.2,0,0.4,0,0.6,0.1c0.2,0,0.4,0.1,0.6,0.2c0.2,0.1,0.4,0.3,0.5,0.4   c0.5,0.7,1.2,1.2,1.9,1.5c0.2,0.1,0.5,0.3,0.7,0.3c0.4,0.1,0.8,0.1,1.3,0.1c0.1,0,0.3-0.2,0.3-0.4c0-0.4-0.1-0.8-0.3-1.1l-1.1-2.1   c-0.4-0.7-0.6-1.5-0.5-2.3c0-0.2,0-0.5,0-0.7c0-0.2,0-0.3-0.1-0.5c-0.2-0.4-0.6-0.8-1-1c-0.1,0-0.1,0-0.2,0   c-0.1,0-0.1,0.1-0.2,0.1c0,0-0.1,0.1-0.1,0.1c-0.2,0.7-0.5,1.4-0.9,2.1c-0.1,0.1,0,0.4-0.1,0.7c-0.1,0.2,0,0.6,0,0.8   c0,0.3-0.6,0.5-0.8,0.3s-0.5-0.6-0.7-0.9c-0.1-0.1-0.1-0.2-0.2-0.2c-0.1,0-0.2,0-0.3,0c-0.3,0.2-0.6,0.3-0.8,0.5   c-0.5,0.2-1,0.3-1.6,0.1c-0.1-0.1-0.3-0.2-0.3-0.3c-0.1-0.1-0.1-0.2-0.1-0.3c0-0.1,0.1-0.2,0.2-0.3c0.8-0.5,1.5-1.3,2-2.1   c0.4-0.6,0.7-1.3,0.7-2c0-0.1,0-0.1,0-0.2c0-0.1-0.1-0.1-0.1-0.2c0,0-0.1-0.1-0.2-0.1c-0.1,0-0.1,0-0.2,0c-0.6,0.1-1.2,0-1.7-0.2   c-0.5-0.2-1.1-0.2-1.6-0.1c-0.5,0.1-1,0.1-1.5-0.1c-0.5-0.2-0.9-0.5-1.2-0.9c-0.1-0.1-0.2-0.2-0.3-0.2c-0.2-0.1-0.4-0.1-0.6-0.1   c-0.1,0-0.1,0-0.1,0.1c0,0-0.1,0.1-0.1,0.1c-0.1,0.4-0.1,0.9,0.1,1.3c0.1,0.5,0.1,1.1-0.1,1.6c-0.2,0.5-0.6,1-1,1.3   c-0.5,0.4-1,0.6-1.6,0.6s-1.2-0.1-1.7-0.4c-0.6-0.4-1.2-0.9-1.6-1.5c-0.5-0.7-0.9-1.4-1.3-2.1c-0.1-0.1-0.1-0.2-0.1-0.3   c0-0.1,0-0.2,0.1-0.3c0.4-0.7,0.8-1.3,1.4-1.8c0.4-0.3,0.8-0.6,1.1-1c0.8-0.6,1.6-1.4,2.2-2.2c0.8-1.1,1.7-2.1,2.7-3   c0-0.2,0.1-0.4,0.1-0.5c0-0.2,0.1-0.3,0.1-0.5c0.1-0.1,0.2-0.3,0.3-0.4c0.3-0.3,0.8-0.4,1.2-0.4c0.7,0.1,1.4,0,2.1-0.2   c0.2,0,0.3,0,0.5,0c0.5,0.1,1.1,0.1,1.6-0.1c0.2-0.1,0.4-0.1,0.5-0.1c0.2,0,0.4,0.1,0.5,0.2c0.2,0.1,0.4,0.2,0.6,0.2   c0.2,0,0.4,0,0.6-0.1c0.3-0.1,0.5-0.1,0.8,0l1.5,0.6c0.1,0,0.4,0,0.4-0.2c0.1-0.3,0.2-0.5,0.3-0.7c0.2-0.2,0.4-0.4,0.7-0.4   c0.2-0.1,0.4-0.1,0.6-0.2c0.2,0,0.4-0.1,0.6-0.2c0.1,0,0.2-0.1,0.3-0.2c0.1-0.1,0.1-0.2,0.1-0.3c0-0.1,0-0.2,0-0.3   c0-0.1-0.1-0.2-0.2-0.3c-0.7-0.7-0.7-0.7-1.5-0.2c-0.2,0.2-0.4,0.3-0.6,0.5c-0.6,0.5-1.3,0.8-2.1,0.8c-0.2,0-0.4,0-0.6-0.1   c-0.2-0.1-0.3-0.2-0.5-0.3c-0.1-0.1-0.2-0.2-0.2-0.3S72,55,72,54.8c0.2-0.9,0.5-1.7,1.1-2.4c-0.2,0-0.3-0.2-0.4-0.1   c-0.2,0-0.4,0.1-0.6,0.2c-0.2,0.1-0.3,0.2-0.4,0.4c-0.5,0.7-1.2,1.3-1.9,1.8c-0.2,0.2-0.5,0.3-0.7,0.3C68.5,55,67.9,55,67.3,55   c-0.2,0-0.3-0.1-0.5-0.1c-0.1,0-0.2-0.1-0.2-0.2c-0.1-0.1-0.1-0.2-0.1-0.3s0-0.2,0-0.3c0-0.1,0-0.2,0.1-0.3   c0.2-0.3,0.4-0.5,0.6-0.8c0.2-0.2,0.4-0.5,0.6-0.8c0.2-0.6,0.5-1.1,0.9-1.6c0.1-0.1,0.1-0.2,0.1-0.3c0-0.1,0-0.2-0.1-0.3   c-0.1-0.3-0.3-0.6-0.4-0.9c0-0.1,0-0.3,0-0.4c0-0.1,0.1-0.2,0.2-0.3c0.4-0.2,0.8-0.6,1-1c0.5-1.3,0.7-1.1,1.9-1   c0.3-0.3,0.6-0.6,0.9-0.9c0.4-0.2,0.8-0.4,1.2-0.6l1.6-0.7c0-0.1,0-0.2,0-0.3c0-0.1-0.1-0.2-0.2-0.3c-0.7-0.8-1.5-1.5-2.3-2.1   c-0.3-0.2-0.6-0.5-0.9-0.7c-1.6-1.4-3.3-2.5-5.2-3.4c-0.8-0.3-1.5-0.7-2.2-1.1c-1.1-0.6-2.3-1.2-3.5-1.5c-0.7-0.2-1.4-0.4-2.1-0.5   c-1.3-0.3-2.6-0.6-3.9-0.9c-2-0.3-3.9-0.6-5.9-0.8c-0.4,0-0.9-0.1-1.3-0.1c-3.1,0-6.2,0.2-9.3,0.5c-1.8,0.2-3.5,0.5-5.2,0.9   c0,0.5,0.1,0.6,0.4,0.5l0.3-0.2l1.9,1.3c0.6-0.3,1.3,0.2,2-0.2c0,0,0.2,0,0.3,0.1c0.2,0.2,0.6,0.3,0.7,0.7h0.3H39c0,0,0,0,0.1-0.1   c-0.1,0-0.2,0-0.2,0l-0.3,0c0-0.5,0-1,0-1.5c0-0.2,0.3-0.4,0.5-0.3c0.2,0.1,0.3,0.1,0.4,0.2c0.3,0.5,0.7,0.9,1.2,1.2   c0.1,0.1,0.2,0.1,0.3,0.1s0.2-0.1,0.3-0.2c0.1-0.1,0.2-0.3,0.3-0.4c0.1-0.1,0.3-0.2,0.6,0c0.1,0.1,0.2,0.2,0.4,0.3   c0.3,0.2,0.6,0,0.7-0.4c0.1-0.4,0.3-0.4,0.5-0.2c0.3,0.3,0.6,0.7,0.9,1c0,0,0.1,0,0.1,0c0,0,0.1,0,0.1,0c0,0,0,0,0.1,0   c0,0,0,0,0-0.1c0-0.2,0-0.4,0-0.7c0,0,0.1-0.1,0.1-0.1s0.2,0,0.3,0c0.1,0.1,0.2,0.2,0.3,0.4c0.4,0.7,0.4,0.7,1.1,0.2l0.3-0.2   l1,0.4l0.2-0.1c0.1-0.1,0.1-0.2,0.2-0.3c0.1-0.1,0.1-0.1,0.2-0.1c0.1,0,0.2,0,0.2,0c0.1,0.1,0.3,0.2,0.4,0.3   c0.3,0.2,0.3,0.2,0.7-0.1c0.1-0.1,0.1-0.2,0.2-0.2c0.1-0.1,0.3-0.1,0.5-0.1c0.7,0.2,1.2,0.8,2,0.6c0.1,0,0.3,0.1,0.4,0.2   s0.4,0.4,0.6,0.6c0.2-0.2,0.4-0.5,0.6-0.7c0-0.1,0.1-0.1,0.2-0.1c0.1,0,0.1-0.1,0.2-0.1c0.1,0,0.1,0,0.2,0c0.1,0,0.1,0.1,0.2,0.1   c0.1,0.1,0.3,0.2,0.4,0.3c0.2,0.1,0.3,0.1,0.5,0c0.1,0,0.2,0,0.2,0c0.1,0,0.2,0.1,0.2,0.1c0.2,0.2,0.6,0.3,0.9,0.4   c0.2,0,0.3,0.1,0.4,0.2c0.3,0.3,0.5,0.6,0.7,0.9c0.1,0.1,0.1,0.2,0.1,0.3c0,0.1,0,0.2,0,0.3c0,0.1-0.1,0.2-0.2,0.2   c-0.1,0-0.2,0-0.2,0c-0.1,0-0.1-0.1-0.2-0.2c-0.1-0.2,0-0.4-0.3-0.5c-0.1,0.1-0.2,0.3-0.3,0.4c-0.1,0.2-0.3,0.3-0.5,0.4   c-0.2,0-0.4,0-0.6-0.1c-0.4-0.2-0.9-0.2-1.2-0.4c-0.8-0.5-1.8-0.7-2.7-0.6c-0.4,0-0.9-0.1-1.2-0.4c-0.4-0.3-0.8-0.4-1.2-0.5   c-0.2-0.1-0.5,0.2-0.8,0.2c-1.1,0.1-2.2,0.1-3.3,0c-0.3,0-0.6,0-0.8,0c-0.6,0.1-1.2,0-1.8-0.3c-0.2-0.1-0.4-0.2-0.7-0.1   c-0.2,0-0.4,0.1-0.6,0.2c-0.5,0.3-0.7,0-1-0.2c-0.7,0.3-1.5,0.4-2.2,0.5c-0.8,0.1-1.6,0-2.3-0.3c-0.7-0.2-1.4-0.4-2.1-0.4   c-0.1,0-0.3,0.1-0.4,0.2c-0.1,0.1-0.1,0.1-0.1,0.1c-0.3,0.3-0.5,0.3-0.7,0c-0.3-0.4-0.6-0.8-1.1-1c-0.4-0.2-0.7-0.5-1.1-0.8   c-0.1-0.1-0.3-0.2-0.5-0.3c-0.2,0-0.4,0-0.6,0.1c-1.1,0.4-2.1,0.7-3.2,1.1c-0.5,0.2-1,0.4-1.5,0.7c-1.8,0.9-3.4,1.9-5.3,2.7   c-0.2,0.1-0.4,0.2-0.6,0.3c-0.4,0.4-0.8,0.7-1.2,1c-0.3,0.2-0.5,0.5-0.7,0.7c0,0,0,0.2,0,0.3c0,0.1,0.1,0.1,0.1,0.1   c0.2,0,0.4,0,0.7,0c0.6-0.1,1.1-0.3,1.6-0.5c0.6-0.3,1.2-0.4,1.8-0.3c1,0.2,2,0.1,3-0.2c0.1,0,0.2-0.1,0.3,0   c0.2,0,0.3,0.1,0.5,0.1c0.4,0.2,0.7,0.6,0.9,1c0,0.2-0.1,0.3-0.1,0.5c-0.1,0.2-0.1,0.4-0.1,0.7c0.1,0.2,0.2,0.4,0.4,0.5   c0.1,0.1,0.2,0.2,0.3,0.4c0,0.2,0,0.3,0,0.5c0,0.1-0.1,0.2-0.2,0.3c-0.2,0.2-0.4,0.4-0.5,0.7c-0.1,0.3-0.1,0.6,0,0.8   c0,0.2,0,0.3,0,0.5c0,0.4,0.1,0.7,0.5,0.7c0.7,0,1.3,0.2,1.9,0.5c0.2,0.1,0.4,0.2,0.5,0.4c0.1,0.2,0.2,0.4,0.3,0.6   c0,0.2,0,0.4,0,0.6c-0.1,0.2-0.2,0.4-0.3,0.5c-0.3,0.3-0.5,0.7-0.7,1.1c0,0.1,0,0.2,0,0.2c0,0.1,0.1,0.1,0.2,0.2   c0.1,0.1,0.3,0.2,0.5,0.2c0.2,0,0.4,0.1,0.5,0.3c0.2,0.1,0.3,0.3,0.4,0.4c0.2,0.4,0.6,0.7,1,0.9c0.1,0.1,0.3,0.2,0.4,0.3   c0.1,0.1,0.2,0.2,0.2,0.4c0,0.1,0,0.3,0,0.4c-0.3,0.8-0.6,1.7-0.7,2.6c-0.1,0.4-0.2,0.8-0.4,1.1c-0.9,1.6-1.4,3.3-1.5,5.1   c0,0.2,0,0.5-0.1,0.7c0,0.2-0.1,0.3-0.2,0.5c-0.3,0.7-0.8,1.2-1.3,1.7c-0.3,0.2-0.6,0.5-0.9,0.7c-0.2,0.1-0.3,0.3-0.5,0.5   c-0.4,0.8-0.7,1.5-1.1,2.4c0.3,0.5,0.4,1.1,0.4,1.6c0,0.6-0.1,1.1-0.3,1.7c0,0.1-0.1,0.2-0.1,0.3c0,0.1-0.1,0.2-0.2,0.3   c-0.1,0.1-0.3,0.2-0.4,0.2c-0.1,0-0.2-0.1-0.3-0.2c-0.5-0.8-0.7-1.7-0.5-2.6c0-0.1,0-0.2,0-0.3c0-0.1,0-0.2-0.1-0.2   c0-0.1-0.1-0.1-0.2-0.2c-0.1,0-0.2-0.1-0.2-0.1c-0.1,0-0.2,0-0.2,0c-0.4,0.2-0.7,0.4-0.9,0.7c-0.2,0.2-0.4,0.4-0.7,0.6   s-0.6,0.2-0.9,0.2c-0.3,0-0.6,0-0.8,0.2c-0.4,0.2-0.9,0.2-1.4,0.1c-0.3,0.2-0.5,0.4-0.7,0.6c-0.2,0.3-0.3,0.6-0.4,0.9   c-0.2,0.8-0.7,1.5-0.3,2.3c0.1,0.1,0,0.3-0.1,0.5c-0.1,0.2-0.2,0.3-0.3,0.5c0.1,0.4,0.3,0.7,0.4,1.1c0.1,0.2,0.2,0.3,0.4,0.4   c0.2,0.1,0.4,0.1,0.6,0c0.2-0.1,0.3-0.1,0.5-0.1c0.2,0,0.3,0,0.5,0.1c0.9,0.4,1.9,0.8,2.8,1c0.7,0.1,1.3,0.3,1.9,0.6   c0.3,0.2,0.7,0.2,1,0.2c1.2,0,2.3,0.2,3.5,0.5c0.4,0.1,0.8,0.3,1.1,0.5c0.3,0.3,0.6,0.6,0.8,1c0.1,0.2,0.2,0.4,0.3,0.6   c0.2,0.2,0.4,0.5,0.4,0.8c0.1,0.3,0.1,0.6,0,1c0,0.7-0.1,1.4-0.3,2c-0.2,0.6-0.3,1.2-0.4,1.8c-0.1,0.9-0.3,1.7-0.6,2.5   c-0.3,1.1-1,2.1-1.9,2.8c-0.3,0.2-0.5,0.5-0.7,0.7c-0.1,0.1-0.2,0.3-0.2,0.4c-0.1,1.1-0.7,2-0.5,3.2c0,0.5,0,1-0.1,1.5   c-0.1,0.6-0.1,1.3,0.1,1.9c0.1,0.4,0.2,0.8,0.4,1.1c0.1,0.2,0.1,0.3,0.1,0.5s0,0.3-0.1,0.5c-0.1,0.2-0.2,0.4-0.3,0.6   c-0.5,1.3-0.5,2.8,0,4.2c0.3,0.6,0.6,1.1,1,1.5c0.2,0.4,0.5,0.6,0.9,0.9c0.4,0.2,0.8,0.4,1.2,0.4c0.4,0,0.5,0.2,0.5,0.7   c0,0.1,0,0.2,0,0.3c0,0.1,0.1,0.2,0.2,0.2l0.5,0.2c0,0.2-0.1,0.4-0.2,0.6c-0.2,0.4,0,0.6,0.2,0.7c0.3,0.1,0.7,0.2,1,0.3   c0.6,0.1,1.1,0.2,1.7,0.3c0.2,0,0.3,0,0.5,0.1c0.2,0.1,0.3,0.2,0.4,0.3c0.2,0.2,0.4,0.4,0.7,0.4c1.2,0.5,2.5,0.8,3.8,0.8   c0.3,0,0.7,0.1,1.1,0.1c0.9,0.1,1.8,0.2,2.7,0.3c1.5,0.2,2.9,0.2,4.3,0.2c1.1,0.1,2.3,0,3.4-0.4c0.5-0.2,1-0.3,1.5-0.3   c1,0,2-0.2,3-0.3c1.5-0.4,3.1-0.6,4.6-0.9c0.9-0.1,1.9-0.4,2.7-0.9c1.3-0.7,2.5-1.5,3.8-2.2c0.6-0.4,1.3-0.8,1.8-1.3   c1.8-1.4,3.6-2.8,5.4-4.2c0.7-0.5,1.4-1.2,2-1.8c0.5-0.6,1-1.1,1.6-1.6c0.4-0.4,0.7-0.8,1-1.2c0.8-1.2,1.6-2.4,2.3-3.6   c1.4-2.2,2.6-4.7,3.8-7c0.7-1.2,1.2-2.4,1.6-3.7c0.6-1.9,1.1-3.9,1.4-5.9c0.2-1.1,0.2-2.2,0.1-3.3l-1.8-1.1   c-0.2,0.1-0.5,0.2-0.7,0.4c-0.2,0.2-0.4,0.3-0.6,0.4s-0.5,0.1-0.7,0.1c-0.2,0-0.4,0-0.6,0.2c-0.3,0.2-0.7,0.5-1,0.8   c0,0.4-0.1,0.7-0.1,1c0,0.1,0,0.2,0,0.3s0.1,0.2,0.2,0.3c0.1,0.1,0.2,0.1,0.2,0.2c0.1,0.1,0.1,0.2,0.2,0.2c0,0.1,0,0.2,0,0.3   c0,0.1,0,0.2-0.1,0.3c-0.1,0.1-0.1,0.1-0.2,0.2c-0.1,0.1-0.3,0.1-0.4,0.2c-0.2,0-0.5,0.1-0.5,0.3c-0.2,0.5-0.4,1-0.8,1.5   c-0.3,0.4-0.4,0.8-0.4,1.3c0,0.6-0.1,1.1-0.2,1.7c0,0.3-0.1,0.6-0.3,0.8l-0.9,1.1c-0.1,0.1-0.2,0.2-0.3,0.4   c-0.3,0.6-0.7,1.3-1,1.9c0.1,0.3,0.4,0.4,0.6,0.6c0.1,0.1,0.1,0.2,0.1,0.3c0,0.3-0.3,0.6-0.5,0.5c-0.2-0.1-0.4-0.2-0.6-0.4   c-0.2,1-0.6,2-1.2,2.9c-0.1,0.2-0.3,0.3-0.4,0.5C73.5,95.2,72.9,95.9,72.5,96.6L72.5,96.6z M7.7,54.1l0.7,0.8c0,0,0,0.1,0,0.1   c0,0,0,0.1,0,0.1c0,0,0,0.1-0.1,0.1c0,0-0.1,0-0.1,0.1c-0.1,0-0.2,0-0.3,0c-0.2,0-0.4-0.1-0.5,0c-0.1,0.1-0.2,0.4-0.2,0.6   c0,0.5,0,1-0.1,1.5c0,0.1,0,0.2,0.1,0.3s0.2,0.2,0.3,0.2c0.1,0,0.2,0.1,0.3,0.1c0.5,0.3,0.6,0.6,0.1,1c-0.2,0.1-0.2,0.2-0.1,0.4   C7.9,59.5,8,59.7,8,59.8c0,0.1,0,0.2,0,0.3c-0.1,0.1-0.2,0.2-0.3,0.2c-0.1,0.1-0.3,0.1-0.5,0.2c0,0-0.1,0-0.1,0.1   c0,0-0.1,0.1-0.1,0.1c0,0,0,0.1,0,0.1c0,0.1,0,0.1,0,0.1c0.1,0.4,0.2,0.8,0.8,0.8c0.2,0,0.4,0.1,0.6,0.3c0.2,0.2,0.1,0.4,0.1,0.6   c0,0.2,0,0.3,0.1,0.5c0.1,0.1,0.1,0.3,0,0.4c0,0.1-0.1,0.3-0.2,0.4c-0.1,0.1-0.2,0.2-0.2,0.3c-0.1,0.1-0.1,0.1-0.1,0.2   s0,0.2,0.1,0.2c0.2,0.2,0.4,0.4,0.6,0.5c0.5,0.4,0.5,0.5,0.1,1.1c0,0.1-0.1,0.2-0.1,0.2c0,0.1,0,0.2,0.1,0.2   c0.1,0.1,0.3,0.2,0.5,0.2c0.5,0.1,0.8,0.4,0.6,1c-0.1,0.2,0.1,0.3,0.2,0.4l0.3,0.2c0.1,0,0.1,0.1,0.2,0.2c0,0.1,0.1,0.2,0,0.2   c0,0.1-0.1,0.2-0.1,0.3c-0.1,0.1-0.2,0.1-0.3,0.2c-0.1,0-0.1,0-0.2,0c-0.1,0-0.3,0-0.3,0.1c0,0.2,0,0.3,0,0.5   c0.1,0.3,0.3,0.5,0.4,0.7c0.1,0.1,0.2,0.2,0.3,0.2c0.1,0,0.3,0,0.4,0c0.3-0.1,0.5-0.1,0.8-0.1c0.6,0.2,1.2,0.5,1.6,0.8   c0.1,0.1,0.1,0.2,0.1,0.3c0,0.1,0,0.2,0,0.3c0,0-0.1,0.1-0.1,0.1c0,0-0.1,0.1-0.2,0.1c-0.1,0-0.1,0-0.2,0c-0.1,0-0.1,0-0.2-0.1   c-0.2-0.2-0.3-0.3-0.5-0.4C12.4,72,12.2,72,12.1,72c-0.1,0-0.3,0-0.4,0.1c-0.1,0-0.1,0.1-0.1,0.1c0,0,0,0.1,0,0.2   c0,0.2,0.1,0.4,0.3,0.6c0.1,0.2,0.3,0.3,0.5,0.4c0.1,0,0.2,0.1,0.3,0.1c0.1,0.1,0.2,0.1,0.2,0.2c0.1,0.1,0.1,0.2,0.1,0.3   c0,0.1,0,0.2,0,0.3c0,0.3,0,0.6,0.1,0.8c0.1,0.3,0.2,0.5,0.4,0.7c0.1,0.1,0.2,0.1,0.3,0.2c0.1,0,0.2,0,0.3,0   c0.4-0.6,0.8-1.2,1-1.9c0.3-0.9,0.6-1.7,0.9-2.5c0.7-0.5,1.4-0.7,2.2-0.8c0.7-0.1,1.3-0.2,2-0.3c0.4-0.1,0.5-0.6,0.8-0.8l0.8-0.6   c0.2-0.2,0.5-0.2,0.8-0.2c0.2,0,0.4,0,0.6-0.1c0.2-0.1,0.3-0.3,0.4-0.5c0.4-0.7,0.7-1.4,1-2.2c0-0.1,0.1-0.2,0.2-0.3   c0.1-0.1,0.2-0.2,0.3-0.2c0.7-0.4,1.4-1,1.8-1.7c0.2-0.2,0.3-0.5,0.4-0.8c0.2-0.6,0.3-1.3,0.2-2c-0.1-0.7,0.1-1.4,0.5-2   c0.1-0.2,0.2-0.4,0.3-0.6c0.1-0.2,0.2-0.4,0.2-0.6c0.1-0.2,0-0.4-0.2-0.6c-0.1-0.1-0.2-0.1-0.3-0.1c-0.1-0.1-0.2-0.2-0.2-0.4   c0-0.1,0-0.3,0.1-0.4c0.1-0.2,0.4-0.2,0.7,0c0.2,0.1,0.3,0.4,0.5,0.2l0.1-0.2c0.2-0.3,0.3-0.6,0.3-1s-0.1-0.7-0.3-1   c-0.1-0.2,0-0.3,0.1-0.5c0.1-0.1,0.3-0.3,0.3-0.6l-0.1-0.1c-0.3-0.5-0.8-0.8-1.3-1c-0.3-0.3-0.6-0.7-0.9-1   c-0.2-0.1-0.3-0.3-0.3-0.5c0-0.2,0-0.4,0.1-0.6c0.2-0.5,0.5-1,0.8-1.5c0-0.1,0.1-0.2,0.1-0.2c0-0.1,0-0.2-0.1-0.2l-0.1-0.1   l-0.4-0.2c-0.2-0.1-0.4-0.2-0.6-0.2s-0.4,0.1-0.6,0.3c-0.1,0-0.1,0.1-0.2,0.1c-0.1,0-0.1,0-0.2,0c-0.1,0-0.1,0-0.2-0.1   c-0.1,0-0.1-0.1-0.2-0.1c-0.2-0.2-0.3-0.4-0.4-0.6c-0.1-0.2-0.1-0.5,0-0.7c0.1-0.2,0.2-0.5,0.2-0.7c0-0.3,0-0.5-0.1-0.8   c0-0.2,0-0.4,0-0.5c0-0.2,0.1-0.3,0.2-0.5c0.1-0.1,0.1-0.2,0.1-0.3c0-0.1,0-0.2-0.1-0.3c-0.1-0.1-0.2-0.3-0.3-0.4   c-0.1-0.1-0.1-0.3-0.1-0.5c0-0.2,0-0.4,0.1-0.5c0.1-0.2,0.2-0.4,0.2-0.6c-0.1-0.2-0.2-0.3-0.4-0.4c-0.2-0.1-0.3-0.1-0.5-0.1   c-0.4,0-0.8,0.1-1.2,0.2c-0.3,0.1-0.7,0.1-1,0c-0.3-0.2-0.7-0.2-1.1-0.1c-0.4,0.1-0.7,0.3-0.9,0.6c-0.1,0.1-0.3,0.2-0.5,0.3   c-0.2,0-0.6-0.2-0.8-0.1c-0.6,0.2-1.3,0.3-2,0.2c-0.5,0-1,0.1-1.4,0.4c-0.2,0.2-0.5,0.3-0.7,0.4c-0.4,0.1-0.7,0.3-1,0.6   c-0.4,0.4-0.7,0.7-1.1,1c-0.8,0.8-1.5,1.6-2.2,2.6c-0.1,0.2-0.1,0.3,0.1,0.6c0.1,0.1,0.2,0.3,0.3,0.4c0.1,0.1,0.1,0.2,0.1,0.3   c0,0.1,0,0.2-0.1,0.3c-0.1,0.1-0.2,0.2-0.3,0.1c-0.3-0.2-0.6-0.4-1-0.7l-1.3,2c-0.1,0.2-0.2,0.3-0.2,0.5c0,0.2,0,0.4,0.1,0.6   c0.1,0.3,0.2,0.6,0.1,0.9c0,0.3-0.1,0.6-0.3,0.8C7.9,53.4,7.8,53.7,7.7,54.1z M14.2,79.3c-0.1-0.4-0.2-0.8-0.4-1.3   c-0.1-0.2-0.2-0.4-0.4-0.5c-0.2-0.1-0.3-0.2-0.4-0.3c-0.1-0.1-0.2-0.3-0.2-0.4c-0.9-1.9-1.9-3.8-3.3-5.4c-0.6-0.8-1-1.7-1-2.7   c0-0.9-0.5-1.8-0.6-2.7c0-0.1-0.1-0.2-0.1-0.3c-0.4-0.5-0.6-1.1-0.7-1.7c-0.2-0.9-0.5-1.8-0.7-2.7c-0.1-0.6-0.4-1.1-0.9-1.4   c-0.2-0.2-0.3-0.3-0.4-0.5c-0.1-0.2,0.1-0.5,0.3-0.5S5.9,59,6.1,59c0.2-0.1,0.3-0.3,0.4-0.4c0.1-0.2,0.1-0.4,0.1-0.6   c0-0.8,0-1.6-0.1-2.4c0-0.3,0-0.7,0.2-1C7,53.9,7.2,53,7.3,52.2c0,0-0.1-0.2-0.1-0.2c0,0-0.2,0-0.3,0c-0.6,1.1-1.2,2.1-1.8,3.2   c-0.7,1.4-1.2,2.9-1.7,4.3C3.1,60.2,3,61,3.2,61.7c0,0.2,0,0.5-0.1,0.7c-0.1,0.3-0.2,0.5-0.4,0.8c-0.7,1.4-1,2.9-1.1,4.4   c0,0.4,0,0.8-0.1,1.2c-0.1,0.7-0.1,1.4-0.1,2.1c-0.1,0.7-0.1,1.5,0,2.2c0.1,1.5,0.2,3.1,0.2,4.6c0,0.7,0,1.4,0.2,2.1   C2,80.4,2.1,81,2.1,81.6c0.1,1.1,0.3,2.3,0.7,3.4c0.3,0.5,0.5,1,0.5,1.6c0,0.7,0.5,1.1,0.6,1.8C4,88.5,4,88.7,4,88.9   c0,0.4,0.1,0.8,0.3,1.1c0.3,0.6,0.6,1.3,0.9,2c0.2,0.4,0.4,0.8,0.5,1.2c0.3,0.6,0.6,1.1,0.8,1.8c0.1,0.4,0.4,0.8,0.6,1.2   c0.4,0.6,0.7,1.1,1,1.8c0.1,0.2,0.3,0.4,0.4,0.5c0.2,0.2,0.4,0.2,0.5,0.4c0.3,0.5,0.7,0.9,1.1,1.3c0.3,0.3,0.5,0.6,0.7,1   c0.2,0.3,0.4,0.6,0.6,0.8c1.7,1.8,3.6,3.4,5.7,4.8c0.5,0.3,0.9,0.6,1.3,1.1c0.1,0.2,0.3,0.3,0.4,0.4c0.2,0.1,0.4,0.2,0.6,0.2   c0.5,0.1,1.1,0.4,1.5,0.7c1,0.7,2.1,1.3,3.1,1.8c0.2,0.1,0.4,0.3,0.5,0.4c0.9,0.6,1.9,1,2.9,1.2c0.2-0.2,0.3-0.4,0.5-0.7   c0,0,0-0.1,0-0.2c-0.3-0.2-0.7-0.5-1.1-0.7c-0.4-0.3-0.7-0.6-1-0.8s-0.4-0.8-0.9-1c-0.2,0.1-0.4,0.2-0.6,0.2c-0.1,0-0.3,0-0.4,0   c-0.1,0-0.3-0.1-0.3-0.3c-0.1-0.2-0.2-0.3-0.4-0.4c-0.2-0.1-0.3-0.2-0.5-0.2c-0.2,0-0.3-0.1-0.4-0.2c-0.1-0.1-0.2-0.3-0.2-0.4   c-0.1-0.3-0.1-0.5-0.3-0.8c-0.8-1.5-1.2-3.2-2-4.7c-0.1-0.2-0.1-0.4-0.2-0.6c-0.2-0.4-0.4-0.8-0.6-1.2c-0.1-0.2-0.2-0.4-0.3-0.6   c-0.2-0.7-0.5-1.3-1-1.8c-0.4-0.6-0.9-1.1-1.3-1.8c-0.4-0.6-0.9-1.2-1.5-1.6c-0.8-0.6-1.5-1.4-1.9-2.3c-0.4-0.8-0.6-1.6-0.6-2.5   c0-0.4,0-0.9,0.1-1.4c0-0.3,0-0.6,0-0.8c-0.1-0.4-0.1-0.8-0.1-1.2c0-0.3,0.1-0.6,0.2-0.8c0.2-0.3,0.3-0.6,0.3-0.9   c0-0.3-0.1-0.6-0.3-0.9c0-0.1-0.1-0.2-0.2-0.3c-0.1-0.1-0.1-0.2-0.1-0.3s0-0.2,0.1-0.3c0.2-0.3,0.4-0.6,0.5-0.9   c0.2-0.3,0.4-0.7,0.6-1C13.8,80.5,14.1,79.9,14.2,79.3z M14.7,81.5c-0.4,0.5-0.7,1-1.1,1.5c-0.1,0.1-0.1,0.3-0.1,0.4   c0,0.1,0.1,0.3,0.2,0.4c0.1,0.1,0.3,0.2,0.4,0.3c0.1,0.1,0.1,0.2,0.2,0.3c0,0.1,0,0.2,0,0.3c-0.3,0.6-0.5,1.3-0.7,1.9   c-0.1,0.2-0.1,0.4-0.1,0.7c0.1,0.2,0.4,0.2,0.6,0.1c0.1,0,0.2,0,0.3,0c0.1,0,0.2,0.1,0.2,0.1c0.1,0.1,0.1,0.1,0.1,0.2   c0,0.1,0,0.2,0,0.2c0,0.1,0,0.2-0.1,0.2c0,0.1-0.1,0.1-0.1,0.2c-0.1,0-0.1,0.1-0.2,0.1c-0.1,0-0.1,0-0.2,0c-0.1,0-0.1,0-0.2-0.1   c-0.1,0-0.2-0.1-0.3-0.2c-0.1-0.1-0.4,0.1-0.4,0.2c0.1,0.7,0.1,1.5,0.1,2.2c-0.1,0.5,0,0.9,0.2,1.3c0.2,0.5,0.6,1,1.1,1.3   c0.2-0.1,0.4-0.2,0.6-0.3c0.1-0.1,0.3-0.1,0.4,0s0.3,0.1,0.4,0.2c0.2,0.2,0.3,0.4,0,0.7C16,94.1,16,94.2,16,94.3s0,0.2,0.1,0.3   c0.3,0.4,0.7,0.8,1.3,0.4c0.2-0.1,0.3-0.1,0.5,0c0.1,0,0.2,0.1,0.3,0.2c0.1,0.2,0.1,0.4,0,0.7c0,0.1-0.2,0.2-0.4,0.2   c-0.1,0.1-0.2,0.1-0.2,0.2c0.2,0.4,0.4,0.7,0.8,0.9c0.4-0.3,0.9-0.5,1.3-0.6c0-0.1,0.1-0.2,0.1-0.3c0-0.1,0-0.2,0.1-0.3   c0-0.1,0-0.1,0.1-0.1c0,0,0.1-0.1,0.1-0.1c0.1,0,0.1,0,0.2,0c0.1,0,0.1,0,0.2,0c0.1,0,0.2,0.1,0.2,0.1c0.1,0.1,0.1,0.1,0.1,0.2   c0,0.1,0,0.2,0,0.2c0,0.1,0,0.2-0.1,0.2c-0.3,0.3-0.6,0.7-0.7,1.2c-0.1,0.5-0.6,0.4-0.9,0.7c0,0.1,0,0.2,0,0.3   c0.1,0.5,0.3,0.9,0.9,0.8c0.2,0,0.3,0,0.5,0.1c0.1,0.1,0.2,0.2,0.3,0.3c0.1,0.1,0.1,0.3,0.1,0.4c-0.1,0.3-0.2,0.5-0.3,0.8   c0,0.1,0,0.1,0,0.2c0,0.1,0.1,0.1,0.1,0.1c0.2,0.1,0.4,0.1,0.6,0.1c0.2,0,0.4-0.2,0.5-0.4c0.2-0.4,0.4-0.7,0.9-0.5s0.6,0,0.5-0.4   c0.1-0.6,0.2-1.1,0.3-1.7c0-0.1,0.1-0.2,0.2-0.3c0.1-0.1,0.6-0.1,0.7-0.4c-0.3-0.9-0.3-1.9,0.1-2.8c0-0.1,0-0.2,0-0.2   c0-0.1-0.1-0.1-0.2-0.2c-0.2-0.1-0.4-0.2-0.5-0.4c-0.2-0.3,0-0.8,0.3-0.8c0.3,0,0.6,0,0.8-0.1c0.1,0,0.3-0.1,0.4-0.2   c0.1-0.1,0.2-0.2,0.2-0.4c0-0.2,0-0.3,0-0.5c0-0.1,0.1-0.2,0.1-0.2c0.1-0.1,0.1-0.1,0.2-0.1c0.2,0,0.4-0.1,0.6-0.1   c0.1-0.3,0.1-0.6,0.2-0.9l0.8-0.3c0.1-0.1,0.2-0.3,0.2-0.4c0.2-0.4,0.3-0.9,0.4-1.3c-0.1-0.1-0.1-0.2-0.2-0.2   c-0.1-0.1-0.3-0.2-0.4-0.3c-0.1,0-0.1-0.1-0.1-0.2c0-0.1,0-0.1,0-0.2c0-0.1,0-0.1,0.1-0.2c0-0.1,0.1-0.1,0.2-0.1   c0.2-0.1,0.4-0.1,0.6-0.2c0.1-0.2,0.2-0.5,0.3-0.7c0.1-0.1,0.1-0.3,0-0.4c0-0.1-0.1-0.3-0.2-0.4c-0.1-0.1-0.2-0.2-0.4-0.4   c0,0-0.1-0.1-0.1-0.2c0-0.1,0-0.1,0-0.2c0-0.1,0.1-0.1,0.1-0.1c0,0,0.1-0.1,0.2-0.1c0.1,0,0.2,0,0.3-0.1c0.4-0.1,0.5-0.2,0.5-0.7   c0-0.1,0-0.1-0.1-0.1c0,0-0.1-0.1-0.1-0.1c-0.1,0-0.2,0-0.3,0c-0.1,0-0.2,0-0.3,0c-0.1,0-0.2-0.1-0.3-0.2s-0.1-0.2-0.1-0.4   c0-0.1,0-0.3,0.1-0.4c0.1-0.1,0.2-0.2,0.3-0.3c0.1-0.1,0.3-0.1,0.5-0.1c-0.1-0.3-0.4-0.3-0.7-0.4c-0.2-0.1-0.4-0.5-0.7-0.7   l-0.9,0.3c-0.2-0.4-0.6-0.7-1-0.9c-0.4-0.2-0.9-0.3-1.3-0.2c-0.9,0-1.8-0.2-2.6-0.6c-0.5-0.3-1.1-0.4-1.6-0.3c0,0-0.1,0-0.1,0   c0,0-0.1,0-0.1,0.1c0,0-0.1,0.1-0.1,0.1c0,0,0,0.1,0,0.1c0,0.1,0,0.2,0,0.3c0,0.1-0.1,0.2-0.2,0.3C19.2,81,19.1,81,19,81   c-0.2,0-0.3-0.1-0.5-0.1c-0.5-0.2-0.9-0.3-1.4-0.3c-0.2,0-0.3,0-0.5-0.1c-0.1,0-0.1-0.2-0.1-0.3c0-0.1,0.1-0.2,0.2-0.2   c0.6-0.2,0.8-0.4,0.8-0.8c0-0.2-0.2-0.3-0.3-0.2c-0.6,0.3-0.8,0.3-1.1-0.1c-0.2-0.2-0.3-0.5-0.4-0.7c0-0.1-0.2-0.1-0.3-0.2   c0,0.7,0,1.4,0,2c0,0.1,0,0.3,0.1,0.4c0.1,0.1,0.2,0.2,0.3,0.3c0.3,0.3,0.3,0.5,0.1,0.9c-0.2,0.2-0.2,0.2-0.6,0.1   C15,81.6,14.9,81.6,14.7,81.5z M69.8,53.1h0.3c0.2,0,0.4-0.2,0.4-0.4c0-0.1,0-0.2,0-0.2c0-0.1-0.1-0.1-0.2-0.2   c-0.3-0.2-0.5-0.4-0.8-0.5c-0.1,0-0.2,0-0.2,0c-0.1,0-0.1,0.1-0.2,0.1c-0.1,0.2-0.1,0.4-0.2,0.6c0,0.1,0,0.2,0,0.2   c0,0.1,0.1,0.1,0.2,0.2L69.8,53.1z M24.2,106.6c-0.1,0.1-0.2,0.3-0.2,0.5c0,0.2,0.3,0.4,0.4,0.3c0,0,0.1,0,0.1-0.1   c0,0,0-0.1,0.1-0.1c0,0,0-0.1,0-0.1s0-0.1,0-0.1C24.5,106.9,24.4,106.8,24.2,106.6z M68.9,53.9c0,0,0-0.1,0-0.1c0,0,0-0.1,0-0.1   c0,0-0.1-0.1-0.1-0.1c0,0-0.1,0-0.1,0c0,0-0.1,0-0.1,0.1c0,0-0.1,0.1-0.1,0.1c0,0,0,0.1,0,0.1s0,0.1,0,0.1c0,0,0.1,0,0.1,0   c0,0,0.1,0,0.1,0C68.7,54.1,68.8,54,68.9,53.9z M72.6,71.2c0.1-0.2-0.1-0.3-0.3-0.4c-0.2,0-0.4,0.1-0.3,0.2c0,0,0,0.1,0.1,0.1   c0,0,0.1,0.1,0.1,0.1C72.3,71.3,72.4,71.3,72.6,71.2z M64.3,64.5c-0.1,0-0.2,0.1-0.2,0.2c0,0,0,0,0,0.1c0,0,0,0.1,0,0.1   c0,0.1,0.1,0.2,0.2,0.1s0.2-0.2,0.2-0.3C64.4,64.6,64.4,64.6,64.3,64.5z M78.1,53.4c0-0.1,0-0.1-0.1-0.2c0,0-0.1,0-0.1-0.1   c0,0.1,0,0.2,0,0.3c0,0,0.1,0.1,0.1,0.1C78,53.5,78.1,53.4,78.1,53.4z M73.5,54.8l-0.1-0.1c0,0-0.1,0.1-0.1,0.2s0.1,0.1,0.1,0.1   C73.5,54.9,73.5,54.8,73.5,54.8L73.5,54.8z"></path>		<path class="st1" d="M58.1,24.6c0.4-0.3,0.7-0.6,0.9-1c0.5-1.2,1-2.3,1.4-3.5c0.4-1.4,0.9-2.7,1.6-3.9c0.1-0.2,0.1-0.3,0.2-0.5   c0.6-1.5,1.2-3.1,1.8-4.6c0-0.1,0.1-0.2,0.1-0.2c0.1-0.1,0.1-0.1,0.2-0.1c0.1,0,0.2,0,0.3,0c0.1,0,0.2,0,0.3,0.1   c0.2,0.1,0.4,0.2,0.6,0.3c0.2,0.2,0.4,0.4,0.6,0.6c0.5,0.4,0.8,1,0.9,1.6c0.4,1.2,0.6,2.4,0.6,3.6c0,1.1,0,2.2,0.1,3.3   c0.1,0.8,0,1.6-0.2,2.4c-0.2,0.9-0.3,1.8-0.1,2.8c0,0,0.1,0.1,0.1,0.1s0.1,0,0.2,0c0.2-0.2,0.4-0.5,0.5-0.7c0.7-1.5,1.5-3,2.3-4.6   c0.8-1.5,1.6-3.1,2.4-4.6c0.1-0.2,0.2-0.3,0.2-0.5c0.1-0.2,0.1-0.5,0-0.7c-0.1-0.6,0.2-0.8,0.6-0.7c0.3,0.1,0.5,0.2,0.8,0.3   c0.6,0.2,0.8,0.7,0.4,1.2c-0.5,0.8-0.9,1.5-1.3,2.4c-0.9,1.6-1.7,3.2-2.4,4.8c-0.8,1.4-1.6,2.9-2.2,4.4c-0.3,0.6-0.7,1.2-1,1.8   c-0.1,0.1-0.2,0.2-0.3,0.3c-0.1,0-0.3,0.1-0.4,0l-0.8-0.3C66,28.5,65.9,28.4,66,28c0.1-0.2,0.1-0.4,0-0.7   c-0.6-1.4-0.7-3.1-0.3-4.6c0-0.9,0.1-1.9,0.1-2.8c-0.1-1.3-0.2-2.7-0.2-4c0-0.5,0-0.9-0.1-1.4c-0.1-0.4-0.2-0.8-0.5-1.1   c-0.1-0.1-0.4-0.1-0.4,0c-0.1,0.2-0.2,0.3-0.2,0.5c-0.4,1-0.8,2-1.2,3c-0.2,0.5-0.3,1-0.5,1.5c-0.4,1.1-0.9,2.2-1.1,3.3   c-0.1,0.4-0.3,0.8-0.5,1.1c-0.4,0.7-0.7,1.6-0.9,2.4c0,0.1-0.1,0.2-0.2,0.3c-0.1,0.1-0.2,0.1-0.3,0.1c-0.3,0-0.6,0-0.8-0.2   c-0.3-0.1-0.5-0.3-0.7-0.5C58.1,24.9,58.1,24.8,58.1,24.6z"></path>		<path class="st1" d="M28.3,18.9c-1.5,0.3-2.9,0.6-4.3,0.9c-0.4,0.1-0.7,0.3-1.1,0.5c-0.1,0-0.2,0.1-0.3,0.2   c-0.1,0.1-0.1,0.2-0.1,0.3c0.3,1.2,0.2,2.5,0.5,3.7c0.1,0.6,0.2,1.2,0.4,1.8c0,0.1,0.1,0.1,0.1,0.1c0.3,0.1,0.6,0.2,1,0.3   c0.1,0,0.2,0.4,0.1,0.4L24,27.9c-0.1,0.1-0.3,0.3-0.5,0.3c-0.2,0.1-0.4,0.1-0.6,0c-0.2,0-0.4-0.1-0.5-0.3   c-0.1-0.1-0.2-0.3-0.3-0.5c-0.2-0.8-0.4-1.7-0.5-2.5c-0.1-0.7-0.2-1.4-0.2-2c-0.1-0.5-0.1-1-0.2-1.5c-0.2-1.3-0.4-2.7-0.5-4.1   c-0.1-1.9,0.2-3.9,1.1-5.7c0.1-0.3,0.3-0.6,0.5-0.9c0.1-0.2,0.2-0.3,0.4-0.4c0.2-0.1,0.4-0.1,0.6-0.1c0.8,0.1,1.5,0.3,2.2,0.7   c0.7,0.4,1.2,0.9,1.6,1.6c0.5,0.8,1,1.7,1.4,2.5c0.1,0.2,0.2,0.5,0.4,0.8c0.4,0.5,0.6,1.1,0.7,1.7c0.1,0.3,0.2,0.6,0.3,0.8   c0.6,1.5,1,3.1,1.3,4.8c0.1,0.6,0.3,1,0.8,1.2c0.1,0,0.1,0.1,0.1,0.1c0.1,0.1,0.1,0.2,0.1,0.3c0,0.1,0,0.2,0,0.3   c-0.2,0.3-0.4,0.5-0.8,0.7c-0.3,0.1-0.7,0.1-1,0c-0.2-0.1-0.4-0.3-0.5-0.5c-0.3-0.9-0.5-1.9-0.6-2.8C29.3,21.1,29,19.9,28.3,18.9z    M27.6,17.2c-0.1-0.2-0.1-0.4-0.2-0.6c-0.5-1-1-2.1-1.5-3.1c-0.4-0.6-0.9-1.2-1.6-1.5c-0.1-0.1-0.2-0.1-0.4-0.1   c-0.1,0-0.3,0-0.4,0c-0.1,0-0.2,0.1-0.3,0.2c-0.1,0.1-0.2,0.2-0.2,0.3c-0.3,0.7-0.5,1.5-0.7,2.3c-0.2,1.1-0.3,2.3-0.1,3.4   c0,0.1,0.1,0.1,0.1,0.2s0.1,0.1,0.2,0.1c0.2,0,0.4,0,0.7,0c1-0.2,2-0.5,3-0.7C26.8,17.6,27.2,17.4,27.6,17.2z"></path>		<path class="st1" d="M11.9,117.3c-0.1,1.2-0.3,2.5-0.6,3.7c-0.2,0.9-0.4,1.8-0.7,2.6c-0.1,0.4-0.2,0.8-0.2,1.2c-0.1,1-0.2,2-0.2,3   c0,0,0,0.1,0.1,0.2c0.1,0,0.2,0,0.3,0c0.4-0.4,0.9-0.9,1.3-1.3c0.7-0.7,1.5-1.4,2.2-2.1c1.3-1.3,2.5-2.8,3.5-4.4   c0-0.1,0.1-0.1,0.2-0.2c0.1-0.1,0.1-0.1,0.2-0.1c0.1,0,0.2,0,0.3,0c0.1,0,0.2,0,0.2,0.1c0.3,0.1,0.6,0.3,0.9,0.5   c0.1,0.1,0.2,0.2,0.2,0.3c0,0.1,0.1,0.2,0,0.3c0,0.1,0,0.2-0.1,0.2c-0.1,0.1-0.1,0.1-0.2,0.1c-0.2,0-0.4,0.1-0.5,0.2   c-0.2,0.1-0.3,0.3-0.4,0.4c-0.9,0.8-1.7,1.7-2.3,2.7c-0.2,0.3-0.4,0.5-0.7,0.8c-1.1,1-2.1,2-3.1,3.1c-0.7,0.7-1.3,1.5-1.9,2.4   c-0.2,0.3-0.4,0.5-0.7,0.7c-0.3,0.1-0.5,0.3-0.8,0.4c-0.4,0.2-0.6,0-0.7-0.5c0-0.3,0-0.6,0-0.9c0.1-0.8,0.2-1.6,0.3-2.4   c0.4-2.6,0.9-5.1,1.4-7.7c0-0.2,0-0.4,0-0.7c0,0-0.1-0.1-0.1-0.1c0,0-0.3,0-0.3,0.1c-0.6,0.9-1.5,1.6-2.1,2.6   c-0.2,0.3-0.5,0.6-0.8,0.8c-0.5,0.4-0.9,0.8-1.3,1.3c-0.5,0.6-1,1.2-1.5,1.8c-0.2,0.2-0.4,0.4-0.4,0.7c0,0.2,0,0.5-0.3,0.6   c-0.2,0-0.5,0-0.7,0c-0.4-0.1-0.7-0.3-1-0.6c-0.4-0.3-0.3-0.8,0.2-0.9c0.4-0.1,0.7-0.3,1-0.6c0.3-0.3,0.5-0.6,0.8-0.9   c0.9-1.1,1.9-2.1,2.8-3.2c0.9-1.1,2-2.3,2.9-3.5c0.5-0.6,1-1.2,1.5-1.8c0.1-0.1,0.3-0.2,0.5-0.2s0.3,0,0.5,0.1   c0.1,0.1,0.2,0.2,0.3,0.4C11.9,116.8,11.9,117,11.9,117.3z"></path>		<path class="st1" d="M66,126.9c-0.1,0.3-0.2,0.6-0.5,0.9c-0.3,0.3-0.6,0.6-0.9,1c-0.2,0.2-0.4,0.5-0.6,0.8   c-0.1,0.1-0.2,0.3-0.2,0.5c0,0.2,0,0.4,0.1,0.5c0.1,0.2,0.2,0.3,0.3,0.4c0.8,1.2,1.5,2.4,2.1,3.7c0.4,0.8,0.9,1.5,1.3,2.2   c0.1,0.3,0.3,0.6,0.6,0.7c0.3,0.2,0.6,0.2,0.9,0.2c0,0,0.1,0.1,0.2,0.2c0,0,0,0,0,0.1s0,0.1,0,0.1c-0.3,0.2-0.5,0.4-0.8,0.6   c-0.1,0.1-0.3,0.2-0.4,0.2c-0.2,0-0.3,0.1-0.5,0c-0.1,0-0.2,0-0.2-0.1c-0.1,0-0.1-0.1-0.2-0.1c-0.2-0.3-0.4-0.7-0.6-1   c-0.4-0.8-0.8-1.5-1.2-2.2c-0.4-0.7-0.9-1.5-1.4-2.1c-0.3-0.5-0.7-0.9-0.9-1.4c-0.1-0.2-0.3-0.3-0.4-0.4c-0.2-0.1-0.4,0-0.6,0   c-0.2,0-0.3,0.1-0.5,0.2c-0.3,0.2-0.5,0.4-0.8,0.6c-0.3,0.2-0.9,0.2-0.9,0.6c0,0.3,0,0.7,0.1,1c0.2,0.9,0.4,1.9,0.6,2.8   c0.1,0.4,0.2,0.9,0.3,1.3c0.1,0.4,0.2,0.7,0.5,1c0,0.1,0,0.2-0.1,0.3c-0.5,0.2-0.9,0.4-1.5,0.4c-0.1,0-0.4-0.2-0.4-0.3   c0.1-0.5,0-1-0.2-1.4c-0.1-0.4-0.2-0.9-0.3-1.3c-0.1-0.5-0.3-1-0.4-1.4c-0.2-0.8-0.4-1.6-0.6-2.5c-0.2-0.8-0.4-1.6-0.6-2.5   c-0.1-0.6-0.3-1.1-0.4-1.6c-0.2-0.7-0.4-1.4-0.6-2.1c-0.1-0.2-0.1-0.4,0-0.7c0.1-0.2,0.2-0.4,0.4-0.5c0.5-0.3,1.1-0.6,1.6-0.9   c0.8-0.3,1.5-0.7,2.3-1c0.6-0.2,1.2-0.4,1.8-0.4c0.6,0,1.2,0.1,1.8,0.4c0.4,0.2,0.8,0.5,1,0.8C65.8,125.4,66,126.2,66,126.9z    M62.6,124.8c-1.4,0.1-2.8,0.6-4.1,1.2c-0.2,0.2-0.4,0.4-0.5,0.6c-0.2,0.3,0,0.5,0,0.8c0.3,0.8,0.5,1.6,0.7,2.5   c0.1,0.4,0.2,0.8,0.3,1.1c0,0.1,0.1,0.1,0.2,0.2c0.1,0,0.2,0,0.2,0c0.9-0.4,1.7-0.9,2.4-1.6c0.7-0.8,1.4-1.6,2.2-2.3   c0.2-0.3,0.3-0.6,0.3-0.9c0-0.1,0-0.1,0-0.2c0-0.3-0.1-0.7-0.4-0.9c-0.2-0.3-0.6-0.4-0.9-0.5L62.6,124.8z"></path>		<path class="st1" d="M52.2,140.1l0.9,1c0.1,0.1-0.1,0.4-0.2,0.4c-0.4,0.1-0.9,0-1.3-0.2c-0.4-0.2-0.7-0.5-0.9-0.9   c-0.1-0.3-0.3-0.7-0.4-1.1c-0.1,0-0.3,0-0.3,0.1c-0.4,0.5-0.7,1-1.1,1.4c-0.3,0.5-0.8,0.8-1.3,0.9c-0.3,0.1-0.6,0.2-0.9,0.2   c-0.7,0.2-1.4,0.1-2-0.2c-0.6-0.3-1.1-0.8-1.5-1.4c-0.4-0.8-0.7-1.6-0.9-2.4c-0.2-0.9-0.2-1.8-0.1-2.6c0.1-1.1,0.3-2.2,0.4-3.3   c0.2-1.1,0.3-2.2,0.4-3.3c0.2-0.7,0.3-1.4,0.3-2.2c0-0.1,0.3-0.3,0.4-0.2c0.7,0.4,1.5,0.6,2.2,0.8c0.1,0,0.1,0.1,0.2,0.2   c0,0.1,0,0.2-0.2,0.2l-0.7,0.1c-0.1,0-0.3,0.1-0.4,0.2c-0.1,0.1-0.2,0.2-0.2,0.4c-0.2,0.8-0.4,1.7-0.4,2.5c0,0.7-0.1,1.5-0.4,2.2   c-0.2,1-0.2,2-0.3,3.1c0,1,0.1,2,0.5,3c0.1,0.3,0.2,0.5,0.3,0.8c0.2,0.3,0.4,0.6,0.7,0.7c0.3,0.2,0.7,0.2,1,0.1   c0.3,0,0.5-0.1,0.8-0.1c0.5-0.1,1-0.4,1.3-0.9c0.4-0.4,0.6-0.9,0.7-1.4c0.1-0.3,0.2-0.6,0.4-0.9c0.3-0.2,0.5-0.5,0.6-0.8   c0.1-0.3,0.1-0.7,0.1-1c0-1.1,0-2.2,0-3.4c0-1.1,0-2.2,0-3.4c0-0.3-0.1-0.7-0.1-1c0-0.1,0-0.3,0.1-0.4c0.1-0.1,0.2-0.2,0.3-0.3   c0.1-0.1,0.3-0.1,0.4-0.1c0.1,0,0.3,0,0.4,0.1c0.2,0.1,0.5,0.3,0.7,0.5c0.1,0.1,0.2,0.2,0.2,0.3c0,0.1,0,0.2,0,0.3   c-0.4,1-0.5,2.1-0.4,3.2c0,1.1,0.1,2.1,0.1,3.2c0.1,1.1,0.1,2.2,0,3.3c0,0.2,0,0.3,0.1,0.5C51.9,138.6,52.1,139.3,52.2,140.1z"></path>		<path class="st1" d="M79.4,35.4c-0.4-0.1-0.7-0.3-1.1-0.5c-0.8-0.4-1.5-0.7-2.3-1.1c-1.1-0.5-2-1.3-2.5-2.4   c-0.4-0.7-0.5-1.5-0.3-2.3c0.3-1.4,0.8-2.8,1.6-4.1c0.4-0.6,0.9-1.2,1.4-1.8c1.1-1.1,2.2-2.2,3.3-3.2c0.8-0.7,1.8-1.2,2.9-1.5   c0.3-0.1,0.6-0.1,0.8-0.1c0.7-0.1,1.3,0,1.9,0.2c0.6,0.3,1.1,0.7,1.5,1.2c0.3,0.3,0.5,0.6,0.7,1c0.2,0.4,0.5,0.8,0.8,1.2   c0,0.1,0.1,0.2,0.1,0.2c0,0.1,0,0.2,0,0.3c0,0.1-0.1,0.2-0.2,0.2c-0.1,0.1-0.1,0.1-0.2,0.1c-0.1,0-0.2,0.1-0.3,0.1   c-0.1,0-0.2,0-0.3-0.1c-0.1-0.1-0.2-0.1-0.3-0.2c-0.1-0.1-0.1-0.2-0.2-0.3c-0.2-0.6-0.5-1.2-0.9-1.7c-0.4-0.4-0.8-0.6-1.4-0.6   c-0.2,0-0.4,0-0.7,0c-0.7-0.1-1.4,0.1-2,0.5c-0.8,0.4-1.5,0.9-2.1,1.5c-0.8,0.7-1.5,1.5-2.3,2.2c-0.3,0.3-0.5,0.6-0.7,1   c-0.9,1.4-1.4,2.9-1.7,4.5c-0.1,0.4,0,0.9,0.2,1.3c0.4,0.6,1,1.1,1.7,1.4c0.7,0.3,1.4,0.7,2.1,1.1c0.1,0.1,0.3,0.1,0.5,0.1   c0.2,0,0.3-0.1,0.4-0.3c0.5-0.5,0.9-1,1.2-1.7c0.2-0.4,0.4-0.8,0.6-1.2c0.1-0.3,0.2-0.5,0.3-0.8c0.1-0.2,0.1-0.3,0-0.5   c0-0.2-0.1-0.3-0.2-0.5c-0.1-0.1-0.2-0.3-0.4-0.4c-0.1-0.1-0.3-0.2-0.5-0.2c-0.5-0.1-1-0.2-1.5-0.3c-0.2-0.1-0.4-0.2-0.6-0.3   c-0.1-0.1-0.2-0.3-0.3-0.5c0-0.2,0-0.4,0.1-0.6c0.1-0.1,0.2-0.2,0.3-0.2c0.1,0,0.3,0,0.4,0c0.7,0.2,1.4,0.4,2.1,0.7   c0.6,0.2,1,0.6,1.4,1.1c0.4,0.5,0.5,1.2,0.5,1.8c-0.1,0.7-0.3,1.5-0.6,2.1c-0.6,1-1.3,2-2.2,2.8C80.1,35.1,79.8,35.3,79.4,35.4z"></path>		<path class="st1" d="M16.5,136.2c-0.6-0.1-1.1-0.3-1.6-0.6c-0.1-0.1-0.3-0.2-0.4-0.3c-0.1-0.2-0.1-0.5,0.1-0.6   c0.2-0.1,0.3-0.2,0.4-0.3c0.1-0.1,0.2-0.3,0.2-0.4c0.4-1.2,1-2.3,1.8-3.2c0.4-0.6,0.9-1.2,1.4-1.7c0.3-0.2,0.5-0.5,0.7-0.7   c1-1,1.9-2.1,2.9-3.1c0.7-0.8,1.5-1.7,2.4-2.4c0.2-0.2,0.5-0.4,0.9-0.5c0.8-0.2,1-0.2,1.5,0.4c0.3,0.3,0.5,0.8,0.5,1.2   c0,0.7,0,1.3-0.1,2c-0.2,1.3-0.4,2.7-0.6,4c0,0.4-0.2,0.8-0.4,1.1c-0.1,0.1-0.1,0.3-0.1,0.4c0,0.1,0,0.3,0.1,0.4   c0.1,0.1,0.1,0.3,0.1,0.4s0,0.3-0.1,0.4c-0.5,1-0.8,2-0.9,3.1c0,0.4-0.1,0.8-0.3,1.1c-0.2,0.4-0.3,0.9-0.3,1.3   c0,0.3-0.2,0.5-0.5,0.6c-0.1,0-0.1,0-0.2,0c-0.1,0-0.1,0-0.2,0c-0.6-0.4-1.3-0.7-1.7-1.4c0-0.1,0-0.1,0-0.2c0-0.1,0-0.1,0.1-0.2   c0,0,0.1-0.1,0.1-0.1c0,0,0.1-0.1,0.2-0.1c0.2,0,0.4,0,0.6-0.1s0.3-0.3,0.3-0.5c0.3-1.1,0.5-2.2,0.8-3.3c0-0.2,0-0.4-0.1-0.5   c-0.1-0.2-0.2-0.3-0.4-0.3c-0.9-0.5-1.8-1-2.8-1.4c-0.3-0.2-0.7-0.3-1-0.3c-0.2,0-0.4,0-0.6,0s-0.3,0.2-0.4,0.3   c-0.4,0.6-0.9,1.2-1.3,1.8c-0.4,0.6-0.8,1.1-1.1,1.7c-0.1,0.1-0.2,0.2-0.2,0.4c0,0.1-0.1,0.3-0.1,0.4c0,0.1,0.1,0.3,0.1,0.4   c0.1,0.1,0.2,0.2,0.3,0.3C16.5,135.9,16.5,136.1,16.5,136.2z M24.5,130.8c0.3-0.4,0.4-0.9,0.5-1.4c0.1-1,0.3-2,0.4-3   c0.1-0.6,0.1-1.2,0.1-1.8c0-0.1-0.2-0.3-0.4-0.2c-0.7,0.4-1.4,0.9-1.9,1.6c-0.3,0.4-0.7,0.7-1,1.1c-0.3,0.4-0.7,0.8-1,1.1   c-0.2,0.1-0.3,0.3-0.4,0.5c-0.3,0.4-0.3,0.7,0.3,0.8c1,0.3,1.9,0.7,2.8,1.2c0.1,0.1,0.2,0.1,0.3,0.1   C24.3,130.8,24.4,130.8,24.5,130.8L24.5,130.8z"></path>		<path class="st1" d="M6.3,20c0,0.5,0.1,0.9,0.3,1.3c0.2,0.4,0.6,0.7,1,0.9c0.4,0.2,0.9,0.3,1.3,0.3c1.3,0.1,2.6,0.4,3.9,0.7   c0.2,0,0.3,0.1,0.5,0.2c0.8,0.4,1.4,1,2,1.6c0.4,0.5,0.7,1.1,0.8,1.7c0.2,0.5,0.2,1,0,1.5c-0.2,0.4-0.3,0.9-0.4,1.3   c-0.2,0.4-0.4,0.8-0.8,1.1c-0.4,0.3-0.7,0.6-1.1,0.8c-0.5,0.4-1.1,0.6-1.7,0.6c-0.6,0.1-1.3,0-1.8-0.3c-0.8-0.4-1.6-0.9-2.3-1.5   c-0.1-0.1-0.1-0.2-0.1-0.3c0-0.1,0-0.3,0.1-0.3c0.3-0.2,0.6-0.4,1-0.6c0.2-0.1,0.3-0.1,0.5,0c0.2,0,0.3,0.1,0.4,0.3   c0.2,0.2,0.3,0.4,0.4,0.6c0.2,0.3,0.5,0.4,0.8,0.6c0.6,0.2,1.2,0.2,1.8-0.1c0.6-0.2,1-0.7,1.3-1.3c0.1-0.3,0.2-0.6,0.3-1   c0.1-0.3,0.2-0.7,0.1-1c0-0.3-0.2-0.7-0.4-1c-0.2-0.4-0.5-0.7-0.9-1c-0.4-0.3-0.8-0.5-1.2-0.6c-0.8-0.2-1.7-0.3-2.5-0.4   c-0.8-0.1-1.4-0.3-2.2-0.4c-0.3-0.1-0.5-0.2-0.8-0.3C6.3,23.3,6,23,5.8,22.6c-0.2-0.4-0.4-0.7-0.6-1c-0.2-0.3-0.4-0.6-0.5-1   c-0.1-0.4-0.1-0.7,0-1.1c0.1-0.7,0.2-1.4,0.4-2c0.3-0.9,0.8-1.8,1.4-2.5c0.3-0.4,0.8-0.6,1.3-0.7c0.8-0.1,1.6,0,2.3,0.4   c0.4,0.2,0.7,0.6,0.9,1c0.1,0.3,0.3,0.5,0.5,0.6c0.2,0.1,0.6,0.3,0.5,0.6c-0.1,0.5-0.3,1-0.9,1.1l-0.9,0.1c-0.1,0-0.1,0-0.2,0   c-0.1,0-0.1-0.1-0.2-0.1c0-0.1-0.1-0.1-0.1-0.2c0-0.1,0-0.1,0-0.2c0.1-0.5-0.2-1-0.1-1.5c0-0.2-0.4-0.5-0.6-0.4   c-0.1,0-0.1,0-0.2,0c-0.4,0.1-0.8,0.3-1.1,0.5c-0.3,0.3-0.6,0.6-0.8,1C6.6,18.1,6.3,19,6.3,20z"></path>		<path class="st1" d="M72.4,127c0.8-0.4,1.6-0.9,2.4-1.3c0.4-0.3,0.9-0.6,1.3-0.8c0.4-0.2,0.5-0.5,0.5-1c0-0.2,0.5-0.4,0.7-0.3   c0.4,0.4,0.9,0.7,1.4,0.9c0,0,0,0,0.1,0.1c0,0,0,0.1,0,0.1c0,0,0,0.1,0,0.1c0,0,0,0.1,0,0.1c-0.1,0.1-0.1,0.2-0.2,0.2l-1.5,0.9   c-0.7,0.4-1.4,0.8-2,1.3c-0.5,0.4-1,0.7-1.5,1c-0.1,0.1-0.2,0.2-0.2,0.4c0,0.1,0,0.3,0,0.4c0.6,1.3,1.2,2.5,2,3.6   c0,0.1,0.1,0.1,0.1,0.2c0.1,0,0.1,0.1,0.2,0.1c0.1,0,0.1,0,0.2,0c0.1,0,0.1,0,0.2-0.1c0.7-0.3,1.3-0.6,2-1   c0.8-0.5,1.6-0.9,2.4-1.3c0.2-0.1,0.2-0.3,0.1-0.6c0-0.1-0.1-0.2-0.1-0.3c0-0.1,0-0.2,0-0.2c0-0.1,0.1-0.1,0.2-0.2   c0.1-0.1,0.2-0.1,0.3-0.1c0.1,0,0.2,0.1,0.3,0.1l0.8,1.4c-0.4,0.3-0.8,0.5-1.1,0.8c-0.8,0.5-1.6,1-2.4,1.6c-1,0.8-2.2,1.4-3.4,1.7   c-0.1,0-0.3,0-0.4-0.1c-0.1-0.1-0.2-0.2-0.3-0.3c0-0.2-0.1-0.3-0.1-0.5c-0.1-0.7-0.4-1.3-0.8-1.9c-0.9-1.3-1.7-2.6-2.4-4   c-0.1-0.2-0.2-0.4-0.3-0.6c-0.2-1-0.9-1.7-1.1-2.7l-1-1.6c-0.1-0.2-0.2-0.4-0.3-0.6c0-0.1-0.1-0.2-0.1-0.2c0-0.1,0-0.2,0-0.2   c0-0.1,0.1-0.1,0.1-0.2c0.1-0.1,0.1-0.1,0.2-0.1c0.8-0.2,1.5-0.5,2.2-0.9c0.9-0.4,1.7-1,2.4-1.6c0.5-0.3,1-0.5,1.6-0.6   c0.3,0,0.7,0,1,0c0.1,0,0.2,0,0.2,0.1c0,0.1,0,0.2,0,0.3c0,0.1-0.1,0.1-0.1,0.1c-0.2,0.1-0.3,0.2-0.4,0.4c-0.1,0.2-0.1,0.4,0,0.6   c0,0.1,0,0.2,0,0.3c-0.1,0.1-0.1,0.2-0.2,0.2c-0.1,0-0.2,0.1-0.3,0.1c-0.3,0-0.7-0.2-1-0.1c-0.5,0.2-0.9,0.4-1.4,0.7   c-0.6,0.4-1.2,0.9-1.8,1.2c-0.1,0-0.1,0.1-0.2,0.1c0,0.1-0.1,0.1-0.1,0.2s0,0.1,0,0.2c0,0.1,0,0.1,0.1,0.2c0.5,1,1,1.9,1.6,2.9   C72.2,126.6,72.3,126.8,72.4,127z"></path>		<path class="st1" d="M45.3,8c0.2,0.1,0.5,0.1,0.8,0.2c0.1,0.1,0.2,0.1,0.2,0.2c0.1,0.1,0.1,0.2,0.1,0.3c-0.1,0.3-0.2,0.7-0.3,1   c-0.2,0.6-0.4,1.3-0.6,2c-0.2,0.8-0.4,1.6-0.6,2.3c-0.1,0.3-0.2,0.5-0.2,0.8c-0.3,1.1-0.5,2.2-0.8,3.4c-0.1,0.4-0.3,0.9-0.3,1.3   c-0.1,0.5,0,0.9-0.1,1.3c0,0.3-0.1,0.7-0.2,1c-0.1,0.3-0.2,0.5-0.4,0.8c-0.2,0.2-0.4,0.4-0.7,0.4c-0.5,0.2-1,0.4-1.5,0.4   c-0.3,0-0.6-0.1-0.8-0.3c-0.7-0.5-1.1-1.2-1.3-2c-0.2-0.7-0.4-1.3-0.5-2c0-0.3-0.1-0.6-0.2-0.8c-0.8-1.9-1.1-3.9-1.9-5.9   c-0.2-0.6-0.5-1.1-0.8-1.6c-0.4-0.6-0.7-1.2-0.9-1.8c0-0.1,0-0.2,0.1-0.3c0-0.1,0.1-0.2,0.2-0.3c0.2-0.1,0.4-0.2,0.7-0.2   c0.2,0,0.5,0,0.7,0.1c0.2,0.1,0.3,0.2,0.4,0.3c0.1,0.2,0.1,0.3,0.1,0.5c-0.1,0.2-0.1,0.4-0.1,0.7c0,0.2,0.1,0.4,0.2,0.6   c0.5,1,0.9,2.1,1.2,3.2c0.2,0.8,0.5,1.5,0.8,2.2c0.2,0.3,0.4,0.7,0.4,1.1c0.3,1.3,0.7,2.7,1.1,3.9c0.1,0.2,0.2,0.4,0.3,0.6   c0.2,0.2,0.4,0.3,0.6,0.4c0.1,0,0.3,0,0.4-0.1s0.2-0.2,0.3-0.3c0.1-1.2,0.3-2.4,0.6-3.5c0.2-0.8,0.4-1.6,0.6-2.3   c0.1-0.3,0.2-0.5,0.2-0.8c0.3-1.6,0.8-3.2,1.2-4.8c0.2-0.5,0.1-1-0.1-1.5c-0.1-0.2,0.1-0.6,0.4-0.6L45.3,8z"></path>		<path class="st1" d="M34.1,127.1c-0.1-0.1-0.1-0.2-0.2-0.3c-0.1-0.1-0.2-0.1-0.3-0.2c-1-0.2-2-0.1-3,0.3c-0.5,0.2-1-0.2-1-0.8   c0-0.2,0.1-0.4,0.2-0.5c0.1-0.2,0.3-0.3,0.5-0.3c0.6,0,1.2-0.1,1.9-0.1c0.6,0,1,0.1,1.5,0c1.1-0.1,2.3,0.2,3.3,0.6   c0.4,0.2,0.7,0.3,1.1,0.4c0.2,0,0.3,0,0.5,0c0.2-0.1,0.3-0.2,0.3-0.4c0.1-0.3,0.4-0.5,0.7-0.3c0.2,0.1,0.5,0.3,0.6,0.5   c0.2,0.2,0.3,0.4,0.4,0.7c0,0,0,0.1,0,0.1s0,0.1,0,0.1c-0.3,0.5-0.8,0.8-1.3,0.9c-0.8,0.2-1.6,0.1-2.3-0.1   c-0.3-0.1-0.5-0.2-0.8-0.3c-0.1,0-0.2,0-0.3,0.1c-0.1,0-0.2,0.1-0.2,0.2c-0.2,0.4-0.3,0.9-0.4,1.3c-0.1,1.1-0.4,2.1-0.7,3.2   c-0.3,1.1-0.5,2.1-0.7,3.2c-0.1,0.4-0.2,0.9-0.4,1.3c-0.4,0.8-0.7,1.7-0.7,2.6c0,0.1,0,0.2-0.1,0.3c-0.3,0.5-0.6,1.1-0.9,1.6   c-0.1,0.1-0.3,0.1-0.5,0c-0.2-0.1-0.3-0.2-0.3-0.4c-0.1-0.2-0.1-0.3-0.1-0.5c0-0.5,0.1-0.9,0.3-1.4c0.3-1.1,0.6-2.1,0.9-3.2   c0.3-1.1,0.5-2.2,0.8-3.2c0.2-1.1,0.6-2.2,1-3.3C33.7,128.4,33.9,127.7,34.1,127.1z"></path>		<path class="st1" d="M55.1,8.6l0.5,0.1C55.8,8.7,56,8.8,56.1,9c0.1,0.2,0.2,0.4,0.2,0.6c0,0.1,0,0.2,0,0.3   c-0.5,1.4-0.9,2.9-1.2,4.3c-0.3,0.8-0.4,1.6-0.4,2.3c0,0.2,0,0.3-0.1,0.5c-0.3,1-0.4,2.2-0.7,3.2c-0.2,0.8-0.4,1.7-0.5,2.5   c0,0.2-0.1,0.3-0.1,0.5c-0.1,0.1-0.2,0.2-0.3,0.3c-0.1,0.1-0.2,0.2-0.4,0.2c-0.1,0-0.3,0-0.4,0c-0.1-0.1-0.2-0.1-0.3-0.3   c-0.1-0.1-0.2-0.3-0.3-0.5c0-0.2,0-0.4,0.1-0.6c0.3-0.6,0.5-1.3,0.6-2c0.5-1.9,1-3.8,1.4-5.7c0.3-1,0.5-2,0.6-3   c0-0.3,0.1-0.6,0.2-0.8c0.1-0.2,0.1-0.5,0.1-0.7c-0.1-0.3-0.2-0.5-0.4-0.7c-0.2-0.2,0-0.6,0.3-0.7s0.5-0.1,0.7-0.1L55.1,8.6z"></path>		<path class="st1" d="M44.9,39.4c0.2,0,0.3,0,0.5,0.1c0.2,0.1,0.3,0.1,0.4,0.3c0.2,0.1,0.3,0.3,0.4,0.5c0.3,0.4,0.6,0.8,1,1.1   c0.7,0.7,1.2,1.6,1.5,2.6c0.1,0.3,0.1,0.6,0,0.8c-0.1,0.7-0.3,1.3-0.6,1.9c-0.1,0.1-0.2,0.3-0.2,0.5c-0.3,1.2-1.1,2.3-2.2,3   c-0.8,0.6-1.4,1.5-1.6,2.4c-0.4,1.3-1.2,2.4-2.3,3.2c-0.3,0.2-0.6,0.3-0.9,0.4c-0.1,0-0.3,0-0.4,0c-0.1,0-0.2-0.1-0.3-0.2   c-0.1-0.1-0.2-0.2-0.2-0.3c-0.1-0.1-0.1-0.2-0.1-0.4c0-0.4,0.2-0.8,0.2-1.1c0.1-0.7,0.1-1.4,0.2-2c0.1-0.5,0-1-0.2-1.5   c-0.2-0.4-0.2-0.9-0.1-1.3c0-0.4,0.1-0.8,0.1-1.2c0.1-0.8,0-1.7-0.4-2.5c-0.3-0.7-0.3-1.4-0.1-2.2c0.1-0.2,0.1-0.3,0.2-0.5   c0.1-1,0.6-1.9,1.4-2.6c0.1-0.1,0.2-0.2,0.2-0.2c0.1-0.1,0.2-0.1,0.3-0.1c0.9,0,1.8-0.2,2.6-0.6C44.5,39.5,44.7,39.4,44.9,39.4z    M42.1,53.7l-0.8-0.1c-0.1,0.1-0.1,0.3-0.1,0.4c0,0.1,0.1,0.3,0.1,0.4c0,0,0.1,0.1,0.1,0.1c0,0,0.1,0,0.2,0c0.1,0,0.1,0,0.2,0   c0,0,0.1-0.1,0.1-0.1c0.1-0.1,0.2-0.2,0.2-0.3C42.2,53.9,42.2,53.8,42.1,53.7l0.7-0.2c0-0.1,0-0.2,0-0.3c0.1-0.3,0.2-0.7,0.1-1.1   c-0.1-0.4-0.3-0.7-0.5-0.9c0,0,0,0,0-0.1c0,0,0-0.1,0-0.1c0.2-0.4-0.1-0.7-0.3-1.1c0,0,0,0,0-0.1c0,0,0-0.1,0-0.1c0,0,0-0.1,0-0.1   c0,0,0,0,0.1,0c0.1,0,0.2-0.1,0.3,0c0.1,0.1,0.3,0.2,0.3,0.4c0,0.1,0.1,0.3,0.1,0.4c0.1,0.1,0.2,0.2,0.3,0.3   c0.1,0.1,0.3,0.1,0.5,0.1c0.1,0,0.2-0.2,0-0.4c-0.1-0.3-0.1-0.4-0.2-0.6c-0.1-0.2,0.2-0.3,0.3-0.3c0.1,0,0.2,0,0.3,0.1   c0.2,0.2,0.5,0.2,0.7,0c0.3-0.2,0.2-0.5,0-0.7c-0.1-0.1-0.1-0.2-0.1-0.3c0-0.1,0-0.1,0.1-0.2c0-0.1,0.1-0.1,0.1-0.2   c0.1,0,0.1-0.1,0.2-0.1c0.1,0,0.1,0,0.2,0c0.2,0.1,0.4,0.2,0.5,0.4c0,0,0.1,0.1,0.1,0.1c0,0,0.1,0,0.1,0s0.1,0,0.2,0   c0,0,0.1-0.1,0.1-0.1c0.3-0.4,0.6-0.9,0.7-1.5c0.1-0.5,0.3-1.1,0.6-1.6c-0.3-0.2-0.5-0.4-0.8-0.6c0,0-0.1-0.1-0.1-0.1   c0-0.1,0-0.1,0-0.2c0,0,0-0.1,0.1-0.1c0,0,0.1-0.1,0.1-0.1c0.1,0,0.2,0,0.3,0c0.3,0,0.4-0.2,0.4-0.4c-0.2-0.5-0.4-0.9-0.6-1.4   c0-0.1-0.1-0.2-0.2-0.3c-0.1-0.1-0.2-0.1-0.3-0.1c-0.2,0-0.3,0-0.5,0c-0.1,0-0.2,0-0.2-0.1s-0.1-0.1-0.2-0.1   c-0.1-0.1-0.1-0.1-0.1-0.2c0-0.1,0-0.2,0-0.2c0-0.2,0-0.4,0-0.7c0,0,0-0.1-0.1-0.1c0,0-0.1-0.1-0.1-0.1c-0.1,0-0.2,0-0.3,0.1   c0,0-0.1,0.1-0.1,0.1c-0.2,0.3-0.5,0.5-0.8,0.3C43.9,41,43.7,41,43.6,41c-0.2,0-0.3,0-0.5,0c-0.8,0.2-1.3,0.2-0.7,1.3   c0,0.1,0,0.1,0,0.2c0,0.2-0.1,0.3-0.2,0.4c0,0-0.1,0.1-0.1,0.1c0,0-0.1,0-0.1,0c0,0-0.1,0-0.1,0c0,0-0.1,0-0.1-0.1   c-0.1-0.1-0.2-0.3-0.3-0.4c-0.2-0.3-0.5-0.3-0.6,0c-0.1,0.1-0.2,0.3-0.3,0.4c-0.2,0.5-0.4,1-0.5,1.6c0.4,0.6,0.8,1.3,0.9,2   c0.2,0.7,0.2,1.5,0.1,2.2c0,0.3-0.1,0.7-0.2,1c0,0.1-0.1,0.3,0,0.4c0,0.1,0.1,0.3,0.1,0.4c0.1,0.2,0.2,0.4,0.2,0.6   c0,0.2,0,0.4-0.1,0.6c0,0.1,0,0.2,0,0.3c0,0.1,0.1,0.2,0.1,0.3c0.1,0.1,0.1,0.2,0.2,0.2c0.1,0.1,0.2,0.1,0.3,0.1   c0.1,0,0.3,0.1,0.4,0.1c0.1,0.1,0.2,0.2,0.3,0.3c0.1,0.2,0.3,0.3,0.5,0.5L42.1,53.7z"></path>		<path class="st1" d="M60.4,58.7c-0.1,1.1-0.5,2.2-1.2,3c-0.5,0.5-1,1-1.7,1.3c-0.2,0.1-0.4,0.1-0.6,0.1c-0.2,0-0.4-0.1-0.6-0.2   c-0.2-0.2-0.3-0.4-0.3-0.7c0-0.3,0-0.5,0.1-0.7c0.2-0.4,0.4-0.8,0.6-1.2c0.1-0.1,0.2-0.2,0.4-0.3c0.8-0.4,0.8-0.4,1-1.1   s0.4-1,0.6-1.6c0.1-0.1,0.1-0.2,0.3-0.3c0.1-0.1,0.2-0.1,0.4-0.1c0.1,0,0.3,0,0.4,0.1c0.1,0.1,0.2,0.1,0.3,0.3   c0.2,0.2,0.3,0.5,0.4,0.8C60.3,58.2,60.3,58.5,60.4,58.7z M59.5,59l-0.1-0.5c0,0-0.1-0.1-0.1-0.1c0,0-0.1,0-0.1,0c0,0-0.1,0-0.1,0   c0,0-0.1,0-0.1,0.1c-0.5,1-1.2,1.9-2,2.8c-0.1,0.1-0.1,0.3-0.1,0.5c0,0.2,0,0.1,0.1,0.1C57,62,57,62,57.1,62   c1-0.6,1.9-1.5,2.5-2.6C59.5,59.3,59.5,59.1,59.5,59L59.5,59z"></path>		<path class="st1" d="M59.9,36.6c0.5,0.4,1,0.8,1.4,1.2c0.2,0.2,0.4,0.5,0.5,0.9c0,0.1,0.1,0.2,0.2,0.3c0.1,0.1,0.2,0.1,0.4,0.2   c0.1,0.1,0.3,0.1,0.4,0c0.1,0,0.2-0.1,0.3-0.3c0.1-0.2,0.4-0.4,0.5-0.6c0.1-0.2,0-0.4,0-0.7c0-0.1,0.1-0.2,0.1-0.3   s0.1-0.1,0.2-0.2c0.1,0,0.2,0,0.3,0c0.1,0,0.2,0.1,0.3,0.1c0.1,0.1,0.2,0.1,0.3,0.2c0.2,0.2,0.2,0.7,0.6,0.8c0.3,0,0.5,0,0.8,0   c0,0,0.1,0,0.2,0c0.1,0.1,0.2,0.2,0.2,0.2c0,0.1,0,0.3-0.1,0.3c-0.7,0.2-1.4,0.5-2,0.9c-0.1,0.1-0.2,0.1-0.3,0.1   c-0.9,0.1-1.8,0.1-2.7,0.2c-0.2,0-0.4,0-0.6-0.1c-0.2-0.1-0.3-0.2-0.4-0.4c-0.1-0.2-0.2-0.4-0.3-0.6c-0.1-0.2-0.2-0.3-0.3-0.4   c-0.1-0.1-0.3-0.2-0.4-0.2c-0.1,0-0.2-0.1-0.3-0.2c-0.1-0.1-0.2-0.2-0.2-0.3c0-0.1-0.1-0.3,0-0.4c0-0.1,0.1-0.2,0.1-0.3   c0.1-0.1,0.2-0.1,0.3-0.2C59.4,36.8,59.6,36.7,59.9,36.6z"></path>		<path class="st1" d="M59.7,48.8c0.2,0,0.4,0,0.6,0.1c0.2,0.1,0.4,0.2,0.5,0.4c0.3,0.2,0.5,0.6,0.6,0.9c0,0.1-0.1,0.5-0.3,0.6   c-0.6,0.1-1.1,0.3-1.7,0.4c-0.2,0-0.4,0-0.6-0.1c-0.1-0.1-0.2-0.1-0.3-0.3c-0.1-0.1-0.1-0.2-0.1-0.4c0-0.5,0.1-1,0.3-1.5   c0,0,0.1-0.1,0.1-0.1c0,0,0.1-0.1,0.1-0.1C59.3,48.8,59.5,48.8,59.7,48.8z M60.1,50c-0.1-0.1-0.2-0.2-0.2-0.2   c-0.1,0-0.4,0.2-0.3,0.4c0.1,0.3,0.1,0.2,0.2,0.1C59.9,50.2,60,50.1,60.1,50z"></path>		<path class="st1" d="M32.7,49.2c0,0.1-0.1,0.2-0.2,0.3c-0.3,0.2-0.7,0.4-1,0.5c-0.5,0.1-1.1-0.1-1.5-0.4c-0.1-0.1-0.2-0.2-0.2-0.3   c-0.1-0.1-0.1-0.2-0.1-0.3c0-0.1,0-0.3,0-0.4c0-0.1,0.1-0.2,0.2-0.3c0.2-0.2,0.5-0.3,0.7-0.4c0.3-0.1,0.6-0.1,0.8,0   c0.1,0,0.2,0.1,0.3,0.1C32.3,48.2,32.6,48.7,32.7,49.2z M31.2,49c0.1,0.1,0.2,0.1,0.4,0.2c0,0,0.1-0.1,0.1-0.2   c0-0.1-0.2-0.3-0.3-0.2C31.3,48.8,31.3,48.9,31.2,49z"></path>		<path class="st1" d="M34.1,112.9l-1.2-0.5c0,0-0.1-0.1-0.1-0.1c0-0.1-0.2-0.3-0.1-0.5c0-0.1,0.1-0.1,0.2-0.2c0.1,0,0.2-0.1,0.3,0   c0.4,0.1,0.8,0.1,1.2,0c0.5-0.1,1-0.1,1.6-0.2c0.1,0,0.1,0,0.2,0c0.5,0.2,1,0.3,1.5,0.4c0.1,0,0.1,0.1,0.2,0.1   c0,0.1,0.1,0.1,0.1,0.2c0,0.1,0,0.1,0,0.2c0,0.1,0,0.1-0.1,0.2c0,0-0.1,0.1-0.1,0.1c0,0-0.1,0-0.1,0c0,0-0.1,0-0.1,0   c0,0-0.1,0-0.1-0.1c-0.1-0.1-0.3-0.2-0.5-0.2c-0.2,0-0.4,0-0.5,0.1c-0.3,0.1-0.6,0.1-0.8,0.1c-0.2,0-0.4,0-0.5,0   c-0.2,0-0.3,0.1-0.5,0.3C34.3,112.8,34.2,112.8,34.1,112.9z"></path>		<path class="st1" d="M30,44.7l0.9,0.5c0.3,0.1,0.3,0.4,0.2,0.7c-0.1,0.2-0.2,0.4-0.4,0.6c-0.2,0.2-0.4,0.3-0.6,0.3   c-0.3,0.1-0.7,0.1-1,0.1c-0.2,0-0.3,0-0.5-0.1c-0.1-0.1-0.3-0.2-0.4-0.3s-0.2-0.3-0.2-0.4c0-0.2,0-0.3,0-0.5   c0.1-0.1,0.1-0.3,0.3-0.4c0.2-0.2,0.5-0.3,0.7-0.4C29.4,44.8,29.7,44.7,30,44.7z M29,46.1c0.1,0.1,0.3,0.1,0.4,0.1   c0.1,0,0.3,0,0.4-0.1c0.1,0,0.2-0.2,0.3-0.3c0,0,0,0,0-0.1c0,0,0-0.1,0-0.1c-0.1-0.1-0.2-0.2-0.2-0.2C29.5,45.5,29.1,45.6,29,46.1   L29,46.1z"></path>		<path class="st1" d="M48.8,114.4c-0.1,0.1-0.2,0.3-0.3,0.4c0,0.1-0.1,0.1-0.2,0.1c-0.1,0-0.1,0.1-0.2,0.1c-0.1,0-0.1,0-0.2,0   c-0.1,0-0.1-0.1-0.2-0.1c-0.2-0.2-0.3-0.3-0.4-0.5c0,0,0-0.1,0-0.1c0,0,0-0.1,0-0.1c0,0,0-0.1,0.1-0.1c0,0,0.1-0.1,0.1-0.1   c0.1,0,0.2,0,0.3,0c0.3,0.1,0.6,0.3,1,0c0.1,0,0.2-0.1,0.2-0.1s0.2,0,0.2,0.1c0.2,0.1,0.4,0.2,0.6,0.3c0.1,0.1,0.2,0.1,0.3,0.1   s0.2,0,0.3,0c0.2,0,0.5,0,0.7,0.1c0.1,0.1,0.2,0.2,0.3,0.4c0,0.1-0.2,0.3-0.4,0.3c-0.5-0.1-0.9-0.4-1.3-0.1c-0.1,0-0.2,0-0.3-0.1   C49.4,114.8,49.1,114.6,48.8,114.4z"></path>		<path class="st1" d="M45.9,115c-0.5-0.1-1-0.2-1.4-0.3c-0.4-0.1-0.8-0.2-1.2-0.1c-0.1,0-0.3,0-0.4-0.1c-0.1-0.1-0.2-0.2-0.3-0.3   c0-0.1,0-0.1,0-0.2c0-0.1,0-0.1,0.1-0.2c0-0.1,0.1-0.1,0.2-0.1c0.1,0,0.1,0,0.2,0c0.4,0,0.8,0.2,1.2,0c0.1,0,0.2,0,0.4,0   c0.4,0.2,0.8,0.2,1.2,0.3c0.1,0,0.3,0.1,0.4,0.2c0.1,0.1,0.2,0.2,0.3,0.3c0.1,0.2,0.1,0.3,0,0.5c0,0.1-0.2,0.1-0.3,0.1L45.9,115z"></path>		<path class="st1" d="M29.9,112.3c0.1-0.1,0.2-0.2,0.3-0.4c0.2-0.3,0.3-0.4,0.7-0.2l0.1,0.1c0.1,0.1,0.2,0.2,0.2,0.3   c0,0.1,0,0.3,0,0.4c-0.1,0.1-0.2,0.2-0.3,0.2c-0.1,0-0.3,0-0.4,0L29.9,112.3L29.9,112.3z"></path>		<path class="st1" d="M62.1,36.5c0.1,0,0.3,0.1,0.4,0.1c0.2,0.2,0.3,0.4,0.4,0.7c0,0,0,0.1,0,0.1c0,0,0,0.1-0.1,0.1   c0,0-0.1,0.1-0.1,0.1s-0.1,0-0.1,0c-0.2,0-0.4-0.1-0.6-0.3c-0.2-0.2-0.3-0.4-0.3-0.6C61.7,36.7,61.8,36.5,62.1,36.5z"></path>		<path class="st1" d="M71,104c-0.1,0-0.3-0.1-0.4-0.2c-0.1-0.1-0.1-0.3-0.1-0.4c0-0.2,0.2-0.5,0.4-0.5c0.2,0,0.3,0.1,0.4,0.3   c0.1,0.1,0.2,0.3,0.1,0.5c0,0.1-0.1,0.2-0.2,0.3C71.2,104,71.1,104,71,104z"></path>		<path class="st1" d="M74.4,100.1c0-0.3,0.2-0.5,0.4-0.5c0.2,0.1,0.3,0.2,0.4,0.3c0.1,0,0.1,0.1,0.1,0.2c0,0.1,0,0.1,0,0.2   c0,0.1,0,0.1-0.1,0.2s-0.1,0.1-0.1,0.2c0,0-0.1,0.1-0.1,0.1c-0.1,0-0.1,0-0.2,0c-0.1,0-0.1,0-0.1-0.1c0,0-0.1-0.1-0.1-0.1   C74.5,100.4,74.4,100.2,74.4,100.1z"></path>		<path class="st1" d="M52.7,112.7c0.2,0.1,0.4,0.1,0.5,0.2c0.1,0.1,0.3,0.3,0.2,0.4c-0.1,0.2-0.2,0.3-0.4,0.5c0,0-0.1,0-0.2,0   c-0.2-0.1-0.3-0.2-0.4-0.3c-0.1-0.1-0.1-0.3-0.1-0.5C52.4,112.9,52.6,112.8,52.7,112.7z"></path>		<path class="st1" d="M44.7,76.4c0.1,0,0.2,0,0.3,0.1c0.1,0,0.2,0.1,0.2,0.2c0,0.1,0.1,0.2,0,0.3c0,0.1-0.1,0.2-0.2,0.3   c-0.1,0.1-0.3,0.2-0.4,0.3c-0.1,0.1-0.3-0.1-0.4-0.2c-0.1-0.3,0-0.5,0.1-0.8C44.6,76.5,44.7,76.4,44.7,76.4z"></path>		<path class="st1" d="M46.6,59.2c0.1,0,0.3,0.1,0.4,0.1c0.1,0.1,0.2,0.2,0.2,0.3c0,0.1,0,0.2-0.1,0.3c-0.1,0.1-0.1,0.2-0.2,0.2   c-0.1,0-0.2,0-0.2,0c-0.1,0-0.2-0.1-0.2-0.1c-0.1-0.1-0.1-0.1-0.1-0.2c0-0.1-0.1-0.2,0-0.2c0-0.1,0-0.2,0.1-0.3   C46.4,59.3,46.5,59.2,46.6,59.2z"></path>		<path class="st1" d="M66.2,109c0,0.1-0.1,0.2-0.1,0.3c-0.1,0.1-0.2,0.1-0.3,0.2c-0.2,0-0.4-0.1-0.5-0.4c0-0.1-0.1-0.2-0.1-0.3   c0,0,0-0.1,0-0.1c0,0,0.1-0.1,0.1-0.1c0.1,0,0.2,0,0.2,0c0.1,0,0.2,0,0.2,0.1c0.1,0,0.1,0.1,0.2,0.1c0.1,0.1,0.1,0.1,0.1,0.2   C66.2,108.9,66.2,108.9,66.2,109z"></path>		<path class="st1" d="M67.4,41c0,0.1-0.1,0.2-0.1,0.3c-0.1,0.1-0.1,0.1-0.2,0.1c-0.1,0-0.2,0-0.2-0.1c-0.1-0.1-0.3-0.3-0.4-0.5   c-0.1-0.1-0.1-0.4,0.1-0.4c0.1-0.1,0.3-0.1,0.4,0c0.1,0.1,0.2,0.1,0.3,0.3C67.3,40.7,67.4,40.9,67.4,41z"></path>		<path class="st1" d="M50.8,87.4c0.1,0.1,0.2,0.2,0.2,0.2c0,0,0,0.1,0,0.1c0,0,0,0.1,0,0.1c0,0,0,0.1-0.1,0.1c0,0-0.1,0.1-0.1,0.1   c-0.1,0.1-0.3,0.1-0.4,0.2c-0.2,0-0.3-0.1-0.4-0.3c0-0.1,0-0.2,0-0.3c0-0.1,0.1-0.2,0.1-0.2s0.1-0.1,0.2-0.1   C50.6,87.4,50.7,87.4,50.8,87.4z"></path>		<path class="st1" d="M51.6,67.2c-0.1,0.1-0.1,0.2-0.2,0.2c-0.1,0-0.2,0-0.3,0c-0.1,0-0.2-0.1-0.3-0.2c-0.1-0.1-0.1-0.3,0-0.4   c0-0.1,0.2-0.1,0.2-0.1c0.1,0,0.3,0,0.4,0.1c0.1,0.1,0.2,0.2,0.2,0.3C51.7,67.1,51.6,67.1,51.6,67.2z"></path>		<path class="st1" d="M78,96.5c-0.1,0-0.3-0.1-0.4-0.1c-0.1-0.1-0.2-0.2-0.2-0.3c0-0.1,0-0.2,0.1-0.3c0.1-0.1,0.1-0.1,0.2-0.2   c0.1,0,0.3,0.1,0.4,0.2c0.1,0.1,0.2,0.2,0.2,0.3c0,0.1,0,0.2-0.1,0.3C78.2,96.4,78.1,96.5,78,96.5z"></path>		<path class="st1" d="M72.5,96.6c0,0.1,0,0.3,0,0.3c0,0,0.3,0.3,0.5,0.4c0.1,0.1,0.2,0.2,0.2,0.3c0,0.1,0,0.2,0,0.3   c0,0,0,0.1-0.1,0.1c0,0-0.1,0.1-0.1,0.1c0,0-0.1,0-0.1,0c-0.1,0-0.1,0-0.1,0c-0.1,0-0.2-0.1-0.3-0.2c-0.1-0.1-0.1-0.2-0.1-0.3   c0-0.2,0-0.3,0.1-0.5C72.4,97,72.4,96.8,72.5,96.6L72.5,96.6z"></path>		<path class="st1" d="M84.7,83.1c0,0.1-0.1,0.2-0.2,0.3c-0.1,0.1-0.2,0.1-0.3,0.1c-0.1,0-0.2-0.1-0.3-0.3c-0.1-0.1-0.1-0.3-0.1-0.4   c0-0.1,0.1-0.1,0.1-0.2c0.1-0.1,0.1-0.1,0.2-0.1c0.1,0,0.3,0.1,0.3,0.2C84.6,82.8,84.7,82.9,84.7,83.1z"></path>		<path class="st1" d="M39.1,112.3c0.2,0,0.3,0.1,0.5,0.2c0.1,0.1,0.2,0.2,0.3,0.4c0,0,0,0.1,0,0.1c0,0-0.1,0.1-0.1,0.1   c-0.2,0.1-0.3,0.1-0.5,0.1c-0.1,0-0.2,0-0.2-0.1c-0.1,0-0.1-0.1-0.1-0.2c0-0.1-0.1-0.2,0-0.3c0-0.1,0.1-0.2,0.2-0.3   C38.9,112.3,39,112.3,39.1,112.3z"></path>		<path class="st1" d="M61.2,111.7c0,0.1,0,0.1,0,0.2c0,0-0.1,0.1-0.1,0.1c0,0-0.1,0.1-0.1,0.1c-0.1,0-0.1,0-0.2,0   c-0.1,0-0.3-0.1-0.4-0.2c-0.1-0.1-0.1-0.3-0.1-0.4c0-0.1,0-0.1,0-0.2c0-0.1,0.1-0.1,0.1-0.1c0,0,0.1-0.1,0.1-0.1   c0.1,0,0.1,0,0.2,0c0.1,0,0.3,0.1,0.4,0.2C61.2,111.4,61.2,111.6,61.2,111.7z"></path>		<path class="st1" d="M26.6,106c-0.1,0.1-0.1,0.2-0.2,0.3c-0.1,0-0.2,0-0.2,0c-0.1,0-0.2-0.1-0.2-0.1c-0.1-0.1-0.1-0.1-0.2-0.2   c0-0.1-0.1-0.2-0.1-0.2c0,0,0-0.1,0.1-0.1c0,0,0.1-0.1,0.1-0.1c0.1,0,0.2,0,0.3,0c0.1,0,0.2,0.1,0.3,0.2   C26.6,105.8,26.6,105.9,26.6,106z"></path>		<path class="st1" d="M47.9,97.5c0.1,0.1,0.3,0.1,0.4,0.2c0,0,0.1,0.1,0.1,0.1c0,0.1,0,0.1,0,0.2c0,0.1,0,0.1-0.1,0.2   c0,0-0.1,0.1-0.1,0.1c-0.1,0-0.2,0-0.2,0c-0.1,0-0.2,0-0.2-0.1c-0.1,0-0.1-0.1-0.2-0.2c0-0.1-0.1-0.1-0.1-0.2   C47.4,97.7,47.7,97.5,47.9,97.5z"></path>		<path class="st1" d="M28.5,42.8c0,0-0.1,0.1-0.1,0.1c-0.2,0-0.3,0-0.4-0.1c-0.1-0.1-0.2-0.1-0.2-0.2c0-0.1,0-0.2,0-0.3   c0-0.1,0.3-0.2,0.4-0.1c0.1,0.1,0.2,0.2,0.3,0.3C28.5,42.5,28.5,42.7,28.5,42.8z"></path>		<path class="st1" d="M81.9,88.7c-0.1,0.1-0.1,0.2-0.2,0.4c0,0-0.1,0-0.1,0c0,0-0.1,0-0.1,0c0,0-0.1,0-0.1-0.1c0,0-0.1-0.1-0.1-0.1   c-0.1-0.1-0.1-0.3-0.2-0.5c0,0,0-0.1,0-0.2c0,0,0-0.1,0.1-0.1c0,0,0.1-0.1,0.1-0.1c0.1,0,0.1,0,0.1,0c0.1,0.1,0.2,0.1,0.3,0.2   C81.8,88.5,81.8,88.6,81.9,88.7z"></path>		<path class="st1" d="M32.1,74.4c0,0.1,0,0.1,0,0.2c0,0.1-0.1,0.1-0.1,0.2c-0.1,0-0.1,0.1-0.2,0.1c-0.1,0-0.1,0-0.2,0   c-0.1,0-0.1,0-0.2-0.1c-0.1,0-0.2-0.2-0.1-0.3c0-0.1,0.1-0.2,0.2-0.3c0.1-0.1,0.2-0.1,0.3-0.1c0.1,0,0.2,0,0.2,0.1   C32,74.2,32,74.3,32.1,74.4z"></path>		<path class="st1" d="M27.9,37.6c0.2,0,0.3,0.1,0.5,0.2c0.2,0.1,0.2,0.3,0,0.6c0,0,0,0.1-0.1,0.1c0,0-0.1,0-0.1,0c0,0-0.1,0-0.1,0   c0,0-0.1,0-0.1-0.1c-0.1-0.1-0.2-0.3-0.3-0.4C27.7,37.9,27.8,37.7,27.9,37.6z"></path>		<path class="st1" d="M25.5,39.6c0,0.1-0.1,0.2-0.1,0.3c-0.1,0.1-0.2,0.1-0.3,0.1c-0.2,0-0.5-0.3-0.5-0.6c0-0.1,0.1-0.2,0.1-0.3   c0.1-0.1,0.2-0.1,0.3-0.1c0.1,0,0.2,0.1,0.3,0.2C25.4,39.3,25.5,39.5,25.5,39.6z"></path>		<path class="st1" d="M35.8,78.9c0.1,0,0.2,0.1,0.3,0.1c0.1,0.1,0.1,0.2,0.1,0.3c0,0,0,0.1-0.1,0.1c0,0-0.1,0.1-0.1,0.1   c-0.1,0-0.1,0-0.2,0c-0.1,0-0.1-0.1-0.2-0.1c0,0-0.1-0.1-0.1-0.2c0-0.1,0-0.1,0-0.2C35.5,79,35.7,79,35.8,78.9z"></path>		<path class="st1" d="M71.9,43.8c0.1,0,0.1,0.1,0.2,0.1c0.1,0.1,0.1,0.1,0.1,0.2s0,0.2,0,0.2c0,0.1-0.1,0.1-0.1,0.2   c0,0-0.1,0.1-0.1,0.1c0,0-0.1,0-0.1,0c0,0-0.1,0-0.1,0c0,0-0.1,0-0.1-0.1c0-0.1-0.1-0.2-0.1-0.3c0-0.1,0-0.2,0.1-0.3   C71.7,43.8,71.9,43.8,71.9,43.8z"></path>		<path class="st1" d="M40.9,83.4c0-0.1-0.1-0.1-0.1-0.1c0.1-0.4,0.4-0.5,0.7-0.6c0,0,0.1,0,0.1,0.1c0,0.1,0,0.3,0,0.3   C41.4,83.2,41.1,83.3,40.9,83.4z"></path>		<path class="st1" d="M33.7,55.7c-0.1,0-0.2,0.2-0.3,0.2c-0.1,0-0.2-0.1-0.3-0.2c-0.1-0.1-0.1-0.2-0.1-0.3c0,0,0-0.1,0-0.1   c0,0,0-0.1,0-0.1c0,0,0.1-0.1,0.1-0.1c0,0,0.1,0,0.1,0c0.1,0,0.1,0,0.2,0.1c0.1,0,0.1,0.1,0.2,0.1c0,0.1,0.1,0.1,0.1,0.2   C33.7,55.6,33.7,55.6,33.7,55.7z"></path>		<path class="st1" d="M49,109.7c-0.1,0.1-0.2,0.2-0.2,0.2c-0.1,0-0.2,0-0.3-0.1c-0.1-0.1-0.2-0.2-0.2-0.3c0-0.1,0-0.2,0.1-0.3   c0,0,0,0,0.1,0c0,0,0.1,0,0.1,0c0.1,0,0.2,0.1,0.3,0.1c0.1,0.1,0.2,0.2,0.2,0.3C49,109.6,49,109.7,49,109.7z"></path>		<path class="st1" d="M41.3,113.2c0.1,0,0.2,0.1,0.3,0.1c0.2,0.1,0.3,0.2,0.2,0.4c-0.1,0.1-0.1,0.2-0.2,0.2c-0.1,0-0.2,0-0.3,0   c-0.1,0-0.2-0.1-0.2-0.2c-0.1-0.1-0.1-0.3-0.1-0.4C41,113.4,41.2,113.3,41.3,113.2z"></path>		<path class="st1" d="M49.8,75.5c0.1-0.1,0.2-0.2,0.3-0.3c0,0,0.1,0,0.2,0c0.1,0,0.1,0,0.2,0c0.1,0,0.1,0,0.1,0.1   c0,0,0.1,0.1,0.1,0.1c0,0.2-0.1,0.3-0.3,0.3c-0.1,0-0.2,0-0.3,0C50.1,75.7,49.9,75.6,49.8,75.5z"></path>		<path class="st1" d="M23.4,75.9c-0.1,0.1-0.2,0.1-0.3,0.2c-0.2,0-0.3,0-0.4-0.2c-0.1-0.2-0.1-0.3-0.1-0.5c0-0.2,0.2-0.2,0.4-0.2   c0.1,0,0.2,0.1,0.3,0.2c0.1,0.1,0.1,0.2,0.1,0.3C23.4,75.8,23.4,75.8,23.4,75.9z"></path>		<path class="st1" d="M39.5,61c-0.1,0.1-0.2,0.1-0.4,0.2c-0.2,0-0.5-0.3-0.4-0.4c0-0.1,0.1-0.1,0.2-0.1c0.1,0,0.1-0.1,0.2-0.1   c0.1,0,0.1,0,0.2,0c0,0,0.1,0.1,0.1,0.1c0,0,0.1,0.1,0.1,0.1C39.5,60.9,39.6,60.9,39.5,61z"></path>		<path class="st1" d="M30.4,61c0.1,0.1,0.2,0.1,0.3,0.2c0,0,0.1,0.1,0.1,0.1c0,0,0,0.1,0,0.1c-0.1,0.1-0.1,0.2-0.2,0.2   c-0.1,0-0.2,0.1-0.3,0.1c-0.2,0-0.4-0.1-0.3-0.4C30,61,30.2,61,30.4,61z"></path>		<path class="st1" d="M36.1,108.4c0,0,0,0.1,0,0.2c-0.1,0.1-0.1,0.1-0.2,0.2c-0.1,0-0.2,0.1-0.2,0.1c-0.1,0-0.2,0-0.2-0.1   c-0.1,0-0.1-0.1-0.2-0.2c-0.1-0.1,0-0.4,0.2-0.4c0.2,0,0.3,0,0.5,0C36,108.2,36.1,108.3,36.1,108.4z"></path>		<path class="st1" d="M27.9,43.9c0,0.1,0,0.1-0.1,0.2s-0.1,0.1-0.1,0.1c-0.1,0-0.1,0-0.2,0c-0.1,0-0.1,0-0.2,0   c-0.1,0-0.1-0.1-0.1-0.2c0-0.1,0-0.2,0-0.2c0-0.1,0.1-0.1,0.2-0.2c0.1,0,0.2,0,0.2,0C27.7,43.6,27.8,43.8,27.9,43.9z"></path>		<path class="st1" d="M31.3,67.5c0.3-0.1,0.5,0.3,0.5,0.7c0,0-0.1,0.1-0.1,0.1c-0.2,0-0.3-0.1-0.4-0.2c-0.1,0-0.1-0.1-0.2-0.2   c0-0.1,0-0.2,0-0.2C31.1,67.6,31.2,67.6,31.3,67.5z"></path>		<path class="st1" d="M42.7,91.9c-0.1,0-0.3,0.1-0.4,0.1c-0.1-0.2-0.3-0.5-0.3-0.7c0,0,0.2-0.2,0.2-0.1c0.2,0,0.3,0.1,0.4,0.3   C42.7,91.6,42.7,91.8,42.7,91.9z"></path>		<path class="st1" d="M33.6,91.8c0.2,0,0.3,0.1,0.4,0.2c0.1,0.1,0.2,0.3,0.2,0.4c0,0,0,0,0,0.1c0,0,0,0-0.1,0   c-0.4,0.1-0.7-0.1-0.6-0.6C33.4,91.9,33.6,91.8,33.6,91.8z"></path>		<path class="st1" d="M29.5,97.9c0.3,0,0.5,0.2,0.5,0.5c0,0,0,0.1,0,0.1s0,0.1-0.1,0.1c0,0-0.1,0-0.1,0c0,0-0.1,0-0.1,0   c-0.1,0-0.2-0.1-0.3-0.1c-0.1-0.1-0.2-0.3-0.1-0.4C29.4,98,29.4,97.9,29.5,97.9z"></path>		<path class="st1" d="M64.9,42.8c0,0.3-0.2,0.4-0.5,0.4c-0.1,0-0.1,0-0.2-0.1c-0.1-0.1-0.1-0.1-0.1-0.2c0-0.1,0-0.1,0-0.2   c0-0.1,0.1-0.1,0.1-0.1c0.1,0,0.1-0.1,0.2-0.1c0.1,0,0.1,0,0.2,0C64.7,42.5,64.8,42.7,64.9,42.8z"></path>		<path class="st1" d="M56.3,98.4c0,0.2-0.1,0.3-0.3,0.2c-0.1,0-0.1,0-0.2-0.1c0,0-0.1-0.1-0.1-0.1c0,0-0.1-0.1-0.1-0.2   c0-0.1,0-0.1,0-0.2c0,0,0-0.1,0-0.1c0,0,0-0.1,0.1-0.1c0,0,0.1,0,0.1-0.1c0,0,0.1,0,0.1,0C56.2,97.9,56.3,98.1,56.3,98.4z"></path>		<path class="st1" d="M51.4,109c-0.1-0.1-0.2-0.1-0.3-0.2c0,0-0.1-0.1-0.1-0.1c0,0,0-0.1,0-0.1c0-0.1,0.3-0.1,0.5-0.1   c0.1,0,0.1,0.1,0.2,0.2s0.1,0.2,0,0.2c0,0,0,0,0,0.1c0,0,0,0-0.1,0C51.5,109,51.5,109,51.4,109z"></path>		<path class="st1" d="M50.8,42.2c-0.1,0-0.2-0.1-0.3-0.1c-0.1-0.1-0.1-0.2-0.1-0.3c0,0,0.1-0.1,0.1-0.1c0,0,0.1-0.1,0.1-0.1   c0.1,0,0.2,0,0.3,0c0.1,0.1,0.1,0.1,0.2,0.2C51,41.9,50.9,42,50.8,42.2z"></path>		<path class="st1" d="M37.1,41.3c-0.1,0.2-0.2,0.3-0.3,0.4s-0.3,0-0.4-0.2c-0.1-0.2,0-0.5,0.2-0.5C36.9,41.1,37,41.2,37.1,41.3z"></path>		<path class="st1" d="M34.3,47c-0.1,0.1-0.2,0.2-0.3,0.2c-0.1,0-0.2,0-0.2-0.1c-0.1-0.1-0.1-0.1-0.1-0.2c0-0.1,0.1-0.2,0.1-0.2   s0.1,0,0.1,0C34.2,46.8,34.3,46.9,34.3,47z"></path>		<path class="st1" d="M38.6,67c-0.1-0.1-0.2-0.2-0.2-0.3c0,0,0,0,0-0.1c0,0,0-0.1,0-0.1c0,0,0-0.1,0-0.1c0,0,0,0,0.1,0   c0.1,0,0.2,0,0.3,0c0.1,0.1,0.1,0.1,0.2,0.2C39,66.8,38.9,67,38.6,67z"></path>		<path class="st1" d="M28.1,65.9c0.1,0,0.1-0.1,0.2-0.2c0.1,0,0.3,0.2,0.2,0.3c0,0-0.1,0.1-0.1,0.1c0,0-0.1,0-0.1,0   C28.1,66.1,28.1,66,28.1,65.9z"></path>		<path class="st1" d="M56,41.2c-0.1,0-0.3,0.1-0.4,0.1s-0.2-0.2-0.2-0.4c0-0.1,0.1-0.2,0.1-0.2c0.1,0,0.3,0.1,0.4,0.2   C56,41,56,41.1,56,41.2z"></path>		<path class="st1" d="M81.2,83.9c0.1,0.1,0.2,0.1,0.2,0.2c0,0.1,0,0.2,0,0.3c0,0,0,0,0,0.1c0,0,0,0-0.1,0c-0.1,0-0.2-0.1-0.2-0.1   C81,84.2,81,84.1,81,84C81,84,81.1,83.9,81.2,83.9z"></path>		<path class="st1" d="M54.7,49.1c0,0.1-0.1,0.2-0.2,0.1c-0.1,0-0.2-0.1-0.3-0.2c-0.1-0.1-0.1-0.2-0.1-0.3c0.1,0,0.2-0.1,0.3-0.1   C54.6,48.8,54.7,48.9,54.7,49.1z"></path>		<path class="st1" d="M33.3,102.4c0.1,0.1,0.3,0.1,0.4,0.2c0.1,0.1,0.1,0.1,0.1,0.2c0,0.1,0,0.2-0.1,0.2c0,0-0.1,0-0.1,0.1   c0,0-0.1,0-0.1,0c0,0-0.1,0-0.1-0.1c0,0-0.1-0.1-0.1-0.1c-0.1-0.1-0.1-0.3-0.1-0.4C33.2,102.6,33.3,102.5,33.3,102.4z"></path>		<path class="st1" d="M43.7,103.6c-0.1,0.1-0.1,0.2-0.2,0.2c0,0-0.1,0-0.1,0s-0.1,0-0.1,0c0,0-0.1,0-0.1-0.1c0,0-0.1-0.1-0.1-0.1   c-0.1-0.1-0.1-0.1-0.1-0.2s0-0.2,0.1-0.2c0,0,0.1-0.1,0.1-0.1c0.1,0,0.2,0.1,0.3,0.1C43.6,103.4,43.7,103.5,43.7,103.6z"></path>		<path class="st1" d="M52.9,54.8c0,0.2-0.2,0.3-0.3,0.2c-0.1-0.1-0.2-0.2-0.2-0.4c0-0.1,0.2-0.1,0.4-0.1c0,0,0,0,0.1,0   c0,0,0,0,0,0.1C52.9,54.7,52.9,54.7,52.9,54.8C52.9,54.8,52.9,54.8,52.9,54.8z"></path>		<path class="st1" d="M45.2,70.1L44.9,70c0,0,0.1-0.1,0.1-0.1c0,0,0,0,0.1,0c0,0,0.1,0,0.1,0c0,0,0,0,0.1,0.1c0,0,0,0,0,0.1   C45.3,70,45.2,70.1,45.2,70.1z"></path>		<path class="st1" d="M56.9,39.7l0,0.1L56.9,39.7L56.9,39.7z"></path>		<path class="st1" d="M80.1,65.1c-0.3,0-0.6,0.1-0.9-0.2c0,0-0.1-0.1-0.1-0.2c0-0.1,0-0.1,0-0.2c0-0.1,0-0.1,0-0.2   c0-0.1,0.1-0.1,0.1-0.2c0.1-0.1,0.2-0.1,0.3-0.2c0.1-0.1,0.2-0.1,0.2-0.2c0-0.1,0-0.2,0-0.3c-0.1-0.3-0.1-0.5-0.2-0.8   c0-0.1,0-0.2,0.1-0.2c0-0.1,0.1-0.1,0.2-0.1c0,0,0.1,0,0.1,0c0.1,0,0.1,0,0.1,0c0.3,0.3,0.6,0.6,0.9,0.9c0.1,0.1,0.1,0.2,0.1,0.3   c0,0.1-0.1,0.2-0.1,0.3c-0.1,0.2-0.3,0.3-0.5,0.4C79.9,64.4,79.9,64.8,80.1,65.1L80.1,65.1z"></path>		<path class="st1" d="M81.5,68c0,0.1-0.1,0.2-0.2,0.2s-0.2,0.1-0.3,0.1c0,0-0.1,0-0.2,0c-0.3-0.6-1.1-0.5-1.4-1   c-0.1-0.2,0-0.5,0.1-0.6c0.1-0.1,0.4-0.1,0.5,0c0.3,0.4,0.8,0.6,1.2,0.7C81.4,67.5,81.5,67.8,81.5,68z"></path>		<path class="st1" d="M82.6,59.8c-0.3-0.1-0.6-0.3-0.8-0.4c-0.1-0.1-0.2-0.3-0.2-0.4c0-0.1,0-0.2,0.1-0.3c0.1-0.1,0.2-0.1,0.3-0.1   c0.2,0,0.4,0.1,0.6,0.2c0.2,0.1,0.3,0.3,0.4,0.4c0,0.1,0.1,0.1,0.1,0.2c0,0.1,0,0.2-0.1,0.2C83,59.7,82.8,59.7,82.6,59.8z"></path>		<path class="st1" d="M73.8,78.1c0.1,0,0.2,0,0.3,0.1c0.1,0.1,0.2,0.1,0.2,0.2c0.1,0.2,0.1,0.5,0,0.7c-0.1,0.2-0.3,0.4-0.5,0.5   c0,0-0.1,0-0.1,0c0,0-0.1,0-0.1-0.1c-0.2-0.4-0.3-0.7-0.2-1.1c0-0.1,0.1-0.2,0.2-0.3C73.6,78.1,73.7,78.1,73.8,78.1z"></path>		<path class="st1" d="M77.1,84.2c0,0.2-0.1,0.4-0.2,0.5c-0.1,0.1-0.3,0.2-0.5,0.2c-0.1,0-0.3-0.1-0.3-0.2c-0.1-0.1-0.1-0.2-0.1-0.4   c0-0.2,0.1-0.3,0.2-0.5c0-0.1,0.1-0.2,0.2-0.2c0.1-0.1,0.2-0.1,0.3-0.1c0.1,0,0.2,0.1,0.3,0.2C77,83.9,77,84,77.1,84.2z"></path>		<path class="st1" d="M65.7,100.1c0,0.1,0,0.1,0,0.2c-0.1,0.1-0.2,0.2-0.3,0.3c-0.1,0.1-0.3,0.1-0.4,0.2c-0.1,0-0.2,0-0.2-0.1   c-0.1,0-0.1-0.1-0.2-0.2c-0.1-0.2-0.1-0.3-0.1-0.5c0-0.2,0.1-0.3,0.2-0.4c0.1-0.1,0.2-0.1,0.4-0.2c0.1,0,0.3,0,0.4,0.1   c0.1,0.1,0.2,0.2,0.2,0.3C65.7,99.9,65.8,100,65.7,100.1z"></path>		<path class="st1" d="M66.2,77c0,0.1,0,0.2-0.1,0.3c-0.1,0.1-0.2,0.2-0.3,0.3c0,0-0.1,0-0.1,0c-0.1,0-0.1,0-0.1,0   c-0.1-0.1-0.2-0.1-0.2-0.2c-0.1-0.1-0.1-0.2-0.1-0.3c0-0.1,0-0.2,0-0.3c0-0.1,0.1-0.2,0.1-0.3c0,0,0.1-0.1,0.2-0.1   c0.2,0,0.3,0.1,0.5,0.2C66,76.7,66.1,76.8,66.2,77z"></path>		<path class="st1" d="M67.4,95.2c0,0.1,0,0.2-0.1,0.3c-0.1,0.1-0.2,0.2-0.3,0.2c-0.1,0-0.2,0-0.2,0c-0.1,0-0.1-0.1-0.2-0.1   c-0.1-0.1-0.1-0.2-0.2-0.3c-0.1-0.1-0.1-0.2-0.1-0.3c0-0.1,0-0.2,0.1-0.3c0.1-0.2,0.3-0.2,0.6,0c0.1,0.1,0.2,0.2,0.3,0.4   C67.4,95,67.4,95.1,67.4,95.2z"></path>		<path class="st1" d="M80.7,73.6c0,0.2,0,0.3-0.1,0.4c-0.1,0.1-0.2,0.2-0.3,0.2c-0.1,0-0.1,0-0.1,0c0,0-0.1-0.1-0.1-0.1   c-0.1-0.2-0.2-0.4-0.2-0.6c0-0.2,0.1-0.3,0.2-0.4s0.3,0,0.4,0.1C80.6,73.3,80.6,73.5,80.7,73.6z"></path>		<path class="st1" d="M61.1,74.6c0.2,0,0.4,0.2,0.5,0.3c0.1,0.2,0.2,0.4,0.3,0.6c0,0.1,0,0.2-0.1,0.2c-0.1,0.1-0.1,0.1-0.2,0.1   c-0.1,0-0.3,0-0.4,0c-0.1-0.1-0.2-0.1-0.3-0.3c-0.1-0.1-0.1-0.2-0.1-0.4c0-0.1,0-0.3,0.1-0.4C60.9,74.7,61.1,74.7,61.1,74.6z"></path>		<path class="st1" d="M73,84.2c-0.1,0-0.2-0.1-0.2-0.2c-0.1-0.1-0.1-0.2-0.1-0.3c-0.1-0.5,0-0.8,0.3-0.8c0.3,0,0.5,0.2,0.6,0.4   c0,0.1,0.1,0.2,0.1,0.2c0,0.1,0,0.2-0.1,0.2C73.3,84.1,73.2,84.3,73,84.2z"></path>		<path class="st1" d="M77.3,81c0.1,0.2-0.1,0.4-0.3,0.7c0,0.1-0.1,0.1-0.2,0.1c-0.1,0-0.1,0-0.2,0c-0.1,0-0.1,0-0.2-0.1   c0,0-0.1-0.1-0.1-0.2c0-0.2,0-0.4,0-0.7c0-0.1,0.1-0.2,0.2-0.2c0.1-0.1,0.2-0.1,0.3-0.1c0.1,0,0.2,0.1,0.3,0.1   C77.2,80.8,77.3,80.9,77.3,81z"></path>		<path class="st1" d="M68.9,59.8c0.2,0,0.3,0.1,0.4,0.3c0.1,0.1,0.2,0.3,0.2,0.5c0,0.1,0,0.3-0.1,0.4c-0.1,0.1-0.2,0.2-0.3,0.2   c-0.1,0-0.1,0-0.2,0c0,0-0.1,0-0.1-0.1c-0.1-0.1-0.2-0.3-0.2-0.4c0-0.2,0-0.3,0.1-0.5C68.7,59.9,68.8,59.9,68.9,59.8z"></path>		<path class="st1" d="M68.5,80.3c0-0.1,0.1-0.3,0.2-0.4c0.1-0.1,0.2-0.2,0.4-0.2c0.1,0,0.3,0.1,0.4,0.2c0.1,0.1,0.2,0.2,0.2,0.4   c0,0.2-0.1,0.3-0.2,0.4c-0.1,0.1-0.2,0.2-0.4,0.2c-0.1,0-0.2,0-0.3-0.1c-0.1-0.1-0.1-0.2-0.2-0.2C68.6,80.5,68.5,80.4,68.5,80.3z"></path>		<path class="st1" d="M61.2,89.6c-0.1,0-0.2-0.1-0.3-0.2c-0.1-0.1-0.1-0.2-0.2-0.3c0-0.2,0-0.3,0.1-0.5c0,0,0-0.1,0.1-0.1   c0,0,0.1-0.1,0.1-0.1c0.2,0,0.3,0.1,0.4,0.1c0.1,0.1,0.2,0.2,0.3,0.4c0,0.1,0,0.1,0,0.2c-0.1,0.1-0.1,0.2-0.2,0.3   C61.5,89.6,61.4,89.6,61.2,89.6z"></path>		<path class="st1" d="M61.6,68.7c-0.1-0.1-0.2-0.2-0.3-0.4c0-0.1-0.1-0.1-0.1-0.2s0-0.2,0.1-0.2c0-0.1,0.1-0.2,0.2-0.2   c0.1,0,0.2,0,0.3,0c0.1,0.1,0.3,0.2,0.4,0.3c0.2,0.2,0.1,0.4-0.2,0.5L61.6,68.7L61.6,68.7z"></path>		<path class="st1" d="M79.9,71c-0.2-0.1-0.3-0.2-0.4-0.3c-0.1-0.1-0.1-0.3,0-0.5c0-0.1,0.1-0.2,0.2-0.2c0.1,0,0.2,0,0.3,0   c0.2,0.1,0.4,0.5,0.3,0.7C80.2,70.9,80.1,71,79.9,71z"></path>		<path class="st1" d="M82.5,75.5c0,0.1-0.1,0.2-0.2,0.3c-0.1,0.1-0.2,0.1-0.3,0.2c-0.1,0-0.2-0.1-0.3-0.1c-0.1-0.1-0.1-0.2-0.2-0.3   c0-0.2,0-0.3,0.1-0.5c0,0,0-0.1,0.1-0.1c0,0,0.1,0,0.1-0.1c0.2,0,0.3,0.1,0.4,0.2C82.4,75.2,82.5,75.4,82.5,75.5z"></path>		<path class="st1" d="M82.6,72c0-0.1,0.1-0.3,0.1-0.4c0.1-0.1,0.2-0.2,0.3-0.2c0.2,0,0.5,0.3,0.5,0.6s-0.3,0.6-0.5,0.6   c-0.1,0-0.3-0.1-0.3-0.2C82.7,72.3,82.6,72.1,82.6,72z"></path>		<path class="st1" d="M69.3,64.2c-0.1,0.2-0.1,0.3-0.2,0.4c-0.1,0.1-0.3,0.1-0.4,0c-0.1-0.1-0.2-0.1-0.2-0.2   c-0.1-0.1-0.1-0.2-0.1-0.3c-0.1-0.2,0-0.5,0.2-0.5c0.1,0,0.3,0,0.4,0.1C69.1,63.9,69.2,64.1,69.3,64.2z"></path>		<path class="st1" d="M69.7,90.1c0.1-0.2,0.1-0.4,0.2-0.6c0-0.1,0.1-0.1,0.1-0.2c0.1,0,0.1-0.1,0.2-0.1c0.1,0,0.1,0,0.2,0   c0.1,0,0.1,0.1,0.2,0.1c0.1,0.1,0.2,0.3,0.3,0.4c0,0.2-0.2,0.4-0.4,0.5c-0.1,0.1-0.3,0.1-0.4,0.1C69.9,90.2,69.7,90.2,69.7,90.1z"></path>		<path class="st1" d="M64.7,80.9c0,0.1,0,0.2-0.1,0.3c0,0.1-0.1,0.2-0.2,0.2c-0.1,0-0.3,0-0.4,0c-0.1-0.1-0.2-0.2-0.3-0.4   c0-0.2,0-0.3,0-0.5c0,0,0.1-0.1,0.1-0.1c0,0,0.1,0,0.1-0.1c0.2,0,0.3,0,0.4,0.1S64.7,80.8,64.7,80.9z"></path>		<path class="st1" d="M61.1,78.7c-0.1,0-0.1,0-0.2,0c-0.1,0-0.1,0-0.2-0.1c-0.1,0-0.1-0.1-0.1-0.1c0-0.1-0.1-0.1-0.1-0.2   c0-0.1,0-0.2,0-0.3c0-0.1,0.1-0.2,0.2-0.3c0.1,0,0.2,0,0.2,0c0.1,0,0.2,0,0.2,0.1c0.1,0,0.1,0.1,0.2,0.1c0,0.1,0.1,0.1,0.1,0.2   c0,0.1,0,0.3-0.1,0.4C61.3,78.6,61.2,78.7,61.1,78.7z"></path>		<path class="st1" d="M67.1,86.7c0,0-0.1,0-0.1-0.1c-0.1-0.1-0.2-0.3-0.2-0.4c0-0.2,0-0.3,0.1-0.5c0-0.1,0.2-0.1,0.3-0.1   c0,0,0.1,0,0.1,0c0.1,0,0.2,0.1,0.3,0.2c0.1,0.1,0.1,0.2,0.2,0.3c0.1,0.3-0.1,0.4-0.3,0.5S67.2,86.7,67.1,86.7z"></path>		<path class="st1" d="M80,65.2c0.2,0.1,0.4,0.3,0.7,0.4c0.1,0.1,0.1,0.1,0.1,0.2c0,0.1,0,0.2,0,0.2c-0.1,0.1-0.2,0.2-0.4,0.2   c-0.1,0-0.1,0-0.2-0.1c0,0-0.1-0.1-0.1-0.2C80,65.7,80,65.4,80,65.2L80,65.2z"></path>		<path class="st1" d="M62.6,85.9c-0.1,0-0.3,0-0.4-0.1c-0.1-0.1-0.2-0.2-0.2-0.4c0-0.1,0-0.1,0-0.2c0,0,0.1-0.1,0.1-0.1   c0,0,0.1-0.1,0.1-0.1s0.1,0,0.2,0c0.3,0,0.5,0.4,0.4,0.6C62.7,85.8,62.6,85.8,62.6,85.9z"></path>		<path class="st1" d="M66.3,90.2c-0.1,0.1-0.1,0.2-0.2,0.3c-0.1,0.1-0.2,0.1-0.3,0.1c-0.1,0-0.2-0.1-0.3-0.1   c-0.1-0.1-0.2-0.2-0.2-0.4c0-0.1,0-0.3,0.1-0.4c0-0.1,0-0.1,0.1-0.1C65.8,89.4,66.2,89.7,66.3,90.2z"></path>		<path class="st1" d="M79.9,69.3c0,0.1-0.1,0.3-0.3,0.3c-0.1,0-0.2,0-0.3-0.1c-0.1-0.1-0.2-0.3-0.2-0.4c0-0.1,0-0.1,0-0.2   c0-0.1,0-0.1,0.1-0.1c0,0,0.1-0.1,0.1-0.1c0,0,0.1,0,0.1,0c0.1,0,0.2,0,0.2,0c0.1,0,0.1,0.1,0.2,0.1c0,0.1,0.1,0.1,0.1,0.2   C79.9,69.1,79.9,69.2,79.9,69.3z"></path>		<path class="st1" d="M72.5,59.8c0,0.1-0.1,0.1-0.1,0.2c0,0-0.1,0.1-0.2,0.1c-0.1,0-0.1,0-0.2,0c-0.1,0-0.1,0-0.2-0.1   c-0.1-0.1-0.2-0.2-0.2-0.4c0-0.2,0-0.3,0.1-0.4c0,0,0.1-0.1,0.1-0.1c0,0,0.1,0,0.1,0c0.2,0,0.3,0.1,0.4,0.3   C72.5,59.5,72.5,59.7,72.5,59.8z"></path>		<path class="st1" d="M59.9,80.2c0.1,0,0.2,0.1,0.3,0.2c0.1,0.1,0.2,0.1,0.2,0.2c0,0.1,0,0.2,0,0.3c-0.1,0.1-0.2,0.1-0.3,0.2   s-0.2,0-0.3,0c-0.1,0-0.2-0.1-0.2-0.2c0-0.1,0-0.2,0-0.3C59.7,80.4,59.8,80.3,59.9,80.2z"></path>		<path class="st1" d="M78.8,60.7c0.1,0.1,0.2,0.1,0.2,0.2c0,0.2,0,0.3,0,0.5c-0.1,0.2-0.1,0.3-0.3,0.4c-0.1,0-0.1,0.1-0.2,0.1   c-0.1,0-0.1,0-0.2-0.1c-0.1,0-0.1-0.1-0.1-0.2c0-0.1,0-0.2,0-0.2C78.3,61,78.5,60.8,78.8,60.7z"></path>		<path class="st1" d="M76.3,62c0,0.1,0,0.2-0.1,0.3c-0.1,0.1-0.1,0.2-0.2,0.2c-0.1,0-0.1,0-0.2,0c-0.1,0-0.1-0.1-0.2-0.1   c-0.1-0.1-0.1-0.3-0.1-0.4c0-0.2,0.1-0.3,0.2-0.4c0.1,0,0.1-0.1,0.2-0.1s0.1,0,0.2,0.1C76.2,61.7,76.3,61.9,76.3,62z"></path>		<path class="st1" d="M66.4,63.3c0,0.1-0.1,0.2-0.2,0.2c-0.1,0-0.2,0.1-0.3,0c-0.1,0-0.2-0.1-0.3-0.2c-0.1-0.1-0.1-0.2-0.2-0.3   c-0.1-0.2,0.1-0.5,0.3-0.5c0.1,0,0.2,0.1,0.3,0.1c0.1,0.1,0.2,0.1,0.2,0.2C66.4,63.1,66.4,63.2,66.4,63.3z"></path>		<path class="st1" d="M59.1,84.6c0,0.1-0.1,0.2-0.1,0.2c-0.1,0.1-0.3,0.1-0.4,0.1c-0.2,0-0.3-0.2-0.3-0.5c0-0.1,0-0.1,0-0.1   c0,0,0.1-0.1,0.1-0.1c0,0,0.1,0,0.1,0c0.1,0,0.1,0,0.1,0c0.1,0,0.2,0.1,0.3,0.2C59,84.4,59.1,84.5,59.1,84.6z"></path>		<path class="st1" d="M79.1,73.8c0.2,0,0.3,0.2,0.4,0.4c0.1,0.2,0.1,0.3,0,0.4c0,0-0.1,0.1-0.1,0.1c0,0-0.1,0-0.2,0   c-0.1,0-0.1,0-0.1-0.1c0,0-0.1-0.1-0.1-0.1c-0.1-0.1-0.1-0.2-0.1-0.3c0-0.1,0-0.2,0-0.3c0,0,0,0,0-0.1c0,0,0,0,0.1,0   C78.9,73.8,79,73.8,79.1,73.8C79,73.8,79,73.8,79.1,73.8z"></path>		<path class="st1" d="M64.5,95.7c0,0.1,0,0.1,0,0.2s-0.2,0.3-0.3,0.3c-0.1,0-0.6-0.2-0.6-0.5c0-0.3,0.1-0.3,0.2-0.4   c0,0,0,0,0.1-0.1c0,0,0,0,0.1,0c0.1,0,0.3,0.1,0.4,0.2C64.3,95.5,64.4,95.6,64.5,95.7z"></path>		<path class="st1" d="M81.7,62.5c-0.1-0.1-0.2-0.2-0.2-0.4c0-0.1,0-0.2,0-0.2c0-0.1,0.1-0.2,0.1-0.2c0,0,0,0,0.1,0c0,0,0.1,0,0.1,0   c0.1,0.1,0.2,0.2,0.3,0.3c0,0.1,0,0.2,0,0.2c0,0.1-0.1,0.1-0.2,0.2C81.9,62.5,81.8,62.5,81.7,62.5z"></path>		<path class="st1" d="M73.6,62.7c-0.1,0.1-0.1,0.3-0.2,0.4c-0.1,0-0.1,0-0.2,0C73.1,63,73,63,73,62.9c0-0.2,0-0.3,0-0.5   c0,0,0-0.1,0.1-0.1c0,0,0.1,0,0.1-0.1s0.1,0,0.1,0c0,0,0.1,0,0.1,0C73.5,62.4,73.5,62.6,73.6,62.7z"></path>		<path class="st1" d="M77.7,65.7c-0.1,0-0.2,0.2-0.2,0.1c-0.1-0.1-0.3-0.1-0.4-0.2c0,0-0.1-0.1-0.1-0.1c0,0,0-0.1,0-0.1   c0,0,0.1-0.1,0.1-0.1c0,0,0.1,0,0.1-0.1c0.1,0,0.1,0,0.2,0c0.1,0,0.1,0.1,0.2,0.1c0,0.1,0.1,0.1,0.1,0.2   C77.7,65.5,77.7,65.6,77.7,65.7z"></path>		<path class="st1" d="M75.9,66.3c0,0.1-0.1,0.2-0.2,0.2c-0.1,0.1-0.3,0.1-0.4,0c-0.1-0.1-0.2-0.3-0.2-0.4c0-0.1,0.1-0.2,0.2-0.2   c0.1,0,0.1,0,0.2,0s0.1,0,0.2,0.1c0.1,0,0.1,0.1,0.1,0.1C75.8,66.2,75.9,66.3,75.9,66.3z"></path>		<path class="st1" d="M83.4,67.9c-0.1,0.1-0.2,0.2-0.3,0.2c0,0-0.1,0-0.1,0c0,0-0.1-0.1-0.1-0.1c-0.1-0.1-0.1-0.2-0.1-0.3   c0-0.1,0.1-0.2,0.1-0.2s0.2,0,0.2,0.1C83.3,67.6,83.4,67.7,83.4,67.9z"></path>		<path class="st1" d="M83.2,62.3c0,0.1,0,0.2-0.2,0.2c-0.2,0-0.2-0.1-0.1-0.2c0-0.1,0.1-0.1,0.1-0.1C83.1,62.2,83.1,62.3,83.2,62.3   z"></path>		<path class="st1" d="M71.8,61.5l0.2,0.1c0,0,0,0.1-0.1,0.1c-0.1,0-0.2,0-0.2-0.1C71.7,61.5,71.7,61.6,71.8,61.5z"></path>		<path class="st1" d="M19.2,55.5c0.1,0.3,0.3,0.5,0.4,0.8c-0.1,0.2-0.2,0.4-0.4,0.5c-0.1,0.1-0.1,0.1-0.2,0.1c-0.1,0-0.2,0-0.2,0   c-0.1,0-0.2-0.2-0.3-0.4c-0.1-0.3,0-0.7,0-1c0-0.1-0.2-0.2-0.3-0.4c-0.1,0.2-0.3,0.3-0.5,0.5c-0.1,0.1-0.2,0.1-0.3,0.2   c-0.1,0-0.2,0-0.3,0c-0.1,0-0.2-0.1-0.3-0.1c-0.1-0.1-0.1-0.2-0.1-0.3c-0.1-0.4-0.3-0.9-0.5-1.3c0-0.1,0-0.2,0-0.2   c0-0.1,0.1-0.2,0.1-0.2c0.1-0.1,0.1-0.1,0.2-0.1c0.1,0,0.2,0,0.2,0c0.7,0.3,1.4,0.5,2.1,0.7c0.2,0,0.3,0.1,0.5,0.2   c0,0,0.1,0.1,0.1,0.1c0,0,0.1,0.1,0.1,0.1c0,0.1,0,0.1,0,0.2c0,0.1,0,0.1-0.1,0.2C19.5,55.3,19.4,55.4,19.2,55.5z"></path>		<path class="st1" d="M20.6,64.1c-0.2,0-0.3,0-0.4,0c-0.2-0.2-0.4-0.3-0.6-0.6c-0.1-0.2-0.2-0.4-0.3-0.6c-0.1-0.4-0.3-0.7-0.6-0.9   s-0.7-0.4-1-0.4c-0.1,0-0.2-0.1-0.2-0.2s0-0.3,0.2-0.5c0.1-0.1,0.3-0.2,0.4-0.2s0.3,0,0.5,0c0.4,0.1,0.7,0.4,1,0.6   c0.2,0.1,0.3,0.4,0.3,0.6c0,0.2,0.1,0.4,0.2,0.6c0.1,0.2,0.3,0.3,0.4,0.4c0.1,0.1,0.3,0.2,0.4,0.3c0.1,0.1,0.1,0.1,0.1,0.2   s0,0.2,0,0.2C20.8,63.9,20.7,64,20.6,64.1z"></path>		<path class="st1" d="M10.3,52.9c-0.5-0.1-0.9-0.2-1.3-0.3c-0.2-0.1-0.3-0.2-0.4-0.3c0,0,0-0.1,0-0.2c0-0.1,0-0.1,0-0.2   c0.3-0.4,0.7-0.7,1.2-0.9c0.1,0,0.2,0,0.3,0c0.1,0,0.2,0.1,0.3,0.2c0.1,0.4,0.3,0.7,0.4,1.1c0,0.1,0,0.1,0,0.2   c0,0.1,0,0.1-0.1,0.2c0,0-0.1,0.1-0.1,0.1c0,0-0.1,0-0.2,0L10.3,52.9z"></path>		<path class="st1" d="M11.1,65c0.1-0.4,0.3-0.7,0.4-1c0.2-0.5,0.7-0.5,1.1-0.1c0.1,0.1,0.3,0.3,0.1,0.5c-0.2,0.3-0.4,0.6-0.5,0.9   c-0.1,0.3-0.1,0.7-0.1,1c0,0.1,0,0.2-0.1,0.3c0,0,0,0.1,0,0.1c0,0,0,0-0.1,0.1s-0.1,0-0.1,0s-0.1,0-0.1,0c-0.1,0-0.2-0.1-0.3-0.2   c0,0-0.1-0.1-0.1-0.1c0-0.1,0-0.1,0-0.2C11.4,65.8,11.3,65.4,11.1,65z"></path>		<path class="st1" d="M14.7,68.4c0.2,0.2,0.3,0.3,0.4,0.5c0.2,0.3,0.1,0.5-0.3,0.6l-0.3,0.1c-0.1,0-0.1,0.1-0.1,0.1   c0,0,0.1,0.2,0.1,0.3c0.1,0.3,0.1,0.5-0.1,0.6c-0.1,0-0.3,0-0.4,0s-0.3-0.1-0.3-0.2c0,0-0.1-0.1-0.1-0.2   C13.7,68.7,13.4,68.9,14.7,68.4L14.7,68.4z"></path>		<path class="st1" d="M15.9,60.8c-0.1,0.1-0.2,0.3-0.3,0.4c0,0-0.1,0-0.1,0.1c0,0-0.1,0-0.1,0c0,0-0.1,0-0.1,0c0,0-0.1-0.1-0.1-0.1   c-0.2-0.4-0.6-0.7-1-0.9c-0.2-0.1-0.3-0.3-0.4-0.5c0-0.1,0-0.2,0-0.2c0-0.1,0.1-0.1,0.1-0.2c0.1,0,0.2,0,0.3,0   c0.1,0,0.1,0,0.2,0.1c0.5,0.4,0.9,0.8,1.4,1.1C15.8,60.6,15.8,60.7,15.9,60.8z"></path>		<path class="st1" d="M13.8,55.8c0,0.1,0,0.2-0.1,0.3c-0.3,0.2-0.7,0.4-1.1,0.3c-0.2,0-0.5-0.5-0.5-0.6c0-0.2,0-0.1,0.1-0.1   c0.3-0.2,0.5-0.4,0.8-0.5c0.1,0,0.2,0,0.3,0c0.1,0,0.2,0.1,0.3,0.1c0.1,0.1,0.1,0.1,0.2,0.2C13.8,55.6,13.8,55.7,13.8,55.8z"></path>		<path class="st1" d="M9.3,59.5c0.1,0,0.2,0,0.3,0.1c0.3,0.4,0.6,0.8,0.9,1.2c0,0,0,0.1,0,0.1c0,0,0,0.1,0,0.1   c0,0.1-0.1,0.2-0.1,0.3c-0.1,0-0.1,0.1-0.2,0.1c-0.1,0-0.1,0-0.2,0c-0.1,0-0.1-0.1-0.2-0.1c-0.1,0-0.1-0.1-0.1-0.2   c-0.2-0.5-0.3-0.9-0.5-1.4C9.2,59.6,9.2,59.5,9.3,59.5z"></path>		<path class="st1" d="M22.9,48.1c-0.1-0.2-0.1-0.4-0.1-0.6c0-0.2,0.1-0.4,0.3-0.6c0.1-0.1,0.2-0.1,0.3-0.1c0.1,0,0.2,0,0.3,0.1   c0.1,0.1,0.2,0.2,0.2,0.3c0,0.1,0,0.3,0,0.4C23.6,47.8,23.6,47.9,22.9,48.1z"></path>		<path class="st1" d="M26.1,53c-0.1,0.1-0.2,0.2-0.3,0.3c-0.2,0-0.4,0-0.6,0c-0.1,0-0.2-0.1-0.3-0.2c-0.1-0.1-0.1-0.2-0.1-0.3   c0-0.2,0.1-0.4,0.2-0.6c0,0,0.1-0.1,0.1-0.1c0,0,0.1,0,0.2,0c0.2,0,0.4,0.2,0.6,0.3C26.1,52.6,26.1,52.8,26.1,53z"></path>		<path class="st1" d="M18.7,65.5c-0.1-0.1-0.3-0.2-0.4-0.3c-0.1-0.1-0.1-0.2-0.1-0.4c0-0.1,0-0.3,0.1-0.4c0.1-0.1,0.2-0.1,0.3-0.1   c0.1,0,0.2,0,0.3,0.1c0.1,0,0.2,0.1,0.3,0.2c0.1,0,0.1,0.1,0.1,0.2c0,0.1,0,0.1,0,0.2c0,0.1,0,0.1,0,0.2c0,0.1-0.1,0.1-0.1,0.2   C19,65.4,18.9,65.5,18.7,65.5z"></path>		<path class="st1" d="M22.8,52.4c-0.1,0-0.3,0-0.4-0.1c-0.1-0.1-0.2-0.2-0.2-0.3c-0.1-0.3,0.2-0.6,0.4-0.6c0.2,0,0.3,0.1,0.4,0.2   c0.1,0.1,0.2,0.3,0.2,0.4c0,0.1-0.1,0.2-0.1,0.3C23,52.3,22.9,52.4,22.8,52.4z"></path>		<path class="st1" d="M22.2,57c0.1,0,0.2,0.1,0.4,0.1c0.1,0,0.2,0.1,0.2,0.2c0.1,0.1,0.1,0.2,0.1,0.3c0,0.3-0.2,0.5-0.5,0.5   c-0.1,0-0.1,0-0.2,0c-0.1,0-0.1,0-0.2,0c0,0-0.1-0.1-0.1-0.1c0,0-0.1-0.1-0.1-0.1c0-0.2,0-0.4,0-0.7C21.9,57.1,22.1,57.1,22.2,57z   "></path>		<path class="st1" d="M11.5,59.8c0.1,0,0.3,0,0.4,0c0.1,0,0.2,0.1,0.3,0.2c0.1,0.1,0.1,0.2,0.2,0.3c0,0.1,0,0.2,0,0.4   c0,0.1-0.1,0.1-0.2,0.2s-0.2,0-0.2,0c-0.2-0.1-0.3-0.2-0.5-0.3c-0.1-0.2-0.2-0.3-0.2-0.5C11.3,60,11.5,59.9,11.5,59.8z"></path>		<path class="st1" d="M15.8,65.1c-0.1,0-0.2,0-0.3,0c-0.4-0.2-0.6-0.4-0.5-0.7c0-0.1,0.1-0.2,0.1-0.2s0.1-0.1,0.2-0.1   c0.2,0,0.4,0,0.5,0.1c0.2,0.1,0.3,0.3,0.3,0.4c0,0.1,0,0.2-0.1,0.3C16,65.1,15.9,65.1,15.8,65.1z"></path>		<path class="st1" d="M20.9,66c0,0.1,0,0.1,0,0.2c0,0.1-0.1,0.2-0.2,0.2c-0.1,0.1-0.2,0.1-0.3,0.1c-0.1,0-0.3,0-0.4-0.1   c-0.1-0.1-0.2-0.2-0.3-0.3c0-0.1,0-0.2,0-0.2c0-0.1,0.1-0.1,0.2-0.2c0.1-0.1,0.2-0.1,0.3-0.1c0.1,0,0.2,0,0.3,0   c0.1,0,0.2,0.1,0.3,0.1c0.1,0.1,0.1,0.1,0.2,0.2C20.9,65.9,20.9,65.9,20.9,66z"></path>		<path class="st1" d="M21.3,51c0,0.2-0.2,0.4-0.6,0.4c-0.3,0-0.4-0.2-0.4-0.6c0-0.3,0.2-0.5,0.4-0.5C21,50.4,21.3,50.7,21.3,51z"></path>		<path class="st1" d="M25.3,61.8c0,0.1-0.1,0.2-0.2,0.3c-0.1,0.1-0.2,0.1-0.3,0.1c-0.1,0-0.2,0-0.2-0.1c-0.1,0-0.1-0.1-0.2-0.2   c-0.1-0.1-0.1-0.1-0.1-0.2c0-0.1,0-0.2,0-0.2c0-0.1,0.1-0.2,0.2-0.2c0.1-0.1,0.2-0.1,0.3,0c0.1,0,0.3,0.1,0.4,0.2   S25.3,61.6,25.3,61.8z"></path>		<path class="st1" d="M20.7,59.2c-0.1-0.1-0.3-0.1-0.4-0.2c0-0.1,0-0.2,0-0.2c0-0.1,0-0.2,0.1-0.2c0-0.1,0.1-0.1,0.2-0.2   c0.1,0,0.1-0.1,0.2-0.1c0.1,0,0.2,0,0.2,0c0.1,0,0.1,0.1,0.2,0.2c0,0,0.1,0.1,0.1,0.1c0,0,0,0.1,0,0.2c0,0.1,0,0.1,0,0.2   c0,0-0.1,0.1-0.1,0.1C21,59.1,20.8,59.2,20.7,59.2z"></path>		<path class="st1" d="M13.9,52.7c0,0.1,0,0.2-0.1,0.3c-0.1,0.1-0.2,0.2-0.3,0.2c0,0-0.1,0-0.1,0c0,0-0.1,0-0.1,0c0,0-0.1,0-0.1-0.1   c0,0-0.1-0.1-0.1-0.1c-0.2-0.3-0.2-0.6,0-0.8c0.1,0,0.2,0,0.2,0c0.1,0,0.2,0,0.2,0.1c0.1,0,0.1,0.1,0.2,0.1   C13.8,52.6,13.8,52.6,13.9,52.7z"></path>		<path class="st1" d="M21.6,67.7c-0.1,0.1-0.1,0.2-0.2,0.3c-0.1,0.1-0.3,0.1-0.4,0c-0.1,0-0.2-0.1-0.3-0.2   c-0.1-0.1-0.1-0.2-0.1-0.3c0-0.1,0-0.2,0-0.3c0-0.1,0.1-0.1,0.1-0.1c0.1,0,0.2,0,0.3,0c0.1,0,0.2,0.1,0.3,0.1   c0.1,0.1,0.2,0.1,0.2,0.2C21.6,67.5,21.6,67.6,21.6,67.7z"></path>		<path class="st1" d="M14.8,68.4c0-0.3,0.1-0.5,0.2-0.8c0-0.1,0.1-0.1,0.2-0.2c0.1,0,0.1-0.1,0.2-0.1c0.1,0,0.2,0,0.3,0.1   c0.1,0.1,0.2,0.1,0.2,0.2c0,0.1,0,0.2,0,0.2c0,0.1,0,0.2-0.1,0.2c-0.1,0.1-0.3,0.3-0.5,0.3C15.1,68.5,14.9,68.5,14.8,68.4   L14.8,68.4z"></path>		<path class="st1" d="M11.9,57.1c-0.1,0.1-0.2,0.2-0.4,0.3c-0.1,0.1-0.2,0.1-0.3,0.1c-0.1,0-0.2-0.1-0.2-0.1   c-0.1-0.1-0.2-0.3-0.2-0.4c0-0.1,0-0.1,0-0.2s0.1-0.1,0.1-0.1c0.1-0.1,0.2-0.1,0.3-0.1c0.1,0,0.2,0,0.3,0.1   C11.7,56.7,11.8,56.9,11.9,57.1z"></path>		<path class="st1" d="M16.5,58.3c0.2,0,0.5,0.2,0.5,0.4c0,0.1,0,0.2-0.1,0.3c-0.1,0.1-0.2,0.1-0.3,0.2c-0.1,0-0.2,0-0.3,0   c-0.1,0-0.1,0-0.1-0.1C16,59,16,58.8,16,58.7C16.1,58.5,16.3,58.3,16.5,58.3z"></path>		<path class="st1" d="M19.5,46.6c0.1,0,0.1,0,0.2,0.1c0.1,0,0.1,0.1,0.2,0.1c0,0.1,0.1,0.1,0.1,0.2c0,0.1,0,0.1,0,0.2   c0,0.1,0,0.2-0.1,0.2c-0.1,0.1-0.1,0.1-0.2,0.1c-0.1,0-0.2,0-0.2,0c-0.1,0-0.1-0.1-0.1-0.2c-0.1-0.1-0.1-0.2-0.1-0.3   C19.1,46.8,19.3,46.6,19.5,46.6z"></path>		<path class="st1" d="M25.2,54.9c-0.1,0.1-0.1,0.2-0.2,0.2c-0.1,0-0.2,0.1-0.3,0.1c-0.1,0-0.2,0-0.3-0.1c-0.2-0.1-0.3-0.4-0.2-0.5   c0.1-0.1,0.2-0.2,0.4-0.2c0.1,0,0.3,0,0.4,0.1c0.1,0.1,0.2,0.2,0.3,0.3C25.2,54.8,25.2,54.9,25.2,54.9z"></path>		<path class="st1" d="M19.6,44.5c0-0.2,0.1-0.3,0.3-0.3c0.2,0,0.5,0.1,0.5,0.4c0,0.1,0,0.2-0.1,0.3C20.2,45,20.1,45,20,45   c-0.1,0-0.2-0.1-0.3-0.2C19.7,44.8,19.6,44.7,19.6,44.5z"></path>		<path class="st1" d="M16.4,47.9c0-0.2,0.2-0.4,0.5-0.3c0.1,0,0.2,0,0.3,0.1c0.1,0.1,0.1,0.2,0.2,0.3c0,0.1-0.1,0.3-0.1,0.4   c-0.1,0.1-0.2,0.2-0.3,0.2C16.6,48.5,16.4,48.2,16.4,47.9z"></path>		<path class="st1" d="M16.2,43.5c0.1,0,0.2,0,0.3,0.1c0.1,0.1,0.1,0.2,0.2,0.3c0,0.4-0.2,0.6-0.4,0.6c-0.1,0-0.2-0.1-0.3-0.2   c-0.1-0.1-0.1-0.2-0.2-0.4C15.7,43.7,16,43.5,16.2,43.5z"></path>		<path class="st1" d="M18.4,52.3c0-0.1,0-0.2,0-0.3c0-0.1,0.3-0.3,0.4-0.2c0.1,0.1,0.2,0.3,0.2,0.4c-0.1,0.2-0.1,0.4-0.3,0.6   c0,0.1-0.2,0.1-0.2,0.1c-0.1,0-0.1-0.1-0.1-0.1S18.4,52.4,18.4,52.3z"></path>		<path class="st1" d="M10,57.9c0,0.1,0,0.2-0.1,0.3c0,0.1-0.1,0.2-0.2,0.2c-0.1,0.1-0.2,0.1-0.3,0c-0.1-0.1-0.2-0.3-0.2-0.5   c0-0.1,0-0.1,0-0.2c0-0.1,0-0.1,0.1-0.2c0,0,0.1-0.1,0.1-0.1c0.1,0,0.1,0,0.2,0c0.1,0,0.1,0,0.2,0c0.1,0,0.1,0,0.2,0.1   c0,0,0.1,0.1,0.1,0.1C10,57.8,10,57.9,10,57.9z"></path>		<path class="st1" d="M25.4,59.1c0.1,0,0.2,0,0.3,0c0.1,0.1,0.2,0.2,0.2,0.3c0,0.1,0,0.2,0,0.3c0,0.2-0.3,0.2-0.5,0.2   c-0.1,0-0.1,0-0.1-0.1c0,0-0.1-0.1-0.1-0.1c0,0,0-0.1,0-0.2c0-0.1,0-0.1,0-0.2C25.3,59.3,25.4,59.2,25.4,59.1z"></path>		<path class="st1" d="M13.2,48c-0.1,0.2-0.1,0.3-0.3,0.3c-0.1,0-0.1,0-0.2,0c-0.1,0-0.1-0.1-0.2-0.1c0,0-0.1-0.1-0.1-0.2   c0-0.1,0-0.1,0-0.2c0-0.2,0.3-0.3,0.5-0.3c0.1,0,0.2,0.1,0.3,0.2C13.2,47.8,13.2,47.9,13.2,48z"></path>		<path class="st1" d="M18.7,68.2c-0.1,0.1-0.1,0.2-0.1,0.3c0,0-0.1,0-0.1,0c0,0-0.1,0-0.1-0.1c-0.1-0.1-0.1-0.2-0.2-0.3   c0-0.1-0.1-0.2-0.1-0.3c0-0.1,0-0.2,0.2-0.2c0.1,0,0.2,0,0.3,0c0.1,0.1,0.2,0.2,0.2,0.3S18.7,68.1,18.7,68.2z"></path>		<path class="st1" d="M15.5,52.2c-0.1,0-0.2,0.1-0.3,0.1s-0.3-0.2-0.3-0.5c0,0,0.1-0.1,0.1-0.1c0,0,0.1,0,0.1,0   c0.1,0,0.1,0,0.1,0.1c0,0,0.1,0.1,0.1,0.1c0,0,0,0.1,0.1,0.1C15.5,52.1,15.5,52.1,15.5,52.2z"></path>		<path class="st1" d="M23.4,67.8c-0.1,0-0.2-0.1-0.3-0.1c-0.1,0,0-0.2,0-0.3c0-0.1,0.2,0,0.3,0c0.1,0.1,0.1,0.2,0.2,0.3   C23.6,67.7,23.5,67.7,23.4,67.8z"></path>		<path class="st1" d="M4.5,69.9c0.1,0,0.3,0,0.4,0.1c0.1,0.1,0.2,0.2,0.2,0.3c0,0.1,0,0.3,0,0.4c0,0.1-0.1,0.2-0.2,0.3   c0,0-0.1,0-0.2,0c-0.1,0-0.1,0-0.2,0c-0.2-0.1-0.3-0.2-0.4-0.3c-0.1-0.1-0.1-0.3-0.1-0.5c0-0.1,0.1-0.2,0.1-0.3S4.4,69.9,4.5,69.9   z"></path>		<path class="st1" d="M7.4,87.7c0,0.1,0,0.1,0,0.2c0,0.1-0.1,0.1-0.1,0.2c0,0-0.1,0.1-0.2,0.1c-0.1,0-0.1,0-0.2,0   c-0.1,0-0.3,0-0.4-0.1c-0.1-0.1-0.2-0.2-0.2-0.3c0-0.1,0-0.2,0-0.2c0-0.1,0.1-0.2,0.1-0.2c0.1-0.1,0.1-0.1,0.2-0.1   c0.1,0,0.2,0,0.2,0c0.1,0,0.3,0.1,0.3,0.2C7.4,87.4,7.4,87.6,7.4,87.7z"></path>		<path class="st1" d="M4.8,75.6c0.2,0.1,0.3,0.2,0.5,0.3c0.1,0.1,0.1,0.1,0.1,0.2c0,0.1,0,0.2,0,0.2c0,0.1-0.1,0.2-0.2,0.2   c-0.1,0.1-0.2,0.1-0.3,0c-0.1,0-0.2-0.1-0.3-0.2c-0.1-0.1-0.1-0.2-0.2-0.3c0-0.1,0-0.2,0-0.2c0-0.1,0.1-0.1,0.1-0.2   s0.1-0.1,0.2-0.1C4.7,75.6,4.7,75.6,4.8,75.6z"></path>		<path class="st1" d="M5.1,61.2c0.1,0,0.2,0,0.3,0.1c0.1,0.1,0.2,0.1,0.2,0.2c0.1,0.1,0.1,0.2,0.1,0.3s0,0.2-0.1,0.3   c-0.1,0.2-0.4,0.2-0.6,0.1c-0.1-0.1-0.2-0.2-0.3-0.4c0-0.2,0-0.3,0-0.5C4.8,61.3,5,61.3,5.1,61.2z"></path>		<path class="st1" d="M4.3,81.5c0.1-0.1,0.1-0.3,0.2-0.4c0.1-0.1,0.3-0.1,0.5,0c0.1,0.1,0.2,0.1,0.2,0.2c0.1,0.1,0.1,0.2,0.1,0.2   c0,0.1,0,0.2-0.1,0.2C5.2,81.9,5.1,82,5,82c-0.1,0-0.2,0-0.2,0c-0.1,0-0.2-0.1-0.3-0.2C4.4,81.7,4.3,81.6,4.3,81.5z"></path>		<path class="st1" d="M4.1,65.9c0.1,0,0.2,0,0.3,0.1c0.1,0.1,0.2,0.2,0.3,0.4c0.2,0.2,0.2,0.5,0,0.6C4.7,67,4.6,67,4.6,67   s-0.2,0-0.2-0.1c-0.2-0.1-0.4-0.3-0.4-0.5c0-0.1,0-0.1,0-0.2c0-0.1,0-0.1,0-0.2C3.9,66.1,4,66,4,66C4,66,4.1,65.9,4.1,65.9z"></path>		<path class="st1" d="M10.3,95.1c0.1,0,0.2,0,0.2,0c0.1,0,0.1,0.1,0.2,0.2c0.1,0.1,0.1,0.1,0.1,0.2c0,0.1,0,0.2,0,0.2   c0,0.2-0.2,0.3-0.4,0.2c-0.2-0.1-0.3-0.3-0.5-0.5c0,0,0-0.1,0-0.1c0-0.1,0-0.1,0-0.1C10.1,95.2,10.2,95.2,10.3,95.1z"></path>		<path class="st1" d="M17.7,103.8c-0.1,0.1-0.1,0.2-0.2,0.2c-0.3,0.1-0.5,0-0.6-0.3c0,0,0-0.1,0-0.1c0,0,0-0.1,0-0.1   c0,0,0-0.1,0.1-0.1c0,0,0.1,0,0.1,0c0.1,0,0.3,0,0.4,0.1C17.6,103.5,17.7,103.6,17.7,103.8z"></path>		<path class="st1" d="M14.2,99.6c0,0.1-0.1,0.2-0.1,0.3c-0.1,0.1-0.3,0.1-0.4,0c-0.1-0.1-0.2-0.3-0.2-0.4c0-0.2,0.2-0.3,0.3-0.3   c0.1,0,0.2,0,0.3,0.1C14.1,99.4,14.2,99.5,14.2,99.6z"></path>		<path class="st1" d="M26.1,89c0.2,0,0.4,0,0.6,0c0.1,0,0.2,0.1,0.3,0.2c0.1,0.1,0.1,0.2,0.2,0.3c0,0.1,0,0.2-0.1,0.3   c0,0.1-0.1,0.2-0.2,0.3c-0.4,0.2-0.7,0.3-1.1,0.4c-0.1,0-0.1,0-0.2,0c-0.1,0-0.1-0.1-0.1-0.1c-0.2-0.4-0.5-0.8-0.7-1.2   c0-0.1,0-0.2,0-0.3c0-0.1,0.1-0.2,0.1-0.3c0-0.1,0.1-0.1,0.1-0.2c0.1,0,0.1-0.1,0.2-0.1c0.1,0,0.1,0,0.2,0c0.1,0,0.1,0,0.2,0.1   C25.8,88.5,25.9,88.8,26.1,89z"></path>		<path class="st1" d="M15.9,90.8c0,0.1-0.1,0.3-0.1,0.3c-0.4,0.2-0.7,0.4-1,0.6c-0.2,0.1-0.4,0-0.6-0.1s-0.3-0.3-0.2-0.6   c0-0.1,0-0.2,0.1-0.2c0.1-0.1,0.1-0.1,0.2-0.1c0.1,0,0.2,0,0.3-0.1c0.3,0,0.4-0.2,0.4-0.4c0.1-0.2,0.3-0.2,0.4-0.2   c0.2,0,0.3,0.1,0.4,0.3S15.9,90.6,15.9,90.8z"></path>		<path class="st1" d="M22.1,93.3c-0.2-0.2-0.4-0.5-0.6-0.7c-0.1-0.1-0.1-0.2-0.1-0.3c0-0.1,0-0.2,0.1-0.3c0-0.1,0.1-0.1,0.1-0.2   c0-0.1,0.1-0.1,0.2-0.1c0.1,0,0.1,0,0.2,0c0.1,0,0.1,0,0.2,0.1c0.3,0.2,0.5,0.4,0.7,0.7c0.1,0.1,0.1,0.1,0.1,0.2   c0,0.1,0,0.2-0.1,0.2c-0.1,0.2-0.2,0.3-0.3,0.4S22.2,93.3,22.1,93.3z"></path>		<path class="st1" d="M18.4,93.2c-0.3-0.2-0.6-0.4-0.9-0.7c-0.1-0.1-0.1-0.2-0.2-0.3c0-0.2,0-0.3,0.1-0.5c0.1-0.2,0.3-0.2,0.4-0.1   c0.4,0.1,0.7,0.3,0.9,0.6c0.2,0.3,0.2,0.6-0.2,0.8C18.5,93.2,18.5,93.2,18.4,93.2z"></path>		<path class="st1" d="M18.8,87c0,0.2,0,0.3-0.1,0.5c-0.1,0.1-0.2,0.2-0.4,0.3c-0.1,0-0.2,0-0.2,0c-0.1,0-0.2,0-0.2-0.1   c-0.1,0-0.1-0.1-0.2-0.2c-0.1-0.1-0.1-0.1-0.1-0.2c0-0.1,0-0.2,0-0.3c0-0.1,0.1-0.2,0.1-0.3c0.1-0.1,0.1-0.1,0.2-0.2   c0.1-0.1,0.2-0.1,0.3-0.1c0.2,0,0.3,0,0.5,0.1C18.6,86.7,18.7,86.8,18.8,87z"></path>		<path class="st1" d="M17.1,90.2C17,90.1,17,90,16.9,90c-0.1-0.1-0.1-0.3-0.1-0.4c0-0.1,0.1-0.3,0.2-0.4c0.2-0.2,0.5-0.3,0.8-0.3   c0.1,0,0.3,0.1,0.4,0.2c0.1,0.1,0.2,0.2,0.2,0.4c0,0.1,0,0.2-0.1,0.3c-0.1,0.1-0.1,0.2-0.2,0.2C17.8,90.1,17.5,90.2,17.1,90.2z"></path>		<path class="st1" d="M22.7,87.5c-0.1,0-0.2,0-0.3-0.1c0,0-0.1,0-0.1,0c0,0,0,0-0.1-0.1c0,0,0-0.1,0-0.1c0,0,0-0.1,0-0.1   c0.1-0.2,0.2-0.4,0.3-0.6c0.2-0.3,0.5-0.4,0.7-0.2c0.1,0,0.1,0.1,0.2,0.2c0,0.1,0.1,0.2,0.1,0.2c0,0.1,0,0.2,0,0.3   c0,0.1-0.1,0.2-0.1,0.2c-0.1,0.1-0.2,0.1-0.3,0.2C22.9,87.5,22.8,87.5,22.7,87.5z"></path>		<path class="st1" d="M22,97.2c0.1-0.1,0.2-0.2,0.3-0.3c0.2-0.1,0.3,0,0.5,0.1c0.1,0.1,0.1,0.1,0.1,0.2c0,0.1,0.1,0.2,0.1,0.2   c0,0.1,0,0.2-0.1,0.2c0,0.1-0.1,0.1-0.1,0.2c-0.1,0.1-0.2,0.2-0.4,0.2c-0.2,0-0.3-0.2-0.3-0.3C22,97.6,22.1,97.4,22,97.2z"></path>		<path class="st1" d="M20.2,92.8c-0.2,0-0.4-0.1-0.4-0.4c-0.1-0.3,0-0.6,0.2-0.7c0.1,0,0.2,0,0.3,0c0.1,0,0.2,0.1,0.3,0.2   c0.1,0.1,0.2,0.2,0.2,0.3c0,0.1,0,0.2,0,0.3c-0.1,0.1-0.1,0.2-0.2,0.2C20.4,92.7,20.3,92.7,20.2,92.8z"></path>		<path class="st1" d="M20.8,84c0.2,0.1,0.3,0.2,0.4,0.3c0.1,0.1,0.1,0.2,0.1,0.3s0,0.2-0.1,0.3c-0.1,0.2-0.3,0.3-0.5,0.3   c0,0-0.1,0-0.1,0c0,0-0.1,0-0.1,0c0,0,0,0-0.1-0.1c0,0,0,0,0-0.1c-0.1-0.3-0.1-0.6,0-0.8C20.5,84.2,20.7,84.1,20.8,84z"></path>		<path class="st1" d="M16.3,87.4c0,0.1,0,0.2-0.1,0.3c-0.1,0.1-0.2,0.2-0.3,0.2c-0.1,0-0.2,0-0.2,0c-0.1,0-0.1-0.1-0.2-0.1   c-0.1-0.1-0.1-0.2-0.2-0.3c0-0.1,0-0.2,0-0.3c0-0.1,0-0.2,0.1-0.2c0.1-0.1,0.1-0.1,0.2-0.1c0.1,0,0.2,0,0.2,0   c0.1,0,0.1,0.1,0.2,0.1c0.1,0.1,0.1,0.1,0.1,0.2C16.3,87.3,16.3,87.4,16.3,87.4z"></path>		<path class="st1" d="M16.9,83.9c-0.1,0-0.2-0.1-0.3-0.1c-0.1-0.1-0.2-0.1-0.2-0.2c0-0.1,0-0.2,0-0.3c0-0.1,0.1-0.2,0.1-0.3   c0-0.1,0.1-0.1,0.2-0.1c0.1,0,0.2,0,0.2,0c0.1,0,0.2,0.1,0.2,0.2c0.1,0.1,0.1,0.2,0.1,0.3c0,0.1,0,0.2-0.1,0.3   c0,0.1-0.1,0.2-0.2,0.2C17,83.8,16.9,83.9,16.9,83.9z"></path>		<path class="st1" d="M23.6,89c-0.1,0-0.1,0-0.2-0.1c-0.1-0.1-0.1-0.1-0.2-0.2c0-0.1-0.1-0.2-0.1-0.3s0-0.2,0.1-0.3   c0-0.1,0.1-0.2,0.2-0.2c0,0,0.1-0.1,0.1-0.1c0.1,0,0.1,0,0.2,0c0.5,0.1,0.6,0.5,0.2,0.9C23.8,88.8,23.7,88.9,23.6,89z"></path>		<path class="st1" d="M22.2,81.7c0,0.1,0,0.2-0.1,0.3c-0.1,0.1-0.1,0.2-0.2,0.2c-0.1,0-0.1,0.1-0.2,0c-0.1,0-0.2-0.1-0.2-0.1   c-0.1-0.2-0.1-0.3-0.1-0.5c0-0.1,0-0.1,0-0.2c0-0.1,0-0.1,0.1-0.1c0,0,0.1-0.1,0.1-0.1s0.1,0,0.2,0C22,81.3,22.2,81.5,22.2,81.7z"></path>		<path class="st1" d="M23.3,84.7c0,0.2-0.1,0.4-0.3,0.5c-0.1,0-0.1,0-0.2,0c-0.1,0-0.1,0-0.2-0.1c-0.1,0-0.1-0.1-0.1-0.1   c0-0.1-0.1-0.1-0.1-0.2c0-0.1,0-0.2,0.1-0.3c0.1-0.1,0.1-0.2,0.2-0.2c0.1,0,0.3,0,0.4,0.1C23.2,84.4,23.3,84.5,23.3,84.7z"></path>		<path class="st1" d="M26.7,84.3c0,0.1,0,0.2-0.1,0.3c-0.1,0.1-0.2,0.1-0.3,0.2c-0.1,0-0.1,0-0.2,0c-0.1,0-0.1,0-0.1-0.1   c0,0-0.1-0.1-0.1-0.1c0,0,0-0.1-0.1-0.1c-0.1-0.3,0.2-0.6,0.4-0.6c0.1,0,0.2,0.1,0.3,0.2C26.6,84.1,26.7,84.2,26.7,84.3z"></path>		<path class="st1" d="M24.2,91.6c0,0.1,0,0.2-0.1,0.3c-0.1,0.1-0.2,0.1-0.3,0.2c-0.3,0-0.5-0.2-0.5-0.5c0-0.1,0-0.2,0.1-0.2   c0.1-0.1,0.1-0.1,0.2-0.1c0.1,0,0.3,0,0.4,0.1C24.1,91.4,24.2,91.5,24.2,91.6z"></path>		<path class="st1" d="M19.3,90.2c0-0.1,0-0.2,0.1-0.3c0.1-0.1,0.2-0.2,0.4-0.2c0.1,0,0.2,0,0.2,0.1c0.1,0,0.1,0.1,0.2,0.2   c0,0.1,0,0.1,0,0.2s0,0.2,0,0.2c-0.1,0.1-0.2,0.2-0.4,0.3c-0.1,0-0.1,0-0.2,0c-0.1,0-0.1,0-0.2-0.1c0,0-0.1-0.1-0.1-0.1   C19.3,90.3,19.2,90.3,19.3,90.2z"></path>		<path class="st1" d="M42.2,45.9c0,0,0,0.1,0,0.1c0,0,0,0.1-0.1,0.1c0,0-0.1,0-0.1,0c0,0-0.1,0-0.1,0c-0.1,0-0.1,0-0.2-0.1   c0,0-0.1-0.1-0.1-0.1c0,0-0.1-0.1-0.1-0.1c0-0.1,0-0.1,0-0.2c0,0,0-0.1,0-0.1s0-0.1,0.1-0.1c0,0,0.1,0,0.1,0c0,0,0.1,0,0.1,0   C42.1,45.6,42.2,45.7,42.2,45.9z"></path>		<path class="st1" d="M46.6,46.4c0,0-0.1,0.1-0.1,0.1c-0.1,0-0.2,0.1-0.3,0.1c-0.1,0-0.2-0.1-0.3-0.1c-0.1-0.1-0.1-0.2-0.1-0.3   c0,0,0-0.1,0-0.1c0,0,0.1-0.1,0.1-0.1c0.1,0,0.2,0,0.3,0c0.1,0,0.2,0.1,0.2,0.2C46.5,46.2,46.6,46.3,46.6,46.4z"></path>	</g></g></svg>