<svg xmlns="http://www.w3.org/2000/svg" xmlns:xlink="http://www.w3.org/1999/xlink" id="Layer_1" x="0px" y="0px" viewBox="0 0 104 130" style="enable-background:new 0 0 104 130;" xml:space="preserve"><style type="text/css">	.st0{clip-path:url(#SVGID_00000137129541716266869720000005090789673565742270_);}	.st1{fill:#587307;}</style><g>	<defs>		<rect id="SVGID_1_" x="0.1" width="103.8" height="129.6"></rect>	</defs>	<clipPath id="SVGID_00000031923217441597498540000007887282925159037347_">		<use xlink:href="#SVGID_1_" style="overflow:visible;"></use>	</clipPath>	<g style="clip-path:url(#SVGID_00000031923217441597498540000007887282925159037347_);">		<path class="st1" d="M40.3,105.6c-1.1,0.1-2.3,0-3.4-0.2c-0.3,0-0.6,0-0.9,0c-2,0-4.1-0.1-6.1-0.1c-1.5,0-3.1-0.2-4.6-0.6   c-0.6-0.1-1.2-0.2-1.8-0.3c-0.3,0-0.6,0-0.8,0.1c-0.3,0.1-0.5,0.3-0.7,0.5c-0.1,0.1-0.2,0.2-0.2,0.3c-1,1.3-1.8,2.8-2.4,4.3   c-0.2,0.7-0.5,1.4-0.9,2c-0.1,0.2-0.2,0.4-0.3,0.6c-0.4,1.3-0.9,2.5-1.6,3.6c-0.2,0.3-0.3,0.7-0.3,1.1c0,0.1-0.1,0.3-0.2,0.4   c-0.1,0.1-0.2,0.2-0.4,0.2c-0.2,0-0.3,0-0.5,0c-0.8-0.2-1.6-0.4-2.4-0.7c-0.2-0.1-0.3-0.3-0.4-0.5c-0.1-0.1-0.1-0.2-0.1-0.3   c0-0.1,0.1-0.2,0.2-0.3c0.4-0.3,0.7-0.8,0.8-1.3c0.5-1.6,1.2-3.2,2-4.7c0.4-0.7,0.8-1.5,1.1-2.3c0.6-1.5,1.3-2.9,2.1-4.3   c0.1-0.2,0.2-0.4,0.3-0.6c0-0.1,0-0.2,0-0.2c0-0.1,0-0.2-0.1-0.2c-1-1.3-1.7-2.8-2.2-4.4c-0.6-1.5-0.9-3.2-1.4-4.8   c-0.2-0.7-0.3-1.3-0.5-2c-0.3-1-0.5-2.1-0.7-3.2c-0.3-2-0.4-4.1-0.4-6.1c0-1,0.1-1.9,0.3-2.9c0.2-1.1,0.4-2.2,0.7-3.3   c0-0.1,0.1-0.2,0.1-0.3c0.4-2.3,1-4.5,1.8-6.6c0-0.2,0.1-0.3,0.2-0.5c0.7-1.4,1.3-2.8,2-4.2c0.1-0.3,0.3-0.6,0.5-0.9   c1-2.2,2.4-4.2,4.1-5.9c0.5-0.5,1-1.1,1.5-1.6c0.2-0.2,0.3-0.3,0.5-0.5c2.2-2.1,4.7-3.9,7.4-5.5c0.8-0.4,1.5-0.9,2.2-1.3   c0.9-0.6,1.9-1,2.9-1.5c0.7-0.3,1.3-0.6,2-0.9c0.6-0.3,1.1-0.5,1.7-0.7c0.7-0.3,1.5-0.6,2.2-1c0.8-0.4,1.5-0.8,2.3-1   c2.5-0.9,5-1.6,7.5-2.2l0.5-0.1l6.6-1.7c0.3-0.1,0.7-0.1,1-0.2l2.7-0.5c0.3-0.1,0.7-0.1,1-0.2c0.9-0.1,1.8-0.2,2.7-0.3   c2.4-0.3,4.8-0.6,7.1-0.7c1,0,1.9-0.2,2.9-0.3c2.7-0.3,5.3-0.5,8-0.8c0.8-0.1,1.7-0.2,2.6-0.2c1.7,0,3.4-0.2,5.1-0.3   c1.2-0.1,2.5-0.4,3.7-0.4c0.6-0.1,1.1-0.2,1.7-0.4c0.6-0.2,1.1-0.2,1.7-0.1c0.2,0,0.3,0.1,0.5,0.2c0.1,0.1,0.2,0.2,0.3,0.4   c0,0.1,0.1,0.3,0,0.4c0,0.1-0.1,0.3-0.2,0.4c0,0.1-0.1,0.1-0.1,0.1c-0.8,0.7-1.5,1.6-1.9,2.6c-0.4,0.9-0.9,1.7-1.4,2.5   c-0.4,0.7-0.8,1.5-1.1,2.3c-0.3,0.6-0.6,1.1-0.9,1.7c-0.2,0.3-0.3,0.6-0.4,0.9c-0.2,0.7-0.5,1.4-0.8,2c-0.5,0.9-0.9,1.8-1.2,2.8   c-0.1,0.4-0.2,0.8-0.4,1.1c-0.1,0.4-0.2,0.7-0.3,1c-0.3,0.8-0.6,1.6-0.9,2.4c-0.2,0.5-0.4,1-0.6,1.4c-0.7,1.1-1,2.3-1.6,3.4   c-0.3,0.7-0.7,1.3-1.1,2c-0.9,1.5-1.7,3.2-2.4,4.8c-0.1,0.4-0.3,0.7-0.5,1.1c-0.3,0.4-0.5,0.9-0.7,1.4c-0.6,1.8-1.4,3.6-1.9,5.5   c-0.2,0.6-0.4,1.2-0.6,1.8c-0.1,0.3-0.2,0.5-0.3,0.8c-0.8,2.4-1.9,4.7-3.4,6.7c-0.2,0.3-0.5,0.6-0.8,0.9c-2.1,2.2-4.3,4.3-6.3,6.5   c-1,1-2,1.9-3.1,2.7c-0.2,0.2-0.5,0.3-0.7,0.5c-1.4,1.3-2.9,2.4-4.7,3.2c-1,0.5-2,1-3,1.6c-0.5,0.3-0.9,0.6-1.4,1   c-0.4,0.3-0.8,0.6-1.3,0.8c-0.7,0.3-1.5,0.6-2.2,1c-0.7,0.4-1.5,0.8-2.3,1c-1.8,0.6-3.6,1-5.4,1.5c-0.2,0.1-0.4,0.1-0.7,0.1   C44.9,105.3,42.6,105.6,40.3,105.6z M65.3,56.7L65.3,56.7c-0.1,0.1-0.2,0.1-0.2,0S65.2,56.6,65.3,56.7   C65.2,56.7,65.2,56.7,65.3,56.7L65.3,56.7z M63.5,58.1c-0.1,0-0.2-0.1-0.3,0c-0.5,0.3-1,0.5-1.5,0.8c-0.2,0.1-0.4,0.3-0.5,0.4   c-0.9,1.2-2,2.2-3.2,3c-0.3,0.2-0.5,0.4-0.7,0.7c-0.3,0.4-0.7,0.7-1.2,1c-0.4,0.3-0.9,0.6-1.2,0.9c-1.2,1.2-2.4,2.2-3.8,3.2   c-0.4,0.4-0.8,0.8-1.4,0.9c-0.8,0.3-1.4,0.8-1.8,1.5c-0.2,0.5-0.6,0.8-1.1,1.1c-0.9,0.5-1.7,1.2-2.3,2c-0.2,0.2-0.4,0.4-0.6,0.6   c-1.3,1-2.2,2.3-3.5,3.2c-0.2,0.2-0.4,0.4-0.6,0.6c-0.5,0.6-1,1.1-1.6,1.6c-1.1,1-2.2,2-3.2,3L32.7,85c-0.2,0.2-0.3,0.3-0.5,0.5   c-0.7,0.8-1.4,1.7-2.1,2.5c-0.8,0.8-1.5,1.7-2.1,2.7c-0.1,0.2-0.3,0.3-0.5,0.5L26.1,93c-0.4,1.3-1.5,2.3-2.1,3.5   c-0.8,1-1.3,2.1-2,3.1c-0.2,0.3-0.4,0.6-0.5,0.9c-0.6,1.4-1.4,2.6-2.1,3.9c-0.9,1.6-1.6,3.1-2.3,4.8c-0.2,0.5-0.4,0.9-0.7,1.4   c-0.9,1.5-1.4,3.1-2.2,4.6c0,0.1,0,0.2,0,0.3c0.1,0.2,0.3,0.3,0.6,0.3c0.1,0,0.2,0,0.3-0.1c0.1-0.1,0.2-0.1,0.2-0.2   c0.6-1.6,1.2-3.1,1.9-4.6c0.6-1.3,1.2-2.6,1.7-3.9c0.1-0.2,0.2-0.3,0.2-0.5c0.6-1.2,1.4-2.4,2.2-3.5c0.7-0.8,1.2-1.7,1.5-2.7   c0.3-0.5,0.5-1,0.8-1.5c0.3-0.4,0.5-0.8,0.7-1.2c0.7-1.4,1.5-2.7,2.5-3.9c0.8-0.9,1.4-1.9,2.2-2.9c0.7-1,1.5-2,2.3-2.9   c0.2-0.3,0.5-0.5,0.6-0.8c0.3-0.4,0.6-0.8,1-1.2c1.5-1.5,2.9-3.2,4.4-4.8c2-2.2,4.1-4.3,6.3-6.2c1.2-1,2.3-2,3.5-3   c1.4-1.2,2.8-2.5,4.2-3.8c0.8-0.7,1.5-1.4,2.4-2c1-0.8,1.9-1.6,2.9-2.4c1.4-1.2,2.8-2.4,4.1-3.6C61.9,59.7,62.7,58.9,63.5,58.1   L63.5,58.1L63.5,58.1z M30.8,91.5c0.1,0,0.2,0.1,0.3,0c0.6-0.3,1.2-0.6,1.8-0.9c2.2-1.2,4.6-2.3,7-3.2c2-1,4.2-1.4,6.2-2.3   c0.6-0.2,1.2-0.4,1.8-0.6c1.4-0.3,2.8-0.6,4.2-0.9c1.2-0.2,2.4-0.4,3.6-0.4c1.8,0,3.5,0,5.3,0.1c0.2,0,0.2,0.1,0.2,0.2   c0,0.1,0,0.1-0.1,0.1c-0.8,0.3-1.6,0.5-2.5,0.6c-2.3,0.1-4.5,0.3-6.8,0.7c-0.6,0.1-1.2,0.3-1.8,0.4c-0.5,0.2-1.1,0.4-1.6,0.6   c-0.7,0.2-1.5,0.2-2.2,0.4c-0.7,0.2-1.3,0.6-2,0.8c-0.7,0.2-1.4,0.5-2.1,0.8c-0.6,0.3-1.2,0.5-1.8,0.6c-0.3,0.1-0.5,0.2-0.8,0.3   c-1.4,0.9-3,1.5-4.5,2.2c-1.5,0.7-3,1.5-4.4,2.3c-0.5,0.3-1,0.6-1.4,1c-0.4,0.4-0.8,0.8-1.4,1c-0.2,0-0.3,0.1-0.4,0.3   c-0.5,0.6-0.9,1.1-1.4,1.7c-0.5,1.1-1.1,2.1-1.7,3.1c-1.2,2.5-1.2,2,1.3,2.5c1,0.3,2,0.4,3,0.4h3.9l4.1,0.1c2,0.3,4,0.4,6,0.2   c1.8-0.1,3.5-0.4,5.2-0.7c1.6-0.3,3.1-0.8,4.6-1.3c1.9-0.6,3.7-1.4,5.5-2.4c1.7-0.9,3.3-1.8,5-2.7c1.5-0.8,2.9-1.8,4.2-2.9   c0.5-0.5,1-0.9,1.6-1.3c0.6-0.5,1-0.9,1.5-1.4c0.7-0.7,1.3-1.4,2-2.1c1-0.9,1.9-1.9,2.7-3c0.5-0.7,1.1-1.4,1.8-2   c0.2-0.2,0.4-0.4,0.6-0.6c1.7-2.3,3-4.9,3.8-7.6c0.5-1.8,1.1-3.5,1.8-5.2c1.3-3.2,2.8-6.3,4.4-9.3c0.5-0.8,0.8-1.7,1.2-2.6   s0.9-2.1,1.3-3.2c0.4-0.9,0.8-1.8,1.1-2.7c0.6-1.8,1.3-3.5,2.1-5.2c0.5-1,0.9-2,1.4-3c0.7-1.6,1.4-3.1,2.2-4.6   c0.4-0.7,0.7-1.4,1-2.2c0-0.1-0.1-0.2-0.1-0.3c-0.2,0.1-0.3,0.1-0.5,0.2c-0.5,0.4-1,0.9-1.5,1.2c-0.6,0.3-1.2,0.6-1.9,0.8   c-0.4,0.1-0.8,0.3-1.1,0.4c-0.3,0.1-0.5,0.2-0.8,0.3c-1.2,0.8-2.5,1.3-3.6,2.2c-0.8,0.6-1.7,1.1-2.7,1.5c-0.2,0.1-0.6,0.2-0.8,0.3   c-1.7,0.9-3.4,1.9-4.9,3c-1.1,0.9-2.3,1.7-3.6,2.3c-0.4,0.2-0.7,0.4-1,0.7c0,0,0,0.1,0,0.2c0,0,0,0,0.1,0.1c0,0,0,0,0.1,0   c0.8,0,1.6-0.1,2.4-0.3c0.4-0.1,0.9-0.2,1.3-0.3c2.3-0.2,4.5-0.3,6.8-0.3c0.5,0,1,0.1,1.5,0.2c0.3,0,0.6,0,0.8,0   c0.1,0,0.2,0,0.3-0.1c0.1-0.1,0.2-0.1,0.3-0.2c0.2-0.4,0.5-0.8,0.7-1.2c0.4-0.7,0.7-1.4,1.1-2.1c0.8-1.4,1.5-2.8,2.3-4.2   c0.4-0.7,0.7-1.3,1.1-1.9c0.1-0.1,0.2-0.3,0.4-0.4c0.1-0.1,0.2-0.1,0.3-0.1c0.1,0,0.2,0,0.3,0.1c0.1,0.1,0.3,0.3,0.2,0.4   c-1.1,1.7-2,3.5-3,5.2c-1,1.8-2.1,3.4-3.4,5l-1.4,0.2c-0.4,0.1-0.8,0.1-1.2,0.2l-1.9,0.2l-1.2,0.1c-0.3,0.1-0.7,0.1-1,0.1   c-0.7-0.1-1.5,0-2.2,0.1c-0.8,0.2-1.7,0.2-2.5,0.4c-1,0-2,0.3-3,0.6c-0.1,0-0.2,0.1-0.3,0.1c-1.6,0.3-3.1,1.1-4.4,2.1   c-0.1,0.1-0.2,0.1-0.2,0.2c-0.1,0.1-0.1,0.2-0.1,0.3l0.1-0.1c-0.2,0-0.3,0-0.5,0.1c-0.6,0.4-1.2,0.8-1.8,1.3   c-1.6,1.5-3.3,2.8-4.9,4.3c-0.5,0.5-1.1,1-1.6,1.5S59.6,63.4,59,64c-1,1-2,1.9-3.1,2.7c-0.4,0.3-0.8,0.6-1.2,1   c0,0-0.1,0.1-0.1,0.1c0,0.1,0,0.1,0,0.2c0,0,0.1,0.1,0.1,0.1c0,0,0.1,0,0.1,0c0.9-0.2,1.9-0.4,2.8-0.7c0.9-0.3,2.1-0.6,3.1-0.8   c1.8-0.5,3.6-0.8,5.4-0.9c0.3,0,0.5,0,0.8,0c1.1-0.2,2.2-0.2,3.2-0.2c0.4,0,0.8,0.1,1.2,0.2c1.3,0.3,2.7,0.6,4,0.9   c0,0.1,0,0.2-0.1,0.3c-0.7,0.5-1.6,0.6-2.4,0.5C71,67.2,69.1,67,67.2,67c-0.2,0-0.3,0-0.5,0c-1.1,0.3-2.2,0.5-3.4,0.5   c-0.9,0.1-1.8,0.3-2.7,0.5c-0.8,0.3-1.6,0.5-2.5,0.6c-2,0.6-4,1.2-6,2c-0.3,0.1-0.6,0.2-0.9,0.4c-0.4,0.2-0.7,0.4-0.9,0.8   c0,0,0,0.1,0,0.1c0.2,0.1,0.3,0.3,0.3,0.5c0,0.2,0,0.4-0.1,0.5c-0.8,1.5-1.6,3-2.6,4.4c-1,1.4-2,2.8-2.9,4.2   c-0.4,0.6-0.8,1.1-1.2,1.7c-0.1,0.1-0.2,0.2-0.4,0.3c0,0-0.1,0-0.2,0c0,0-0.1-0.2-0.1-0.3c0.3-0.7,0.7-1.3,1-2   c0.8-1.2,1.6-2.5,2.4-3.7c0.9-1.4,1.8-2.8,2.7-4.2c0.1-0.2,0.3-0.5,0.3-0.8c0-0.1,0-0.3-0.1-0.4c-1,0.8-1.9,1.7-2.9,2.5   c-2.1,1.8-4.1,3.6-6,5.6c-0.8,0.7-1.5,1.4-2.1,2.2c-0.1,0.1-0.2,0.3-0.3,0.4c-0.8,0.7-1.6,1.5-2.3,2.3c-0.7,0.7-1.4,1.5-2.2,2.1   c-0.4,0.3-0.7,0.7-0.9,1.2c-0.1,0.3-0.4,0.6-0.6,0.8c-0.4,0.5-0.8,1.1-1.2,1.6C30.9,91.1,30.9,91.3,30.8,91.5L30.8,91.5   C30.9,91.7,30.9,91.6,30.8,91.5z M97.2,37.1c0-0.2-0.1-0.4-0.3-0.3c-1.3,0-2.5,0-3.8,0.2c-1.1,0.2-2.3,0.2-3.4,0.2   c-2,0.1-4.1-0.1-6.1,0.4c-0.6,0.1-1.1,0.2-1.7,0.2c-2.2,0-4.4,0.5-6.7,0.5c-1.8,0.1-3.6,0.4-5.4,0.6c-0.2,0-0.3,0-0.5,0.1   c-0.7,0.2-1.4,0.3-2.2,0.4c-0.6,0.1-1.1,0.1-1.7,0.2c-1.3,0.3-2.6,0.5-3.9,0.6c-0.6,0.1-1.2,0.2-1.8,0.5c-0.9,0.4-1.9,0.6-2.8,0.6   c-0.4,0-0.8,0.1-1.2,0.2c-0.1,0-0.2,0.1-0.3,0.1l-3,0.8c-1,0.4-2,0.8-3.1,1c-0.2,0-0.3,0.1-0.5,0.2C48,44.1,47,44.4,46,44.5   c-0.3,0-0.6,0.1-0.8,0.2c-0.6,0.1-1.1,0.4-1.5,0.8c-0.3,0.3-0.8,0.5-1.2,0.5c-0.9,0.2-1.7,0.5-2.4,1.1c-0.8,0.6-1.7,1.1-2.7,1.4   c-0.4,0.1-0.7,0.3-1,0.6c-0.3,0.2-0.7,0.4-1,0.6c-0.2,0.1-0.5,0.2-0.8,0.4l-1.9,1.1c-0.3,0.2-0.6,0.3-0.9,0.5   c-1,0.6-1.9,1.3-2.9,1.9c-0.4,0.2-0.7,0.5-1,0.9c-0.4,0.4-0.8,0.9-1.2,1.2c-0.7,0.6-1.3,1.1-1.9,1.7c-0.4,0.4-0.8,1-1.3,1.4   c-0.4,0.4-0.8,0.9-1.2,1.5c-0.4,0.5-0.8,1-1.1,1.5c-0.4,0.9-0.9,1.7-1.5,2.5c-0.2,0.3-0.4,0.6-0.5,0.9c-0.2,0.5-0.4,1.1-0.7,1.6   c-0.3,0.6-0.5,1.2-0.6,1.8c-0.1,0.3-0.2,0.5-0.3,0.8c-0.3,0.7-0.5,1.4-0.8,2.1c-0.8,2.9-1.3,5.9-2,8.8c-0.1,0.3-0.1,0.7-0.1,1   c0.2,1.4,0.2,2.8,0.3,4.3c0,0.3,0,0.6,0.1,0.8c0.1,0.7,0.2,1.4,0.3,2c0,0.3,0.1,0.6,0.2,0.8c0.3,1,0.6,2.1,0.8,3.2   c0.3,1.4,0.7,2.8,1.2,4.1c0.1,0.3,0.3,0.7,0.4,1c0.1,0.6,0.3,1.2,0.6,1.8c0.3,0.6,0.5,1.1,0.7,1.7c0.5-0.3,0.7-0.4,0.8-0.7   c0.9-2,2-3.8,3.3-5.6c0.5-0.8,1.1-1.6,1.6-2.4c0.7-1.2,1.5-2.4,2.5-3.5c0.3-0.3,0.5-0.6,0.7-0.9c0.8-1.1,1.7-2.1,2.7-3.1l3.2-3.3   c0.4-0.3,0.7-0.7,1-1.1c0.2-0.5,0.4-1.1,0.5-1.6c0.1-0.3,0.2-0.7,0.2-1c0.3-1.2,0.5-2.5,0.6-3.7c0.1-1.8,0.1-3.5,0.1-5.3   c0-0.1,0-0.2,0-0.3c-0.3-1.7-0.6-3.4-0.7-5.1c0-0.2-0.1-0.4-0.1-0.7c-0.1-0.8-0.3-1.7-0.3-2.5c-0.1-1.5-0.3-2.9-0.8-4.4   c-0.1-0.5-0.1-1,0-1.5c0-0.2,0.2-0.3,0.3-0.3c0.1,0.1,0.2,0.1,0.2,0.2c0.2,0.8,0.4,1.5,0.7,2.3c0.1,0.2,0.1,0.4,0.2,0.7   c0.4,1.8,0.7,3.7,0.9,5.6c0.2,1.5,0.4,3,0.7,4.6c0.1,0.7,0.2,1.5,0.3,2.2c0,1,0,1.9,0,2.9c0,1.1-0.2,2.3-0.2,3.4   c0,0.3,0,0.6-0.1,0.9c0,0.2-0.1,0.4-0.2,0.7c0,0.1-0.1,0.2-0.1,0.3c0,0.1,0.1,0.2,0.1,0.3c0,0,0.1,0,0.2,0c0.1,0,0.1,0,0.2,0   c0.8-0.7,1.6-1.4,2.4-2.2c1.7-1.6,3.3-3.2,5.1-4.6c0.2-0.2,0.4-0.4,0.6-0.6c0.7-0.7,1.5-1.4,2.4-1.9c0.4-0.2,0.7-0.6,1.1-0.8   c2-1.6,3.8-3.3,5.8-4.8c0.4-0.3,0.8-0.7,1.1-1c0.8-0.7,1.5-1.6,2-2.5c1.4-2.5,2.4-5.2,3-8c0.5-2,0.9-4.1,1.1-6.2   c0-0.5,0.2-0.9,0.4-1.3c0.1-0.1,0.1-0.2,0.2-0.3c0.1,0,0.2,0,0.3,0c0,0,0.1,0.1,0.1,0.1c0.1,0.3,0.1,0.6,0.1,0.8   c-0.1,0.4-0.1,0.9-0.2,1.4c0,1.2-0.1,2.3-0.4,3.5c-0.1,1-0.3,1.9-0.6,2.8c-0.5,1.7-1,3.5-1.6,5.2c0,0.2,0,0.4,0,0.5   c0.2-0.1,0.4-0.2,0.6-0.3l5.1-3.7c0.1-0.1,0.3-0.2,0.4-0.3c0.9-1,2-1.8,3.1-2.4c1.6-0.9,3.1-1.9,4.7-2.8c1.6-0.9,2.9-1.6,4.4-2.4   c0-0.3,0-0.5,0-0.8c0.1-0.2,0.3-0.5,0.5-0.7c0.6-0.7,1.1-1.4,1.7-2.2c0.4-0.6,0.9-1.2,1.3-1.8c0.1-0.1,0.2-0.1,0.3-0.1   c0.1,0,0.3,0,0.3,0.1c0.1,0.2,0.1,0.3,0.1,0.5c-0.3,0.6-0.5,1.1-0.9,1.7c-0.2,0.3-0.4,0.7-0.5,1.1c0,0.1,0,0.2,0,0.3   c0,0,0.1,0,0.2,0c0.1,0,0.1,0,0.2,0c1-0.5,1.9-1,2.8-1.5c2.7-1.5,5.5-2.8,8.5-3.8c0.3,0.2,0.7,0.2,1.1,0.1   c0.4-0.1,0.7-0.3,0.9-0.5C96,37.7,96.6,37.4,97.2,37.1z"></path>		<path class="st1" d="M25.1,36.3c0.1,0,0.3,0,0.3,0c0.1-0.2,0.2-0.4,0.3-0.6c1-2.2,2-4.5,3.1-6.7c0.2-0.4,0.4-0.8,0.7-1.2   c0.2-0.3,0.4-0.6,0.5-0.9c1.2-2.4,2.6-4.5,4.4-6.5c0.4-0.4,0.8-0.8,1.2-1.2c0.8-0.7,1.5-1.4,2.2-2.2c0.3-0.3,0.7-0.6,1.1-0.9   c1.1-0.7,2.2-1.3,3.4-2c0.3-0.2,0.7-0.4,1.1-0.5c0.1,0,0.1,0,0.2,0c0,0,0.1,0.1,0.1,0.1c0,0,0,0.1,0,0.1c0,0.1,0,0.1,0,0.2   c-1.6,1.7-3.4,3.2-5.3,4.6c-0.7,0.7-1.3,1.4-2,2.1c-0.2,0.2-0.2,0.4-0.4,0.5c-0.7,0.5-1.3,1.3-1.7,2.1c-0.7,1.1-1.4,2.2-2,3.3   c-0.4,0.8-0.9,1.5-1.3,2.2c-0.7,1.2-1.4,2.4-1.8,3.7c-0.1,0.3-0.2,0.5-0.4,0.8c-0.3,0.5-0.5,1.1-0.7,1.6c-0.2,0.6-0.4,1.2-0.6,1.8   c-0.2,0.6-0.4,1-0.5,1.5c-0.3,1.3-0.7,2.6-1,4c-0.1,0.6-0.3,1.1-0.5,1.6c-0.2,0.5-0.5,0.9-0.9,1.3c-0.1,0.1-0.2,0.1-0.4,0.1   c-0.1,0-0.3-0.1-0.4-0.1c-0.3-0.2-0.6-0.5-0.8-0.9c-0.2-0.3-0.3-0.7-0.3-1.1c0-0.5,0-1,0-1.5c0-0.8,0.1-1.5,0.1-2.2   c0.1-1.4,0.1-2.8,0.2-4.3c0.1-1,0.2-2,0.2-3.1c0-1.1-0.1-2.2-0.5-3.2c0,0-0.2-0.1-0.3,0c-0.2,0.2-0.4,0.4-0.5,0.7   c-0.2,0.6-0.5,1.1-0.9,1.6c-0.1,0.1-0.1,0.2-0.2,0.3c-0.4,1.1-0.9,2.1-1.2,3.2c-0.8,2.3-1.5,4.7-2.1,7c-0.2,0.9-0.4,1.8-0.7,2.6   c-0.5,1.1-0.8,2.2-1.2,3.4c-0.4,1.2-0.9,2.4-1.6,3.6c-0.4,0.7-0.7,1.4-1.1,2.1c-0.3,0.5-0.7,0.9-1.2,1.1c-0.3,0.1-0.6,0.3-0.9,0.4   c-0.9,0.4-1.8,0.7-2.8,0.7c-0.7,0-1.5-0.1-2.2-0.2c-0.2-0.1-0.3-0.2-0.4-0.3c-0.6-0.4-1-1-1.2-1.6c-0.3-0.8-0.4-1.6-0.3-2.4   c0-0.3,0.1-0.7,0.3-1c0.2-0.3,0.4-0.5,0.7-0.7c0.3-0.2,0.7-0.2,1.1-0.2c0.4,0,0.7,0.2,1,0.5c0.1,0.1,0.2,0.3,0.3,0.4   c0.2,0.5,0.3,1.1,0.3,1.7c0,0.2,0.1,0.4,0.3,0.6c0.5,0.6,1.2,0.9,2,1c0.3,0.1,0.7,0,1-0.1c0.3-0.1,0.6-0.4,0.7-0.7   c1-1.4,1.8-2.9,2.4-4.5c0.3-0.9,0.6-1.7,1-2.5c0.5-1.3,1-2.6,1.4-3.9c0.1-0.3,0.2-0.7,0.3-1c0.3-0.6,0.5-1.3,0.6-2   c0.2-1,0.5-1.9,0.8-2.8c0.2-0.5,0.4-1,0.5-1.4c0.1-0.3,0.2-0.5,0.3-0.8c0.8-1.3,1.3-2.8,1.9-4.2c0.7-1.4,1.4-2.8,2.1-4.1   c0.2-0.2,0.2-0.5,0.1-0.8c-0.4-1.5-1.2-2.7-2.3-3.7c-0.3-0.2-0.6-0.4-1-0.4c-0.4,0-0.7,0.1-1,0.3c-0.6,0.4-1.1,0.8-1.6,1.3   c-0.3,0.3-0.5,0.7-0.7,1.1C16,23.1,16,23.2,16,23.4c0,0.1,0,0.3,0.1,0.4c0,0.1,0.1,0.2,0.2,0.3c0.1,0.1,0.2,0.2,0.3,0.2   c0.3,0.1,0.5,0.3,0.7,0.5c0,0,0,0.1,0,0.1s0,0.1,0,0.2c0,0.1-0.1,0.2-0.2,0.2c-0.5,0-1-0.1-1.5-0.3c-0.3-0.2-0.6-0.5-0.8-0.9   c-0.2-0.4-0.3-0.8-0.2-1.2c0.1-0.8,0.4-1.5,1-2.1c0.8-0.8,1.8-1.5,2.8-2c0.5-0.2,1-0.2,1.5,0c1.2,0.4,2.2,1.2,2.9,2.3   c0.9,1.5,1.5,3.1,1.7,4.8c0.1,0.7,0.2,1.5,0.3,2.2c0.2,1.5,0.3,3,0.3,4.4L25.1,36.3z"></path>		<path class="st1" d="M77.4,25.8c-1.1,0.8-2.3,1.5-3.6,1.9c-0.4,0.1-0.8,0.2-1.1,0.3c-0.3,0.1-0.7,0.1-1,0.1c-0.3,0-0.7-0.2-1-0.3   c-0.3-0.1-0.6-0.3-0.8-0.6c-0.2-0.4-0.6-0.7-0.7-1.2c0-0.1-0.3-0.2-0.4-0.1c-0.9,1.1-2.2,1.9-3.6,2.2c-0.4,0.1-0.8,0.2-1.2,0   c-0.4-0.1-0.8-0.3-1-0.7c-0.1-0.1-0.2-0.2-0.4-0.4c-0.6,0.3-1.1,0.6-1.6,1c-0.5,0.4-1.1,0.7-1.6,0.9c-0.6,0.3-1.2,0.3-1.8,0.2   c-0.6-0.1-1.1-0.5-1.4-0.9c-0.2-0.2-0.2-0.5-0.2-0.8c0-0.9,0.2-1.7,0.5-2.5c0.3-0.6,0.5-1.3,0.8-1.9c0.4-1.2,1-2.3,1.9-3.2   c0.1-0.1,0.1-0.1,0.2-0.1c0.1,0,0.2,0,0.2,0c0.1,0,0.2,0.1,0.2,0.2c0.1,0.1,0.1,0.2,0,0.3c-0.5,1.2-0.9,2.4-1.4,3.5   c-0.4,1-0.7,2.1-0.9,3.1c0,0.1,0,0.2,0,0.3c0,0.1,0.1,0.3,0.2,0.4c0.1,0.1,0.2,0.2,0.4,0.2c0.4,0.1,0.8,0,1.2-0.2   c0.7-0.4,1.2-0.8,1.8-1.3c0.5-0.5,0.9-1,1.4-1.5c0.4-0.4,0.7-0.9,0.9-1.4c0.3-0.9,0.7-1.8,1.2-2.6c0.4-0.5,0.7-1,1.1-1.5   c0.1-0.1,0.2-0.2,0.4-0.2c0.1-0.1,0.3-0.1,0.4-0.1c0.1,0,0.1,0,0.2,0c0.1,0,0.1,0.1,0.2,0.1c0,0.1,0.1,0.1,0.1,0.2   c0,0.1,0,0.1,0,0.2c-0.2,0.8-0.5,1.5-0.9,2.2c-0.7,1.1-1.2,2.3-1.4,3.6c0,0.3-0.2,0.5-0.2,0.8c-0.1,0.3,0.3,0.6,0.6,0.5   c0.4-0.1,0.8-0.3,1.2-0.5c1-0.5,2-1.1,3-1.6c0.4-0.6,0.7-1.1,1.1-1.7c0.4-0.6,0.8-1.1,1.2-1.6c0.1-0.2,0.2-0.4,0.3-0.6   c0,0,0-0.1,0-0.2c0-0.1,0-0.1,0-0.2c-0.6-0.2-1.2-0.4-1.8-0.5c-0.1,0.2-0.3,0.4-0.5,0.5c-0.1,0-0.1,0.1-0.2,0.1   c-0.1,0-0.1,0-0.2,0c-0.1,0-0.1,0-0.2-0.1c-0.1,0-0.1-0.1-0.1-0.2c-0.1-0.2-0.1-0.3-0.2-0.5c0-0.2,0-0.4,0-0.6   c0.1-0.2,0.2-0.4,0.3-0.5c0.1-0.1,0.3-0.2,0.5-0.3c0.2,0,0.4,0,0.6,0c0.5,0.2,1.1,0.3,1.6,0.5c0.8,0.3,1.7,0.2,2.5-0.1   c0.4-0.2,0.7-0.3,1.1-0.3c0.3,0,0.6,0,0.8,0.1c0.1,0,0.1,0,0.1,0.1c0,0,0.1,0.1,0.1,0.1c0,0.1,0,0.1,0,0.2c0,0.1,0,0.1,0,0.2   c-0.3,0.4-0.5,0.8-1,0.9c-0.8,0.3-1.5,0.8-2,1.5c-0.5,0.6-1,1.2-1.5,1.8c-0.4,0.5-0.7,1.1-0.9,1.7c-0.1,0.3-0.1,0.6,0,0.8   c0,0.2,0.1,0.3,0.3,0.4c0.1,0.1,0.3,0.2,0.5,0.2c0.5,0.1,0.9,0,1.3-0.2c1-0.6,2.2-1,3.2-1.6c0.2-0.1,0.3-0.2,0.4-0.3   c0.1-0.1,0.2-0.3,0.2-0.5c0-0.1,0-0.2,0.1-0.3c0.3-1.3,1-2.4,2-3.3c0.8-0.6,1.6-1.1,2.4-1.7c1.3-0.5,2.8-0.8,4.2-0.7   c0.2,0,0.5,0.1,0.7,0.1c0.6,0.2,1.1,0.5,1.7,0.8c0.1,0,0.1,0.1,0.2,0.1c0,0.1,0.1,0.1,0.1,0.2c0,0.1,0,0.1,0,0.2   c0,0.1,0,0.1-0.1,0.2c-0.2,0.4-0.5,0.8-0.8,1.1c-0.3,0.4-0.4,0.5-0.7,0.8c-0.9,1.1-1.4,2.4-1.5,3.7c0,0.2,0.2,0.5,0.4,0.4   c1.2-0.4,2.4-0.9,3.4-1.5c0.2-0.2,0.4-0.4,0.6-0.6c0.9-1.9,2.1-3.8,3.5-5.5c0.2-0.3,0.5-0.6,0.7-1c0.1-0.2,0.3-0.4,0.4-0.5   c1.1-1,2.2-2,3.3-3c0.9-0.7,1.9-1.3,2.9-1.8c0.6-0.3,1.2-0.5,1.8-0.5c0.4,0,0.7,0.1,1,0.2c0.1,0.1,0.2,0.2,0.3,0.3   c0.1,0.1,0.1,0.3,0.1,0.4c-0.1,0.8-0.3,1.6-0.8,2.2c-0.4,0.6-0.9,1.2-1.4,1.7c-0.6,0.5-1.2,1.1-1.7,1.7c-0.8,0.6-1.5,1.2-2.3,1.8   c-0.8,0.5-1.6,1.1-2.3,1.8c-0.3,0.3-0.7,0.6-1,0.9c-0.7,0.4-1.3,1-1.8,1.5c-0.2,0.2-0.4,0.3-0.6,0.3c-0.2,0.1-0.4,0.3-0.5,0.5   c-0.1,0.2-0.2,0.4-0.1,0.7c0,0.2,0.1,0.3,0.1,0.5c0.1,0.1,0.2,0.2,0.4,0.3c0.6,0.1,1.1,0.1,1.7,0c0.4-0.1,0.9-0.3,1.3-0.4   c0.6-0.2,1.2-0.4,1.8-0.6c0.1,0,0.1,0,0.2,0c0.1,0,0.1,0.1,0.1,0.1c0,0,0,0.1,0,0.2c0,0.1,0,0.1-0.1,0.2c-0.5,0.8-1.3,1.4-2.2,1.7   c-0.4,0.1-0.9,0.2-1.3,0.4c-1.1,0.3-2.2,0.1-3.1-0.4c-0.2-0.1-0.5-0.3-0.6-0.5c-0.2-0.2-0.3-0.5-0.6-0.5c-0.2,0-0.4,0.1-0.7,0.2   c-0.6,0.2-1.2,0.4-1.8,0.6c-0.3,0.1-0.7,0.2-1,0.2c-1.3,0.1-1.5,0.1-1.7-1.2c0-0.1,0-0.2-0.1-0.3c-0.1-0.1-0.2-0.1-0.3-0.1   c-0.3,0.1-0.5,0.2-0.7,0.4c-0.4,0.4-0.9,0.8-1.4,1c-0.3,0.1-0.5,0.2-0.8,0.2c-0.4,0.1-0.8,0.1-1.2,0c-0.4-0.1-0.7-0.3-1-0.6   C78.1,26.3,77.8,26.1,77.4,25.8z M92.7,21.5c0.2,0,0.3,0.1,0.5,0.1c0.2-0.1,0.4-0.2,0.6-0.3c1.2-1.1,2.5-2.1,3.9-3   c0.5-0.3,0.9-0.7,1.2-1.2c0.3-0.4,0.6-0.7,1-0.9c1-0.7,1.8-1.6,2.2-2.8c0-0.1,0-0.1,0-0.2c0,0,0-0.1,0-0.1c0,0,0-0.1-0.1-0.1   c0,0-0.1,0-0.1-0.1c0,0-0.1,0-0.1,0c-0.5,0.1-1,0.3-1.5,0.3c-0.6,0.1-0.8,0.7-1.3,1c-0.6,0.4-1.2,0.9-1.7,1.5   c-0.1,0.1-0.2,0.2-0.4,0.4c-0.9,0.7-1.7,1.7-2.3,2.7c-0.1,0.1-0.2,0.3-0.3,0.4c-0.3,0.4-0.6,0.7-0.9,1c-0.3,0.4-0.5,0.8-0.7,1.2   C92.8,21.5,92.8,21.5,92.7,21.5C92.8,21.5,92.9,21.5,92.7,21.5L92.7,21.5z M78.7,24.4c0.1,0.3,0.2,0.5,0.4,0.7   c0.2,0.2,0.4,0.4,0.6,0.4s0.5,0.1,0.8,0c0.8-0.2,1.5-0.5,2.1-1.1c0.4-0.4,0.8-0.8,1.2-1.2c0.3-0.3,0.6-0.6,0.8-0.9   c0.5-0.9,1-1.8,1.6-2.6c0,0,0-0.1,0-0.2c0-0.1,0-0.1,0-0.2c0-0.1-0.1-0.1-0.1-0.1c0,0-0.1-0.1-0.1-0.1c-1.3-0.2-2.6,0-3.8,0.7   c-1.4,0.7-2.5,1.9-3.2,3.4C78.9,23.7,78.8,24.1,78.7,24.4L78.7,24.4z"></path>		<path class="st1" d="M48.2,27.5c0.2-0.9,0.4-1.7,0.6-2.5c0.3-1.3,0.7-2.6,1.3-3.9c0.1-0.2,0.2-0.4,0.3-0.6   c0.1-0.2-0.1-0.4-0.4-0.4c-0.2,0-0.6,0-0.9,0.1l-0.8,0.1c-0.1,0-0.3,0-0.4-0.1c-0.1,0-0.2-0.1-0.3-0.2c-0.1-0.1-0.1-0.2-0.2-0.3   c0-0.1,0-0.3,0-0.4c0-0.1,0.1-0.2,0.1-0.3c0.1-0.1,0.2-0.1,0.3-0.2H49c0.6,0,1.2-0.1,1.9-0.1c0.2,0,0.4-0.1,0.6-0.2   c0.2-0.1,0.3-0.3,0.4-0.5c0.8-1.5,1.8-3.1,2.5-4.7c0.3-0.7,0.7-1.3,1.1-2c0.1-0.1,0.2-0.2,0.3-0.2c0.1,0,0.2,0,0.3,0   c0.3,0.1,0.5,0.4,0.5,0.6c0,0.2,0,0.3-0.1,0.5c-0.2,0.4-0.4,0.8-0.6,1.2c-0.3,0.5-0.6,1-0.8,1.6c-0.1,0.3-0.2,0.5-0.4,0.8   c-0.4,0.7-0.8,1.4-1,2.2c0,0.1,0,0.2,0.1,0.4c0.7,0.1,1.3,0.1,2,0c0.3,0,0.7,0,1,0c0,0,0.1,0.1,0.1,0.1c0,0,0,0.1,0,0.2   c-0.5,0.2-0.9,0.4-1.4,0.6c-0.7,0.4-1.5,0.5-2.3,0.5c-0.3,0-0.5,0-0.7,0.2s-0.4,0.4-0.4,0.6c-0.2,0.5-0.4,1-0.6,1.4   c-0.4,0.7-0.7,1.6-0.8,2.4c0,0.5-0.3,1-0.4,1.5c-0.1,0.8-0.2,1.7-0.3,2.5c0,0.1,0,0.2,0,0.2c0,0.1,0.1,0.1,0.2,0.2   c0.1,0.1,0.1,0.1,0.2,0.1c0.1,0,0.2,0,0.2,0c0.8-0.3,1.5-0.8,2.2-1.4c0.5-0.5,1.1-0.9,1.8-1.3c0.1,0,0.2,0,0.2,0.1   c0.1,0,0.1,0.1,0.1,0.2c0,0.1,0,0.2,0,0.3c-0.8,1.4-2,2.5-3.5,3.2c-0.3,0.1-0.6,0.4-0.9,0.5c-0.2,0.1-0.4,0.1-0.7,0.1   c-0.2,0-0.4-0.1-0.6-0.2c-0.4-0.3-0.8-0.7-1-1.1c0,0,0-0.1-0.1-0.1c0,0-0.1,0-0.1,0c0,0-0.1,0-0.1,0c0,0-0.1,0-0.1,0.1   c-0.5,0.9-1.3,1.7-2.3,2.3c-0.3,0.2-0.6,0.4-0.8,0.6c-0.3,0.3-0.7,0.4-1,0.6c-0.4,0.1-0.8,0.1-1.2,0.1c-0.1,0-0.2,0-0.3,0   c-1-0.2-1.4-0.1-1.6-1.4c0-0.1,0-0.2-0.1-0.3C40.3,31,40.1,31,40.1,31c-0.3,0.3-0.6,0.6-0.9,1c-0.5,0.6-1,1.2-1.6,1.8   c-0.2,0.2-0.5,0.4-0.9,0.5c-0.3,0.1-0.7,0.1-1,0l-0.3,0c-0.6-0.1-1.2-0.3-1.6-0.8c-0.4-0.5-0.6-1-0.6-1.7   c-0.1-1.3,0.2-2.6,0.8-3.7c0.1-0.2,0.3-0.3,0.4-0.6c0.9-1.5,2.2-2.8,3.8-3.6c0.7-0.5,1.5-0.8,2.4-1c0.4-0.1,0.8-0.2,1.2-0.1   c0.4,0,0.8,0.2,1.1,0.4c0.2,0.1,0.4,0.2,0.6,0.2c0.2,0,0.5-0.1,0.7-0.2c0.2,0,0.3,0,0.5,0.1c0.1,0,0.2,0.2,0.2,0.2   c0,0.5-0.2,1-0.4,1.4c-0.4,0.7-0.8,1.4-1.2,2.1c-0.6,1-1,2.2-1.1,3.4c0,0.2,0,0.5,0,0.7c0,0.1,0.1,0.3,0.3,0.3   c0.1,0.1,0.3,0.1,0.4,0.1c0.3-0.1,0.5-0.2,0.8-0.4c0.7-0.5,1.4-1,2-1.6C46.4,28.8,47.3,28.1,48.2,27.5z M34.6,31.1   c0,0.3,0.1,0.5,0.1,0.7c0,0.2,0.1,0.4,0.2,0.6c0.1,0.2,0.3,0.3,0.5,0.4c0.2,0.1,0.4,0.2,0.6,0.2c0.2,0,0.4,0,0.6-0.1   c0.5-0.2,0.9-0.5,1.2-0.9c0.8-1,1.5-2,2.3-2.9c1-1.3,1.9-2.8,2.5-4.4c0.1-0.1,0-0.3-0.1-0.5c-0.2-0.2-0.4-0.3-0.6-0.4   c-0.2-0.1-0.5-0.1-0.8,0c-0.1,0-0.2,0.1-0.3,0.1c-1.3,0.6-2.5,1.4-3.6,2.2c-0.1,0.1-0.3,0.2-0.3,0.4c-0.4,0.5-0.8,1.1-1.2,1.6   c-0.1,0.2-0.2,0.4-0.3,0.6c-0.2,0.5-0.4,1.1-0.6,1.6C34.7,30.5,34.6,30.8,34.6,31.1z"></path>		<path class="st1" d="M73.8,116.2c0,0-0.1,0.1-0.1,0.1c-0.1,0-0.2,0-0.3,0c-0.6-0.1-1.1-0.3-1.5-0.8c-0.4-0.4-0.8-0.8-1.1-1.3   c-0.7-1.1-1.4-2.2-2.1-3.3c-0.5-0.9-1.1-1.7-1.7-2.6c-0.2-0.3-0.4-0.6-0.5-0.8c-0.1-0.2-0.3-0.4-0.4-0.5c-0.7-0.3-0.9-1-1.4-1.5   c-0.2-0.2-0.1-0.5,0.1-0.8c0.1-0.1,0.2-0.2,0.4-0.2c0.1,0,0.3,0,0.4,0.1c0.1,0.1,0.3,0.2,0.4,0.3c0.9,1.2,2,2.2,2.9,3.4   c1,1.2,1.8,2.6,2.5,4.1c0.4,0.9,0.9,1.8,1.4,2.8c0.1,0.2,0.2,0.4,0.4,0.5c0.2,0.1,0.4,0.3,0.6,0.3C73.8,116,73.8,116.1,73.8,116.2   z"></path>		<path class="st1" d="M75.9,95c0.1,0,0.3,0,0.4,0.1c0.3,0.1,0.5,0.3,0.7,0.4l4.8,3.3c0.4,0.3,0.7,0.5,1.1,0.8   c1.1,0.9,2.2,1.8,3.4,2.6c0.6,0.3,1.1,0.9,1.3,1.5c0,0.1,0,0.2,0,0.3c0,0-0.1,0.1-0.1,0.1c-0.6-0.2-1.2-0.5-1.6-0.9   c-0.2-0.1-0.4-0.3-0.6-0.3c-1-0.3-2-0.9-2.7-1.7c-1.3-1.2-2.7-2.2-4.2-3.2c-0.4-0.2-0.7-0.5-1-0.9c-0.2-0.2-0.4-0.4-0.7-0.5   c-0.4-0.2-0.8-0.5-1.2-0.7c-0.1-0.1-0.2-0.2-0.2-0.3c0-0.1,0-0.2,0-0.3c0-0.1,0.1-0.2,0.2-0.3C75.6,95,75.7,95,75.9,95z"></path>		<path class="st1" d="M52.1,116.9c0,1.4,0.1,2.5,0.1,3.7c0,0.1,0,0.1-0.1,0.1c-0.1,0-0.2,0-0.3,0c-0.1-0.1-0.2-0.2-0.3-0.4   c-0.5-0.8-0.7-1.7-0.7-2.6c0-0.1,0-0.2,0-0.3c-0.3-1-0.4-2-0.3-3c0-0.3,0-0.7,0-1c-0.2-1.2-0.2-2.5-0.3-3.7c0-0.2,0-0.3,0-0.5   c0-0.4,0.2-0.7,0.5-0.8c0.2,0,0.4,0,0.6,0.1c0.2,0.1,0.3,0.3,0.4,0.5c0.1,0.7,0.2,1.3,0.3,2C52,113,52.1,114.9,52.1,116.9z"></path>		<path class="st1" d="M97.3,84.1c-0.8-0.1-1.7-0.3-2.6-0.5c-0.4-0.1-0.9-0.2-1.3-0.4c-1.1-0.4-2.1-0.7-3.3-1   c-0.7-0.2-1.3-0.4-1.9-0.6c-0.6-0.2-1.2-0.2-1.8-0.4c-0.2,0-0.3-0.3-0.3-0.5c0-0.2,0.3-0.6,0.5-0.6c0.8,0.1,1.7,0.2,2.5,0.3   c0.8,0.2,1.5,0.4,2.3,0.7c1.6,0.5,3.2,0.9,4.8,1.2c0.7,0.2,1.4,0.4,2.1,0.6c0.2,0.1,0.4,0.2,0.5,0.4c0,0,0,0,0.1,0.1   c0,0,0,0.1,0,0.1c0,0,0,0.1,0,0.1c0,0,0,0-0.1,0.1c-0.2,0.2-0.5,0.3-0.7,0.4S97.6,84.1,97.3,84.1z"></path>		<path class="st1" d="M34.2,108.7c0.1,0.1,0.2,0.2,0.3,0.3c0,0.1,0,0.1,0,0.2c-0.1,1.4-0.4,2.8-0.8,4.1c-0.1,0.3-0.2,0.6-0.4,0.9   c-0.4,0.8-0.7,1.7-0.8,2.6c-0.1,0.5-0.1,0.9-0.2,1.3c-0.1,0.2-0.2,0.4-0.4,0.6c-0.1,0.1-0.1,0.1-0.2,0.1s-0.2,0-0.2-0.1   c-0.1-0.2-0.2-0.4-0.3-0.6c-0.2-1.1-0.1-2.2,0.3-3.2c0.2-0.5,0.4-0.9,0.6-1.4c0.3-0.7,0.6-1.5,0.7-2.3c0-0.5,0.2-1,0.3-1.5   c0.1-0.2,0.2-0.4,0.3-0.6c0.1-0.2,0.3-0.3,0.5-0.4C33.9,108.7,34.1,108.7,34.2,108.7z"></path>		<path class="st1" d="M93.1,67.1c1.2,0,2.4,0.1,3.6,0.3c1.2,0.2,2.5,0.2,3.7,0.3c0,0,0.1,0,0.1,0.1c0,0,0.1,0.1,0.1,0.1   c0,0.1,0,0.2-0.1,0.2c-0.4,0.2-0.8,0.3-1.3,0.5c-0.3,0.2-0.7,0.3-1.1,0.2c-0.7,0-1.4-0.1-2-0.2c-1-0.2-2-0.3-3-0.3   c-0.7,0-1.5-0.1-2.2-0.4c-0.2-0.1-0.3-0.1-0.5-0.2c0,0-0.1-0.1-0.1-0.1c0-0.1,0-0.1,0-0.2c0-0.1,0-0.1,0-0.2   c0-0.1,0.1-0.1,0.1-0.1c0.1-0.1,0.2-0.2,0.3-0.2c0.1-0.1,0.3-0.1,0.4-0.1c0.4,0,0.8,0,1.2,0.1L93.1,67.1z"></path>		<path class="st1" d="M9.9,67.8c0,0.1-0.1,0.1-0.1,0.1c-1.1,0.6-2.4,0.7-3.6,0.5c-1.6-0.1-3.2-0.1-4.8-0.1c-0.2,0-0.5,0-0.7-0.1   c-0.2-0.1-0.4-0.2-0.6-0.3c0-0.1-0.1-0.1-0.1-0.2c0-0.1,0-0.2,0.1-0.2l0.1-0.1c0,0,0.1-0.1,0.2-0.1C1.9,67.1,3.3,67,4.8,67   c0.6,0,1.1,0,1.7,0c1.1,0,2.2,0.2,3.2,0.6C9.8,67.6,9.8,67.7,9.9,67.8z"></path>		<path class="st1" d="M9.9,85.1c0,0.2,0,0.3-0.1,0.3c-0.2,0.1-0.4,0.2-0.6,0.3c-0.4,0.1-0.8,0.2-1.1,0.4c-0.5,0.4-1.1,0.6-1.7,0.7   c-1.1,0.2-2.1,0.4-3.1,0.8c-0.3,0.1-0.7,0.2-1,0.2c-0.1,0-0.2,0-0.2,0c-0.1,0-0.1-0.1-0.2-0.2c0-0.1-0.1-0.2,0-0.3   c0-0.1,0.1-0.2,0.1-0.3c0.2-0.2,0.3-0.3,0.5-0.4c1.7-0.9,3.6-1.4,5.6-1.5C8.7,85.1,9.3,85.1,9.9,85.1z"></path>		<path class="st1" d="M15.4,101.7c0,0,0,0.1-0.1,0.2c-0.7,0.8-1.5,1.5-2.3,2.1c-0.2,0.2-0.4,0.4-0.6,0.6c-0.4,0.5-0.9,0.9-1.4,1.2   c-0.3,0.2-0.7,0.3-1,0.2c-0.2,0-0.4-0.3-0.3-0.5c0.1-0.2,0.2-0.4,0.3-0.6c1-1,2-1.9,3.1-2.7c0.6-0.5,1.3-0.7,2-0.8   C15.2,101.5,15.2,101.6,15.4,101.7C15.3,101.6,15.3,101.7,15.4,101.7z"></path>		<path class="st1" d="M96.4,53.2c0.6,0.1,1.4,0.2,2.2,0.3c0,0,0.1,0,0.1,0.1c0,0,0.1,0.1,0.1,0.1c0,0.1-0.1,0.2-0.2,0.3   c-0.3,0.3-0.6,0.4-1,0.5c-0.8,0.1-1.7,0.2-2.5,0.2c-0.2,0-0.4-0.1-0.5-0.2c-0.1-0.1-0.2-0.3-0.2-0.5c0-0.1,0-0.2,0.1-0.3   c0.1-0.1,0.1-0.2,0.2-0.2c0.2-0.1,0.4-0.1,0.7-0.2C95.5,53.3,95.9,53.3,96.4,53.2z"></path>		<path class="st1" d="M66.1,32.8c0-0.5,0.1-0.9,0.1-1.4c0-0.2,0.1-0.3,0.2-0.5c0.1-0.1,0.2-0.2,0.3-0.2c0.2,0,0.3,0.1,0.4,0.2   c0.1,0.1,0.1,0.2,0.1,0.3c0.1,0.9,0.3,1.9,0.4,2.8c0,0.1,0,0.2,0,0.3c0,0.1-0.1,0.3-0.2,0.4c-0.1,0.1-0.2,0.2-0.4,0.2   c-0.2,0.1-0.3,0-0.5,0c-0.2-0.1-0.3-0.2-0.3-0.4c-0.1-0.3-0.1-0.5-0.1-0.8C66.1,33.5,66.2,33.2,66.1,32.8L66.1,32.8z"></path>		<path class="st1" d="M53.1,34.5c0.1,0.5,0.1,1,0.2,1.4c0,0.4,0,0.9-0.2,1.3c0,0.1-0.1,0.1-0.2,0.2c-0.1,0-0.2,0.1-0.2,0.1   c-0.1,0-0.3-0.1-0.4-0.2c-0.1-0.1-0.2-0.2-0.3-0.3c-0.1-0.2-0.1-0.3-0.1-0.5c-0.1-0.7-0.2-1.5-0.3-2.2c0-0.1,0.1-0.4,0.2-0.4   c0.1,0,0.2,0,0.3,0C52.5,34.1,52.8,34.3,53.1,34.5z"></path>		<path class="st1" d="M39,41c0,0.1-0.1,0.1-0.1,0.1c-0.1,0.1-0.2,0.2-0.4,0.2c-0.1,0.1-0.3,0.1-0.5,0.1c-0.2,0-0.3-0.1-0.4-0.1   c-0.1-0.1-0.3-0.2-0.3-0.3c-0.3-0.5-0.6-1.1-0.8-1.7c-0.1-0.2,0.2-0.6,0.5-0.6c0.5,0.1,1,0.2,1.2,0.7c0.2,0.4,0.4,0.8,0.7,1.1   C38.9,40.8,38.9,40.9,39,41z"></path>		<path class="st1" d="M19.8,54.2c0,0.1-0.1,0.2-0.1,0.3c-0.5,0.5-0.9,0.5-1.3,0.2c-0.1-0.1-0.3-0.2-0.4-0.3   c-0.1-0.1-0.2-0.2-0.2-0.3c-0.1-0.1-0.1-0.2-0.1-0.4s0-0.2,0.1-0.4c0.1-0.1,0.1-0.2,0.2-0.3c0.1-0.1,0.1-0.1,0.2-0.1   c0.1,0,0.2,0,0.2,0c0.5,0.1,1,0.5,1.4,0.9C19.7,54,19.8,54.1,19.8,54.2z"></path>		<path class="st1" d="M28.1,47.2L28,47.4c-0.4,0.5-0.8,0.5-1.2,0.2c-0.3-0.2-0.5-0.5-0.6-0.8c-0.1-0.2-0.1-0.4,0-0.6   c0-0.1,0.3-0.3,0.4-0.3c0.4,0,0.7,0.1,1,0.4C27.9,46.5,28.1,46.8,28.1,47.2L28.1,47.2z"></path>		<path class="st1" d="M82.1,33.3c0,0.4-0.2,0.7-0.4,1c-0.3,0.3-0.6,0.4-1,0.4c-0.1,0-0.1,0-0.2,0s-0.1-0.1-0.1-0.1   c0,0-0.1-0.1-0.1-0.1c0-0.1,0-0.1,0-0.2c0-0.2,0.1-0.3,0.2-0.5c0.2-0.3,0.4-0.6,0.6-0.8c0.1-0.1,0.2-0.2,0.3-0.2   c0.1,0,0.2-0.1,0.3,0c0.1,0,0.3,0.1,0.3,0.2C82,33,82.1,33.1,82.1,33.3z"></path>		<path class="st1" d="M73.8,70c0,0.1,0,0.1,0,0.2c-0.2,0.7-0.4,1.4-0.7,2.1c-0.5,1.3-0.9,2.6-1.2,3.9c-0.1,0.6-0.3,1.1-0.6,1.6   c-0.3,0.7-0.5,1.4-0.7,2.1c-0.5,1.5-1,2.9-1.7,4.3c-1,2.2-2,4.4-3.1,6.6c-0.1,0.2-0.2,0.4-0.5,0.5c-0.1,0.1-0.2,0-0.3-0.1   c0-0.2,0-0.3,0-0.5c0.2-0.6,0.4-1.2,0.7-1.8c0.6-1.2,1-2.4,1.5-3.6c1.5-3.5,2.8-7.1,3.9-10.7c0.5-1.6,0.9-3.2,1.5-4.7   c0-0.1,0.1-0.1,0.2-0.2c0.1-0.1,0.1-0.1,0.2-0.1c0.1,0,0.2,0,0.2,0c0.1,0,0.2,0.1,0.2,0.1C73.7,69.8,73.8,69.9,73.8,70z"></path>		<path class="st1" d="M77.3,70.5c-0.6,1.9-1.2,3.8-1.8,5.7c-0.2,0.7-0.5,1.3-0.7,1.9c-1.1,2.9-2.2,5.8-3.5,8.7   c-0.1,0.2-0.2,0.4-0.4,0.5c-0.1,0.1-0.2,0-0.3-0.1c-0.1-0.2-0.1-0.3-0.1-0.5c0.3-0.9,0.5-1.7,0.8-2.6c0.9-2.5,1.9-5,2.8-7.5   c0.1-0.3,0.2-0.7,0.3-1c0.5-1.7,1.1-3.5,1.6-5.2c0.2-0.5,0.6-0.6,1-0.1C77.2,70.3,77.3,70.4,77.3,70.5z"></path>		<path class="st1" d="M89.7,53c0,0.1,0,0.2-0.1,0.3c-0.7,0.7-1.3,1.6-1.7,2.5c-0.5,0.9-1,1.8-1.5,2.7c-0.7,1.2-1.4,2.5-2,3.7   c-0.4,0.8-0.7,1.6-1,2.4c-0.1,0.2-0.2,0.4-0.4,0.6c0,0-0.1,0.1-0.1,0c-0.1,0-0.2-0.1-0.2-0.2c0-0.1,0-0.2,0-0.3   c0.2-0.6,0.3-1.2,0.5-1.8c0.2-0.5,0.3-1,0.6-1.4c0.4-0.9,0.8-1.8,1.2-2.6c0.2-0.4,0.3-0.7,0.5-1.1c0.9-1.4,1.7-3,2.5-4.4   c0.2-0.3,0.4-0.6,0.6-0.8c0.4-0.4,0.8-0.2,1,0.3C89.7,52.9,89.7,52.9,89.7,53z"></path>		<path class="st1" d="M77.7,66.7c0.4-1.7,1.1-3.3,1.9-4.8c0.5-0.9,1-1.8,1.5-2.7c0.7-1.4,1.5-2.8,2.3-4.1c0.3-0.6,0.7-1.1,1.1-1.7   c0.1-0.2,0.3-0.3,0.5-0.5c0.1-0.1,0.3-0.1,0.5-0.1c0.1,0,0.1,0,0.2,0c0.1,0,0.1,0.1,0.1,0.1c0,0,0,0.1,0,0.2c0,0.1,0,0.1,0,0.2   c-0.5,0.7-0.9,1.4-1.4,2.1c-0.7,1-1.4,2.1-2,3.2c-0.7,1.2-1.4,2.5-2.1,3.7c-0.7,1.1-1.2,2.3-1.7,3.5c-0.2,0.4-0.3,0.8-0.6,1.2   c0,0-0.2,0-0.3,0c-0.1,0-0.1-0.1-0.1-0.1C77.7,66.9,77.7,66.8,77.7,66.7z"></path>		<path class="st1" d="M45.9,100c0.1-0.8,0.3-1.7,0.7-2.4c1.3-3,2.5-6,3.6-9c0-0.1,0.1-0.2,0.2-0.3c0.1-0.1,0.2-0.1,0.3-0.2   c0.1,0,0.2,0,0.3,0c0.2,0.1,0.4,0.3,0.4,0.5c-0.2,0.5-0.4,1.1-0.6,1.6c-1.2,3.3-2.6,6.5-4.2,9.7c-0.1,0.1-0.2,0.3-0.3,0.4   c0,0-0.1,0-0.2,0c0,0-0.1,0-0.1,0c0,0-0.1,0-0.1,0s0,0-0.1-0.1c0,0,0-0.1,0-0.1C45.9,100.1,45.9,100.1,45.9,100z"></path>		<path class="st1" d="M50.2,99.7c-0.1-0.1-0.2-0.1-0.2-0.2c0-0.3,0.1-0.7,0.2-1c0.7-1.8,1.3-3.5,2-5.3c0.2-0.6,0.5-1.2,0.8-1.7   c0.5-1.1,1-2.3,1.3-3.6c0.1-0.2,0.1-0.3,0.2-0.5c0-0.1,0.1-0.1,0.2-0.2c0.1,0,0.2-0.1,0.2-0.1c0.1,0,0.2,0,0.3,0.1   c0.1,0.1,0.2,0.1,0.2,0.2c0,0.1,0.1,0.2,0.1,0.3c-0.4,1.3-0.8,2.5-1.4,3.7c-0.7,1.6-1.4,3.1-2,4.7c-0.4,1.1-1,2.2-1.6,3.2   C50.5,99.7,50.3,99.7,50.2,99.7z"></path>		<path class="st1" d="M51.2,81.9c0.3-1,0.7-1.9,1.3-2.8c0.7-1.4,1.5-2.8,2.4-4.1c0.4-1.1,0.9-2.1,1.6-3c0.4-0.7,0.9-1.3,1.3-2   c0.1-0.1,0.2-0.1,0.3-0.2c0.1-0.1,0.3-0.1,0.4-0.1c0.1,0,0.3,0.1,0.3,0.2c0.1,0.1,0.1,0.1,0.1,0.2c0,0.1,0,0.2-0.1,0.2   c-0.1,0.2-0.3,0.3-0.4,0.5c-0.4,0.5-0.7,1-1.1,1.5c-1.3,2.2-2.5,4.5-3.8,6.7c-0.6,1-1.3,2-1.9,3c0,0-0.2,0-0.3,0s-0.1-0.1-0.1-0.1   C51.2,82,51.2,81.9,51.2,81.9z"></path>		<path class="st1" d="M46.7,82.5c0.6-0.9,1.1-1.9,1.8-2.8c0.8-1.2,1.5-2.4,2.2-3.7c0.3-0.5,0.6-1,0.8-1.5c0.6-1.1,1.2-2.1,2-3   c0.3-0.3,0.6-0.6,0.9-0.8c0.2-0.1,0.3-0.1,0.5,0c0.2,0.1,0.3,0.5,0.2,0.6c-1.3,1.4-2.5,3-3.4,4.7c-0.9,1.6-1.8,3.1-2.9,4.6   c-0.5,0.8-1.2,1.5-1.9,2.2c0,0-0.1,0-0.2,0c0,0-0.1-0.1-0.1-0.1C46.6,82.7,46.7,82.7,46.7,82.5z"></path>		<path class="st1" d="M42,100.3c-0.1-0.1-0.2-0.1-0.2-0.2c0-0.1,0-0.2,0-0.3c0.1-0.3,0.1-0.5,0.2-0.8c1-2.4,2-4.8,3-7.2   c0.3-0.6,0.5-1.3,0.7-1.9c0.1-0.1,0.2-0.2,0.3-0.3c0.1,0,0.3,0,0.4,0c0.2,0.1,0.4,0.4,0.3,0.5c-0.3,0.8-0.5,1.5-0.8,2.2   c-0.3,0.7-0.6,1.3-0.8,2c-0.4,1.1-1,2.2-1.5,3.2c-0.4,0.9-0.9,1.7-1.4,2.6C42.2,100.3,42.1,100.3,42,100.3z"></path>		<path class="st1" d="M63.7,80.5c-0.1,0-0.1-0.1-0.1-0.1c0,0-0.1-0.2-0.1-0.3c0.7-1.4,1.1-2.8,1.8-4.2c0.2-0.4,0.3-0.7,0.5-1.1   c0.4-0.8,0.8-1.6,1.3-2.4c0.5-0.9,1.1-1.8,1.7-2.5c0.1-0.1,0.2-0.2,0.3-0.2c0.1,0,0.1-0.1,0.2-0.1c0.1,0,0.1,0,0.2,0   c0.1,0,0.1,0.1,0.2,0.1c0,0.1,0.1,0.1,0.1,0.2c0,0.1,0,0.2,0,0.3c0,0.2-0.1,0.3-0.2,0.4c-1,1.3-1.8,2.7-2.4,4.1   c-0.1,0.3-0.3,0.6-0.5,0.9c-0.6,1.1-1.2,2.2-1.7,3.3c-0.2,0.5-0.5,0.9-0.8,1.3C64,80.3,63.8,80.4,63.7,80.5z"></path>		<path class="st1" d="M56.8,80c-0.1-0.1-0.1-0.1-0.1-0.2c0-0.2,0-0.3,0-0.5c0.4-0.9,0.8-1.8,1.3-2.6c0.7-1,1.2-2,1.7-3.1   c0.5-1.3,1.1-2.5,1.8-3.7c0.2-0.4,0.5-0.7,0.8-1.1c0.1-0.1,0.3,0,0.5,0s0.2,0.3,0.2,0.4c0,0,0,0.1,0,0.1s0,0.1,0,0.1   c-0.9,1.6-1.8,3.2-2.6,4.8c-0.6,1.2-1.2,2.3-1.9,3.4c-0.4,0.7-0.8,1.4-1.2,2.1C57.1,79.9,56.9,79.9,56.8,80z"></path>		<path class="st1" d="M54.8,98.7c0-0.1-0.2-0.2-0.2-0.2c0.3-1.3,0.8-2.6,1.4-3.9c0.6-1.1,1-2.3,1.5-3.5c0.2-0.5,0.3-1,0.4-1.5   c0.2-0.6,0.4-1.3,0.6-1.9c0.1-0.1,0.1-0.2,0.2-0.2c0.1,0,0.2-0.1,0.3,0c0.3,0.1,0.6,0.4,0.5,0.6c-0.5,1.7-1.1,3.5-1.9,5.1   c-0.2,0.3-0.3,0.7-0.5,1.1c-0.5,1-0.9,2.1-1.4,3.1c-0.2,0.4-0.5,0.8-0.8,1.2C55.1,98.6,54.9,98.6,54.8,98.7z"></path>		<path class="st1" d="M82.4,53.4c0,0.1,0,0.2,0,0.3c-0.3,0.4-0.6,0.8-0.9,1.2c-0.6,0.7-1,1.4-1.4,2.1c-1,1.8-2.1,3.6-3.2,5.5   c-0.3,0.4-0.6,0.8-0.9,1.2c0,0,0,0-0.1,0.1c0,0-0.1,0-0.1,0c-0.1,0-0.2-0.1-0.1-0.2c0.3-0.9,0.6-1.7,1.1-2.5   c0.4-0.8,0.9-1.6,1.3-2.4c0.8-1.7,1.8-3.2,2.8-4.7c0.2-0.4,0.6-0.7,1-0.9C82,52.9,82.4,53.1,82.4,53.4z"></path>		<path class="st1" d="M66.5,69.4c-0.1,0.1-0.1,0.3-0.2,0.4c-1.3,2-2.3,4-3.5,6.1c-0.5,0.8-0.9,1.7-1.3,2.6   c-0.1,0.4-0.4,0.7-0.7,0.9c-0.1,0-0.1,0-0.2,0c0,0-0.1-0.1-0.1-0.1c0,0,0-0.1,0-0.2c0.4-1.3,0.9-2.6,1.5-3.8   c0.4-0.8,0.8-1.7,1.2-2.4c0.7-1.2,1.4-2.5,2.2-3.7c0.1-0.1,0.2-0.2,0.4-0.3c0.1,0,0.2,0,0.3,0c0.1,0,0.2,0.1,0.2,0.1   C66.4,69.2,66.4,69.3,66.5,69.4z"></path>		<path class="st1" d="M76.8,81.3l0.7-2c0.6-2,1.3-4,1.8-6c0.2-0.8,0.4-1.5,0.6-2.3c0.1-0.2,0.1-0.4,0.2-0.6c0,0,0.1-0.1,0.1-0.1   c0,0,0.1,0,0.2-0.1c0.1,0,0.1,0,0.2,0c0.1,0,0.1,0,0.1,0.1c0.1,0.1,0.2,0.3,0.2,0.4c0,0.2,0,0.5,0,0.7c-0.3,1.2-0.6,2.3-1,3.4   c-0.8,2.2-1.6,4.3-2.4,6.4c-0.1,0.3-0.3,0.5-0.5,0.7c0,0.1-0.2,0.1-0.3,0.1c-0.1,0-0.1-0.1-0.1-0.1C76.7,81.8,76.7,81.5,76.8,81.3   z"></path>		<path class="st1" d="M72.8,62.5c0.5-1.3,1.1-2.5,1.9-3.7c0.1-0.2,0.2-0.4,0.3-0.6c0.4-1,0.9-2,1.5-2.8c0.3-0.6,0.7-1.1,1.1-1.7   c0.2-0.3,0.6-0.6,1-0.7c0.1,0,0.2,0,0.3,0.1c0.1,0.1,0.2,0.2,0.1,0.3c-0.4,0.9-0.9,1.7-1.5,2.5c-0.4,0.4-0.7,0.9-0.9,1.4   c-0.4,0.8-0.9,1.5-1.3,2.2c-0.5,0.8-1,1.7-1.5,2.6c-0.2,0.4-0.5,0.7-0.8,1c-0.1,0-0.2,0-0.3,0c-0.1,0-0.1-0.1-0.1-0.1   S72.8,62.6,72.8,62.5z"></path>		<path class="st1" d="M74.7,53.9c0,0.2-0.1,0.3-0.2,0.4c-0.8,1.2-1.5,2.4-2.3,3.6c-0.6,1-1.2,1.9-1.8,2.9c-0.3,0.5-0.6,1-0.9,1.5   c-0.4,0.7-0.9,1.4-1.3,2.2c0,0.1-0.2,0.1-0.3,0.1c0-0.1-0.1-0.2-0.1-0.3c0-0.1,0-0.2,0.1-0.3c0.1-0.2,0.2-0.4,0.3-0.6   c1.1-2,2-4.1,3.2-6c0.6-0.9,1.2-1.8,1.7-2.7c0.2-0.3,0.4-0.6,0.6-0.8c0.1-0.1,0.3-0.2,0.4-0.2c0.1,0,0.2,0.1,0.3,0.1   C74.8,53.8,74.7,53.8,74.7,53.9z"></path>		<path class="st1" d="M38.2,100.4c-0.1-0.1-0.2-0.1-0.2-0.2c-0.1-0.1-0.1-0.2,0-0.3c0.1-0.3,0.2-0.5,0.3-0.8   c0.7-1.3,1.3-2.7,1.8-4.2c0.5-1,0.8-2.1,1.1-3.2c0-0.1,0.2-0.2,0.3-0.3c0.1-0.1,0.5,0.1,0.6,0.3c0.1,0.1,0.1,0.2,0.1,0.3   c0,0.1,0,0.2,0,0.3c-0.2,0.8-0.5,1.6-0.8,2.4c-0.8,1.9-1.8,3.8-2.9,5.6C38.4,100.3,38.3,100.3,38.2,100.4z"></path>		<path class="st1" d="M59.8,95.3c0-0.1-0.1-0.2-0.1-0.3c0.1-0.7,0.3-1.4,0.6-2c0.8-1.8,1.4-3.6,2.3-5.3l0.3-0.6   c0.1-0.1,0.2-0.1,0.3-0.2c0.1,0,0.2,0,0.3,0c0.3,0.2,0.4,0.5,0.3,0.7c-1.1,2.4-2.2,4.7-3.3,7.1c0,0.1-0.1,0.2-0.2,0.3   c-0.1,0.1-0.2,0.2-0.3,0.2L59.8,95.3z"></path>		<path class="st1" d="M37.6,93.7c0,0.1,0,0.2-0.1,0.3c-0.5,0.9-1,1.9-1.4,2.9c-0.5,1.3-1.1,2.5-1.8,3.6c0,0.1-0.2,0-0.3,0   s-0.1-0.1-0.1-0.1c0-0.3,0-0.6,0.1-0.8c0.1-0.5,0.3-1.1,0.5-1.6c0.7-1.3,1.1-2.7,1.7-4c0.1-0.3,0.3-0.5,0.5-0.7   c0.1,0,0.2-0.1,0.2-0.1c0.1,0,0.2,0,0.2,0c0.1,0,0.2,0.1,0.2,0.1s0.1,0.1,0.1,0.2L37.6,93.7z"></path>		<path class="st1" d="M69.6,55.3c0.2,0,0.4,0,0.7,0.1c0.1,0,0.1,0,0.2,0.1c0.1,0,0.1,0.1,0.1,0.2c0,0.1,0,0.1,0,0.2   c0,0.1,0,0.1-0.1,0.2l-1,1.2c-1,1.3-1.9,2.7-2.6,4.2c-0.5,1-1.1,1.9-1.8,2.7c0,0-0.2,0-0.3,0c-0.1,0,0-0.1-0.1-0.1   c0-0.1,0-0.1,0-0.2c0-0.1,0.1-0.2,0.1-0.3c0.8-1.2,1.4-2.4,2-3.7c0.6-1.3,1.4-2.5,2.4-3.5c0.1-0.1,0.2-0.3,0.3-0.4   C69.5,55.6,69.6,55.4,69.6,55.3L69.6,55.3z"></path>		<path class="st1" d="M87.8,48.3c0.3-0.8,0.7-1.6,1.1-2.4c0.6-1.2,1.3-2.3,2-3.4c0.1-0.2,0.3-0.4,0.6-0.5c0.2-0.1,0.5-0.2,0.8-0.1   c0.1,0,0.1,0,0.1,0.1c0,0,0.1,0.1,0.1,0.1c0,0,0,0.1,0,0.2c0,0.1,0,0.1,0,0.2C91.2,44,90,45.7,89,47.6c-0.3,0.4-0.5,0.7-0.8,1.1   c0,0-0.2,0-0.2,0L87.8,48.3z"></path>		<path class="st1" d="M30.6,101.4c-0.1-0.1-0.2-0.1-0.2-0.2c0-0.1,0-0.2,0-0.3c0.3-0.8,0.5-1.6,0.8-2.4c0.4-0.8,0.7-1.7,0.9-2.6   c0.1-0.4,0.2-0.7,0.4-1c0.1-0.1,0.3-0.2,0.4-0.2c0.1,0,0.2,0.1,0.3,0.1c0.1,0.1,0.1,0.2,0.2,0.3c0,0.2,0,0.3,0,0.5   c-0.4,1.9-1.2,3.7-2.2,5.4c0,0.1-0.1,0.2-0.2,0.3C30.8,101.3,30.7,101.4,30.6,101.4z"></path>		<path class="st1" d="M63.8,86.4c-0.1-0.1-0.2-0.1-0.3-0.2c0,0,0-0.1,0-0.2c0.3-0.9,0.5-1.7,0.8-2.6c0.1-0.2,0.2-0.4,0.3-0.6   c0.3-0.5,0.6-1,0.8-1.5c0.3-0.9,0.8-1.6,1.4-2.3c0,0,0.2,0,0.3,0c0,0,0,0,0.1,0.1c0,0,0,0.1,0,0.1c0,0.1,0,0.2,0,0.3   c-0.1,0.2-0.1,0.4-0.2,0.6c-0.6,0.9-1.1,1.9-1.5,2.9c-0.4,0.9-0.8,1.9-1.1,2.8c-0.1,0.2-0.2,0.3-0.3,0.4   C64.1,86.4,63.9,86.4,63.8,86.4z"></path>		<path class="st1" d="M39.7,85.3c-0.1-0.1-0.2-0.2-0.2-0.4c0-0.1,0-0.3,0-0.4c0.8-1.6,1.8-3.1,3-4.5c0.3-0.3,0.5-0.6,1-0.7   c0.1,0,0.2,0,0.3,0.1c0,0,0,0.1,0,0.2c0,0.1,0,0.1,0,0.2c-1.3,1.5-2.4,3.2-3.7,4.7C39.9,84.6,39.8,84.9,39.7,85.3L39.7,85.3z"></path>		<path class="st1" d="M27.1,101.9c-0.1-0.1-0.2-0.1-0.3-0.2c0-0.1,0-0.2,0-0.3c0.7-1.4,1.3-2.9,2-4.3c0.1-0.3,0.3-0.6,0.6-0.8   c0.1,0,0.2-0.1,0.2-0.1c0.1,0,0.2,0.1,0.2,0.1c0.1,0.1,0.1,0.2,0.1,0.3c-0.1,0.3-0.2,0.5-0.4,0.8c-0.7,1.4-1.5,2.8-2.2,4.2   C27.4,101.7,27.3,101.8,27.1,101.9z"></path>		<path class="st1" d="M84.8,47.9c0-0.2,0-0.3,0-0.5c0.3-0.6,0.5-1.2,0.9-1.8c0.1-0.2,0.3-0.4,0.5-0.6c0.1-0.1,0.2-0.1,0.3-0.2   c0.1,0,0.2,0,0.2,0c0.1,0,0.2,0.1,0.2,0.1c0,0.1,0.1,0.2,0,0.3c-0.4,0.7-0.9,1.4-1.4,2.1c-0.1,0.1-0.2,0.3-0.3,0.4   C85.1,47.8,84.9,47.8,84.8,47.9z"></path>		<path class="st1" d="M61.7,64.6c0.2-0.9,0.5-1.8,1.1-2.6c0.1-0.1,0.2-0.2,0.4-0.3c0.1-0.1,0.2,0,0.3,0.1c0,0.1,0.1,0.2,0.1,0.3   s0,0.2-0.1,0.3c-0.4,0.8-0.8,1.6-1.3,2.4c0,0-0.1,0.1-0.1,0.1c0,0-0.1,0-0.2,0c0,0-0.1-0.1-0.1-0.1S61.7,64.6,61.7,64.6z"></path>		<path class="st1" d="M68.3,76.9c0,0.2-0.1,0.4-0.2,0.5c-0.1,0.2-0.2,0.3-0.4,0.4c-0.1,0-0.2,0-0.3,0c-0.1,0-0.2-0.3-0.2-0.4   c0.1-0.3,0.2-0.6,0.5-0.8c0.1-0.1,0.3-0.1,0.5,0C68.3,76.7,68.3,76.8,68.3,76.9z"></path>		<path class="st1" d="M39.7,85.3l-0.1-0.1L39.7,85.3L39.7,85.3z"></path>		<path class="st1" d="M82.1,48.2l0,0.1L82.1,48.2L82.1,48.2z"></path>		<path class="st1" d="M82.1,48.2l0.3,0.1C82.3,48.5,82.2,48.3,82.1,48.2L82.1,48.2z"></path>		<path class="st1" d="M17.6,86.3c0,0-0.1-0.1-0.1-0.1c0.1-0.4,0.4-0.8,0.7-1.1c1.2-1.1,2.5-2.2,3.7-3.3c0.9-0.7,1.7-1.5,2.6-2.2   s1.6-1.4,2.5-2l3.9-2.8c0.5-0.3,0.9-0.7,1.4-1c0.7-0.5,1.4-0.9,2.2-1.3c0.1-0.1,0.3,0,0.5,0.1c0.1,0,0.1,0.1,0.2,0.2   c0,0.1,0,0.2,0,0.2c-0.1,0.1-0.2,0.3-0.3,0.4c-0.4,0.3-0.8,0.5-1.1,0.7c-0.4,0.2-0.8,0.4-1.2,0.7c-1.4,1-2.8,1.9-4.3,2.8   c-0.4,0.3-0.7,0.6-1.1,0.9c-0.7,0.6-1.4,1.2-2.1,1.7c-0.7,0.4-1.3,1-1.8,1.6c-0.1,0.1-0.1,0.2-0.2,0.2c-1.3,0.8-2.3,2-3.6,2.9   c-0.6,0.4-1.1,0.8-1.6,1.3C17.9,86.2,17.7,86.3,17.6,86.3z"></path>		<path class="st1" d="M19,90.1c-0.1,0-0.1-0.1-0.2-0.1c0,0,0,0,0-0.1c0,0,0,0,0-0.1c0.1-0.4,0.4-0.7,0.7-1c1.3-1.2,2.6-2.4,3.9-3.5   c1.2-1,2.5-1.8,3.6-2.8s2.4-1.9,3.6-2.8c0.6-0.4,1.2-0.9,1.7-1.4c0.5-0.4,1-0.8,1.5-1.2c0.1-0.1,0.2-0.1,0.3-0.1   c0.1,0,0.2,0,0.3,0.1c0.2,0.1,0.2,0.3,0.2,0.4c-0.1,0.1-0.2,0.3-0.3,0.4c-0.6,0.5-1.2,0.9-1.7,1.4c-0.6,0.5-1.2,0.9-1.8,1.3   c-0.4,0.3-0.8,0.6-1.2,0.9c-1.9,1.5-3.7,3-5.6,4.4c-1.6,1.2-3,2.6-4.6,3.8C19.2,89.9,19.1,90,19,90.1z"></path>		<path class="st1" d="M39.3,59.3c0.1-0.1,0.2-0.3,0.3-0.4c0.6-0.3,1.2-0.6,1.9-0.9c0.6-0.3,1.2-0.6,1.8-0.9   c0.6-0.3,1.3-0.3,1.9-0.6c1.5-0.8,3.1-1.4,4.8-1.8c1.8-0.5,3.6-1.2,5.3-2c1.2-0.5,2.5-0.9,3.7-1.4c0.1,0,0.3-0.1,0.4,0   c0.1,0,0.3,0.1,0.4,0.1c0.1,0,0.2,0.1,0.2,0.2c0.1,0.1,0.1,0.2,0.1,0.3c0,0.1-0.1,0.2-0.1,0.2c-0.1,0.1-0.1,0.1-0.2,0.1l-0.5,0.1   c-1.6,0.3-3.2,0.8-4.7,1.5c-1.8,0.5-3.6,1.1-5.3,1.8c-1.5,0.6-3,1.1-4.4,1.8l-0.1,0.1c-1.5,0.5-2.9,1.1-4.3,1.7   c-0.2,0.1-0.3,0.1-0.5,0.2C39.6,59.4,39.4,59.3,39.3,59.3z"></path>		<path class="st1" d="M17.6,80.7c0.1-0.3,0.3-0.6,0.6-0.8c0.6-0.6,1.3-1.2,2-1.8c0.8-0.5,1.6-1.1,2.4-1.7c0.5-0.3,0.9-0.6,1.4-0.9   c1.5-0.8,2.9-1.7,4.3-2.7c0.2-0.1,0.4-0.3,0.6-0.4c1.6-1,3.1-2.1,4.6-3.2c0.2-0.2,0.5-0.3,0.7-0.4c0.1,0,0.2,0,0.3,0   c0.1,0,0.2,0.1,0.2,0.2c0,0,0,0.1,0,0.2c0,0.1,0,0.1,0,0.1c-0.5,0.5-1,0.9-1.6,1.3c-2.2,1.4-4.4,2.8-6.6,4.2   c-1.1,0.6-2.1,1.3-3.1,2.1c-0.1,0.1-0.3,0.2-0.4,0.3c-1.6,1-3.2,2-4.6,3.2l-0.7,0.5L17.6,80.7z"></path>		<path class="st1" d="M38.7,53c0,0-0.1-0.1-0.1-0.1c0.1-0.2,0.2-0.4,0.4-0.5c0.5-0.4,1.1-0.8,1.8-1c1.7-0.7,3.5-1.4,5.2-2.2   c0.5-0.2,1-0.4,1.5-0.5c0.8-0.1,1.7-0.4,2.5-0.6c0.4-0.1,0.7-0.3,1.1-0.5c0.3-0.2,0.7-0.3,1.1-0.4c0.5-0.1,1-0.3,1.4-0.5   c1-0.5,2.1-0.9,3.2-1.2c1.2-0.4,2.5-0.8,3.8-1.1c0.2-0.1,0.3-0.1,0.5-0.1c0.2,0,0.3,0.1,0.5,0.2c0.1,0.1,0.2,0.2,0.2,0.3   c0,0.1,0,0.1-0.1,0.1c0,0-0.1,0.1-0.1,0.1c-0.3,0.1-0.5,0.2-0.8,0.2c-0.9,0.2-1.8,0.4-2.7,0.5c-0.1,0-0.2,0-0.3,0.1   c-1.4,0.5-2.9,1-4.3,1.5c-1.5,0.5-2.8,1-4.1,1.6c-0.3,0.1-0.5,0.2-0.8,0.3c-1.3,0.3-2.5,0.8-3.7,1.3c-0.2,0.1-0.3,0.1-0.5,0.2   c-1.8,0.6-3.6,1.3-5.3,2.2C38.8,53,38.7,53,38.7,53z"></path>		<path class="st1" d="M40.3,56.1c0,0-0.1-0.1-0.1-0.1c0-0.1,0-0.1,0-0.2c0-0.1,0-0.1,0.1-0.2c0,0,0.1-0.1,0.1-0.1   c0.2-0.1,0.5-0.3,0.8-0.4c0.9-0.3,1.8-0.7,2.6-1.2c1.8-0.8,3.6-1.7,5.4-2.4c0.8-0.3,1.6-0.6,2.4-0.9c0.6-0.2,1.2-0.4,1.8-0.6   l5.5-2.2c0.3-0.1,0.7-0.3,1-0.3c0.3,0,0.6,0,0.9,0c0.1,0,0.2,0,0.2,0.1c0.1,0.1,0.1,0.1,0.1,0.2c0,0.1,0,0.2,0,0.2   c0,0.1-0.1,0.1-0.2,0.2c-0.1,0.1-0.2,0.1-0.3,0.1c-1.4,0.2-2.7,0.9-4.1,1.2c-0.2,0-0.3,0.1-0.5,0.2c-0.8,0.4-1.7,0.7-2.6,0.9   c-0.8,0.3-1.7,0.6-2.6,0.9c-0.5,0.2-0.9,0.5-1.4,0.7c-1.1,0.4-2.2,0.9-3.2,1.5c-0.8,0.4-1.7,0.7-2.5,1c-0.3,0.1-0.7,0.2-1,0.4   C42,55.5,41.1,55.9,40.3,56.1L40.3,56.1z"></path>		<path class="st1" d="M58,54.9c0.2,0,0.3,0.1,0.5,0.2c0,0,0.1,0.1,0.1,0.1c0,0,0,0.1,0,0.2c0,0.1,0,0.2-0.1,0.3   c-0.1,0.1-0.2,0.2-0.3,0.2c-0.3,0.1-0.7,0.3-1,0.3c-1,0.1-2,0.5-2.9,0.9c-0.5,0.2-0.9,0.4-1.4,0.6c-0.8,0.3-1.6,0.6-2.4,0.8   c-1.2,0.3-2.3,0.8-3.5,1.3c-0.3,0.2-0.7,0.3-1,0.4c-1.3,0.4-2.6,1-3.7,1.7c-0.5,0.3-1,0.5-1.6,0.6c0,0-0.1,0-0.1,0   c0,0,0,0-0.1-0.1c0-0.1,0-0.2,0-0.3c0.1-0.1,0.1-0.2,0.2-0.2c0.6-0.4,1.2-0.7,1.8-1c0.5-0.2,0.9-0.4,1.4-0.7   c0.4-0.2,0.7-0.3,1.1-0.5l2.1-0.7c1.3-0.5,2.7-0.9,4-1.5c1.3-0.6,2.6-1.1,4-1.6c0.6-0.2,1.3-0.5,1.9-0.8   C57.4,55,57.7,54.9,58,54.9z"></path>		<path class="st1" d="M18.4,76.6c0,0-0.1-0.1-0.1-0.1c0-0.1,0-0.1,0-0.2c0.3-0.5,0.7-0.9,1.1-1.3c1-1,2-1.8,3.2-2.6   c1.4-0.9,2.8-1.9,4.2-2.9c1-0.7,2.1-1.4,3.1-2c1.1-0.6,2-1.3,3-2c0.2-0.2,0.5-0.3,0.8-0.4c0.1,0,0.2,0,0.3,0   c0.1,0,0.2,0.1,0.3,0.2c0,0,0,0.1,0,0.2s0,0.1,0,0.2c-0.2,0.2-0.4,0.4-0.6,0.6c-0.9,0.6-1.7,1.1-2.6,1.6c-1.2,0.7-2.4,1.5-3.5,2.4   c-0.3,0.2-0.5,0.4-0.9,0.6c-2.5,1.5-4.8,3.2-7.1,5c-0.3,0.2-0.6,0.5-0.9,0.8C18.6,76.6,18.5,76.6,18.4,76.6z"></path>		<path class="st1" d="M40.7,66.6c0,0-0.1-0.1-0.1-0.1c0,0,0-0.1,0-0.1c0,0,0-0.1,0-0.1c0.2-0.2,0.4-0.4,0.6-0.6   c0.8-0.5,1.5-1,2.3-1.4c1-0.6,2.1-1.1,3.2-1.6c0.6-0.3,1.2-0.5,1.8-0.7c1.8-0.7,3.4-1.5,5.1-2.3c0.7-0.3,1.5-0.6,2.2-0.9   c0.1-0.1,0.3-0.1,0.4-0.1c0.1,0,0.3,0,0.4,0.1c0.1,0.1,0.2,0.1,0.2,0.2c0,0.1,0,0.1,0,0.2s0,0.1-0.1,0.1c-0.2,0.2-0.4,0.3-0.6,0.3   c-0.8,0.2-1.5,0.5-2.2,0.9c-1.2,0.6-2.5,1.1-3.8,1.6s-2.4,1-3.6,1.6c-1.4,0.7-2.8,1.5-4.2,2.2c-0.5,0.2-1,0.5-1.6,0.6   C40.8,66.6,40.7,66.6,40.7,66.6z"></path>		<path class="st1" d="M19.9,71.1c-0.1,0-0.1-0.1-0.2-0.1c0,0,0-0.1,0-0.1c0,0,0-0.1,0-0.1c0-0.1,0.1-0.2,0.2-0.3   c0.2-0.2,0.5-0.4,0.8-0.6c1.5-1.1,2.9-2.3,4.6-3.3c1.1-1,2.6-1.6,3.8-2.6c0.3-0.2,0.6-0.4,0.9-0.5c0.4-0.2,0.8-0.4,1.2-0.6   c0.8-0.6,1.8-0.8,2.6-1.3c0.1,0,0.2,0,0.3,0c0.1,0,0.2,0.1,0.3,0.2c0.1,0.1,0.1,0.4,0,0.5c-0.3,0.2-0.6,0.4-0.9,0.5   c-1.7,0.8-3.4,1.8-5,2.9L26,67.2c-0.3,0.2-0.6,0.4-0.9,0.6c-1.5,1.1-3,2.1-4.5,3.1C20.4,70.9,20.1,71,19.9,71.1z"></path>		<path class="st1" d="M21.6,66.2c-0.1,0-0.1-0.1-0.1-0.1c0,0-0.1-0.1,0-0.1l0.9-0.8c0.9-0.9,1.9-1.7,2.9-2.4c0.5-0.4,1-0.7,1.6-1   c0.1,0,0.2-0.1,0.3-0.2c1.7-1.5,3.9-2.3,5.9-3.4c0.1,0,0.2,0,0.3,0c0.1,0,0.2,0.1,0.3,0.2c0,0.1,0,0.3,0,0.3   c-0.4,0.3-0.9,0.6-1.3,0.8c-1.5,0.9-3.1,1.8-4.5,2.7c-1.1,0.6-2.1,1.3-3.1,2.1c-0.8,0.7-1.7,1.3-2.6,1.9   C21.9,66.2,21.8,66.2,21.6,66.2z"></path>		<path class="st1" d="M35.4,52c0-0.1-0.1-0.2,0-0.3c0.3-0.4,0.8-0.7,1.3-0.8c0.6-0.1,1.1-0.4,1.5-0.7l1-0.7c0.5-0.3,1-0.6,1.5-0.7   c0.8-0.1,1.6-0.5,2.3-1.1c0.7-0.4,1.4-0.8,2.2-1c0.7-0.2,1.3-0.4,1.9-0.7c0.6-0.2,1.2-0.4,1.8-0.4c0.1,0,0.2,0,0.3,0.1   c0.1,0.1,0.2,0.2,0.2,0.3c0,0,0,0.1-0.1,0.1c-0.2,0.1-0.4,0.2-0.6,0.3c-0.8,0.3-1.5,0.5-2.2,0.8c-1,0.3-2,0.7-3,1.2   c-0.5,0.3-1,0.4-1.6,0.7c-1.9,1-3.8,1.8-5.8,2.8C35.8,51.8,35.6,51.9,35.4,52L35.4,52z"></path>		<path class="st1" d="M64.9,46.9c-0.1-0.1-0.1-0.1-0.1-0.2c0-0.1,0-0.1,0-0.2c0-0.1,0.1-0.1,0.1-0.1c1.4-0.8,2.8-1.5,4.4-1.9   c1.5-0.4,2.9-0.9,4.4-1.3c1.5-0.4,2.9-0.8,4.3-1.1c0.3-0.1,0.6-0.1,0.8,0c0.1,0,0.2,0.2,0.3,0.4c0,0.1-0.1,0.2-0.2,0.2   c-0.1,0.1-0.3,0.2-0.5,0.2c-0.6,0-1.2,0.2-1.8,0.3c-0.7,0.2-1.3,0.3-2,0.5s-1.2,0.3-1.8,0.5c-0.6,0.2-1.2,0.3-1.8,0.5   c-0.7,0.1-1.3,0.3-1.9,0.6c-1.1,0.6-2.3,0.9-3.5,1.4C65.3,46.8,65.1,46.9,64.9,46.9z"></path>		<path class="st1" d="M51.5,64.7c0,0.1,0,0.2-0.1,0.3c0,0.1-0.1,0.1-0.1,0.1c-0.8,0.3-1.6,0.8-2.5,1.1c-0.8,0.3-1.9,0.8-2.8,1.3   c-0.7,0.4-1.5,0.8-2.3,1.1c-0.3,0.1-0.6,0.3-0.9,0.5c-0.5,0.4-1.1,0.8-1.8,1c-0.1,0-0.2-0.1-0.3-0.1s0-0.1,0-0.2   c0-0.1,0-0.1,0.1-0.1c0.5-0.5,1.1-1,1.7-1.3c1.2-0.6,2.3-1.1,3.5-1.7c1.2-0.6,2.3-1.2,3.5-1.9c0.5-0.2,0.9-0.4,1.4-0.5   C51.1,64.3,51.4,64.5,51.5,64.7z"></path>		<path class="st1" d="M33.2,55.8c-0.1,0.1-0.2,0.3-0.3,0.4c-0.5,0.3-1,0.5-1.5,0.7c-1.2,0.5-2.3,1-3.3,1.7c-0.5,0.3-1.1,0.6-1.6,1   c-0.8,0.6-1.7,1.2-2.5,1.8c-0.1,0.1-0.3,0-0.4-0.1c0.8-1,1.7-1.9,2.8-2.5c0.6-0.4,1.1-0.8,1.6-1.2c0.5-0.5,1.1-0.9,1.7-1.1   c0.8-0.4,1.5-0.7,2.3-1c0.2-0.1,0.5-0.1,0.7,0C32.8,55.4,33,55.6,33.2,55.8z"></path>		<path class="st1" d="M76.9,45.2c-0.1,0.1-0.1,0.2-0.2,0.3c-1.6,0.5-3.1,1.2-4.6,1.7C71,47.6,70,48.1,69,48.6c-1,0.5-1.9,1-2.9,1.5   c-0.1,0.1-0.2,0.1-0.3,0.1c-0.1,0-0.2,0-0.3-0.1c0,0,0-0.1,0-0.1c0-0.1,0-0.1,0-0.1c0.8-0.4,1.6-0.9,2.4-1.3   c0.3-0.1,0.6-0.3,0.9-0.5c0.6-0.5,1.4-0.8,2.1-1.1c1.4-0.6,2.8-1.1,4.3-1.7c0.5-0.2,1-0.3,1.5-0.2C76.8,45.1,76.8,45.2,76.9,45.2z   "></path>		<path class="st1" d="M80.2,39.4l0.5,0.2c0,0,0,0,0,0.1c0,0,0,0,0,0.1c0,0.1,0,0.2-0.1,0.3c-0.2,0.1-0.4,0.2-0.6,0.2   c-1.4,0.1-2.8,0.3-4.2,0.5c-1.1,0.1-2.2,0.3-3.3,0.6c-0.8,0.2-1.6,0.1-2.3,0.4c-0.8,0.2-1.4,0.3-2.2,0.5c-0.1,0-0.2,0-0.3,0   c-0.1,0-0.1,0-0.1-0.1c0,0,0-0.1,0-0.2c0.1-0.1,0.1-0.2,0.2-0.2c0.2-0.1,0.3-0.1,0.5-0.1c0.8-0.2,1.7-0.3,2.5-0.5   c0.8-0.2,1.6-0.4,2.4-0.4c1-0.3,2-0.5,3-0.6C77.4,39.7,78.8,39.5,80.2,39.4z"></path>		<path class="st1" d="M57.5,43.3c-0.1,0.1-0.1,0.2-0.2,0.2c-0.3,0.2-0.6,0.3-0.9,0.4c-0.8,0.2-1.5,0.4-2.2,0.7c-0.2,0-0.3,0-0.5,0   c-0.1,0-0.3-0.1-0.3-0.1c0-0.2,0-0.3,0.1-0.4c0,0,0.1-0.1,0.1-0.1c0.9-0.3,1.8-0.7,2.7-1c0.2-0.1,0.4-0.1,0.6-0.1   c0.2,0,0.4,0,0.6,0.1C57.5,43.1,57.5,43.2,57.5,43.3z"></path>		<path class="st1" d="M20.3,93.7c0-0.1,0-0.2,0-0.3c0.8-1.1,1.8-2,2.7-3c0,0,0.1,0,0.1-0.1c0-0.1,0.4,0,0.4,0.1c0,0.1,0,0.2,0,0.3   c-0.1,0.2-0.2,0.3-0.3,0.4c-0.8,0.8-1.5,1.5-2.3,2.2c-0.1,0.1-0.2,0.2-0.3,0.2C20.5,93.6,20.4,93.7,20.3,93.7L20.3,93.7z"></path>		<path class="st1" d="M30.2,54.9c-0.1,0-0.1-0.1-0.2-0.1c0,0,0,0,0-0.1c0,0,0,0,0-0.1c0.4-0.6,0.9-1,1.5-1.3c0.1,0,0.2,0,0.3,0   c0.2,0,0.5,0.2,0.4,0.4c0,0.2-0.1,0.3-0.2,0.4c0,0-0.1,0-0.1,0.1L30.2,54.9z"></path>		<path class="st1" d="M60.2,43c-0.2,0-0.3,0-0.3,0c-0.1-0.1-0.1-0.1-0.2-0.2c0-0.1,0-0.1,0-0.2c0.1-0.2,0.3-0.3,0.4-0.4   s0.4-0.2,0.6-0.2c0.1,0,0.2,0,0.3,0.1c0.1,0.1,0.2,0.1,0.2,0.3c0,0.1,0,0.2,0,0.3c0,0.1-0.1,0.1-0.2,0.2   C60.8,42.8,60.5,42.9,60.2,43z"></path>		<path class="st1" d="M40.3,56.1c-0.3,0.2-0.6,0.3-1,0.2c0,0,0,0-0.1,0c0,0,0,0-0.1-0.1c-0.1-0.1,0-0.2,0.1-0.2   C39.6,55.9,40,56,40.3,56.1L40.3,56.1z"></path>		<path class="st1" d="M20.3,93.6L20.3,93.6L20.3,93.6L20.3,93.6z"></path>		<path class="st1" d="M35.4,51.9L35.3,52c0,0-0.1-0.1-0.1-0.1C35.2,51.9,35.4,51.8,35.4,51.9L35.4,51.9z"></path>	</g></g></svg>