<svg xmlns="http://www.w3.org/2000/svg" id="Layer_1" data-name="Layer 1" viewBox="0 0 1114.69 312.02"><defs><style>.cls-1{fill:#a6c842;}.cls-1,.cls-2,.cls-3{stroke:#190010;stroke-miterlimit:10;stroke-width:1.09px;}.cls-2{fill:#4da042;}.cls-3{fill:#0e6139;}.cls-4{fill:#fbb03b;}.cls-5{fill:#3d3d3d;}.cls-6{fill:#ed1c24;}.cls-7{fill:#006837;}</style></defs><path class="cls-1" d="M277,421.43h7.13s9.81,3.57,8.92-20.5S277,360.81,277,360.81s-15.15,16.05-16,40.12,8.92,20.5,8.92,20.5Z" transform="translate(-169 -248.49)"></path><path class="cls-2" d="M277.47,444.61s-.89,12.48-12.48,12.48-16.05-2.67-28.53,2.68c0,0,6.24-13.38,20.5-14.27s14.28-4,14.28-4S277.47,441.05,277.47,444.61Z" transform="translate(-169 -248.49)"></path><path class="cls-3" d="M266.77,449.07s-35.66,5.35-50.81-9.81c0,0,16.93,2.68,29.41,0s17.83-2.67,17.83-2.67l10.7,8.91S272.12,448.18,266.77,449.07Z" transform="translate(-169 -248.49)"></path><path class="cls-3" d="M273,448.18s-18.72,0-32.09-9.81-15.16-8.91-27.64-7.13c0,0,8-9.81,25-6.24s17.83,2.67,17.83,2.67l9.81,5.35S281,441.94,273,448.18Z" transform="translate(-169 -248.49)"></path><path class="cls-3" d="M273.9,445.5s-29.42-9.8-39.22-27.63S216,397.36,210.61,397.36s19.18-5,37.67,10,13.14,7.85,13.14,7.85l16.05,24.07S278.36,446.39,273.9,445.5Z" transform="translate(-169 -248.49)"></path><path class="cls-2" d="M274.79,441.94s-21.39-2.68-25.85-19.62,8-25.85-12.48-45.46c0,0,23.18,9.81,33.88,27.63s7.13,18.73,7.13,18.73-1.79,10.69-.89,13.37S274.79,441.94,274.79,441.94Z" transform="translate(-169 -248.49)"></path><path class="cls-2" d="M277.29,444.61s.89,12.48,12.48,12.48,16.05-2.67,28.53,2.68c0,0-6.24-13.38-20.5-14.27s-14.28-4-14.28-4S277.29,441.05,277.29,444.61Z" transform="translate(-169 -248.49)"></path><path class="cls-3" d="M288,449.07s35.66,5.35,50.81-9.81c0,0-16.93,2.68-29.41,0s-17.83-2.67-17.83-2.67l-10.7,8.91S282.64,448.18,288,449.07Z" transform="translate(-169 -248.49)"></path><path class="cls-3" d="M281.75,448.18s18.72,0,32.09-9.81,15.16-8.91,27.64-7.13c0,0-8-9.81-25-6.24s-17.83,2.67-17.83,2.67L288.88,433S273.73,441.94,281.75,448.18Z" transform="translate(-169 -248.49)"></path><path class="cls-3" d="M280.86,445.5s29.42-9.8,39.22-27.63,18.72-20.51,24.07-20.51-19.19-5-37.67,10-13.14,7.85-13.14,7.85l-16,24.07S276.4,446.39,280.86,445.5Z" transform="translate(-169 -248.49)"></path><path class="cls-2" d="M280,441.94s21.39-2.68,25.85-19.62-8-25.85,12.48-45.46c0,0-23.18,9.81-33.88,27.63s-7.13,18.73-7.13,18.73,1.78,10.69.89,13.37S280,441.94,280,441.94Z" transform="translate(-169 -248.49)"></path><path class="cls-1" d="M277.47,444.17s24.07-10.93,0-47.7C253.4,433.24,277.47,444.17,277.47,444.17Z" transform="translate(-169 -248.49)"></path><path class="cls-4" d="M175.57,412.28a104.37,104.37,0,0,1,196.84-48.4A104.38,104.38,0,1,0,185.61,457,104,104,0,0,1,175.57,412.28Z" transform="translate(-169 -248.49)"></path><path class="cls-4" d="M431.69,302.87c-25,53.48-42.79,43.68-54.38,32.09a116.75,116.75,0,0,0-25.85-19.61c-10.7-6.24-31.2-12.48-47.25-13.38l-1.19.72A107.88,107.88,0,1,1,170,407.61a109.17,109.17,0,0,1,.69-12.19c-4.08,26-5.09,79.95,46.12,116.05,69.53,49,161.35,1.79,185.42-67.75,0,0,17.83,43.68-45.46,116.78,0,0,70.43-36.55,74.88-89.14,0,0,2.68-21.4-7.13-54.38s9.81-91.83,24.07-118.57,24.07-39.23,35.66-49.92C484.29,248.49,456.66,249.38,431.69,302.87Z" transform="translate(-169 -248.49)"></path><ellipse class="cls-4" cx="223.47" cy="54.38" rx="20.06" ry="24.52"></ellipse><path class="cls-5" d="M204.82,439.13,187.55,439l-.93-2.72,21.11.66.74,2.21-16.35,13.35-.92-2.72Z" transform="translate(-169 -248.49)"></path><path class="cls-5" d="M205,425.11l.44,2.59L185.9,431l-.44-2.6Z" transform="translate(-169 -248.49)"></path><path class="cls-5" d="M195.31,415.31a12.4,12.4,0,0,1-2.28,5,4.5,4.5,0,0,1-3.44,1.6,4.76,4.76,0,0,1-3.9-1.82,7.56,7.56,0,0,1-1.61-4.87,8.38,8.38,0,0,1,.72-3.68,6.07,6.07,0,0,1,2.13-2.54,5.59,5.59,0,0,1,3-.93l0,2.64a3.61,3.61,0,0,0-2.81,1.2,4.75,4.75,0,0,0-1,3.27,4.85,4.85,0,0,0,.91,3,2.81,2.81,0,0,0,2.38,1.05,2.52,2.52,0,0,0,2-1.07A10,10,0,0,0,193,414.6a16.75,16.75,0,0,1,1.46-3.92,5.87,5.87,0,0,1,1.92-2.12,5,5,0,0,1,2.6-.72,4.62,4.62,0,0,1,3.89,1.82,8.22,8.22,0,0,1,1.53,5,9.52,9.52,0,0,1-.71,3.85,6.45,6.45,0,0,1-2.09,2.78,5.21,5.21,0,0,1-3.07,1l0-2.64a3.36,3.36,0,0,0,2.8-1.39,5.62,5.62,0,0,0,1-3.59,5.21,5.21,0,0,0-.9-3.18,2.73,2.73,0,0,0-2.31-1.07,2.7,2.7,0,0,0-2.23,1.07A12,12,0,0,0,195.31,415.31Z" transform="translate(-169 -248.49)"></path><path class="cls-5" d="M207.32,390.38l-.54,2.59-8.95-1.87L195.77,401l8.95,1.87-.54,2.58-19.36-4.06.54-2.57,8.32,1.74,2.07-9.85-8.32-1.74.54-2.59Z" transform="translate(-169 -248.49)"></path><path class="cls-5" d="M204.62,380.33l2.49.86-1.83-1.58-10.43-9.86,1-2,14,2.93,2.38.62-2.17-1.61-10.58-9,1.22-2.35,15.32,13.4-1.1,2.13-14.69-3-1.48-.42,1.19,1,10.83,10.42-1.1,2.13-19.78-4.81,1.22-2.34Z" transform="translate(-169 -248.49)"></path><path class="cls-5" d="M223,355.17l-5.56,6.24,2.61,4.85-1.8,2-9.7-18.84,1.53-1.72,19.85,7.45-1.8,2Zm-6.62,4.23,4.51-5.07-9.17-3.61Z" transform="translate(-169 -248.49)"></path><path class="cls-5" d="M232.57,343.43l-3.79,2.76,4.7,6.47-2.14,1.55-11.63-16,5.34-3.89a7.9,7.9,0,0,1,5.09-1.83,5.48,5.48,0,0,1,4.08,2.51,5.36,5.36,0,0,1,1.08,3.2,6.08,6.08,0,0,1-1.06,3.31l8.73,4,.09.13-2.28,1.67Zm-5,1,3.27-2.38a4.59,4.59,0,0,0,1.93-2.64,3.38,3.38,0,0,0-.65-2.87,3.54,3.54,0,0,0-2.55-1.62,4.67,4.67,0,0,0-3.16,1.07l-3.26,2.37Z" transform="translate(-169 -248.49)"></path><path class="cls-5" d="M251.29,332l-7.87,3.59,2.9,6.37,9.15-4.16.88,1.94L244.81,345l-8.2-18,11.42-5.2.89,1.94-9,4.11,2.64,5.8,7.88-3.59Z" transform="translate(-169 -248.49)"></path><path class="cls-5" d="M261.52,328.92l-1.83,3,1.47,6.52-2.57.58-4.34-19.29,2.57-.58,2.14,9.54,6.51-11.49,3.1-.7-5.74,10.25,10.69,8.91-3.08.69Z" transform="translate(-169 -248.49)"></path><path class="cls-5" d="M290.12,335.81l-2.64,0,.11-9.13-10.07-.12-.1,9.14-2.64,0,.23-19.77,2.64,0-.1,8.5,10.06.11.1-8.5,2.64,0Z" transform="translate(-169 -248.49)"></path><path class="cls-5" d="M305.86,334.22l-8.08-2.14-3.14,4.53-2.63-.7,12.43-17.17,2.22.59L309,340.4l-2.61-.69Zm-6.77-4,6.56,1.73-.92-9.81Z" transform="translate(-169 -248.49)"></path><path class="cls-5" d="M320,337.21a20.89,20.89,0,0,1,3.69-4.67,16.77,16.77,0,0,1,4.72-3.18,10.59,10.59,0,0,1,4.59-1.1l-.38,1.7a10.84,10.84,0,0,0-5.18,2.35,20,20,0,0,0-4.74,5.33l-.59,1a20,20,0,0,0-2.92,8.84,10.7,10.7,0,0,0,.57,4.51L318.55,353a10.94,10.94,0,0,1-1.31-4.66A18.76,18.76,0,0,1,320,337.21Z" transform="translate(-169 -248.49)"></path><path class="cls-5" d="M331,344.61l-5,5.9-2-1.7,12.78-15.08,5.62,4.76a7.45,7.45,0,0,1,2.84,4.58,5.59,5.59,0,0,1-1.42,4.55,5.48,5.48,0,0,1-4.25,2.2,7.74,7.74,0,0,1-5-2.17Zm1.38-1.63L336,346a4.77,4.77,0,0,0,3.1,1.34,3.58,3.58,0,0,0,2.7-1.45,3.7,3.7,0,0,0,1-2.89,4.44,4.44,0,0,0-1.64-2.83l-3.72-3.16Z" transform="translate(-169 -248.49)"></path><path class="cls-5" d="M343.15,363.11,359.64,358l1.72,2.31-20.29,5.83-1.39-1.87,11.48-17.72,1.71,2.31Z" transform="translate(-169 -248.49)"></path><path class="cls-5" d="M367.78,379.15l-2.59-5.87-16.14,7.12L348,378l16.14-7.12L361.55,365l1.95-.86,6.23,14.12Z" transform="translate(-169 -248.49)"></path><path class="cls-5" d="M360.93,391.81a20.83,20.83,0,0,1-5.83.65,17.1,17.1,0,0,1-5.57-1.12,10.65,10.65,0,0,1-4.09-2.53l1.36-.9a10.86,10.86,0,0,0,5.66,2.07,21.41,21.41,0,0,0,7.58-.58l.42-.1a22.48,22.48,0,0,0,5-1.89,18.1,18.1,0,0,0,3.84-2.71,10.26,10.26,0,0,0,2.34-3.09l1.62.14a10.56,10.56,0,0,1-2.36,4.15,16.88,16.88,0,0,1-4.36,3.64A21.34,21.34,0,0,1,360.93,391.81Z" transform="translate(-169 -248.49)"></path><path class="cls-5" d="M357,406.39l.08,9.46-2.13,0-.11-12.11,19.77-.17,0,2.64Z" transform="translate(-169 -248.49)"></path><path class="cls-5" d="M370.54,430.53l.9-6.36L354,421.72l.36-2.6,17.47,2.46.89-6.34,2.11.3-2.14,15.29Z" transform="translate(-169 -248.49)"></path><path class="cls-5" d="M352.5,430l18.55,6.85-1.95,5.29a9.08,9.08,0,0,1-2.67,3.92,7.76,7.76,0,0,1-4.11,1.78,10.46,10.46,0,0,1-4.92-.64l-1.19-.44A10.46,10.46,0,0,1,352,444a7.56,7.56,0,0,1-1.95-4,9.73,9.73,0,0,1,.54-4.82Zm15.64,8.58-14.55-5.37-1,2.6a6,6,0,0,0,.12,5.09,7.64,7.64,0,0,0,4.42,3.44l1.09.4a7.86,7.86,0,0,0,5.47.32,5.72,5.72,0,0,0,3.34-3.6Z" transform="translate(-169 -248.49)"></path><path class="cls-5" d="M523.11,328.5a12.76,12.76,0,0,1-2.8.34c-.86,0-1.34-.31-1.47-.93q-1.12-3.86-3.36-15.1T511,292.41q-2.26-9.15-4.39-12.14a8.89,8.89,0,0,1,4.36-1.62c2.16,0,3.67,1.23,4.52,3.67s2.25,9.14,4.2,20.06c.13,1,.74,4.12,1.84,9.37s1.77,8.56,2,9.93q4.11-9.09,9.16-24.25t5-19.71c4.07.74,6.1,2.28,6.1,4.6q0,2.56-3.51,10.81t-8.47,19q-5,10.74-6.82,15.85A11,11,0,0,1,523.11,328.5Z" transform="translate(-169 -248.49)"></path><path class="cls-5" d="M561.62,282.42a21.75,21.75,0,0,1,.19,3.52q0,2.49-2,16.56t-2.06,19.71q0,5.64.87,7.69a10.65,10.65,0,0,1-5.45-3.7,9.52,9.52,0,0,1-1.58-5.48,120.53,120.53,0,0,1,1.3-12.8,186.09,186.09,0,0,0,2.31-24.79c0-1.24-.09-2.94-.25-5.1,3.15.16,5.13.91,5.91,2.24A6.81,6.81,0,0,1,561.62,282.42Z" transform="translate(-169 -248.49)"></path><path class="cls-5" d="M584.17,297.08a49.28,49.28,0,0,0,4.14,3.34c1.51,1.1,3,2.21,4.54,3.33a47.59,47.59,0,0,1,4.15,3.42q4.23,3.93,4.23,8.66a12.51,12.51,0,0,1-4.45,9.78q-4.46,3.92-11.74,3.92t-11.21-3.3a10,10,0,0,1-3.92-7.85,7.56,7.56,0,0,1,2-5.45,6.83,6.83,0,0,1,5.17-2.08,5.56,5.56,0,0,1,1.68.25,11.11,11.11,0,0,0-1.93,6.25,7.89,7.89,0,0,0,2.3,5.7q2.31,2.37,6.91,2.37a9.3,9.3,0,0,0,5.89-2,6.73,6.73,0,0,0,2.58-5.63,8.18,8.18,0,0,0-1.55-4.64,17.48,17.48,0,0,0-3.86-4q-2.31-1.74-5.05-3.89t-5-4.14a17,17,0,0,1-3.86-4.86,12.33,12.33,0,0,1-1.56-6,11.73,11.73,0,0,1,4-9.37c2.67-2.3,6.55-3.46,11.61-3.46q6.16,0,9.68,3.27c2.35,2.18,3.52,4.45,3.52,6.79a8.57,8.57,0,0,1-1.9,5.76,6.43,6.43,0,0,1-5.2,2.24,9.91,9.91,0,0,1-2.18-.24,9.9,9.9,0,0,0,3.06-6.85,6.62,6.62,0,0,0-2.25-5.45,8.64,8.64,0,0,0-5.69-1.84,9,9,0,0,0-5.89,2q-2.43,2-2.43,6T584.17,297.08Z" transform="translate(-169 -248.49)"></path><path class="cls-5" d="M636.29,305.93l-9-.13c-1.91,0-3.8.06-5.67.19a133.53,133.53,0,0,0-1.55,16.5q0,5.36.87,7.41a10.61,10.61,0,0,1-5.45-3.7,9.52,9.52,0,0,1-1.59-5.48,63.77,63.77,0,0,1,.66-8.1q.65-5,.77-5.7c-1.41.34-2.47.63-3.17.87a19.64,19.64,0,0,1-.13-2.36q0-3.56,4.11-4.17a143.22,143.22,0,0,0,1.37-18.13c0-1.24-.08-2.94-.25-5.1q4.74.24,5.92,2.24a7.06,7.06,0,0,1,.81,2.15,23,23,0,0,1,.19,3.52,66,66,0,0,1-.91,8.53q-.9,6-1,6.6,11.09,0,19.93-.19a139.71,139.71,0,0,0,1.37-17.75c0-1.24-.09-2.94-.25-5.1q4.73.24,5.91,2.24a6.81,6.81,0,0,1,.81,2.15,21.75,21.75,0,0,1,.19,3.52q0,2.49-2.06,16.56t-2,19.71q0,5.64.87,7.69a10.65,10.65,0,0,1-5.45-3.7,9.52,9.52,0,0,1-1.59-5.48,121.52,121.52,0,0,1,1.31-12.8l.87-6.35C641.52,304.47,639.57,305.93,636.29,305.93Z" transform="translate(-169 -248.49)"></path><path class="cls-5" d="M694.64,328.5a12.49,12.49,0,0,1-2.8.34c-.87,0-1.31-.31-1.31-.93q-.87-3.68-2.33-13.23t-2.09-13.11q-1.74,4-4.49,10.09-6.09,13.51-7.16,16.31a8.34,8.34,0,0,1-1.8.53,12.49,12.49,0,0,1-2.8.34c-.88,0-1.31-.31-1.31-.93q-.94-3.93-2.62-15.13t-3.49-20.37q-1.8-9.15-3.73-12.14a8.83,8.83,0,0,1,4.36-1.62q3.36,0,4.48,4t3.24,21.46c.08.62.48,3.32,1.18,8.09s1.16,8,1.37,9.53q6.6-17.31,10.84-30.7-1.74-7.91-3.49-10.71a8.86,8.86,0,0,1,4.36-1.62c2.24,0,3.74,1.32,4.48,4s1.83,9.79,3.24,21.46c.09.62.48,3.32,1.19,8.09s1.16,8,1.37,9.53q13.7-36.42,14.13-44a11.35,11.35,0,0,1,4.24,1.77,3.26,3.26,0,0,1,1.55,2.59q0,4-12.76,32.19-5.06,11-6,13.7A8.52,8.52,0,0,1,694.64,328.5Z" transform="translate(-169 -248.49)"></path><path class="cls-5" d="M715.32,325.23q0-1.19,3.42-8.81t7.94-17.5q4.52-9.87,6.13-14.1l1.37-3.55a17.09,17.09,0,0,0-2.18-2.68,10.2,10.2,0,0,1,3.68-.75c2.61,0,4.65,1.66,6.1,5q1.38,3.18,3.68,14.2a4.68,4.68,0,0,1,.18.81c.09.46.51,2.57,1.28,6.32s1.3,6.25,1.59,7.47.79,3.11,1.49,5.64a30.07,30.07,0,0,0,4.24,10,10.07,10.07,0,0,1-4.83,1.75,3.18,3.18,0,0,1-2.74-1.15,12.15,12.15,0,0,1-1.56-3.55q-.71-2.4-3-13.36-1.37,2.11-5.48,2.24l-11.08.44A143.51,143.51,0,0,0,720.36,330C717,328.61,715.32,327,715.32,325.23Zm21-38.42q-7.15,17-9.15,22.11h14.45Q738.74,294.66,736.36,286.81Z" transform="translate(-169 -248.49)"></path><path class="cls-5" d="M762.89,327.75a5.49,5.49,0,0,1-1.37-4.17q0-2.9,2.09-17.68t2.08-21.12q0-6.31-.87-8.25,5,.51,6.48,4.92A20.86,20.86,0,0,1,781.39,279a11.89,11.89,0,0,1,8.9,3.52,11.34,11.34,0,0,1,3.43,8.16,14.7,14.7,0,0,1-2.77,8.59,16,16,0,0,1-8.44,5.82l.87,2.68a60.86,60.86,0,0,0,6.48,13.48q4.23,6.71,6.91,9.13A9.12,9.12,0,0,1,793,331a8.15,8.15,0,0,1-5.1-2.18,20.67,20.67,0,0,1-4.83-6.16,98.34,98.34,0,0,1-6.73-16.32q-2.24.12-3.42.12l-.19-2.24q7-.24,10.81-4a12.25,12.25,0,0,0,3.83-9,7.39,7.39,0,0,0-2.21-5.48,8.09,8.09,0,0,0-5.95-2.18,21.27,21.27,0,0,0-7.35,1.31c0,1.61-.59,6.87-1.78,15.75a174.43,174.43,0,0,0-1.77,22.23,38.37,38.37,0,0,0,.37,6.11l-1.62.12A6,6,0,0,1,762.89,327.75Z" transform="translate(-169 -248.49)"></path><path class="cls-5" d="M822.74,306.8l-5.54-.06q-3.06,0-4.68.12a144.24,144.24,0,0,0-1,15.88q14.38,0,20.8-1.87a9.13,9.13,0,0,1-2.46,5.61,6.94,6.94,0,0,1-5.08,2c-.58,0-2.37-.14-5.38-.41s-5.93-.4-8.75-.4a44.91,44.91,0,0,0-8.47.81,6.47,6.47,0,0,1,2.36-3.55q-.06-.37-.06-2.37t1.81-14.76a25,25,0,0,0-3,.94,15.69,15.69,0,0,1-.13-1.81q0-3.8,3.86-4.73a150.18,150.18,0,0,0,1.56-16.69,3.4,3.4,0,0,1-2.27-.81,3.55,3.55,0,0,1-.66-2.46,9.19,9.19,0,0,1,.5-3.14,104.17,104.17,0,0,0,14,.87,73.5,73.5,0,0,0,14.39-1.37,7.15,7.15,0,0,1-1.72,3.83,7.83,7.83,0,0,1-4.26,2.08,33.9,33.9,0,0,1-4.86.75c-2.32.21-5.19.31-8.59.31q-.06,2.25-1.93,16.38c2.57.08,4.44.13,5.6.13,3.66,0,6.25-.61,7.79-1.81a14,14,0,0,1,.12,1.62Q826.66,306.8,822.74,306.8Z" transform="translate(-169 -248.49)"></path><path class="cls-5" d="M852.94,282.42a21.75,21.75,0,0,1,.19,3.52q0,2.49-1.56,13.14l-.81,5.6q19.13-15.63,23.67-26.47a14.29,14.29,0,0,1,1.43,6.45q0,3.58-3.68,7.44a76.68,76.68,0,0,1-10.83,9,87.67,87.67,0,0,0,6.91,16.78A62.57,62.57,0,0,0,877,329.4a7.35,7.35,0,0,1-3.3.63,8.51,8.51,0,0,1-4.45-1.5,17.27,17.27,0,0,1-4.24-3.73,34.83,34.83,0,0,1-3.7-5.8,108,108,0,0,1-5.92-13.76c-.21.17-1,.7-2.27,1.59s-2.3,1.59-3,2.09a115,115,0,0,0-1.18,14q0,5,.87,7a10.61,10.61,0,0,1-5.45-3.7,9.52,9.52,0,0,1-1.59-5.48,121.52,121.52,0,0,1,1.31-12.8,185.74,185.74,0,0,0,2.3-24.79c0-1.24-.08-2.94-.25-5.1q4.74.24,5.92,2.24A6.81,6.81,0,0,1,852.94,282.42Z" transform="translate(-169 -248.49)"></path><path class="cls-5" d="M908.8,305.93l-9-.13c-1.91,0-3.8.06-5.67.19a131.56,131.56,0,0,0-1.55,16.5q0,5.36.87,7.41a10.61,10.61,0,0,1-5.45-3.7,9.52,9.52,0,0,1-1.59-5.48,63.77,63.77,0,0,1,.66-8.1q.65-5,.77-5.7c-1.41.34-2.47.63-3.17.87a19.64,19.64,0,0,1-.13-2.36q0-3.56,4.11-4.17A143.22,143.22,0,0,0,890,283.13c0-1.24-.08-2.94-.25-5.1q4.74.24,5.92,2.24a7.33,7.33,0,0,1,.81,2.15,23,23,0,0,1,.19,3.52,68,68,0,0,1-.91,8.53q-.9,6-1,6.6,11.09,0,19.93-.19a139.71,139.71,0,0,0,1.37-17.75c0-1.24-.09-2.94-.25-5.1q4.73.24,5.91,2.24a6.81,6.81,0,0,1,.81,2.15,21.75,21.75,0,0,1,.19,3.52q0,2.49-2.06,16.56t-2.05,19.71q0,5.64.87,7.69a10.65,10.65,0,0,1-5.45-3.7,9.52,9.52,0,0,1-1.59-5.48,121.52,121.52,0,0,1,1.31-12.8l.87-6.35C914,304.47,912.08,305.93,908.8,305.93Z" transform="translate(-169 -248.49)"></path><path class="cls-5" d="M927.85,325.23q0-1.19,3.43-8.81t7.94-17.5q4.51-9.87,6.13-14.1l1.37-3.55a17.09,17.09,0,0,0-2.18-2.68,10.2,10.2,0,0,1,3.68-.75c2.61,0,4.65,1.66,6.1,5Q955.69,286,958,297a4.68,4.68,0,0,1,.18.81q.12.69,1.28,6.32t1.59,7.47c.29,1.23.78,3.11,1.49,5.64a30.07,30.07,0,0,0,4.24,10A10.1,10.1,0,0,1,962,329a3.18,3.18,0,0,1-2.74-1.15,12.15,12.15,0,0,1-1.56-3.55q-.72-2.4-3-13.36-1.36,2.11-5.48,2.24l-11.08.44A143.51,143.51,0,0,0,932.9,330C929.54,328.61,927.85,327,927.85,325.23Zm21-38.42q-7.15,17-9.15,22.11H954.2Q951.28,294.66,948.9,286.81Z" transform="translate(-169 -248.49)"></path><path class="cls-5" d="M1003,293.38a46.92,46.92,0,0,0-3.27,17.09,36.68,36.68,0,0,0,3.14,15.48q3.15,6.81,6.7,9.56a1.79,1.79,0,0,1-1.37,1.37q-15.26-8.47-15.26-26.78a36.52,36.52,0,0,1,4.64-18.53A31.66,31.66,0,0,1,1011.36,279a1.34,1.34,0,0,1,1.12,1.37A28.54,28.54,0,0,0,1003,293.38Z" transform="translate(-169 -248.49)"></path><path class="cls-5" d="M1027.55,284.69l.07.75q0,2.37-1.78,15.47a168.86,168.86,0,0,0-1.77,21.89,38.37,38.37,0,0,0,.37,6.11l-1.62.12a5.93,5.93,0,0,1-4.17-1.28,5.49,5.49,0,0,1-1.37-4.17q0-2.9,2.09-17.68t2.08-21.12q0-6.31-.87-8.25a7.91,7.91,0,0,1,6.29,4.92,21.86,21.86,0,0,1,10.55-2.55q5.83,0,9.16,3.58a12.45,12.45,0,0,1,3.33,8.81,17.34,17.34,0,0,1-4.86,12q-4.85,5.33-13.07,5.32a22.6,22.6,0,0,1-3.43-.24l-.19-2a19.6,19.6,0,0,0,7.29-1.24,11.07,11.07,0,0,0,4.73-3.3,14.54,14.54,0,0,0,3.18-9.34,9,9,0,0,0-2.46-6.45q-2.46-2.58-7.13-2.58A20,20,0,0,0,1027.55,284.69Z" transform="translate(-169 -248.49)"></path><path class="cls-5" d="M1068.38,328.5a12.85,12.85,0,0,1-2.81.34c-.85,0-1.34-.31-1.46-.93q-1.12-3.86-3.36-15.1t-4.52-20.4q-2.28-9.15-4.39-12.14a8.86,8.86,0,0,1,4.36-1.62c2.16,0,3.66,1.23,4.51,3.67s2.26,9.14,4.21,20.06c.12,1,.74,4.12,1.84,9.37s1.77,8.56,2,9.93q4.11-9.09,9.15-24.25t5-19.71c4.07.74,6.1,2.28,6.1,4.6q0,2.56-3.52,10.81t-8.47,19q-5,10.74-6.82,15.85A10.82,10.82,0,0,1,1068.38,328.5Z" transform="translate(-169 -248.49)"></path><path class="cls-5" d="M1094.12,282.57a8.4,8.4,0,0,1,.44-2.67,122.79,122.79,0,0,0,15,.81,96.7,96.7,0,0,0,17.31-1.62q-.87,5.79-7.23,6.29c-2.2.2-4.42.37-6.66.49q-.06,2.43-2.08,16.82t-2,19.77q0,5.39.87,7.44a10.65,10.65,0,0,1-5.45-3.7,9.81,9.81,0,0,1-1.58-5.61,151.85,151.85,0,0,1,1.65-15.19q1.65-11.92,1.9-19.21-5.43.18-9.34.18C1095,286.37,1094.12,285.11,1094.12,282.57Z" transform="translate(-169 -248.49)"></path><path class="cls-5" d="M1134.07,322.46a46.92,46.92,0,0,0,3.27-17.09,36.68,36.68,0,0,0-3.14-15.48q-3.15-6.83-6.7-9.56a1.81,1.81,0,0,1,1.37-1.37q15.26,8.48,15.26,26.78a36.55,36.55,0,0,1-4.64,18.53,31.66,31.66,0,0,1-13.79,12.61,1.34,1.34,0,0,1-1.12-1.37A28.59,28.59,0,0,0,1134.07,322.46Z" transform="translate(-169 -248.49)"></path><path class="cls-5" d="M1176.51,324.24a12.45,12.45,0,0,1-.56-4.18q0-2.67,1.81-15.81a163.34,163.34,0,0,0,1.8-21.12c0-1.24-.08-2.94-.25-5.1q4.74.24,5.92,2.24a6.81,6.81,0,0,1,.81,2.15,19.25,19.25,0,0,1,.19,3.24q0,2.2-2,16.62a182.78,182.78,0,0,0-2.08,20.52,6.86,6.86,0,0,1,1.12-.06q13.46,0,20-1.87a9.13,9.13,0,0,1-2.46,5.61,6.94,6.94,0,0,1-5.08,2c-.58,0-2.37-.14-5.38-.41s-5.93-.4-8.75-.4a44.91,44.91,0,0,0-8.47.81A7.07,7.07,0,0,1,1176.51,324.24Z" transform="translate(-169 -248.49)"></path><path class="cls-5" d="M1201.8,282.57a8.38,8.38,0,0,1,.43-2.67,122.79,122.79,0,0,0,15,.81,96.7,96.7,0,0,0,17.31-1.62q-.87,5.79-7.22,6.29c-2.2.2-4.42.37-6.67.49q-.06,2.43-2.08,16.82t-2,19.77q0,5.39.88,7.44a10.57,10.57,0,0,1-5.45-3.7,9.74,9.74,0,0,1-1.59-5.61A151.85,151.85,0,0,1,1212,305.4q1.65-11.92,1.9-19.21c-3.61.12-6.73.18-9.34.18C1202.71,286.37,1201.8,285.11,1201.8,282.57Z" transform="translate(-169 -248.49)"></path><path class="cls-5" d="M1258.28,278a15.77,15.77,0,0,1,13.51,6.79q4.92,6.78,4.92,17.06a31,31,0,0,1-5.67,18.43,19.42,19.42,0,0,1-7.37,6.26,21.07,21.07,0,0,1-9.59,2.34,32.53,32.53,0,0,1-8.72-1.06,21.93,21.93,0,0,1-5.45-2.12l-1.75-1.06c0-.33.5-3.42,1.37-9.28a225.58,225.58,0,0,0,2.74-33.19q0-4.92-.87-7c3.45,1.16,5.61,3,6.48,5.48A23.93,23.93,0,0,1,1258.28,278Zm-12.89,45.58a20.55,20.55,0,0,0,6.66.94,15.55,15.55,0,0,0,7.6-2,16.68,16.68,0,0,0,5.92-5.38,26.68,26.68,0,0,0,4.6-15.32q0-8.54-3.79-13.77a12,12,0,0,0-10.22-5.23,18.13,18.13,0,0,0-7.47,1.43q0,3.87-1.65,19.43T1245.39,323.61Z" transform="translate(-169 -248.49)"></path><path class="cls-6" d="M519.05,392.45a9.62,9.62,0,0,1-.84-4.43q0-2.83,2.7-16.78t2.7-22.39a53.24,53.24,0,0,0-.38-5.42q7.07.27,8.84,2.38a6.35,6.35,0,0,1,1.21,2.28,15.47,15.47,0,0,1,.28,3.43q0,2.36-3,17.64t-3.11,21.77a12.6,12.6,0,0,1,1.67-.07q20.08,0,29.95-2a8.76,8.76,0,0,1-3.67,5.94,12.94,12.94,0,0,1-7.58,2.12c-.87,0-3.55-.15-8-.43s-8.85-.43-13.07-.43a94.19,94.19,0,0,0-12.64.86A8.59,8.59,0,0,1,519.05,392.45Z" transform="translate(-169 -248.49)"></path><path class="cls-6" d="M596.89,374l-8.28-.07c-3,0-5.36.05-7,.13a109,109,0,0,0-1.49,16.85q21.48,0,31.06-2a8.72,8.72,0,0,1-3.67,5.94,12.91,12.91,0,0,1-7.58,2.12c-.87,0-3.55-.15-8.05-.43s-8.85-.43-13.06-.43a94.34,94.34,0,0,0-12.65.86,7.16,7.16,0,0,1,3.53-3.77,18.37,18.37,0,0,1-.09-2.51q0-2.12,2.7-15.65a41.69,41.69,0,0,0-4.47,1,13.5,13.5,0,0,1-.18-1.92c0-2.68,1.92-4.36,5.76-5a116.5,116.5,0,0,0,2.33-17.7,6.62,6.62,0,0,1-3.4-.86,3.08,3.08,0,0,1-1-2.61,7.17,7.17,0,0,1,.74-3.34q9.58.93,20.83.93A152.66,152.66,0,0,0,614.47,344a7,7,0,0,1-2.56,4.07,14,14,0,0,1-6.37,2.21c-2.92.44-5.33.7-7.26.79q-5.21.33-12.83.33-.09,2.38-2.88,17.38c3.84.08,6.63.13,8.37.13q8.17,0,11.62-1.92a9.89,9.89,0,0,1,.19,1.72Q602.75,373.95,596.89,374Z" transform="translate(-169 -248.49)"></path><path class="cls-6" d="M622.93,348.25a6.69,6.69,0,0,1,.65-2.84q9.76.85,22.32.86a200.82,200.82,0,0,0,25.85-1.72q-1.29,6.15-10.78,6.67c-3.29.23-6.61.4-10,.53q-.1,2.58-3.12,17.84t-3,21q0,5.71,1.3,7.9-5.77-1.45-8.14-3.93a8.32,8.32,0,0,1-2.37-5.95q0-3.46,2.46-16.12A148.72,148.72,0,0,0,641,352.08q-8.09.21-14,.2Q622.92,352.28,622.93,348.25Z" transform="translate(-169 -248.49)"></path><path class="cls-6" d="M704.12,348.25a6.54,6.54,0,0,1,.65-2.84q9.76.85,22.32.86a200.94,200.94,0,0,0,25.85-1.72q-1.31,6.15-10.79,6.67c-3.28.23-6.6.4-9.95.53q-.09,2.58-3.11,17.84t-3,21q0,5.71,1.31,7.9-5.77-1.45-8.14-3.93a8.32,8.32,0,0,1-2.37-5.95q0-3.46,2.46-16.12a150.31,150.31,0,0,0,2.84-20.38q-8.1.21-13.95.2Q704.12,352.28,704.12,348.25Z" transform="translate(-169 -248.49)"></path><path class="cls-6" d="M794.7,373l-13.49-.13q-4.28,0-8.46.2-2.32,11.82-2.32,17.51t1.3,7.86q-5.78-1.45-8.14-3.93a8.16,8.16,0,0,1-2.37-5.82,48.32,48.32,0,0,1,1-8.59c.65-3.5,1-5.51,1.16-6-2.11.35-3.69.66-4.75.93a16.85,16.85,0,0,1-.18-2.51c0-2.51,2-4,6.14-4.43a110.08,110.08,0,0,0,2-19.22,52.7,52.7,0,0,0-.37-5.42q7.07.27,8.84,2.38a6.31,6.31,0,0,1,1.2,2.28,16.77,16.77,0,0,1,.28,3.73,51.33,51.33,0,0,1-1.35,9.05c-.89,4.27-1.38,6.61-1.44,7q16.56,0,29.76-.2a105.24,105.24,0,0,0,2.05-18.82,52.7,52.7,0,0,0-.37-5.42q7.06.27,8.83,2.38a6.19,6.19,0,0,1,1.21,2.28,16.77,16.77,0,0,1,.28,3.73q0,2.64-3.07,17.57t-3.07,20.91c0,4,.44,6.7,1.3,8.16q-5.76-1.45-8.13-3.93a8.16,8.16,0,0,1-2.37-5.82q0-3.33,1.95-13.57l1.3-6.74Q802,373,794.7,373Z" transform="translate(-169 -248.49)"></path><path class="cls-6" d="M860.82,374l-8.28-.07c-3,0-5.36.05-7,.13a109,109,0,0,0-1.49,16.85q21.48,0,31.06-2a8.72,8.72,0,0,1-3.67,5.94,12.91,12.91,0,0,1-7.58,2.12c-.87,0-3.55-.15-8-.43s-8.85-.43-13.06-.43a94.34,94.34,0,0,0-12.65.86,7.2,7.2,0,0,1,3.53-3.77,18.37,18.37,0,0,1-.09-2.51q0-2.12,2.7-15.65a41.69,41.69,0,0,0-4.47,1,13.5,13.5,0,0,1-.18-1.92c0-2.68,1.92-4.36,5.76-5a116.5,116.5,0,0,0,2.33-17.7,6.62,6.62,0,0,1-3.4-.86,3.08,3.08,0,0,1-1-2.61,7.17,7.17,0,0,1,.74-3.34q9.58.93,20.83.93A152.55,152.55,0,0,0,878.4,344a6.9,6.9,0,0,1-2.56,4.07,14,14,0,0,1-6.37,2.21c-2.92.44-5.33.7-7.26.79q-5.21.33-12.83.33-.09,2.38-2.88,17.38c3.84.08,6.63.13,8.37.13q8.18,0,11.62-1.92a9.89,9.89,0,0,1,.19,1.72Q866.68,373.95,860.82,374Z" transform="translate(-169 -248.49)"></path><path class="cls-6" d="M937.36,350.5l.09.79q0,2.5-2.65,16.42a127.85,127.85,0,0,0-2.65,23.22,29.15,29.15,0,0,0,.56,6.47l-2.42.13q-4.18,0-6.23-1.35a4.9,4.9,0,0,1-2-4.43q0-3.08,3.12-18.76t3.11-22.39q0-6.71-1.3-8.76a14.57,14.57,0,0,1,5.54,1.62,9.46,9.46,0,0,1,3.85,3.6,43.93,43.93,0,0,1,15.77-2.71q8.7,0,13.67,3.8t5,9.35q0,7.06-7.26,12.72T944,375.86a44.58,44.58,0,0,1-5.11-.26l-.28-2.11a40.06,40.06,0,0,0,10.88-1.32,17.81,17.81,0,0,0,7.07-3.51,12.89,12.89,0,0,0,4.74-9.9,8.27,8.27,0,0,0-3.67-6.84q-3.68-2.75-10.65-2.74A40.82,40.82,0,0,0,937.36,350.5Z" transform="translate(-169 -248.49)"></path><path class="cls-6" d="M965.63,393.5q0-1.25,5.12-9.35t11.85-18.56q6.75-10.47,9.16-15l2-3.77a22.06,22.06,0,0,0-3.26-2.84,21,21,0,0,1,5.49-.79,10.15,10.15,0,0,1,9.11,5.29q2.05,3.36,5.49,15.06a3.65,3.65,0,0,1,.28.86c.12.48.76,2.72,1.91,6.7s1.93,6.63,2.37,7.93,1.18,3.29,2.23,6a28.51,28.51,0,0,0,6.32,10.57,19.45,19.45,0,0,1-7.2,1.84,5.68,5.68,0,0,1-4.09-1.22,11.32,11.32,0,0,1-2.33-3.76q-1.07-2.55-4.51-14.17c-1.37,1.5-4.09,2.29-8.18,2.38l-16.56.46a123.37,123.37,0,0,0-7.72,17.44Q965.63,396.34,965.63,393.5Zm31.43-40.76q-10.69,18-13.67,23.45H1005A218.67,218.67,0,0,0,997.06,352.74Z" transform="translate(-169 -248.49)"></path><path class="cls-6" d="M1051.38,363.64q2.79,1.78,6.18,3.54l6.79,3.53q3.39,1.79,6.18,3.63,6.33,4.17,6.33,9.19,0,6.21-6.65,10.37t-17.53,4.16q-10.89,0-16.74-3.5t-5.86-8.32a6.87,6.87,0,0,1,3-5.78,12.6,12.6,0,0,1,7.72-2.22,11.43,11.43,0,0,1,2.51.27,9.63,9.63,0,0,0-2.88,6.64,7.34,7.34,0,0,0,3.44,6q3.44,2.51,10.33,2.51a17.76,17.76,0,0,0,8.78-2.15c2.58-1.43,3.86-3.42,3.86-6a7.13,7.13,0,0,0-2.32-4.92,23.62,23.62,0,0,0-5.77-4.26q-3.43-1.84-7.53-4.13t-7.53-4.39a20.9,20.9,0,0,1-5.77-5.15,10.3,10.3,0,0,1-2.32-6.34q0-6.28,6-9.94t17.35-3.67q9.21,0,14.46,3.47t5.25,7.2a7.61,7.61,0,0,1-2.83,6.11,11.75,11.75,0,0,1-7.77,2.38,19.26,19.26,0,0,1-3.25-.27q4.55-3.44,4.55-7.26a6.28,6.28,0,0,0-3.34-5.78,16.75,16.75,0,0,0-8.51-1.95,17.18,17.18,0,0,0-8.79,2.11,6.94,6.94,0,0,0-3.63,6.41Q1045.05,359.48,1051.38,363.64Z" transform="translate(-169 -248.49)"></path><path class="cls-6" d="M1089.13,348.25a6.69,6.69,0,0,1,.65-2.84q9.77.85,22.32.86a201.09,201.09,0,0,0,25.86-1.72q-1.31,6.15-10.79,6.67c-3.29.23-6.6.4-10,.53q-.09,2.58-3.12,17.84t-3,21q0,5.71,1.3,7.9-5.76-1.45-8.13-3.93a8.29,8.29,0,0,1-2.38-5.95q0-3.46,2.47-16.12a148.44,148.44,0,0,0,2.83-20.38q-8.09.21-14,.2C1090.5,352.28,1089.13,350.94,1089.13,348.25Z" transform="translate(-169 -248.49)"></path><path class="cls-6" d="M1176.18,383.1q2-9.28,3-17.87a127.79,127.79,0,0,0,1.07-15.59q0-7-1.3-9.18,7.72,1.85,9.67,5.81a40.58,40.58,0,0,1,14.88-2.84,28.62,28.62,0,0,1,13.35,3q5.72,3,5.67,8t-4.6,8.72q-4.56,3.69-12.93,5.68a29.36,29.36,0,0,1,11.81,4.45q5.29,3.48,5.3,8.56,0,7.8-7.67,12T1195.2,398a43.9,43.9,0,0,1-21.07-5.08C1174.19,392.55,1174.88,389.29,1176.18,383.1ZM1213,356.41a6.77,6.77,0,0,0-3.35-5.88q-3.35-2.2-9.11-2.21a33,33,0,0,0-10.79,1.72q0,4.15-2.47,20.77t-2.46,21.3a37.78,37.78,0,0,0,9.3,1.19q8,0,13.2-3.27t5.21-8.82q0-4.15-5.34-7.29t-14.84-3.41l-.28-2.37q9.86-.87,15.39-4.46T1213,356.41Z" transform="translate(-169 -248.49)"></path><path class="cls-6" d="M1266.11,374l-8.28-.07c-3,0-5.36.05-7,.13a107.75,107.75,0,0,0-1.49,16.85q21.48,0,31.06-2a8.72,8.72,0,0,1-3.67,5.94,12.94,12.94,0,0,1-7.58,2.12c-.87,0-3.55-.15-8-.43s-8.85-.43-13.06-.43a94.22,94.22,0,0,0-12.65.86,7.2,7.2,0,0,1,3.53-3.77,18.37,18.37,0,0,1-.09-2.51q0-2.12,2.7-15.65a41.69,41.69,0,0,0-4.47,1,13.5,13.5,0,0,1-.18-1.92c0-2.68,1.92-4.36,5.76-5a116.5,116.5,0,0,0,2.33-17.7,6.56,6.56,0,0,1-3.4-.86,3.08,3.08,0,0,1-1-2.61,7.17,7.17,0,0,1,.74-3.34q9.59.93,20.83.93a152.66,152.66,0,0,0,21.49-1.46,7,7,0,0,1-2.56,4.07,14.05,14.05,0,0,1-6.37,2.21q-4.38.66-7.26.79-5.2.33-12.83.33-.09,2.38-2.88,17.38c3.84.08,6.63.13,8.37.13q8.17,0,11.62-1.92a9.89,9.89,0,0,1,.19,1.72Q1272,373.95,1266.11,374Z" transform="translate(-169 -248.49)"></path><path class="cls-7" d="M550.69,425.77H540.56v33.28a6.08,6.08,0,0,1-1.28,4.26A4.28,4.28,0,0,1,536,464.7a4.33,4.33,0,0,1-3.36-1.4,6.12,6.12,0,0,1-1.3-4.25V425.77H521.19a5.1,5.1,0,0,1-3.53-1A3.56,3.56,0,0,1,516.5,422a3.52,3.52,0,0,1,1.2-2.81,5.23,5.23,0,0,1,3.49-1h29.5a5.19,5.19,0,0,1,3.58,1.06,3.59,3.59,0,0,1,1.17,2.78,3.52,3.52,0,0,1-1.19,2.77A5.24,5.24,0,0,1,550.69,425.77Z" transform="translate(-169 -248.49)"></path><path class="cls-7" d="M570.28,423v13.13h20V423a6.12,6.12,0,0,1,1.27-4.21,4.25,4.25,0,0,1,3.33-1.41,4.43,4.43,0,0,1,3.39,1.39,6,6,0,0,1,1.29,4.23v36.1a6,6,0,0,1-1.31,4.25,4.39,4.39,0,0,1-3.37,1.4,4.24,4.24,0,0,1-3.35-1.42,6.27,6.27,0,0,1-1.25-4.23V443.64h-20v15.41A6.07,6.07,0,0,1,569,463.3a4.41,4.41,0,0,1-3.38,1.4,4.22,4.22,0,0,1-3.34-1.42,6.27,6.27,0,0,1-1.25-4.23V423a6.17,6.17,0,0,1,1.24-4.21,4.22,4.22,0,0,1,3.35-1.41,4.43,4.43,0,0,1,3.4,1.39A6,6,0,0,1,570.28,423Z" transform="translate(-169 -248.49)"></path><path class="cls-7" d="M639.75,425.27H618.84v11.25h19.25a4.58,4.58,0,0,1,3.18,1,3.27,3.27,0,0,1,1,2.52,3.33,3.33,0,0,1-1,2.54,4.47,4.47,0,0,1-3.19,1H618.84v13h21.63a4.77,4.77,0,0,1,3.3,1,3.5,3.5,0,0,1,1.11,2.71,3.42,3.42,0,0,1-1.11,2.64,4.77,4.77,0,0,1-3.3,1H615.25c-2,0-3.47-.44-4.36-1.34a6,6,0,0,1-1.33-4.34V423.8a7.67,7.67,0,0,1,.6-3.27,3.63,3.63,0,0,1,1.86-1.84,7.71,7.71,0,0,1,3.23-.58h24.5a4.8,4.8,0,0,1,3.3,1,3.66,3.66,0,0,1,0,5.19A4.75,4.75,0,0,1,639.75,425.27Z" transform="translate(-169 -248.49)"></path><path class="cls-7" d="M686,446.08h-8.5v13a6.09,6.09,0,0,1-1.31,4.22,4.64,4.64,0,0,1-6.69,0,6.07,6.07,0,0,1-1.28-4.17V423.8q0-3.06,1.41-4.38a6.4,6.4,0,0,1,4.47-1.31H686a31.36,31.36,0,0,1,8.13.81,12.15,12.15,0,0,1,4.86,2.6,11.75,11.75,0,0,1,3.11,4.43,15.8,15.8,0,0,1,1.06,5.91q0,7-4.31,10.61T686,446.08Zm-2.25-21h-6.25v14h6.25a18.64,18.64,0,0,0,5.49-.69,6.4,6.4,0,0,0,3.36-2.25,6.7,6.7,0,0,0,1.15-4.09,6.94,6.94,0,0,0-1.78-4.94Q690,425.09,683.78,425.08Z" transform="translate(-169 -248.49)"></path><path class="cls-7" d="M723.41,444.33h-3.25v14.72a6.13,6.13,0,0,1-1.28,4.28,4.36,4.36,0,0,1-3.35,1.37,4.29,4.29,0,0,1-3.44-1.43,6.4,6.4,0,0,1-1.21-4.22V423.8a4.86,4.86,0,0,1,5.68-5.69h15.1a45.09,45.09,0,0,1,5.34.27,13.28,13.28,0,0,1,4,1.07,11.53,11.53,0,0,1,3.81,2.6,11.19,11.19,0,0,1,2.52,3.92,13.14,13.14,0,0,1,.86,4.73,11.47,11.47,0,0,1-2.89,8.19q-2.89,3.06-8.77,4.35a16.77,16.77,0,0,1,4.72,3.87,40.07,40.07,0,0,1,4,5.45,42.16,42.16,0,0,1,2.75,5.22,10.4,10.4,0,0,1,1,3.21,3.22,3.22,0,0,1-.58,1.79,4,4,0,0,1-1.58,1.41,5,5,0,0,1-2.31.51,4.49,4.49,0,0,1-2.62-.73,7,7,0,0,1-1.83-1.86c-.51-.75-1.2-1.85-2.08-3.31l-3.72-6.19a33.45,33.45,0,0,0-3.58-5.19,8.8,8.8,0,0,0-3.2-2.43A10.94,10.94,0,0,0,723.41,444.33Zm5.31-19.25h-8.56v12.59h8.31a23,23,0,0,0,5.62-.58,6.57,6.57,0,0,0,3.49-2,5.69,5.69,0,0,0,1.2-3.83,5.89,5.89,0,0,0-1-3.36,5.83,5.83,0,0,0-2.68-2.17C734,425.31,731.91,425.08,728.72,425.08Z" transform="translate(-169 -248.49)"></path><path class="cls-7" d="M787.16,425.27H766.25v11.25H785.5a4.55,4.55,0,0,1,3.17,1,3.24,3.24,0,0,1,1.05,2.52,3.33,3.33,0,0,1-1,2.54,4.47,4.47,0,0,1-3.19,1H766.25v13h21.63a4.76,4.76,0,0,1,3.29,1,3.5,3.5,0,0,1,1.11,2.71,3.42,3.42,0,0,1-1.11,2.64,4.76,4.76,0,0,1-3.29,1H762.66c-2,0-3.48-.44-4.36-1.34a6,6,0,0,1-1.33-4.34V423.8a7.84,7.84,0,0,1,.59-3.27,3.7,3.7,0,0,1,1.86-1.84,7.76,7.76,0,0,1,3.24-.58h24.5a4.76,4.76,0,0,1,3.29,1,3.66,3.66,0,0,1,0,5.19A4.71,4.71,0,0,1,787.16,425.27Z" transform="translate(-169 -248.49)"></path><path class="cls-7" d="M834.47,450.17a13.45,13.45,0,0,1-2.14,7.47,14.24,14.24,0,0,1-6.27,5.19,23.47,23.47,0,0,1-9.78,1.87,22,22,0,0,1-11.19-2.56,14.91,14.91,0,0,1-5.07-4.92,11.12,11.12,0,0,1-2-6,4.07,4.07,0,0,1,4.16-4.1,3.48,3.48,0,0,1,2.48.94,7.3,7.3,0,0,1,1.74,2.78,18.27,18.27,0,0,0,1.89,3.66,7.71,7.71,0,0,0,2.86,2.42,10.63,10.63,0,0,0,4.84.95,11,11,0,0,0,6.71-1.92,5.79,5.79,0,0,0,2.57-4.8,5.06,5.06,0,0,0-1.39-3.7,8.87,8.87,0,0,0-3.59-2.17q-2.21-.75-5.89-1.6a43.38,43.38,0,0,1-8.27-2.7,13.33,13.33,0,0,1-5.28-4.22,11,11,0,0,1-1.95-6.64,11.45,11.45,0,0,1,2.06-6.72,13,13,0,0,1,6-4.51,24.48,24.48,0,0,1,9.19-1.58,22.62,22.62,0,0,1,7.29,1.05,15.1,15.1,0,0,1,5.11,2.78,11.41,11.41,0,0,1,3,3.64,8.33,8.33,0,0,1,.94,3.72,4.39,4.39,0,0,1-1.17,3,3.73,3.73,0,0,1-2.92,1.33A3.39,3.39,0,0,1,826,432a10.59,10.59,0,0,1-1.79-2.61,11.88,11.88,0,0,0-3-4c-1.17-1-3-1.46-5.63-1.46a9.73,9.73,0,0,0-5.79,1.58,4.6,4.6,0,0,0-2.21,3.8,3.83,3.83,0,0,0,.75,2.37,6.33,6.33,0,0,0,2.06,1.72,14.15,14.15,0,0,0,2.66,1.13c.9.27,2.38.66,4.44,1.18q3.87.92,7,2a21.37,21.37,0,0,1,5.35,2.66,11,11,0,0,1,3.44,3.95A12.73,12.73,0,0,1,834.47,450.17Z" transform="translate(-169 -248.49)"></path><path class="cls-7" d="M872.53,425.27h-20.9v11.25h19.25a4.57,4.57,0,0,1,3.17,1,3.23,3.23,0,0,1,1,2.52,3.33,3.33,0,0,1-1,2.54,4.44,4.44,0,0,1-3.18,1H851.63v13h21.62a4.77,4.77,0,0,1,3.3,1,3.5,3.5,0,0,1,1.11,2.71,3.42,3.42,0,0,1-1.11,2.64,4.77,4.77,0,0,1-3.3,1H848c-2,0-3.47-.44-4.36-1.34a6,6,0,0,1-1.33-4.34V423.8a7.67,7.67,0,0,1,.6-3.27,3.63,3.63,0,0,1,1.86-1.84,7.71,7.71,0,0,1,3.23-.58h24.5a4.8,4.8,0,0,1,3.3,1,3.66,3.66,0,0,1,0,5.19A4.75,4.75,0,0,1,872.53,425.27Z" transform="translate(-169 -248.49)"></path><path class="cls-7" d="M897.13,422.89l17.84,27V422.64a6,6,0,0,1,1.14-4,3.84,3.84,0,0,1,3.08-1.33,4,4,0,0,1,3.15,1.33,5.86,5.86,0,0,1,1.16,4v36q0,6-5,6a6.64,6.64,0,0,1-2.25-.36,5.48,5.48,0,0,1-1.87-1.14,11.06,11.06,0,0,1-1.63-1.82c-.5-.7-1-1.42-1.5-2.14l-17.41-26.69v26.84a5.75,5.75,0,0,1-1.21,4,4.34,4.34,0,0,1-6.29,0,5.83,5.83,0,0,1-1.18-3.95V424.05a9.83,9.83,0,0,1,.5-3.53,5,5,0,0,1,2-2.3,5.35,5.35,0,0,1,3-.89,5,5,0,0,1,2.15.41,5.16,5.16,0,0,1,1.56,1.09,11.26,11.26,0,0,1,1.37,1.78Z" transform="translate(-169 -248.49)"></path><path class="cls-7" d="M963.41,425.77H953.28v33.28a6.08,6.08,0,0,1-1.28,4.26,4.28,4.28,0,0,1-3.31,1.39,4.33,4.33,0,0,1-3.36-1.4,6.07,6.07,0,0,1-1.3-4.25V425.77H933.91a5.1,5.1,0,0,1-3.53-1,3.56,3.56,0,0,1-1.16-2.77,3.52,3.52,0,0,1,1.2-2.81,5.21,5.21,0,0,1,3.49-1h29.5a5.21,5.21,0,0,1,3.58,1.06,3.59,3.59,0,0,1,1.17,2.78,3.52,3.52,0,0,1-1.19,2.77A5.24,5.24,0,0,1,963.41,425.77Z" transform="translate(-169 -248.49)"></path><path class="cls-7" d="M1019,458.74l-2.19-5.75H998.16L996,458.86a20.09,20.09,0,0,1-2.19,4.64,3.47,3.47,0,0,1-3,1.2,4.34,4.34,0,0,1-3.09-1.28,3.89,3.89,0,0,1-1.34-2.9,6.43,6.43,0,0,1,.31-1.94c.21-.67.55-1.59,1-2.78l11.72-29.75c.33-.86.73-1.88,1.2-3.08a15.55,15.55,0,0,1,1.5-3,6,6,0,0,1,2.1-1.93,6.39,6.39,0,0,1,3.2-.73,6.46,6.46,0,0,1,3.23.73,6.19,6.19,0,0,1,2.1,1.89,13.24,13.24,0,0,1,1.34,2.49c.36.88.83,2.07,1.39,3.55l12,29.56a14.81,14.81,0,0,1,1.41,4.9,4.1,4.1,0,0,1-1.33,2.93,4.4,4.4,0,0,1-3.21,1.32,4.16,4.16,0,0,1-1.87-.39,3.76,3.76,0,0,1-1.31-1.06,9.21,9.21,0,0,1-1.14-2.06C1019.61,460.26,1019.26,459.44,1019,458.74ZM1000.59,446h13.69l-6.9-18.91Z" transform="translate(-169 -248.49)"></path><path class="cls-7" d="M1047.78,422.89l17.85,27V422.64a6,6,0,0,1,1.14-4,3.82,3.82,0,0,1,3.07-1.33,4,4,0,0,1,3.16,1.33,5.91,5.91,0,0,1,1.16,4v36q0,6-5,6a6.56,6.56,0,0,1-2.25-.36,5.62,5.62,0,0,1-1.88-1.14,11.48,11.48,0,0,1-1.62-1.82c-.5-.7-1-1.42-1.5-2.14l-17.41-26.69v26.84a5.75,5.75,0,0,1-1.22,4,4.33,4.33,0,0,1-6.28,0,5.83,5.83,0,0,1-1.19-3.95V424.05a10.06,10.06,0,0,1,.5-3.53,5.08,5.08,0,0,1,2-2.3,5.41,5.41,0,0,1,3-.89,5,5,0,0,1,2.14.41,4.93,4.93,0,0,1,1.56,1.09,11.27,11.27,0,0,1,1.38,1.78Z" transform="translate(-169 -248.49)"></path><path class="cls-7" d="M1090.06,418.11h12.1a32.27,32.27,0,0,1,8.09.88,14.83,14.83,0,0,1,6.13,3.28q7.15,6.12,7.15,18.62a36.46,36.46,0,0,1-.72,7.53,22.23,22.23,0,0,1-2.22,6.14,18.87,18.87,0,0,1-3.84,4.89,15.83,15.83,0,0,1-4,2.66,18.18,18.18,0,0,1-4.7,1.41,36,36,0,0,1-5.68.4h-12.09a7.55,7.55,0,0,1-3.81-.76,3.53,3.53,0,0,1-1.67-2.16,13.74,13.74,0,0,1-.39-3.61V423.8a4.86,4.86,0,0,1,5.68-5.69Zm3.6,7.34v31.1h7c1.54,0,2.75,0,3.62-.13a11.29,11.29,0,0,0,2.72-.62,7.44,7.44,0,0,0,2.44-1.41q4.65-3.93,4.66-13.56,0-6.78-2.05-10.16a9.1,9.1,0,0,0-5-4.29,24.66,24.66,0,0,0-7.25-.93Z" transform="translate(-169 -248.49)"></path><path class="cls-7" d="M1177.44,425.77h-10.13v33.28a6.08,6.08,0,0,1-1.28,4.26,4.28,4.28,0,0,1-3.31,1.39,4.33,4.33,0,0,1-3.36-1.4,6.12,6.12,0,0,1-1.3-4.25V425.77h-10.12a5.1,5.1,0,0,1-3.53-1,3.56,3.56,0,0,1-1.16-2.77,3.52,3.52,0,0,1,1.2-2.81,5.23,5.23,0,0,1,3.49-1h29.5a5.19,5.19,0,0,1,3.58,1.06,3.59,3.59,0,0,1,1.17,2.78,3.52,3.52,0,0,1-1.19,2.77A5.24,5.24,0,0,1,1177.44,425.77Z" transform="translate(-169 -248.49)"></path><path class="cls-7" d="M1197,423v13.13h20V423a6.12,6.12,0,0,1,1.27-4.21,4.25,4.25,0,0,1,3.33-1.41,4.43,4.43,0,0,1,3.39,1.39,6,6,0,0,1,1.29,4.23v36.1a6,6,0,0,1-1.31,4.25,4.39,4.39,0,0,1-3.37,1.4,4.24,4.24,0,0,1-3.35-1.42,6.27,6.27,0,0,1-1.25-4.23V443.64h-20v15.41a6.07,6.07,0,0,1-1.31,4.25,4.41,4.41,0,0,1-3.38,1.4,4.22,4.22,0,0,1-3.34-1.42,6.27,6.27,0,0,1-1.25-4.23V423a6.17,6.17,0,0,1,1.24-4.21,4.22,4.22,0,0,1,3.35-1.41,4.43,4.43,0,0,1,3.4,1.39A6,6,0,0,1,1197,423Z" transform="translate(-169 -248.49)"></path><path class="cls-7" d="M1266.5,425.27h-20.91v11.25h19.25a4.58,4.58,0,0,1,3.18,1,3.27,3.27,0,0,1,1,2.52,3.33,3.33,0,0,1-1,2.54,4.47,4.47,0,0,1-3.19,1h-19.25v13h21.63a4.77,4.77,0,0,1,3.3,1,3.5,3.5,0,0,1,1.11,2.71,3.42,3.42,0,0,1-1.11,2.64,4.77,4.77,0,0,1-3.3,1H1242c-2,0-3.47-.44-4.36-1.34a6,6,0,0,1-1.33-4.34V423.8a7.67,7.67,0,0,1,.6-3.27,3.63,3.63,0,0,1,1.86-1.84,7.71,7.71,0,0,1,3.23-.58h24.5a4.8,4.8,0,0,1,3.3,1,3.66,3.66,0,0,1,0,5.19A4.75,4.75,0,0,1,1266.5,425.27Z" transform="translate(-169 -248.49)"></path><path class="cls-7" d="M556.41,489.6H533.56v14.65h19.1a5.73,5.73,0,0,1,4,1.19,4.12,4.12,0,0,1,1.31,3.19,4,4,0,0,1-1.33,3.16,5.8,5.8,0,0,1-3.94,1.17h-19.1v18.87c0,2.4-.55,4.17-1.63,5.33a5.86,5.86,0,0,1-8.35,0q-1.64-1.75-1.63-5.31V487.77a9.61,9.61,0,0,1,.75-4.09,4.6,4.6,0,0,1,2.32-2.3,9.81,9.81,0,0,1,4-.72h27.35a6,6,0,0,1,4.12,1.23,4.15,4.15,0,0,1,1.35,3.22,4.2,4.2,0,0,1-1.35,3.26A6,6,0,0,1,556.41,489.6Z" transform="translate(-169 -248.49)"></path><path class="cls-7" d="M570.59,514.25V486.71a7.63,7.63,0,0,1,1.58-5.27,5.33,5.33,0,0,1,4.16-1.76,5.48,5.48,0,0,1,4.28,1.76,7.68,7.68,0,0,1,1.58,5.27v28.17a25.86,25.86,0,0,0,1.07,8,9.28,9.28,0,0,0,3.81,5c1.82,1.19,4.38,1.78,7.66,1.78q6.79,0,9.61-3.61t2.81-11v-28.4q0-3.56,1.56-5.29a5.35,5.35,0,0,1,4.18-1.74,5.52,5.52,0,0,1,4.24,1.74q1.62,1.74,1.62,5.29v27.54a40.8,40.8,0,0,1-1.31,11.21,17.24,17.24,0,0,1-4.94,7.89,19,19,0,0,1-7.26,4.22,31.7,31.7,0,0,1-9.69,1.33,40,40,0,0,1-11.37-1.43,18.14,18.14,0,0,1-7.77-4.41A17.73,17.73,0,0,1,572,525.4,39.21,39.21,0,0,1,570.59,514.25Z" transform="translate(-169 -248.49)"></path><path class="cls-7" d="M668.48,490.23H655.82v41.6c0,2.4-.53,4.17-1.6,5.33a5.38,5.38,0,0,1-4.14,1.74,5.46,5.46,0,0,1-4.2-1.76,7.6,7.6,0,0,1-1.62-5.31v-41.6H631.6a6.4,6.4,0,0,1-4.41-1.31,4.43,4.43,0,0,1-1.45-3.46,4.37,4.37,0,0,1,1.51-3.51,6.49,6.49,0,0,1,4.35-1.29h36.88A6.47,6.47,0,0,1,673,482a4.45,4.45,0,0,1,1.47,3.47,4.39,4.39,0,0,1-1.49,3.46A6.57,6.57,0,0,1,668.48,490.23Z" transform="translate(-169 -248.49)"></path><path class="cls-7" d="M681.37,514.25V486.71a7.68,7.68,0,0,1,1.58-5.27,5.33,5.33,0,0,1,4.16-1.76,5.48,5.48,0,0,1,4.28,1.76,7.68,7.68,0,0,1,1.58,5.27v28.17a25.86,25.86,0,0,0,1.07,8,9.28,9.28,0,0,0,3.81,5c1.82,1.19,4.38,1.78,7.66,1.78q6.79,0,9.61-3.61t2.81-11v-28.4q0-3.56,1.56-5.29a5.35,5.35,0,0,1,4.18-1.74,5.52,5.52,0,0,1,4.24,1.74q1.62,1.74,1.62,5.29v27.54a40.41,40.41,0,0,1-1.31,11.21,17.24,17.24,0,0,1-4.94,7.89,19,19,0,0,1-7.26,4.22,31.66,31.66,0,0,1-9.69,1.33A40,40,0,0,1,695,537.47a18.14,18.14,0,0,1-7.77-4.41,17.73,17.73,0,0,1-4.42-7.66A39.21,39.21,0,0,1,681.37,514.25Z" transform="translate(-169 -248.49)"></path><path class="cls-7" d="M757.66,513.43h-4.07v18.4c0,2.42-.53,4.21-1.6,5.35a5.44,5.44,0,0,1-4.18,1.72,5.3,5.3,0,0,1-4.29-1.8,7.91,7.91,0,0,1-1.53-5.27V487.77q0-3.75,1.68-5.43t5.43-1.68H768a57.73,57.73,0,0,1,6.68.33,16.62,16.62,0,0,1,5,1.35,14.43,14.43,0,0,1,7.91,8.14,16.27,16.27,0,0,1,1.07,5.92q0,6.41-3.61,10.23t-11,5.43a21.16,21.16,0,0,1,5.9,4.85,48.76,48.76,0,0,1,5,6.81,50.8,50.8,0,0,1,3.44,6.53,12.87,12.87,0,0,1,1.23,4,4.12,4.12,0,0,1-.72,2.25,5,5,0,0,1-2,1.75,6.19,6.19,0,0,1-2.89.65,5.66,5.66,0,0,1-3.28-.92,8.83,8.83,0,0,1-2.28-2.32q-1-1.41-2.6-4.14l-4.65-7.74a42.81,42.81,0,0,0-4.47-6.48,11,11,0,0,0-4-3A13.67,13.67,0,0,0,757.66,513.43Zm6.64-24.06H753.59v15.74H764a29.23,29.23,0,0,0,7-.72,8.2,8.2,0,0,0,4.35-2.46,7.11,7.11,0,0,0,1.51-4.79,7.45,7.45,0,0,0-1.21-4.2,7.35,7.35,0,0,0-3.36-2.71Q770.27,489.38,764.3,489.37Z" transform="translate(-169 -248.49)"></path><path class="cls-7" d="M837.34,489.6H811.21v14.07h24.06a5.71,5.71,0,0,1,4,1.19,4,4,0,0,1,1.31,3.14,4.2,4.2,0,0,1-1.29,3.18,5.61,5.61,0,0,1-4,1.24H811.21V528.7h27a5.92,5.92,0,0,1,4.12,1.27,4.36,4.36,0,0,1,1.39,3.38,4.23,4.23,0,0,1-1.39,3.3,5.88,5.88,0,0,1-4.12,1.27H806.72c-2.53,0-4.34-.56-5.45-1.68s-1.66-2.93-1.66-5.43v-43a9.78,9.78,0,0,1,.74-4.09,4.62,4.62,0,0,1,2.33-2.3,9.77,9.77,0,0,1,4-.72h30.62a6,6,0,0,1,4.13,1.23,4.17,4.17,0,0,1,1.34,3.22,4.23,4.23,0,0,1-1.34,3.26A6,6,0,0,1,837.34,489.6Z" transform="translate(-169 -248.49)"></path><path class="cls-7" d="M910.16,490.23H897.5v41.6c0,2.4-.53,4.17-1.6,5.33a5.38,5.38,0,0,1-4.14,1.74,5.46,5.46,0,0,1-4.2-1.76,7.6,7.6,0,0,1-1.62-5.31v-41.6H873.28a6.4,6.4,0,0,1-4.41-1.31,4.43,4.43,0,0,1-1.45-3.46,4.37,4.37,0,0,1,1.51-3.51,6.49,6.49,0,0,1,4.35-1.29h36.88a6.47,6.47,0,0,1,4.47,1.33,4.44,4.44,0,0,1,1.46,3.47,4.39,4.39,0,0,1-1.48,3.46A6.57,6.57,0,0,1,910.16,490.23Z" transform="translate(-169 -248.49)"></path><path class="cls-7" d="M934.65,486.71v16.41h25V486.71a7.68,7.68,0,0,1,1.58-5.27,5.34,5.34,0,0,1,4.16-1.76,5.53,5.53,0,0,1,4.24,1.74q1.62,1.74,1.62,5.29v45.12a7.55,7.55,0,0,1-1.64,5.31,5.52,5.52,0,0,1-4.22,1.76,5.28,5.28,0,0,1-4.18-1.78,7.81,7.81,0,0,1-1.56-5.29V512.57h-25v19.26a7.55,7.55,0,0,1-1.64,5.31,5.52,5.52,0,0,1-4.22,1.76,5.26,5.26,0,0,1-4.18-1.78,7.81,7.81,0,0,1-1.56-5.29V486.71a7.78,7.78,0,0,1,1.54-5.27,5.31,5.31,0,0,1,4.2-1.76,5.53,5.53,0,0,1,4.24,1.74Q934.65,483.16,934.65,486.71Z" transform="translate(-169 -248.49)"></path><path class="cls-7" d="M1021.49,489.6H995.35v14.07h24.07a5.68,5.68,0,0,1,4,1.19,4,4,0,0,1,1.31,3.14,4.2,4.2,0,0,1-1.29,3.18,5.6,5.6,0,0,1-4,1.24H995.35V528.7h27a5.92,5.92,0,0,1,4.12,1.27,4.36,4.36,0,0,1,1.39,3.38,4.23,4.23,0,0,1-1.39,3.3,5.88,5.88,0,0,1-4.12,1.27H990.86c-2.53,0-4.34-.56-5.45-1.68s-1.66-2.93-1.66-5.43v-43a9.78,9.78,0,0,1,.74-4.09,4.62,4.62,0,0,1,2.33-2.3,9.77,9.77,0,0,1,4-.72h30.63a6,6,0,0,1,4.12,1.23,4.17,4.17,0,0,1,1.34,3.22,4.23,4.23,0,0,1-1.34,3.26A6,6,0,0,1,1021.49,489.6Z" transform="translate(-169 -248.49)"></path><path class="cls-7" d="M1100.63,520.74a16.85,16.85,0,0,1-2.68,9.33,17.8,17.8,0,0,1-7.83,6.49,29.42,29.42,0,0,1-12.23,2.34q-8.48,0-14-3.2a18.62,18.62,0,0,1-6.35-6.16,13.91,13.91,0,0,1-2.44-7.48,5.06,5.06,0,0,1,5.19-5.11,4.42,4.42,0,0,1,3.11,1.17,9.32,9.32,0,0,1,2.17,3.47,23.15,23.15,0,0,0,2.36,4.58,9.63,9.63,0,0,0,3.57,3,13.17,13.17,0,0,0,6.06,1.19A13.67,13.67,0,0,0,1086,528a7.22,7.22,0,0,0,3.22-6,6.32,6.32,0,0,0-1.74-4.63,11.19,11.19,0,0,0-4.49-2.72c-1.84-.62-4.29-1.29-7.36-2a53.82,53.82,0,0,1-10.34-3.38,16.79,16.79,0,0,1-6.6-5.27,13.76,13.76,0,0,1-2.44-8.3,14.26,14.26,0,0,1,2.58-8.4,16.31,16.31,0,0,1,7.46-5.65,30.67,30.67,0,0,1,11.49-2,28.51,28.51,0,0,1,9.12,1.31,19.14,19.14,0,0,1,6.38,3.48A14.32,14.32,0,0,1,1097,489a10.4,10.4,0,0,1,1.18,4.65,5.49,5.49,0,0,1-1.47,3.73,4.69,4.69,0,0,1-3.65,1.66,4.22,4.22,0,0,1-3-1,13.14,13.14,0,0,1-2.24-3.26,15,15,0,0,0-3.75-5.06q-2.19-1.82-7-1.82a12.12,12.12,0,0,0-7.24,2,5.72,5.72,0,0,0-2.76,4.74,4.83,4.83,0,0,0,.94,3,8.05,8.05,0,0,0,2.58,2.15,17.32,17.32,0,0,0,3.32,1.41c1.12.33,3,.83,5.55,1.48a88.88,88.88,0,0,1,8.77,2.5,26.86,26.86,0,0,1,6.68,3.32,13.7,13.7,0,0,1,4.29,4.94A15.8,15.8,0,0,1,1100.63,520.74Z" transform="translate(-169 -248.49)"></path><path class="cls-7" d="M1147.11,531.44l-2.73-7.19h-23.29l-2.73,7.34a26.26,26.26,0,0,1-2.73,5.81,4.37,4.37,0,0,1-3.71,1.5,5.43,5.43,0,0,1-3.87-1.6,4.91,4.91,0,0,1-1.68-3.63,8.16,8.16,0,0,1,.39-2.43c.26-.83.69-2,1.29-3.47l14.65-37.19c.41-1.07.91-2.35,1.5-3.85a19.27,19.27,0,0,1,1.88-3.73,7.54,7.54,0,0,1,2.61-2.4,9.26,9.26,0,0,1,8,0,7.85,7.85,0,0,1,2.62,2.36,17.22,17.22,0,0,1,1.68,3.11q.68,1.65,1.73,4.43l15,37a18.6,18.6,0,0,1,1.75,6.14,5.06,5.06,0,0,1-1.66,3.65,5.43,5.43,0,0,1-4,1.66,5.12,5.12,0,0,1-2.34-.49,4.87,4.87,0,0,1-1.65-1.33,12.47,12.47,0,0,1-1.42-2.58C1147.91,533.35,1147.47,532.32,1147.11,531.44Zm-23-15.9h17.11l-8.63-23.63Z" transform="translate(-169 -248.49)"></path><path class="cls-7" d="M1187.34,529.29l-9.17-36.48v39.53a7.18,7.18,0,0,1-1.47,4.92,5.37,5.37,0,0,1-7.71,0,7.12,7.12,0,0,1-1.49-4.94V487q0-3.75,2-5a9.32,9.32,0,0,1,5.28-1.31h3.59a13.79,13.79,0,0,1,4.71.58,4,4,0,0,1,2.17,2.11,33,33,0,0,1,1.6,5l8.32,31.37,8.32-31.37a33,33,0,0,1,1.6-5,4,4,0,0,1,2.17-2.11,13.71,13.71,0,0,1,4.71-.58h3.59a9.28,9.28,0,0,1,5.27,1.31c1.3.87,2,2.55,2,5v45.32a7.18,7.18,0,0,1-1.47,4.92,5,5,0,0,1-3.93,1.64,4.87,4.87,0,0,1-3.78-1.64,7.13,7.13,0,0,1-1.49-4.92V492.81l-9.18,36.48q-.9,3.56-1.46,5.21a7.25,7.25,0,0,1-2.09,3,6.1,6.1,0,0,1-4.22,1.37,6.18,6.18,0,0,1-5.63-3.13,12.92,12.92,0,0,1-1.23-3C1188,531.64,1187.66,530.49,1187.34,529.29Z" transform="translate(-169 -248.49)"></path><path class="cls-7" d="M1272.38,489.6h-26.13v14.07h24.06a5.71,5.71,0,0,1,4,1.19,4,4,0,0,1,1.31,3.14,4.2,4.2,0,0,1-1.29,3.18,5.61,5.61,0,0,1-4,1.24h-24.06V528.7h27a5.94,5.94,0,0,1,4.12,1.27,4.36,4.36,0,0,1,1.39,3.38,4.23,4.23,0,0,1-1.39,3.3,5.89,5.89,0,0,1-4.12,1.27h-31.52c-2.53,0-4.34-.56-5.45-1.68s-1.66-2.93-1.66-5.43v-43a9.78,9.78,0,0,1,.74-4.09,4.62,4.62,0,0,1,2.33-2.3,9.77,9.77,0,0,1,4-.72h30.62a5.93,5.93,0,0,1,4.12,1.23,4.15,4.15,0,0,1,1.35,3.22,4.2,4.2,0,0,1-1.35,3.26A5.93,5.93,0,0,1,1272.38,489.6Z" transform="translate(-169 -248.49)"></path></svg>