<svg xmlns="http://www.w3.org/2000/svg" id="Layer_1" data-name="Layer 1" viewBox="0 0 1085.68 286.51"><defs><style>.cls-1{fill:#a6c842;}.cls-1,.cls-2,.cls-3{stroke:#fff;stroke-miterlimit:10;}.cls-2{fill:#4da042;}.cls-3{fill:#0e6139;}.cls-4{fill:#fbb03b;}.cls-5{fill:#fff;}</style></defs><path class="cls-1" d="M294,386.3h6.55s9,3.27,8.19-18.83S294,330.63,294,330.63s-13.91,14.74-14.73,36.84,8.18,18.83,8.18,18.83Z" transform="translate(-194.77 -227.49)"></path><path class="cls-2" d="M294.37,407.58S293.55,419,282.91,419s-14.73-2.46-26.19,2.46c0,0,5.73-12.28,18.82-13.1s13.12-3.67,13.12-3.67S294.37,404.31,294.37,407.58Z" transform="translate(-194.77 -227.49)"></path><path class="cls-3" d="M284.55,411.67s-32.74,4.91-46.66-9c0,0,15.55,2.45,27,0s16.38-2.46,16.38-2.46l9.82,8.19S289.46,410.85,284.55,411.67Z" transform="translate(-194.77 -227.49)"></path><path class="cls-3" d="M290.28,410.85s-17.19,0-29.47-9-13.92-8.19-25.38-6.55c0,0,7.37-9,22.92-5.73S274.73,392,274.73,392l9,4.91S297.65,405.12,290.28,410.85Z" transform="translate(-194.77 -227.49)"></path><path class="cls-3" d="M291.1,408.4s-27-9-36-25.38-17.19-18.83-22.1-18.83,17.62-4.59,34.59,9.17,12.07,7.21,12.07,7.21l14.73,22.1S295.19,409.22,291.1,408.4Z" transform="translate(-194.77 -227.49)"></path><path class="cls-2" d="M291.92,405.12s-19.65-2.45-23.74-18,7.36-23.73-11.46-41.74c0,0,21.28,9,31.1,25.37s6.55,17.19,6.55,17.19-1.63,9.83-.82,12.28S291.92,405.12,291.92,405.12Z" transform="translate(-194.77 -227.49)"></path><path class="cls-2" d="M294.21,407.58S295,419,305.67,419s14.74-2.46,26.2,2.46c0,0-5.73-12.28-18.83-13.1s-13.11-3.67-13.11-3.67S294.21,404.31,294.21,407.58Z" transform="translate(-194.77 -227.49)"></path><path class="cls-3" d="M304,411.67s32.74,4.91,46.66-9c0,0-15.56,2.45-27,0s-16.37-2.46-16.37-2.46l-9.82,8.19S299.12,410.85,304,411.67Z" transform="translate(-194.77 -227.49)"></path><path class="cls-3" d="M298.3,410.85s17.2,0,29.48-9,13.91-8.19,25.37-6.55c0,0-7.37-9-22.92-5.73S313.86,392,313.86,392l-9,4.91S290.94,405.12,298.3,410.85Z" transform="translate(-194.77 -227.49)"></path><path class="cls-3" d="M297.49,408.4s27-9,36-25.38,17.19-18.83,22.1-18.83S338,359.6,321,373.36,309,380.57,309,380.57l-14.74,22.1S293.39,409.22,297.49,408.4Z" transform="translate(-194.77 -227.49)"></path><path class="cls-2" d="M296.67,405.12s19.64-2.45,23.74-18-7.37-23.73,11.46-41.74c0,0-21.29,9-31.11,25.37s-6.55,17.19-6.55,17.19,1.64,9.83.82,12.28S296.67,405.12,296.67,405.12Z" transform="translate(-194.77 -227.49)"></path><path class="cls-1" d="M294.37,407.17s22.11-10,0-43.79C272.27,397.13,294.37,407.17,294.37,407.17Z" transform="translate(-194.77 -227.49)"></path><path class="cls-4" d="M200.81,377.89a95.84,95.84,0,0,1,180.75-44.45A95.85,95.85,0,1,0,210,419,95.46,95.46,0,0,1,200.81,377.89Z" transform="translate(-194.77 -227.49)"></path><path class="cls-4" d="M436,277.42c-22.92,49.12-39.29,40.11-49.93,29.47a107.22,107.22,0,0,0-23.74-18c-9.83-5.73-28.65-11.46-43.39-12.28l-1.09.66a99.06,99.06,0,1,1-122.11,96.35,101,101,0,0,1,.63-11.2c-3.75,23.84-4.67,73.41,42.35,106.57,63.85,45,148.17,1.63,170.27-62.22,0,0,16.37,40.11-41.75,107.24,0,0,64.67-33.56,68.76-81.86,0,0,2.46-19.65-6.55-49.94s9-84.31,22.11-108.87,22.1-36,32.74-45.84C484.29,227.49,458.91,228.3,436,277.42Z" transform="translate(-194.77 -227.49)"></path><ellipse class="cls-4" cx="205.2" cy="49.94" rx="18.42" ry="22.51"></ellipse><path class="cls-5" d="M264.25,443.62l-11.13,11.31-2.39-1.13,13.9-13.52,1.93.92L265,460.51l-2.38-1.12Z" transform="translate(-194.77 -227.49)"></path><path class="cls-5" d="M255.1,434.57l2,1.37-10.33,14.93-2-1.37Z" transform="translate(-194.77 -227.49)"></path><path class="cls-5" d="M242.48,434.6a11.44,11.44,0,0,1,1.78,4.69,4.16,4.16,0,0,1-1.17,3.29,4.39,4.39,0,0,1-3.7,1.37,6.9,6.9,0,0,1-4.23-2.08,7.59,7.59,0,0,1-1.94-2.85,5.56,5.56,0,0,1-.29-3,5.17,5.17,0,0,1,1.33-2.58L236,435.1a3.29,3.29,0,0,0-1,2.61,4.36,4.36,0,0,0,1.51,2.74,4.49,4.49,0,0,0,2.56,1.36,2.61,2.61,0,0,0,2.22-.88,2.33,2.33,0,0,0,.6-2,9.24,9.24,0,0,0-1.37-3.25,15.17,15.17,0,0,1-1.62-3.48,5.56,5.56,0,0,1-.16-2.62,4.6,4.6,0,0,1,1.21-2.17,4.22,4.22,0,0,1,3.7-1.36,7.41,7.41,0,0,1,4.28,2.24,8.62,8.62,0,0,1,2.06,3,5.85,5.85,0,0,1,.47,3.16,4.7,4.7,0,0,1-1.31,2.66l-1.76-1.67a3.13,3.13,0,0,0,.91-2.73,5.27,5.27,0,0,0-1.72-3,4.89,4.89,0,0,0-2.66-1.46,2.5,2.5,0,0,0-2.19.83,2.46,2.46,0,0,0-.74,2.14A11,11,0,0,0,242.48,434.6Z" transform="translate(-194.77 -227.49)"></path><path class="cls-5" d="M234.12,410.63l1.32,2-7.05,4.55,5,7.77,7-4.56,1.31,2-15.25,9.85-1.31-2,6.56-4.23-5-7.77-6.55,4.24-1.32-2Z" transform="translate(-194.77 -227.49)"></path><path class="cls-5" d="M225.92,405.74l2.2-1-2.21.11-13.18.11-.58-1.95,11.15-7,2-1.11-2.45.32-12.72.79-.69-2.33,18.67-.88.63,2.11-11.62,7.37-1.25.67,1.41-.11H231l.62,2.12-16.16,9.39-.68-2.32Z" transform="translate(-194.77 -227.49)"></path><path class="cls-5" d="M222.22,377.36l.21,7.68,4.79,1.6.07,2.49L209,382.61l0-2.11,18-7.49.07,2.48Zm-1.77,7-.16-6.23-8.41,3.35Z" transform="translate(-194.77 -227.49)"></path><path class="cls-5" d="M221.3,363.5l-.82,4.23,7.21,1.39-.46,2.39-17.82-3.45,1.15-6a7.27,7.27,0,0,1,2.27-4.41,5,5,0,0,1,4.31-.87,4.94,4.94,0,0,1,2.73,1.47,5.61,5.61,0,0,1,1.36,2.89l8.38-2.77.15,0-.5,2.55Zm-2.74,3.86.7-3.65a4.21,4.21,0,0,0-.36-3,3.09,3.09,0,0,0-2.23-1.51,3.25,3.25,0,0,0-2.73.5,4.3,4.3,0,0,0-1.45,2.7l-.7,3.64Z" transform="translate(-194.77 -227.49)"></path><path class="cls-5" d="M226.7,344l-3,7.34,5.94,2.46,3.54-8.52,1.81.75-4.46,10.75-16.78-6.95,4.41-10.64,1.81.75-3.48,8.41,5.4,2.24,3-7.34Z" transform="translate(-194.77 -227.49)"></path><path class="cls-5" d="M231.61,335.63l.66,3.14,5.09,3.44-1.36,2-15-10.16,1.35-2,7.44,5-2.88-11.77,1.63-2.42,2.61,10.46,12.76-.78-1.62,2.4Z" transform="translate(-194.77 -227.49)"></path><path class="cls-5" d="M255,322.07l-1.77,1.66-5.74-6.11-6.74,6.32,5.74,6.12-1.76,1.65L232.3,318.48l1.77-1.66,5.34,5.69,6.74-6.32-5.35-5.69,1.78-1.67Z" transform="translate(-194.77 -227.49)"></path><path class="cls-5" d="M264.34,310.88l-6.67,3.81.86,5-2.17,1.24-2.92-19.24,1.84-1.05,15.09,12.29-2.16,1.23Zm-7,1.75,5.42-3.09-6.93-5.83Z" transform="translate(-194.77 -227.49)"></path><path class="cls-5" d="M291.28,307.61l-2.38.49-1.67-8.23-9.05,1.84,1.66,8.22-2.37.48-3.6-17.8,2.37-.48,1.55,7.66,9-1.84-1.54-7.65,2.38-.48Z" transform="translate(-194.77 -227.49)"></path><path class="cls-5" d="M305.2,299.37l-7.94-.19-.16,6.43,9.23.22-.05,2-11.64-.28.43-18.15,11.52.28,0,1.95-9.1-.21-.14,5.84,7.95.19Z" transform="translate(-194.77 -227.49)"></path><path class="cls-5" d="M316.63,302.55l-4.19-1-1.71,7.15-2.36-.57,4.23-17.65,5.9,1.41a7.29,7.29,0,0,1,4.31,2.46,5,5,0,0,1,.67,4.35,4.84,4.84,0,0,1-1.59,2.66,5.52,5.52,0,0,1-2.94,1.23l2.39,8.49,0,.15-2.52-.6Zm-3.73-2.91,3.61.87a4.17,4.17,0,0,0,3-.24,3.11,3.11,0,0,0,1.61-2.15,3.33,3.33,0,0,0-.38-2.76,4.31,4.31,0,0,0-2.64-1.56l-3.6-.87Z" transform="translate(-194.77 -227.49)"></path><path class="cls-5" d="M322.79,311.94l8-16.27,5.37,2.66a7,7,0,0,1,3.48,3.08,4.4,4.4,0,0,1-.25,3.91,3.63,3.63,0,0,1-1.66,1.69,4.71,4.71,0,0,1-2.45.48,4.34,4.34,0,0,1,1.41,2.44,4.51,4.51,0,0,1-.45,2.85,4.83,4.83,0,0,1-3.13,2.73,6.65,6.65,0,0,1-4.68-.75Zm5.93-6.54-2.9,5.86L329.4,313a3.85,3.85,0,0,0,2.77.4,3,3,0,0,0,1.93-1.7c1-2,.38-3.48-1.77-4.54Zm.85-1.72,3.27,1.62a3.86,3.86,0,0,0,2.63.42,2.64,2.64,0,0,0,1.8-1.49,2.59,2.59,0,0,0,.17-2.35,4.29,4.29,0,0,0-2.1-1.8l-3.2-1.58Z" transform="translate(-194.77 -227.49)"></path><path class="cls-5" d="M347,321.71l-5.92-4.89-4.36,2.57-1.92-1.58,17-9.57,1.63,1.35-6.13,18.47-1.92-1.58Zm-4.11-5.94,4.81,4,3-8.54Z" transform="translate(-194.77 -227.49)"></path><path class="cls-5" d="M351.11,330.12l5.37,6.83-1.54,1.21-6.87-8.74,14.28-11.22,1.5,1.91Z" transform="translate(-194.77 -227.49)"></path><path class="cls-5" d="M366.29,344.76l-6.64,2.55-.87-2.26,17-6.5,2.42,6.31a6.88,6.88,0,0,1,.26,4.95,5.16,5.16,0,0,1-3.15,3,5.08,5.08,0,0,1-4.39-.1,7.16,7.16,0,0,1-3.05-3.95Zm1.82-.7,1.56,4.06a4.4,4.4,0,0,0,1.91,2.45,3.31,3.31,0,0,0,2.81,0,3.37,3.37,0,0,0,2.06-1.89,4.13,4.13,0,0,0-.07-3l-1.61-4.18Z" transform="translate(-194.77 -227.49)"></path><path class="cls-5" d="M372.16,365.07l-.64-4.26-7.26,1.08-.36-2.4,18-2.67.89,6a7.25,7.25,0,0,1-.68,4.92,5,5,0,0,1-3.78,2.24,4.81,4.81,0,0,1-3.06-.48,5.57,5.57,0,0,1-2.24-2.27l-7,5.39-.15,0-.38-2.56Zm1.3-4.54.54,3.67a4.2,4.2,0,0,0,1.34,2.7,3.11,3.11,0,0,0,2.6.69,3.31,3.31,0,0,0,2.41-1.38,4.29,4.29,0,0,0,.47-3l-.54-3.66Z" transform="translate(-194.77 -227.49)"></path><path class="cls-5" d="M373.2,389a11.12,11.12,0,0,1-4.58-1.26,6.94,6.94,0,0,1-2.83-2.8,7.21,7.21,0,0,1-.74-3.94,6.85,6.85,0,0,1,4.55-6.11,10.83,10.83,0,0,1,4.58-.6l1.3.11a11,11,0,0,1,4.54,1.27,6.93,6.93,0,0,1,2.87,2.83,7.6,7.6,0,0,1-.59,7.71,6.83,6.83,0,0,1-3.25,2.34,11.09,11.09,0,0,1-4.71.54Zm1.35-2.3a8.11,8.11,0,0,0,5-.92,4.33,4.33,0,0,0,2-3.52,4.27,4.27,0,0,0-1.44-3.73,7.86,7.86,0,0,0-4.68-1.72l-1.33-.11a8.07,8.07,0,0,0-5,.95,4.68,4.68,0,0,0-.67,7.25,8,8,0,0,0,4.73,1.69Z" transform="translate(-194.77 -227.49)"></path><path class="cls-5" d="M364.1,391l17.31,5.49-1.56,4.93a8.47,8.47,0,0,1-2.28,3.71,7.14,7.14,0,0,1-3.7,1.81,9.56,9.56,0,0,1-4.54-.38l-1.1-.35a9.54,9.54,0,0,1-4-2.31,7.08,7.08,0,0,1-2-3.62,9,9,0,0,1,.3-4.45Zm14.71,7.2-13.57-4.31-.77,2.43a5.56,5.56,0,0,0,.33,4.66,7,7,0,0,0,4.2,3l1,.32a7.24,7.24,0,0,0,5,.06,5.26,5.26,0,0,0,2.92-3.44Z" transform="translate(-194.77 -227.49)"></path><path class="cls-5" d="M368.09,426.35l-10.66-6.22a5.75,5.75,0,0,1-2.81-3.52,6.59,6.59,0,0,1,.63-4.72l.3-.56a6.89,6.89,0,0,1,3.81-3.34,5.72,5.72,0,0,1,4.73.67l10.69,6.23L373.57,417,363,410.76a4.09,4.09,0,0,0-3.19-.59,5,5,0,0,0-3.16,5.4,4.07,4.07,0,0,0,2.09,2.48l10.63,6.2Z" transform="translate(-194.77 -227.49)"></path><path class="cls-5" d="M345.76,433.34a6.66,6.66,0,0,1-1.82-4.59,7.12,7.12,0,0,1,2.1-4.6,6.51,6.51,0,0,1,5.22-2.27,9.3,9.3,0,0,1,5.87,2.74l1.29,1.18a10.37,10.37,0,0,1,2.65,3.69,6.79,6.79,0,0,1,.42,3.9,7.25,7.25,0,0,1-1.86,3.55,6.27,6.27,0,0,1-9,.84l1.64-1.79a5.16,5.16,0,0,0,3.25,1.13,4.19,4.19,0,0,0,2.7-1.5,4.34,4.34,0,0,0,1.21-3.83,7.69,7.69,0,0,0-2.66-4.23l-1.3-1.19a7.86,7.86,0,0,0-4.3-2.27,4,4,0,0,0-3.65,1.38,4.73,4.73,0,0,0-1.43,2.89,5,5,0,0,0,1.35,3.18Z" transform="translate(-194.77 -227.49)"></path><path class="cls-5" d="M339,451.22l4.79-3.43-9.43-13.17,2-1.4,9.42,13.17,4.78-3.42,1.14,1.59-11.52,8.25Z" transform="translate(-194.77 -227.49)"></path><path class="cls-5" d="M326.4,448.35a11.38,11.38,0,0,1,5,.14,4.13,4.13,0,0,1,2.59,2.33,4.38,4.38,0,0,1-.13,3.94,6.87,6.87,0,0,1-3.54,3.12,7.58,7.58,0,0,1-3.37.71,5.51,5.51,0,0,1-2.91-.88,5.1,5.1,0,0,1-1.87-2.21l2.22-1a3.32,3.32,0,0,0,2,1.94,4.29,4.29,0,0,0,3.11-.36,4.4,4.4,0,0,0,2.23-1.85,2.61,2.61,0,0,0,0-2.39,2.32,2.32,0,0,0-1.64-1.32,9.41,9.41,0,0,0-3.53,0,14.59,14.59,0,0,1-3.83.18,5.48,5.48,0,0,1-2.48-.85,4.53,4.53,0,0,1-1.55-1.94,4.25,4.25,0,0,1,.14-3.94,7.48,7.48,0,0,1,3.7-3.11,8.6,8.6,0,0,1,3.51-.78,5.91,5.91,0,0,1,3.11.76,4.77,4.77,0,0,1,2,2.22l-2.21,1a3.13,3.13,0,0,0-2.19-1.87,5.17,5.17,0,0,0-3.38.47,4.78,4.78,0,0,0-2.36,1.9,2.71,2.71,0,0,0,1.63,3.84A10.94,10.94,0,0,0,326.4,448.35Z" transform="translate(-194.77 -227.49)"></path><path class="cls-5" d="M537.56,383.86a21.67,21.67,0,0,1-4.69.57c-1.43,0-2.24-.52-2.45-1.56q-1.87-6.47-5.63-25.29t-7.56-34.15q-3.81-15.33-7.35-20.33,4.38-2.72,7.29-2.71,5.43,0,7.56,6.15t7,33.57q.32,2.5,3.08,15.7t3.39,16.63q6.88-15.22,15.33-40.61t8.44-33q10.22,1.88,10.22,7.72,0,4.27-5.89,18.09t-14.18,31.8q-8.29,18-11.42,26.54A18.4,18.4,0,0,1,537.56,383.86Z" transform="translate(-194.77 -227.49)"></path><path class="cls-5" d="M602.05,306.69a37.47,37.47,0,0,1,.32,5.9q0,4.17-3.44,27.73t-3.45,33q0,9.44,1.46,12.87-6.47-2.29-9.12-6.2a16,16,0,0,1-2.66-9.18q0-5.26,2.19-21.42,3.85-26.81,3.86-41.51,0-3.12-.42-8.55,7.92.42,9.91,3.76A11.72,11.72,0,0,1,602.05,306.69Z" transform="translate(-194.77 -227.49)"></path><path class="cls-5" d="M639.8,331.25a85.92,85.92,0,0,0,6.93,5.58q3.81,2.76,7.62,5.58a81,81,0,0,1,6.93,5.73q7.1,6.57,7.09,14.5A20.93,20.93,0,0,1,660.92,379q-7.45,6.57-19.66,6.57t-18.77-5.53q-6.57-5.52-6.57-13.14a12.64,12.64,0,0,1,3.34-9.12,11.41,11.41,0,0,1,8.65-3.49,9.81,9.81,0,0,1,2.82.41,18.68,18.68,0,0,0-3.23,10.48,13.18,13.18,0,0,0,3.85,9.54c2.58,2.65,6.43,4,11.58,4a15.54,15.54,0,0,0,9.85-3.39,11.31,11.31,0,0,0,4.33-9.44,13.61,13.61,0,0,0-2.61-7.77,28.94,28.94,0,0,0-6.46-6.72q-3.85-2.92-8.45-6.52t-8.44-6.93a28.81,28.81,0,0,1-6.47-8.14,20.63,20.63,0,0,1-2.61-10q0-9.9,6.73-15.69t19.45-5.79q10.32,0,16.21,5.48t5.89,11.36a14.43,14.43,0,0,1-3.18,9.65,10.8,10.8,0,0,1-8.7,3.75,15.71,15.71,0,0,1-3.65-.42q5.1-5.42,5.11-11.47t-3.76-9.12a14.55,14.55,0,0,0-9.54-3.08,15,15,0,0,0-9.85,3.34q-4.06,3.34-4.07,10.11T639.8,331.25Z" transform="translate(-194.77 -227.49)"></path><path class="cls-5" d="M727.08,346.06,712,345.85q-4.8,0-9.49.31-2.61,18.68-2.61,27.64t1.46,12.4q-6.47-2.29-9.12-6.2a16,16,0,0,1-2.66-9.18,107.44,107.44,0,0,1,1.09-13.55q1.1-8.29,1.31-9.54a52.17,52.17,0,0,0-5.32,1.46,35.66,35.66,0,0,1-.21-4q0-5.94,6.88-7a241.83,241.83,0,0,0,2.3-30.35q0-3.12-.42-8.55,7.92.42,9.91,3.76a12,12,0,0,1,1.35,3.59,37.81,37.81,0,0,1,.31,5.9,111.8,111.8,0,0,1-1.51,14.28q-1.51,10.13-1.61,11.06,18.55,0,33.36-.32a232.91,232.91,0,0,0,2.3-29.72q0-3.12-.42-8.55,7.92.42,9.91,3.76a12,12,0,0,1,1.35,3.59,37.47,37.47,0,0,1,.32,5.9q0,4.17-3.45,27.73t-3.44,33q0,9.44,1.46,12.87-6.46-2.29-9.12-6.2a16,16,0,0,1-2.66-9.18q0-5.26,2.19-21.42l1.46-10.64Q735.32,346.07,727.08,346.06Z" transform="translate(-194.77 -227.49)"></path><path class="cls-5" d="M824.78,383.86a21.18,21.18,0,0,1-4.69.57q-2.19,0-2.19-1.56-1.47-6.15-3.91-22.16t-3.49-21.95q-2.93,6.67-7.51,16.89Q792.76,378.29,791,383a14.41,14.41,0,0,1-3,.89,21.18,21.18,0,0,1-4.69.57q-2.19,0-2.19-1.56-1.56-6.57-4.38-25.34t-5.84-34.1q-3-15.33-6.25-20.33,4.38-2.72,7.29-2.71,5.64,0,7.51,6.62t5.42,35.92q.21,1.56,2,13.56t2.29,15.95q11.05-29,18.14-51.41-2.91-13.23-5.84-17.93c2.92-1.81,5.36-2.71,7.3-2.71q5.64,0,7.51,6.62t5.42,35.92q.21,1.56,2,13.56t2.3,15.95q22.94-61,23.67-73.62a19.38,19.38,0,0,1,7.09,3q2.61,1.93,2.61,4.33,0,6.78-21.38,53.91Q829.47,378.5,827.81,383A14.41,14.41,0,0,1,824.78,383.86Z" transform="translate(-194.77 -227.49)"></path><path class="cls-5" d="M859.4,378.38q0-2,5.74-14.75t13.29-29.3Q886,317.8,888.7,310.71l2.3-5.94a29.75,29.75,0,0,0-3.65-4.49A17.09,17.09,0,0,1,893.5,299q6.57,0,10.22,8.34,2.29,5.33,6.15,23.78a8.06,8.06,0,0,1,.31,1.35q.21,1.15,2.14,10.59T915,355.6c.48,2,1.32,5.2,2.5,9.44q2.82,10.74,7.09,16.68-4.91,2.92-8.08,2.92a5.29,5.29,0,0,1-4.59-1.93,19.91,19.91,0,0,1-2.6-5.94q-1.2-4-5.06-22.37c-1.53,2.36-4.59,3.62-9.18,3.75l-18.56.73a241.51,241.51,0,0,0-8.65,27.53Q859.41,382.87,859.4,378.38Zm35.25-64.33q-12,28.45-15.33,37h24.19Q898.61,327.19,894.65,314.05Z" transform="translate(-194.77 -227.49)"></path><path class="cls-5" d="M939.07,382.61q-2.3-2.14-2.3-7T940.26,346q3.5-24.76,3.5-35.35t-1.46-13.82q8.34.84,10.84,8.24A35,35,0,0,1,970,300.91q9.18,0,14.92,5.89a19,19,0,0,1,5.73,13.66A24.58,24.58,0,0,1,986,334.85q-4.63,6.61-14.13,9.75l1.46,4.48a102,102,0,0,0,10.85,22.58q7.08,11.2,11.57,15.27a15,15,0,0,1-6.31,1.05q-4.12,0-8.55-3.65A34.92,34.92,0,0,1,972.85,374a162.79,162.79,0,0,1-11.26-27.32c-2.5.14-4.42.21-5.74.21l-.31-3.75q11.69-.42,18.09-6.78a20.42,20.42,0,0,0,6.41-15,12.34,12.34,0,0,0-3.7-9.18q-3.69-3.65-10-3.65a35.86,35.86,0,0,0-12.3,2.19q0,4.07-3,26.38a291.36,291.36,0,0,0-3,37.23,65.14,65.14,0,0,0,.62,10.22c-1.67.13-2.57.2-2.71.2Q941.36,384.74,939.07,382.61Z" transform="translate(-194.77 -227.49)"></path><path class="cls-5" d="M1039.27,347.52l-9.28-.11c-3.41,0-6,.07-7.82.21a240.49,240.49,0,0,0-1.67,26.59q24.09,0,34.83-3.13-.74,6.06-4.12,9.39a11.64,11.64,0,0,1-8.5,3.34q-1.45,0-9-.68t-14.65-.68a74.84,74.84,0,0,0-14.18,1.36,10.84,10.84,0,0,1,4-5.95c-.07-.41-.1-1.73-.1-4s1-10.46,3-24.71a39.49,39.49,0,0,0-5,1.56,28.49,28.49,0,0,1-.21-3q0-6.36,6.46-7.93a254.78,254.78,0,0,0,2.61-27.94,5.76,5.76,0,0,1-3.81-1.36c-.72-.76-1.09-2.14-1.09-4.12a15.49,15.49,0,0,1,.83-5.26,174.51,174.51,0,0,0,23.36,1.46,122.62,122.62,0,0,0,24.09-2.3,12,12,0,0,1-2.87,6.41c-1.49,1.64-3.87,2.8-7.14,3.5a59.64,59.64,0,0,1-8.14,1.25q-5.83.53-14.38.52-.1,3.75-3.24,27.42,6.46.21,9.39.21,9.17,0,13-3a22.69,22.69,0,0,1,.21,2.71Q1045.84,347.52,1039.27,347.52Z" transform="translate(-194.77 -227.49)"></path><path class="cls-5" d="M1089.84,306.69a37.47,37.47,0,0,1,.32,5.9q0,4.17-2.61,22l-1.36,9.38q32-26.18,39.63-44.31a23.74,23.74,0,0,1,2.4,10.79q0,6-6.16,12.46t-18.14,15q5.83,18.24,11.58,28.1a105.71,105.71,0,0,0,14.7,19.34,12.5,12.5,0,0,1-5.53,1,14.25,14.25,0,0,1-7.45-2.5,28.73,28.73,0,0,1-7.1-6.26,58.32,58.32,0,0,1-6.2-9.69,180.38,180.38,0,0,1-9.91-23q-.51.42-3.8,2.66t-5,3.49a191.81,191.81,0,0,0-2,23.41q0,8.29,1.46,11.73-6.46-2.29-9.12-6.2a16,16,0,0,1-2.66-9.18q0-5.26,2.19-21.42,3.85-26.81,3.86-41.51,0-3.12-.42-8.55,7.92.42,9.91,3.76A11.72,11.72,0,0,1,1089.84,306.69Z" transform="translate(-194.77 -227.49)"></path><path class="cls-5" d="M1183.38,346.06l-15.12-.21q-4.8,0-9.49.31-2.61,18.68-2.61,27.64t1.46,12.4q-6.46-2.29-9.12-6.2a15.89,15.89,0,0,1-2.66-9.18,107.44,107.44,0,0,1,1.09-13.55q1.1-8.29,1.31-9.54a52.17,52.17,0,0,0-5.32,1.46,35.66,35.66,0,0,1-.21-4q0-5.94,6.88-7a241.83,241.83,0,0,0,2.3-30.35q0-3.12-.42-8.55,7.92.42,9.91,3.76a12,12,0,0,1,1.35,3.59,37.81,37.81,0,0,1,.31,5.9,111.8,111.8,0,0,1-1.51,14.28q-1.52,10.13-1.61,11.06,18.55,0,33.36-.32a232.91,232.91,0,0,0,2.3-29.72q0-3.12-.42-8.55,7.92.42,9.91,3.76a12,12,0,0,1,1.35,3.59,37.81,37.81,0,0,1,.31,5.9q0,4.17-3.44,27.73t-3.44,33q0,9.44,1.46,12.87-6.46-2.29-9.12-6.2a16,16,0,0,1-2.66-9.18q0-5.26,2.19-21.42l1.46-10.64Q1191.62,346.07,1183.38,346.06Z" transform="translate(-194.77 -227.49)"></path><path class="cls-5" d="M1215.28,378.38q0-2,5.74-14.75t13.29-29.3q7.56-16.53,10.27-23.62l2.3-5.94a29.15,29.15,0,0,0-3.65-4.49,17.09,17.09,0,0,1,6.15-1.25q6.57,0,10.22,8.34,2.3,5.33,6.15,23.78a8.75,8.75,0,0,1,.32,1.35c.13.77.85,4.3,2.13,10.59s2.17,10.46,2.66,12.51,1.32,5.2,2.5,9.44q2.82,10.74,7.1,16.68-4.9,2.92-8.09,2.92t-4.58-1.93a20.15,20.15,0,0,1-2.61-5.94q-1.2-4-5.06-22.37c-1.53,2.36-4.59,3.62-9.17,3.75l-18.57.73a243.55,243.55,0,0,0-8.65,27.53Q1215.28,382.87,1215.28,378.38Zm35.25-64.33q-12,28.45-15.33,37h24.19Q1254.48,327.19,1250.53,314.05Z" transform="translate(-194.77 -227.49)"></path><path class="cls-5" d="M560.47,469.36a16.06,16.06,0,0,1-3.57.43c-1.11,0-1.66-.39-1.66-1.19q-1.12-4.67-3-16.85t-2.66-16.7q-2.22,5.08-5.71,12.85-7.77,17.22-9.12,20.78a10.72,10.72,0,0,1-2.3.68,16.06,16.06,0,0,1-3.57.43c-1.11,0-1.66-.39-1.66-1.19q-1.2-5-3.33-19.27t-4.45-25.94q-2.3-11.65-4.75-15.46a11.23,11.23,0,0,1,5.55-2.06c2.85,0,4.76,1.67,5.71,5s2.32,12.47,4.12,27.33q.17,1.18,1.51,10.31t1.74,12.13q8.42-22.05,13.81-39.1-2.24-10.06-4.45-13.64a11.22,11.22,0,0,1,5.56-2.06c2.85,0,4.75,1.67,5.71,5s2.32,12.47,4.12,27.33q.17,1.18,1.51,10.31t1.74,12.13q17.45-46.4,18-56a14.59,14.59,0,0,1,5.39,2.26,4.12,4.12,0,0,1,2,3.29q0,5.16-16.26,41-6.42,14-7.69,17.45A10.94,10.94,0,0,1,560.47,469.36Z" transform="translate(-194.77 -227.49)"></path><path class="cls-5" d="M620.51,441.72l-7.06-.08q-3.88,0-6,.16A183.8,183.8,0,0,0,606.23,462q18.33,0,26.5-2.38a11.66,11.66,0,0,1-3.14,7.14,8.84,8.84,0,0,1-6.46,2.54q-1.11,0-6.86-.52c-3.84-.34-7.55-.51-11.15-.51a57,57,0,0,0-10.78,1,8.15,8.15,0,0,1,3-4.52c-.05-.32-.08-1.32-.08-3s.77-7.95,2.3-18.79a30.7,30.7,0,0,0-3.81,1.18,22.89,22.89,0,0,1-.15-2.29c0-3.23,1.63-5.24,4.91-6a194.3,194.3,0,0,0,2-21.26,4.39,4.39,0,0,1-2.9-1,4.57,4.57,0,0,1-.83-3.13,11.76,11.76,0,0,1,.63-4,132.41,132.41,0,0,0,17.77,1.11,93.51,93.51,0,0,0,18.32-1.74,9.17,9.17,0,0,1-2.18,4.88,10,10,0,0,1-5.43,2.65,43.69,43.69,0,0,1-6.19.95q-4.44.41-11,.4-.07,2.85-2.45,20.86,4.91.17,7.13.16,7,0,9.92-2.3a18.57,18.57,0,0,1,.16,2.06Q625.51,441.72,620.51,441.72Z" transform="translate(-194.77 -227.49)"></path><path class="cls-5" d="M714.66,469.36a16.06,16.06,0,0,1-3.57.43c-1.11,0-1.67-.39-1.67-1.19q-1.11-4.67-3-16.85t-2.66-16.7q-2.22,5.08-5.71,12.85-7.77,17.22-9.12,20.78a10.94,10.94,0,0,1-2.3.68,16.06,16.06,0,0,1-3.57.43c-1.11,0-1.67-.39-1.67-1.19q-1.18-5-3.33-19.27t-4.44-25.94q-2.29-11.65-4.76-15.46a11.23,11.23,0,0,1,5.55-2.06c2.86,0,4.76,1.67,5.71,5s2.33,12.47,4.13,27.33c.1.79.61,4.23,1.51,10.31s1.48,10.12,1.74,12.13q8.4-22.05,13.8-39.1-2.22-10.06-4.44-13.64a11.23,11.23,0,0,1,5.55-2.06c2.86,0,4.76,1.67,5.71,5s2.33,12.47,4.13,27.33q.15,1.18,1.5,10.31t1.75,12.13q17.44-46.4,18-56a14.64,14.64,0,0,1,5.4,2.26,4.12,4.12,0,0,1,2,3.29q0,5.16-16.26,41-6.42,14-7.69,17.45A11.16,11.16,0,0,1,714.66,469.36Z" transform="translate(-194.77 -227.49)"></path><path class="cls-5" d="M763.12,410.67a28.72,28.72,0,0,1,.23,4.48q0,3.17-2.61,21.09t-2.62,25.11c0,4.78.37,8,1.11,9.79q-4.92-1.74-6.94-4.72a12.09,12.09,0,0,1-2-7,153.74,153.74,0,0,1,1.66-16.3q2.94-20.37,2.94-31.56,0-2.38-.32-6.51,6,.33,7.54,2.86A9.18,9.18,0,0,1,763.12,410.67Z" transform="translate(-194.77 -227.49)"></path><path class="cls-5" d="M779,463.92a15.54,15.54,0,0,1-.71-5.31q0-3.41,2.3-20.15a207.71,207.71,0,0,0,2.3-26.88q0-2.38-.32-6.51,6,.33,7.53,2.86a9,9,0,0,1,1,2.74,26.68,26.68,0,0,1,.23,4.12q0,2.82-2.57,21.18t-2.66,26.13a8.8,8.8,0,0,1,1.43-.08q17.13,0,25.53-2.38a11.6,11.6,0,0,1-3.13,7.14,8.84,8.84,0,0,1-6.46,2.54q-1.11,0-6.86-.52c-3.84-.34-7.55-.51-11.15-.51a57,57,0,0,0-10.78,1A9,9,0,0,1,779,463.92Z" transform="translate(-194.77 -227.49)"></path><path class="cls-5" d="M822.36,463.92a15.79,15.79,0,0,1-.71-5.31q0-3.41,2.3-20.15a207.71,207.71,0,0,0,2.3-26.88q0-2.38-.32-6.51,6,.33,7.54,2.86a8.92,8.92,0,0,1,1,2.74,25.17,25.17,0,0,1,.24,4.12q0,2.82-2.58,21.18T829.5,462.1a8.89,8.89,0,0,1,1.43-.08q17.13,0,25.54-2.38a11.65,11.65,0,0,1-3.13,7.14,8.87,8.87,0,0,1-6.47,2.54q-1.11,0-6.86-.52c-3.83-.34-7.55-.51-11.14-.51a57.14,57.14,0,0,0-10.79,1A9.08,9.08,0,0,1,822.36,463.92Z" transform="translate(-194.77 -227.49)"></path><path class="cls-5" d="M921.27,440.61l-11.5-.16c-2.44,0-4.84.08-7.22.24a168.74,168.74,0,0,0-2,21q0,6.82,1.11,9.44-4.92-1.74-6.94-4.72a12.1,12.1,0,0,1-2-7,81.36,81.36,0,0,1,.84-10.31q.83-6.3,1-7.25a40.52,40.52,0,0,0-4,1.11,29.07,29.07,0,0,1-.15-3q0-4.52,5.23-5.31a184.65,184.65,0,0,0,1.75-23.08q0-2.38-.32-6.51,6,.33,7.53,2.86a8.67,8.67,0,0,1,1,2.74,28.38,28.38,0,0,1,.24,4.48A84.9,84.9,0,0,1,904.65,426q-1.15,7.69-1.23,8.41,14.12,0,25.38-.24a176,176,0,0,0,1.75-22.6q0-2.38-.32-6.51,6,.33,7.54,2.86a9.18,9.18,0,0,1,1,2.74,28.38,28.38,0,0,1,.24,4.48q0,3.17-2.62,21.09t-2.62,25.11c0,4.78.37,8,1.11,9.79Q930,469.4,928,466.42a12.09,12.09,0,0,1-2-7,153.74,153.74,0,0,1,1.66-16.3l1.11-8.09Q927.53,440.62,921.27,440.61Z" transform="translate(-194.77 -227.49)"></path><path class="cls-5" d="M977.66,441.72l-7.06-.08q-3.89,0-6,.16A183.8,183.8,0,0,0,963.38,462q18.33,0,26.5-2.38a11.66,11.66,0,0,1-3.14,7.14,8.84,8.84,0,0,1-6.46,2.54q-1.11,0-6.86-.52c-3.84-.34-7.55-.51-11.15-.51a57,57,0,0,0-10.78,1,8.15,8.15,0,0,1,3-4.52c0-.32-.08-1.32-.08-3s.77-7.95,2.3-18.79a30.7,30.7,0,0,0-3.81,1.18,22.89,22.89,0,0,1-.15-2.29c0-3.23,1.63-5.24,4.91-6a194.3,194.3,0,0,0,2-21.26,4.39,4.39,0,0,1-2.9-1,4.57,4.57,0,0,1-.83-3.13,11.76,11.76,0,0,1,.63-4,132.41,132.41,0,0,0,17.77,1.11,93.51,93.51,0,0,0,18.32-1.74,9.17,9.17,0,0,1-2.18,4.88,10,10,0,0,1-5.43,2.65,43.69,43.69,0,0,1-6.19.95q-4.44.41-10.94.4-.09,2.85-2.46,20.86,4.9.17,7.13.16,7,0,9.92-2.3a18.57,18.57,0,0,1,.16,2.06Q982.66,441.72,977.66,441.72Z" transform="translate(-194.77 -227.49)"></path><path class="cls-5" d="M995.59,465.19q0-1.5,4.36-11.22t10.11-22.29q5.75-12.57,7.81-18l1.75-4.52a22,22,0,0,0-2.78-3.41,12.88,12.88,0,0,1,4.68-1q5,0,7.77,6.35,1.76,4.05,4.68,18.08a4.92,4.92,0,0,1,.24,1c.11.59.65,3.27,1.63,8.06s1.65,7.95,2,9.51,1,4,1.9,7.18q2.15,8.18,5.4,12.69-3.73,2.22-6.15,2.22a4,4,0,0,1-3.49-1.46,15.57,15.57,0,0,1-2-4.53q-.91-3-3.85-17-1.74,2.7-7,2.86l-14.12.55A184,184,0,0,0,1002,471.3Q995.59,468.6,995.59,465.19Zm26.8-48.93q-9.12,21.64-11.65,28.15h18.4Q1025.41,426.26,1022.39,416.26Z" transform="translate(-194.77 -227.49)"></path><path class="cls-5" d="M1055.86,463.92a15.79,15.79,0,0,1-.71-5.31q0-3.41,2.3-20.15a207.71,207.71,0,0,0,2.3-26.88q0-2.38-.32-6.51,6,.33,7.54,2.86a8.92,8.92,0,0,1,1,2.74,25.17,25.17,0,0,1,.24,4.12q0,2.82-2.58,21.18T1063,462.1a8.89,8.89,0,0,1,1.43-.08q17.13,0,25.54-2.38a11.65,11.65,0,0,1-3.13,7.14,8.87,8.87,0,0,1-6.47,2.54q-1.11,0-6.86-.52c-3.83-.34-7.55-.51-11.14-.51a57.14,57.14,0,0,0-10.79,1A9.08,9.08,0,0,1,1055.86,463.92Z" transform="translate(-194.77 -227.49)"></path><path class="cls-5" d="M1141.44,446.24a152.39,152.39,0,0,0-1.27,16.5q0,5.79,1.12,8.4-5.32-1.11-7.3-4.2c-1.32-2.06-2-4.89-2-8.49q0-2.85,1-12.45-8.18-29.5-14.52-38.94a7,7,0,0,1,4.72-2.07,9.13,9.13,0,0,1,3.85.68,8.29,8.29,0,0,1,2.77,2.3,16.39,16.39,0,0,1,2.54,5.43q2.3,7.38,5.39,23.24l1,5.47a182.24,182.24,0,0,0,12.41-22.8q4.8-10.74,5.59-16.7a10.46,10.46,0,0,1,4.76,9Q1161.51,417.29,1141.44,446.24Z" transform="translate(-194.77 -227.49)"></path><path class="cls-5" d="M1209.89,462a25.15,25.15,0,0,1-8.52,6.31,26.3,26.3,0,0,1-11.19,2.38,20.08,20.08,0,0,1-10.71-2.86,20.82,20.82,0,0,1-7.33-7.61,44.15,44.15,0,0,1-5.47-22.13,40.8,40.8,0,0,1,6.1-22.17q6.11-9.72,15.87-12.81c.89.21,1.4.63,1.5,1.27a33,33,0,0,0-9.08,8q-3.52,4.61-4.88,12.45a30.75,30.75,0,0,1,10.39-14.59,24.29,24.29,0,0,1,14.8-5.32q7.73,0,13.16,6.63t5.43,19.15a54.36,54.36,0,0,1-4.36,22.13A35.6,35.6,0,0,1,1209.89,462Zm-2.46-46a11.1,11.1,0,0,0-9.67-5.32,16.19,16.19,0,0,0-11.27,4.84,31.31,31.31,0,0,0-7.85,12.1,42.3,42.3,0,0,0-2.69,14.87q0,10.23,3.76,16.81a12.23,12.23,0,0,0,11.3,6.59,14.39,14.39,0,0,0,10.79-5,31,31,0,0,0,6.94-12.37A52.69,52.69,0,0,0,1211,433Q1211,421.34,1207.43,416Z" transform="translate(-194.77 -227.49)"></path><path class="cls-5" d="M1277.86,410.67a28.38,28.38,0,0,1,.24,4.48q0,3.17-2.62,21.09t-2.61,25.11c0,4.78.37,8,1.11,9.79q-4.92-1.74-6.94-4.72a13.94,13.94,0,0,1-2-8c0-1.64.06-3,.16-4q-6.74,15.78-19.9,15.78-6.58,0-9.92-4.56T1232,451.23a199.64,199.64,0,0,1,1.78-20.3q1.79-14.67,1.79-19.08a20.63,20.63,0,0,0-.87-6.78c3.17,1.17,5.44,2.67,6.82,4.52a12.67,12.67,0,0,1,2.06,7.66,113.91,113.91,0,0,1-1.71,15.7,119.81,119.81,0,0,0-1.7,17.81q0,7,2.22,10a7.4,7.4,0,0,0,6.34,3q4.29,0,8.41-3.65,5.23-4.68,8.41-15.23a82.72,82.72,0,0,0,2.78-13.8c0-.16.06-.24.19-.24s.48.34,1,1,.88,1,1,1l-.72,5a78.2,78.2,0,0,1-4.68,16.58q.32-3.18,1.51-11.35,2.94-20.37,2.94-31.56,0-2.38-.32-6.51,6,.33,7.53,2.86A8.67,8.67,0,0,1,1277.86,410.67Zm-7.21,21.93-.08.31S1270.65,432.81,1270.65,432.6Z" transform="translate(-194.77 -227.49)"></path></svg>